<?xml version="1.0" standalone="no"?>
<!DOCTYPE svg PUBLIC "-//W3C//DTD SVG 1.1//EN" "http://www.w3.org/Graphics/SVG/1.1/DTD/svg11.dtd" >
<svg xmlns="http://www.w3.org/2000/svg" xmlns:xlink="http://www.w3.org/1999/xlink" version="1.1">
<metadata>
Created by FontForge 20160407 at Sun Nov 26 22:06:01 2017
 By Hamtory

</metadata>
<defs>
<font id="IyagiGGC" horiz-adv-x="16" >
  <font-face 
    font-family="Iyagi Gulgeunche"
    font-weight="400"
    font-stretch="normal"
    units-per-em="16"
    panose-1="2 0 0 9 0 0 0 0 0 0"
    ascent="13"
    descent="-3"
    x-height="7"
    cap-height="11"
    bbox="0 -3 16 13"
    underline-thickness="1"
    underline-position="-2"
    unicode-range="U+0020-FFED"
  />
    <missing-glyph />
    <glyph glyph-name="char0x21" unicode="!" horiz-adv-x="8" 
d="M3 3h2v-2h-2v2zM3 10h2v-1h1v-3h-1v-2h-2v2h-1v3h1v1z" />
    <glyph glyph-name="char0x22" unicode="&#x22;" horiz-adv-x="8" 
d="M5 11h2v-3h-1v-1h-1v4zM1 11h2v-3h-1v-1h-1v4z" />
    <glyph glyph-name="char0x23" unicode="#" horiz-adv-x="8" 
d="M3 10v-2h1v2h2v-2h1v-1h-1v-3h1v-1h-1v-2h-2v2h-1v-2h-2v2h-1v1h1v3h-1v1h1v2h2zM3 4h1v3h-1v-3z" />
    <glyph glyph-name="char0x24" unicode="$" horiz-adv-x="8" 
d="M5 12v-2h1v-1h1v-2h-1v1h-1v1h-3v-3h4v-1h1v-3h-1v-1h-1v-2h-2v2h-2v1h-1v2h1v-1h1v-1h3v3h-4v1h-1v3h1v1h2v2h2z" />
    <glyph glyph-name="char0x25" unicode="%" horiz-adv-x="8" 
d="M7 8v-2h-1v-1h-1v-1h-1v-1h-1v-1h-1v-1h-2v1h1v1h1v1h1v1h1v1h1v1h1v1h1zM5 3h2v-2h-2v2zM0 8h2v-2h-2v2z" />
    <glyph glyph-name="char0x26" unicode="&#x26;" horiz-adv-x="8" 
d="M4 5h1v1h-1v-1zM2 2h2v2h-1v1h-1v-3zM3 7h1v2h-1v-2zM1 1v1h-1v3h1v1h1v1h-1v2h1v1h3v-1h1v-2h-1v-1h2v-1h-1v-3h1v-1h-2v1h-1v-1h-3z" />
    <glyph glyph-name="char0x27" unicode="'" horiz-adv-x="8" 
d="M2 11h2v-3h-1v-1h-2v1h1v3z" />
    <glyph glyph-name="char0x28" unicode="(" horiz-adv-x="8" 
d="M6 10v-1h-1v-1h-1v-5h1v-1h1v-1h-2v1h-1v1h-1v5h1v1h1v1h2z" />
    <glyph glyph-name="char0x29" unicode=")" horiz-adv-x="8" 
d="M2 10h2v-1h1v-1h1v-5h-1v-1h-1v-1h-2v1h1v1h1v5h-1v1h-1v1z" />
    <glyph glyph-name="char0x2A" unicode="*" horiz-adv-x="8" 
d="M1 8h2v-1h2v1h2v-1h-1v-1h2v-1h-2v-1h1v-1h-2v1h-2v-1h-2v1h1v1h-2v1h2v1h-1v1z" />
    <glyph glyph-name="char0x2B" unicode="+" horiz-adv-x="8" 
d="M5 9v-3h3v-1h-3v-3h-2v3h-3v1h3v3h2z" />
    <glyph glyph-name="char0x2C" unicode="," horiz-adv-x="8" 
d="M5 2v-3h-1v-1h-2v1h1v3h2z" />
    <glyph glyph-name="char0x2D" unicode="-" horiz-adv-x="8" 
d="M1 6h6v-1h-6v1z" />
    <glyph glyph-name="char0x2E" unicode="." horiz-adv-x="8" 
d="M2 -1v2h2v-2h-2z" />
    <glyph glyph-name="char0x2F" unicode="/" horiz-adv-x="8" 
d="M0 2v2h1v1h1v1h1v1h1v1h1v1h1v1h1v-2h-1v-1h-1v-1h-1v-1h-1v-1h-1v-1h-1v-1h-1z" />
    <glyph glyph-name="char0x30" unicode="0" horiz-adv-x="8" 
d="M5 2v4h-1v-1h-1v-1h-1v-2h3zM5 8v1h-3v-3h1v1h1v1h1zM6 10v-1h1v-7h-1v-1h-5v1h-1v7h1v1h5z" />
    <glyph glyph-name="char0x31" unicode="1" horiz-adv-x="8" 
d="M1 1v1h2v5h-2v1h1v1h1v1h2v-8h2v-1h-6z" />
    <glyph glyph-name="char0x32" unicode="2" horiz-adv-x="8" 
d="M1 10h5v-1h1v-2h-1v-1h-1v-1h-1v-1h-1v-1h-1v-1h3v1h2v-2h-7v2h1v1h1v1h1v1h1v1h1v2h-3v-1h-2v1h1v1z" />
    <glyph glyph-name="char0x33" unicode="3" horiz-adv-x="8" 
d="M1 10h5v-1h1v-3h-1v-1h1v-3h-1v-1h-5v1h-1v1h2v-1h3v3h-3v1h3v3h-3v-1h-2v1h1v1z" />
    <glyph glyph-name="char0x34" unicode="4" horiz-adv-x="8" 
d="M6 5h1v-1h-1v-2h1v-1h-4v1h1v2h-4v2h1v1h1v1h1v1h1v1h2v-5zM4 5v2h-1v-1h-1v-1h2z" />
    <glyph glyph-name="char0x35" unicode="5" horiz-adv-x="8" 
d="M7 10v-1h-5v-3h4v-1h1v-3h-1v-1h-5v1h-1v1h2v-1h3v3h-5v5h7z" />
    <glyph glyph-name="char0x36" unicode="6" horiz-adv-x="8" 
d="M5 10v-1h-2v-1h-1v-2h4v-1h1v-3h-1v-1h-5v1h-1v6h1v1h1v1h3zM5 2v3h-3v-3h3z" />
    <glyph glyph-name="char0x37" unicode="7" horiz-adv-x="8" 
d="M7 10v-3h-1v-1h-1v-1h-1v-4h-2v4h1v1h1v1h1v2h-3v-1h-2v2h7z" />
    <glyph glyph-name="char0x38" unicode="8" horiz-adv-x="8" 
d="M6 9h1v-3h-1v-1h1v-3h-1v-1h-5v1h-1v3h1v1h-1v3h1v1h5v-1zM5 2v3h-3v-3h3zM5 6v3h-3v-3h3z" />
    <glyph glyph-name="char0x39" unicode="9" horiz-adv-x="8" 
d="M6 9h1v-6h-1v-1h-1v-1h-4v1h3v1h1v2h-4v1h-1v3h1v1h5v-1zM5 6v3h-3v-3h3z" />
    <glyph glyph-name="char0x3A" unicode=":" horiz-adv-x="8" 
d="M3 4h2v-2h-2v2zM3 9h2v-2h-2v2z" />
    <glyph glyph-name="char0x3B" unicode=";" horiz-adv-x="8" 
d="M3 4h2v-2h-1v-1h-2v1h1v2zM3 9h2v-2h-2v2z" />
    <glyph glyph-name="char0x3C" unicode="&#x3c;" horiz-adv-x="8" 
d="M7 10v-1h-1v-1h-1v-1h-1v-1h-1v-1h1v-1h1v-1h1v-1h1v-1h-2v1h-1v1h-1v1h-1v1h-1v1h1v1h1v1h1v1h1v1h2z" />
    <glyph glyph-name="char0x3D" unicode="=" horiz-adv-x="8" 
d="M1 4h6v-1h-6v1zM1 7h6v-1h-6v1z" />
    <glyph glyph-name="char0x3E" unicode="&#x3e;" horiz-adv-x="8" 
d="M1 10h2v-1h1v-1h1v-1h1v-1h1v-1h-1v-1h-1v-1h-1v-1h-1v-1h-2v1h1v1h1v1h1v1h1v1h-1v1h-1v1h-1v1h-1v1z" />
    <glyph glyph-name="char0x3F" unicode="?" horiz-adv-x="8" 
d="M3 3h2v-2h-2v2zM1 10h5v-1h1v-2h-1v-1h-1v-2h-2v2h1v1h1v2h-3v-2h-2v2h1v1z" />
    <glyph glyph-name="char0x40" unicode="@" horiz-adv-x="8" 
d="M6 10v-1h1v-5h-1v-1h-3v4h2v2h-3v-7h4v-1h-5v1h-1v7h1v1h5z" />
    <glyph glyph-name="char0x41" unicode="A" horiz-adv-x="8" 
d="M0 1v6h1v1h1v1h1v1h1v-1h1v-1h1v-1h1v-6h-2v3h-3v-3h-2zM2 5h3v2h-1v1h-1v-1h-1v-2z" />
    <glyph glyph-name="char0x42" unicode="B" horiz-adv-x="8" 
d="M6 10v-1h1v-3h-1v-1h1v-3h-1v-1h-6v1h1v7h-1v1h6zM3 6h2v3h-2v-3zM5 5h-2v-3h2v3z" />
    <glyph glyph-name="char0x43" unicode="C" horiz-adv-x="8" 
d="M7 9v-2h-1v1h-1v1h-2v-1h-1v-5h1v-1h2v1h1v1h1v-2h-1v-1h-4v1h-1v1h-1v5h1v1h1v1h4v-1h1z" />
    <glyph glyph-name="char0x44" unicode="D" horiz-adv-x="8" 
d="M0 10h5v-1h1v-1h1v-5h-1v-1h-1v-1h-5v1h1v7h-1v1zM3 9v-7h1v1h1v5h-1v1h-1z" />
    <glyph glyph-name="char0x45" unicode="E" horiz-adv-x="8" 
d="M7 10v-3h-1v1h-1v1h-2v-3h1v1h1v-3h-1v1h-1v-3h2v1h1v1h1v-3h-7v1h1v7h-1v1h7z" />
    <glyph glyph-name="char0x46" unicode="F" horiz-adv-x="8" 
d="M7 10v-3h-1v1h-1v1h-2v-3h1v1h1v-3h-1v1h-1v-3h1v-1h-4v1h1v7h-1v1h7z" />
    <glyph glyph-name="char0x47" unicode="G" horiz-adv-x="8" 
d="M3 5h4v-4h-1v1h-1v2h-2v1zM7 9v-2h-1v1h-1v1h-2v-1h-1v-5h1v-1h2v-1h-3v1h-1v1h-1v5h1v1h1v1h4v-1h1z" />
    <glyph glyph-name="char0x48" unicode="H" horiz-adv-x="8" 
d="M0 10h2v-4h3v4h2v-9h-2v4h-3v-4h-2v9z" />
    <glyph glyph-name="char0x49" unicode="I" horiz-adv-x="8" 
d="M2 10h4v-1h-1v-7h1v-1h-4v1h1v7h-1v1z" />
    <glyph glyph-name="char0x4A" unicode="J" horiz-adv-x="8" 
d="M7 10v-1h-1v-7h-1v-1h-4v1h-1v2h2v-2h2v7h-1v1h4z" />
    <glyph glyph-name="char0x4B" unicode="K" horiz-adv-x="8" 
d="M0 10h3v-4h1v2h1v2h2v-2h-1v-2h-1v-1h1v-2h1v-2h-2v2h-1v2h-1v-4h-3v1h1v7h-1v1z" />
    <glyph glyph-name="char0x4C" unicode="L" horiz-adv-x="8" 
d="M0 10h4v-1h-1v-7h2v1h1v1h1v-3h-7v1h1v7h-1v1z" />
    <glyph glyph-name="char0x4D" unicode="M" horiz-adv-x="8" 
d="M0 10h2v-1h1v-1h1v1h1v1h2v-9h-2v6h-1v-1h-1v1h-1v-6h-2v9z" />
    <glyph glyph-name="char0x4E" unicode="N" horiz-adv-x="8" 
d="M0 10h2v-1h1v-1h1v-1h1v3h2v-9h-2v3h-1v1h-1v1h-1v-5h-2v9z" />
    <glyph glyph-name="char0x4F" unicode="O" horiz-adv-x="8" 
d="M5 10v-1h1v-1h1v-5h-1v-1h-1v-1h-3v1h-1v1h-1v5h1v1h1v1h3zM3 2h1v1h1v5h-1v1h-1v-1h-1v-5h1v-1z" />
    <glyph glyph-name="char0x50" unicode="P" horiz-adv-x="8" 
d="M6 10v-1h1v-3h-1v-1h-3v-3h1v-1h-4v1h1v7h-1v1h6zM3 6h2v3h-2v-3z" />
    <glyph glyph-name="char0x51" unicode="Q" horiz-adv-x="8" 
d="M6 10v-1h1v-6h-1v-2h1v-1h-3v2h-3v1h-1v6h1v1h5zM5 4v5h-3v-6h1v2h1v-1h1z" />
    <glyph glyph-name="char0x52" unicode="R" horiz-adv-x="8" 
d="M0 10h6v-1h1v-3h-1v-2h1v-2h1v-1h-3v3h-1v1h-1v-4h-3v1h1v7h-1v1zM3 6h2v3h-2v-3z" />
    <glyph glyph-name="char0x53" unicode="S" horiz-adv-x="8" 
d="M6 10v-1h1v-2h-2v2h-3v-2h1v-1h2v-1h1v-1h1v-2h-1v-1h-5v1h-1v2h2v-2h3v2h-1v1h-2v1h-1v1h-1v2h1v1h5z" />
    <glyph glyph-name="char0x54" unicode="T" horiz-adv-x="8" 
d="M0 10h8v-2h-1v1h-2v-7h1v-1h-4v1h1v7h-2v-1h-1v2z" />
    <glyph glyph-name="char0x55" unicode="U" horiz-adv-x="8" 
d="M0 10h2v-8h3v8h2v-8h-1v-1h-5v1h-1v8z" />
    <glyph glyph-name="char0x56" unicode="V" horiz-adv-x="8" 
d="M0 10h2v-6h1v-1h1v1h1v6h2v-6h-1v-1h-1v-1h-1v-1h-1v1h-1v1h-1v1h-1v6z" />
    <glyph glyph-name="char0x57" unicode="W" horiz-adv-x="8" 
d="M0 10h2v-6h1v1h1v-1h1v6h2v-9h-2v1h-1v1h-1v-1h-1v-1h-2v9z" />
    <glyph glyph-name="char0x58" unicode="X" horiz-adv-x="8" 
d="M0 10h2v-3h1v-1h1v1h1v3h2v-3h-1v-1h-1v-1h1v-1h1v-3h-2v3h-1v1h-1v-1h-1v-3h-2v3h1v1h1v1h-1v1h-1v3z" />
    <glyph glyph-name="char0x59" unicode="Y" horiz-adv-x="8" 
d="M0 10h2v-2h1v-1h2v1h1v2h2v-2h-1v-1h-1v-1h-1v-4h1v-1h-4v1h1v4h-1v1h-1v1h-1v2z" />
    <glyph glyph-name="char0x5A" unicode="Z" horiz-adv-x="8" 
d="M0 10h7v-2h-1v-1h-1v-1h-1v-1h-1v-1h-1v-2h3v1h1v1h1v-3h-7v3h1v1h1v1h1v1h1v1h1v1h-3v-1h-1v-1h-1v3z" />
    <glyph glyph-name="char0x5B" unicode="[" horiz-adv-x="8" 
d="M6 10v-1h-2v-7h2v-1h-4v9h4z" />
    <glyph glyph-name="char0x5C" unicode="\" horiz-adv-x="8" 
d="M0 10h1v-1h1v-1h1v-1h1v-1h1v-1h1v-1h1v-3h-1v1h-1v1h-1v1h-1v1h-1v1h-1v1h-1v3z" />
    <glyph glyph-name="char0x5D" unicode="]" horiz-adv-x="8" 
d="M2 10h4v-9h-4v1h2v7h-2v1z" />
    <glyph glyph-name="char0x5E" unicode="^" horiz-adv-x="8" 
d="M0 9h1v1h1v1h1v1h1v-1h1v-1h1v-1h1v-1h-2v1h-1v1h-1v-1h-1v-1h-2v1z" />
    <glyph glyph-name="char0x5F" unicode="_" horiz-adv-x="8" 
d="M0 -1v1h8v-1h-8z" />
    <glyph glyph-name="char0x60" unicode="`" horiz-adv-x="8" 
d="M3 10v2h2v-2h1v-1h-2v1h-1z" />
    <glyph glyph-name="char0x61" unicode="a" horiz-adv-x="8" 
d="M1 1v1h-1v2h1v1h3v1h-3v1h4v-1h1v-4h1v-1h-2v1h-1v2h-2v-2h2v-1h-3z" />
    <glyph glyph-name="char0x62" unicode="b" horiz-adv-x="8" 
d="M0 1v1h1v7h-1v1h3v-3h2v-1h1v-1h1v-3h-1v-1h-3v1h2v3h-1v1h-1v-4h-1v-1h-2z" />
    <glyph glyph-name="char0x63" unicode="c" horiz-adv-x="8" 
d="M1 1v1h-1v4h1v1h5v-1h1v-1h-2v1h-3v-4h3v1h2v-1h-1v-1h-5z" />
    <glyph glyph-name="char0x64" unicode="d" horiz-adv-x="8" 
d="M1 1v1h-1v3h1v1h1v1h2v2h-1v1h3v-8h1v-1h-2v1h-1v4h-1v-1h-1v-3h2v-1h-3z" />
    <glyph glyph-name="char0x65" unicode="e" horiz-adv-x="8" 
d="M2 6v-1h3v1h-3zM1 1v1h-1v4h1v1h5v-1h1v-2h-5v-2h3v1h2v-1h-1v-1h-5z" />
    <glyph glyph-name="char0x66" unicode="f" horiz-adv-x="8" 
d="M1 1v1h1v3h-1v1h1v3h1v1h3v-1h1v-2h-1v1h-1v1h-1v-3h2v-1h-2v-3h1v-1h-4z" />
    <glyph glyph-name="char0x67" unicode="g" horiz-adv-x="8" 
d="M0 0v1h2v-1h2v2h-3v1h-1v3h1v1h3v-1h-2v-3h2v3h1v1h2v-1h-1v-6h-1v-1h-4v1h-1z" />
    <glyph glyph-name="char0x68" unicode="h" horiz-adv-x="8" 
d="M4 6v1h2v-1h1v-5h-2v5h-1zM0 1v1h1v7h-1v1h3v-4h1v-1h-1v-4h-3z" />
    <glyph glyph-name="char0x69" unicode="i" horiz-adv-x="8" 
d="M3 8v2h2v-2h-2zM2 1v1h1v4h-1v1h3v-5h1v-1h-4z" />
    <glyph glyph-name="char0x6A" unicode="j" horiz-adv-x="8" 
d="M5 8v2h2v-2h-2zM1 0v2h2v-2h2v6h-1v1h3v-7h-1v-1h-4v1h-1z" />
    <glyph glyph-name="char0x6B" unicode="k" horiz-adv-x="8" 
d="M0 1v1h1v7h-1v1h3v-5h1v1h1v1h2v-1h-1v-1h-1v-1h1v-1h1v-2h-2v2h-1v1h-1v-3h-3z" />
    <glyph glyph-name="char0x6C" unicode="l" horiz-adv-x="8" 
d="M2 1v1h1v7h-1v1h3v-8h1v-1h-4z" />
    <glyph glyph-name="char0x6D" unicode="m" horiz-adv-x="8" 
d="M0 1v6h3v-1h1v1h2v-1h1v-5h-2v4h-1v-4h-1v4h-1v-4h-2z" />
    <glyph glyph-name="char0x6E" unicode="n" horiz-adv-x="8" 
d="M3 6v1h3v-1h1v-5h-2v5h-2zM1 1v5h-1v1h2v-1h1v-5h-2z" />
    <glyph glyph-name="char0x6F" unicode="o" horiz-adv-x="8" 
d="M2 6v-4h3v4h-3zM1 1v1h-1v4h1v1h5v-1h1v-4h-1v-1h-5z" />
    <glyph glyph-name="char0x70" unicode="p" horiz-adv-x="8" 
d="M0 -1v1h1v6h-1v1h2v-1h1v-3h2v3h-2v1h3v-1h1v-3h-1v-1h-3v-2h1v-1h-4z" />
    <glyph glyph-name="char0x71" unicode="q" horiz-adv-x="8" 
d="M3 -1v1h1v2h-3v1h-1v3h1v1h3v-1h-2v-3h2v3h1v1h2v-1h-1v-6h1v-1h-4z" />
    <glyph glyph-name="char0x72" unicode="r" horiz-adv-x="8" 
d="M0 1v1h1v4h-1v1h2v-1h1v1h3v-1h1v-2h-2v2h-1v-1h-1v-3h1v-1h-4z" />
    <glyph glyph-name="char0x73" unicode="s" horiz-adv-x="8" 
d="M0 2v1h2v-1h3v1h-2v1h-2v1h-1v1h1v1h5v-1h1v-1h-2v1h-3v-1h2v-1h2v-1h1v-1h-1v-1h-5v1h-1z" />
    <glyph glyph-name="char0x74" unicode="t" horiz-adv-x="8" 
d="M3 1v1h-1v4h-2v1h2v2h1v1h1v-3h2v-1h-2v-4h1v1h2v-1h-1v-1h-3z" />
    <glyph glyph-name="char0x75" unicode="u" horiz-adv-x="8" 
d="M4 2v5h2v-5h1v-1h-2v1h-1zM1 1v1h-1v5h2v-5h2v-1h-3z" />
    <glyph glyph-name="char0x76" unicode="v" horiz-adv-x="8" 
d="M3 1v1h-1v1h-1v1h-1v3h2v-3h1v-1h1v1h1v3h2v-3h-1v-1h-1v-1h-1v-1h-1z" />
    <glyph glyph-name="char0x77" unicode="w" horiz-adv-x="8" 
d="M1 1v1h-1v5h2v-4h1v1h1v-1h1v4h2v-5h-1v-1h-2v1h-1v-1h-2z" />
    <glyph glyph-name="char0x78" unicode="x" horiz-adv-x="8" 
d="M0 1v1h1v1h1v2h-1v1h-1v1h2v-1h1v-1h1v1h1v1h2v-1h-1v-1h-1v-2h1v-1h1v-1h-2v1h-1v1h-1v-1h-1v-1h-2z" />
    <glyph glyph-name="char0x79" unicode="y" horiz-adv-x="8" 
d="M1 -1v1h3v1h1v1h-4v1h-1v4h2v-4h3v4h2v-6h-1v-1h-1v-1h-4z" />
    <glyph glyph-name="char0x7A" unicode="z" horiz-adv-x="8" 
d="M0 1v1h1v1h1v1h1v1h1v1h-2v-1h-2v2h7v-1h-1v-1h-1v-1h-1v-1h-1v-1h2v1h2v-2h-7z" />
    <glyph glyph-name="char0x7B" unicode="{" horiz-adv-x="8" 
d="M7 1h-3v1h-1v3h-2v1h2v3h1v1h3v-1h-2v-3h-1v-1h1v-3h2v-1z" />
    <glyph glyph-name="char0x7C" unicode="|" horiz-adv-x="8" 
d="M3 5h2v-4h-2v4zM3 10h2v-4h-2v4z" />
    <glyph glyph-name="char0x7D" unicode="}" horiz-adv-x="8" 
d="M1 1v1h2v3h1v1h-1v3h-2v1h3v-1h1v-3h2v-1h-2v-3h-1v-1h-3z" />
    <glyph glyph-name="char0x7E" unicode="~" horiz-adv-x="8" 
d="M0 9h1v1h3v-1h1v1h2v-1h-1v-1h-3v1h-1v-1h-2v1z" />
    <glyph glyph-name="uniAC00" unicode="&#xac00;" 
d="M2 4h2v-1h-2v1zM2 10h7v-3h-1v-1h-1v-1h-1v-1h-2v1h1v1h1v1h1v2h-5v1zM10 12h3v-5h3v-1h-3v-7h-1v-1h-1v13h-1v1z" />
    <glyph glyph-name="uniAC01" unicode="&#xac01;" 
d="M2 5h2v-1h-2v1zM2 11h7v-3h-1v-1h-1v-1h-1v-1h-2v1h1v1h1v1h1v2h-5v1zM10 12h3v-4h3v-1h-3v-3h-1v-1h-1v8h-1v1zM4 3h9v-4h-1v-1h-1v4h-7v1z" />
    <glyph glyph-name="uniAC02" unicode="&#xac02;" 
d="M2 5h2v-1h-2v1zM2 11h7v-3h-1v-1h-1v-1h-1v-1h-2v1h1v1h1v1h1v2h-5v1zM10 12h3v-4h3v-1h-3v-3h-1v-1h-1v8h-1v1zM3 3h10v-4h-1v-1h-1v4h-3v-3h-1v-1h-1v4h-3v1z" />
    <glyph glyph-name="uniAC03" unicode="&#xac03;" 
d="M2 5h2v-1h-2v1zM2 11h7v-3h-1v-1h-1v-1h-1v-1h-2v1h1v1h1v1h1v2h-5v1zM10 12h3v-4h3v-1h-3v-3h-1v-1h-1v8h-1v1zM10 3h2v-2h1v-1h1v-2h-2v2h-1v-1h-1v-1h-2v1h1v1h1v3zM3 3h5v-4h-1v-1h-1v4h-3v1z" />
    <glyph glyph-name="uniAC04" unicode="&#xac04;" 
d="M2 5h2v-1h-2v1zM2 11h7v-3h-1v-1h-1v-1h-1v-1h-2v1h1v1h1v1h1v2h-5v1zM10 12h3v-4h3v-1h-3v-3h-1v-1h-1v8h-1v1zM5 3h3v-4h6v-1h-7v1h-1v3h-1v1z" />
    <glyph glyph-name="uniAC05" unicode="&#xac05;" 
d="M2 5h2v-1h-2v1zM2 11h7v-3h-1v-1h-1v-1h-1v-1h-2v1h1v1h1v1h1v2h-5v1zM10 12h3v-4h3v-1h-3v-3h-1v-1h-1v8h-1v1zM3 3h3v-4h3v1h1v2h-2v1h6v-1h-2v-2h1v-1h1v-1h-2v1h-2v-1h-5v1h-1v3h-1v1z" />
    <glyph glyph-name="uniAC06" unicode="&#xac06;" 
d="M2 5h2v-1h-2v1zM2 11h7v-3h-1v-1h-1v-1h-1v-1h-2v1h1v1h1v1h1v2h-5v1zM10 12h3v-4h3v-1h-3v-3h-1v-1h-1v8h-1v1zM10 0v-1h2v1h-2zM10 3h2v-1h2v-1h-1v-1h1v-1h-1v-1h-4v1h-1v1h1v1h-1v1h2v1zM3 3h3v-4h2v-1h-3v1h-1v3h-1v1z" />
    <glyph glyph-name="uniAC07" unicode="&#xac07;" 
d="M2 5h2v-1h-2v1zM2 11h7v-3h-1v-1h-1v-1h-1v-1h-2v1h1v1h1v1h1v2h-5v1zM10 12h3v-4h3v-1h-3v-3h-1v-1h-1v8h-1v1zM4 3h9v-1h-6v-3h6v-1h-7v1h-1v3h-1v1z" />
    <glyph glyph-name="uniAC08" unicode="&#xac08;" 
d="M2 5h2v-1h-2v1zM2 11h7v-3h-1v-1h-1v-1h-1v-1h-2v1h1v1h1v1h1v2h-5v1zM10 12h3v-4h3v-1h-3v-3h-1v-1h-1v8h-1v1zM4 3h9v-3h-7v-1h7v-1h-8v1h-1v2h7v1h-7v1z" />
    <glyph glyph-name="uniAC09" unicode="&#xac09;" 
d="M2 5h2v-1h-2v1zM2 11h7v-3h-1v-1h-1v-1h-1v-1h-2v1h1v1h1v1h1v2h-5v1zM10 12h3v-4h3v-1h-3v-3h-1v-1h-1v8h-1v1zM9 3h4v-4h-1v-1h-1v4h-2v1zM3 3h5v-3h-3v-1h3v-1h-4v1h-1v2h3v1h-3v1z" />
    <glyph glyph-name="uniAC0A" unicode="&#xac0a;" 
d="M2 5h2v-1h-2v1zM2 11h7v-3h-1v-1h-1v-1h-1v-1h-2v1h1v1h1v1h1v2h-5v1zM10 12h3v-4h3v-1h-3v-3h-1v-1h-1v8h-1v1zM11 2v-3h1v3h-1zM9 3h5v-5h-5v5zM3 3h5v-3h-3v-1h3v-1h-4v1h-1v2h3v1h-3v1z" />
    <glyph glyph-name="uniAC0B" unicode="&#xac0b;" 
d="M2 5h2v-1h-2v1zM2 11h7v-3h-1v-1h-1v-1h-1v-1h-2v1h1v1h1v1h1v2h-5v1zM10 12h3v-4h3v-1h-3v-3h-1v-1h-1v8h-1v1zM11 0v-1h1v1h-1zM9 3h2v-2h1v2h2v-5h-5v5zM3 3h5v-3h-3v-1h3v-1h-4v1h-1v2h3v1h-3v1z" />
    <glyph glyph-name="uniAC0C" unicode="&#xac0c;" 
d="M2 5h2v-1h-2v1zM2 11h7v-3h-1v-1h-1v-1h-1v-1h-2v1h1v1h1v1h1v2h-5v1zM10 12h3v-4h3v-1h-3v-3h-1v-1h-1v8h-1v1zM11 3h2v-3h1v-1h1v-1h-2v1h-2v-1h-1v2h1v3zM4 3h5v-3h-3v-1h3v-1h-4v1h-1v2h3v1h-3v1z" />
    <glyph glyph-name="uniAC0D" unicode="&#xac0d;" 
d="M2 5h2v-1h-2v1zM2 11h7v-3h-1v-1h-1v-1h-1v-1h-2v1h1v1h1v1h1v2h-5v1zM10 12h3v-4h3v-1h-3v-3h-1v-1h-1v8h-1v1zM9 3h5v-1h-3v-1h3v-1h-3v-1h3v-1h-5v5zM3 3h5v-3h-3v-1h3v-1h-4v1h-1v2h3v1h-3v1z" />
    <glyph glyph-name="uniAC0E" unicode="&#xac0e;" 
d="M2 5h2v-1h-2v1zM2 11h7v-3h-1v-1h-1v-1h-1v-1h-2v1h1v1h1v1h1v2h-5v1zM10 12h3v-4h3v-1h-3v-3h-1v-1h-1v8h-1v1zM11 2v-3h1v3h-1zM8 3h7v-1h-1v-3h1v-1h-7v1h1v3h-1v1zM3 3h4v-1h1v-2h-3v-1h2v-1h-3v1h-1v2h3v1h-3v1z" />
    <glyph glyph-name="uniAC0F" unicode="&#xac0f;" 
d="M2 5h2v-1h-2v1zM2 11h7v-3h-1v-1h-1v-1h-1v-1h-2v1h1v1h1v1h1v2h-5v1zM10 12h3v-4h3v-1h-3v-3h-1v-1h-1v8h-1v1zM11 0v-1h2v1h-2zM11 3h2v-1h2v-1h-1v-1h1v-1h-1v-1h-4v1h-1v1h1v1h-1v1h2v1zM3 3h5v-3h-3v-1h3v-1h-4v1h-1v2h3v1h-3v1z" />
    <glyph glyph-name="uniAC10" unicode="&#xac10;" 
d="M2 5h2v-1h-2v1zM2 11h7v-3h-1v-1h-1v-1h-1v-1h-2v1h1v1h1v1h1v2h-5v1zM10 12h3v-4h3v-1h-3v-3h-1v-1h-1v8h-1v1zM7 2v-3h4v3h-4zM4 3h9v-5h-8v4h-1v1z" />
    <glyph glyph-name="uniAC11" unicode="&#xac11;" 
d="M2 5h2v-1h-2v1zM2 11h7v-3h-1v-1h-1v-1h-1v-1h-2v1h1v1h1v1h1v2h-5v1zM10 12h3v-4h3v-1h-3v-3h-1v-1h-1v8h-1v1zM7 0v-1h4v1h-4zM4 3h3v-2h4v1h-1v1h3v-5h-8v4h-1v1z" />
    <glyph glyph-name="uniAC12" unicode="&#xac12;" 
d="M2 5h2v-1h-2v1zM2 11h7v-3h-1v-1h-1v-1h-1v-1h-2v1h1v1h1v1h1v2h-5v1zM10 12h3v-4h3v-1h-3v-3h-1v-1h-1v8h-1v1zM6 0v-1h1v1h-1zM4 3h2v-2h1v2h2v-4h1v1h1v3h2v-3h2v-2h-2v1h-2v-1h-7v5z" />
    <glyph glyph-name="uniAC13" unicode="&#xac13;" 
d="M2 5h2v-1h-2v1zM2 11h7v-3h-1v-1h-1v-1h-1v-1h-2v1h1v1h1v1h1v2h-5v1zM10 12h3v-4h3v-1h-3v-3h-1v-1h-1v8h-1v1zM10 1h2v-1h1v-1h1v-1h-2v1h-1v1h-1v1zM4 -1h2v-1h-2v1zM8 3h2v-2h-1v-1h-1v-1h-2v1h1v1h1v2z" />
    <glyph glyph-name="uniAC14" unicode="&#xac14;" 
d="M2 5h2v-1h-2v1zM2 11h7v-3h-1v-1h-1v-1h-1v-1h-2v1h1v1h1v1h1v2h-5v1zM10 12h3v-4h3v-1h-3v-3h-1v-1h-1v8h-1v1zM6 3h2v-2h2v2h2v-2h1v-1h1v-1h1v-1h-2v1h-1v1h-2v-1h-1v-1h-2v1h1v1h-2v-1h-1v-1h-2v1h1v1h1v1h1v2z" />
    <glyph glyph-name="uniAC15" unicode="&#xac15;" 
d="M2 5h2v-1h-2v1zM2 11h7v-3h-1v-1h-1v-1h-1v-1h-2v1h1v1h1v1h1v2h-5v1zM10 12h3v-4h3v-1h-3v-3h-1v-1h-1v8h-1v1zM7 2v-3h4v3h-4zM6 3h6v-1h1v-3h-1v-1h-6v1h-1v3h1v1z" />
    <glyph glyph-name="uniAC16" unicode="&#xac16;" 
d="M2 5h2v-1h-2v1zM2 11h7v-3h-1v-1h-1v-1h-1v-1h-2v1h1v1h1v1h1v2h-5v1zM10 12h3v-4h3v-1h-3v-3h-1v-1h-1v8h-1v1zM12 -1h2v-1h-2v1zM4 -1h2v-1h-2v1zM4 3h10v-1h-4v-1h1v-1h1v-1h-2v1h-2v-1h-2v1h1v1h1v1h-4v1z" />
    <glyph glyph-name="uniAC17" unicode="&#xac17;" 
d="M2 5h2v-1h-2v1zM2 11h7v-3h-1v-1h-1v-1h-1v-1h-2v1h1v1h1v1h1v2h-5v1zM10 12h3v-4h3v-1h-3v-3h-1v-1h-1v8h-1v1zM12 -1h2v-1h-2v1zM4 -1h2v-1h-2v1zM8 3h2v-1h4v-1h-3v-1h1v-1h-2v1h-2v-1h-2v1h1v1h-3v1h4v1z" />
    <glyph glyph-name="uniAC18" unicode="&#xac18;" 
d="M2 5h2v-1h-2v1zM2 11h7v-3h-1v-1h-1v-1h-1v-1h-2v1h1v1h1v1h1v2h-5v1zM10 12h3v-4h3v-1h-3v-3h-1v-1h-1v8h-1v1zM5 3h8v-4h-1v-1h-1v2h-6v1h6v1h-6v1z" />
    <glyph glyph-name="uniAC19" unicode="&#xac19;" 
d="M2 5h2v-1h-2v1zM2 11h7v-3h-1v-1h-1v-1h-1v-1h-2v1h1v1h1v1h1v2h-5v1zM10 12h3v-4h3v-1h-3v-3h-1v-1h-1v8h-1v1zM4 3h9v-1h-6v-1h6v-1h-6v-1h6v-1h-7v1h-1v3h-1v1z" />
    <glyph glyph-name="uniAC1A" unicode="&#xac1a;" 
d="M2 5h2v-1h-2v1zM2 11h7v-3h-1v-1h-1v-1h-1v-1h-2v1h1v1h1v1h1v2h-5v1zM10 12h3v-4h3v-1h-3v-3h-1v-1h-1v8h-1v1zM8 2v-3h2v3h-2zM4 3h10v-1h-2v-3h2v-1h-10v1h2v3h-2v1z" />
    <glyph glyph-name="uniAC1B" unicode="&#xac1b;" 
d="M2 5h2v-1h-2v1zM2 11h7v-3h-1v-1h-1v-1h-1v-1h-2v1h1v1h1v1h1v2h-5v1zM10 12h3v-4h3v-1h-3v-3h-1v-1h-1v8h-1v1zM7 0v-1h4v1h-4zM7 3h4v-1h3v-1h-2v-1h1v-1h-1v-1h-6v1h-1v1h1v1h-2v1h3v1z" />
    <glyph glyph-name="uniAC1C" unicode="&#xac1c;" 
d="M2 4h2v-1h-2v1zM2 10h7v-3h-1v-1h-1v-1h-1v-1h-2v1h1v1h1v1h1v2h-5v1zM9 11h3v-4h1v4h-1v1h3v-13h-1v-1h-1v8h-1v-6h-1v-1h-1v11h-1v1z" />
    <glyph glyph-name="uniAC1D" unicode="&#xac1d;" 
d="M2 5h2v-1h-2v1zM2 11h7v-3h-1v-1h-1v-1h-1v-1h-2v1h1v1h1v1h1v2h-5v1zM9 11h3v-3h1v3h-1v1h3v-8h-1v-1h-1v4h-1v-3h-1v-1h-1v7h-1v1zM5 3h10v-4h-1v-1h-1v4h-8v1z" />
    <glyph glyph-name="uniAC1E" unicode="&#xac1e;" 
d="M2 5h2v-1h-2v1zM2 11h7v-3h-1v-1h-1v-1h-1v-1h-2v1h1v1h1v1h1v2h-5v1zM9 11h3v-3h1v3h-1v1h3v-8h-1v-1h-1v4h-1v-3h-1v-1h-1v7h-1v1zM4 3h11v-4h-1v-1h-1v4h-3v-3h-1v-1h-1v4h-4v1z" />
    <glyph glyph-name="uniAC1F" unicode="&#xac1f;" 
d="M2 5h2v-1h-2v1zM2 11h7v-3h-1v-1h-1v-1h-1v-1h-2v1h1v1h1v1h1v2h-5v1zM9 11h3v-3h1v3h-1v1h3v-8h-1v-1h-1v4h-1v-3h-1v-1h-1v7h-1v1zM12 3h2v-2h1v-1h1v-2h-2v2h-1v-1h-1v-1h-2v1h1v1h1v3zM4 3h6v-4h-1v-1h-1v4h-4v1z" />
    <glyph glyph-name="uniAC20" unicode="&#xac20;" 
d="M2 5h2v-1h-2v1zM2 11h7v-3h-1v-1h-1v-1h-1v-1h-2v1h1v1h1v1h1v2h-5v1zM9 11h3v-3h1v3h-1v1h3v-8h-1v-1h-1v4h-1v-3h-1v-1h-1v7h-1v1zM5 3h3v-4h7v-1h-8v1h-1v3h-1v1z" />
    <glyph glyph-name="uniAC21" unicode="&#xac21;" 
d="M2 5h2v-1h-2v1zM2 11h7v-3h-1v-1h-1v-1h-1v-1h-2v1h1v1h1v1h1v2h-5v1zM9 11h3v-3h1v3h-1v1h3v-8h-1v-1h-1v4h-1v-3h-1v-1h-1v7h-1v1zM9 3h6v-1h-2v-2h1v-1h1v-1h-2v1h-2v-1h-2v1h1v1h1v2h-2v1zM3 3h3v-4h2v-1h-3v1h-1v3h-1v1z" />
    <glyph glyph-name="uniAC22" unicode="&#xac22;" 
d="M2 5h2v-1h-2v1zM2 11h7v-3h-1v-1h-1v-1h-1v-1h-2v1h1v1h1v1h1v2h-5v1zM9 11h3v-3h1v3h-1v1h3v-8h-1v-1h-1v4h-1v-3h-1v-1h-1v7h-1v1zM11 0v-1h2v1h-2zM11 3h2v-1h2v-1h-1v-1h1v-1h-1v-1h-4v1h-1v1h1v1h-1v1h2v1zM3 3h3v-4h3v-1h-4v1h-1v3h-1v1z" />
    <glyph glyph-name="uniAC23" unicode="&#xac23;" 
d="M2 5h2v-1h-2v1zM2 11h7v-3h-1v-1h-1v-1h-1v-1h-2v1h1v1h1v1h1v2h-5v1zM9 11h3v-3h1v3h-1v1h3v-8h-1v-1h-1v4h-1v-3h-1v-1h-1v7h-1v1zM5 3h9v-1h-6v-3h6v-1h-7v1h-1v3h-1v1z" />
    <glyph glyph-name="uniAC24" unicode="&#xac24;" 
d="M2 5h2v-1h-2v1zM2 11h7v-3h-1v-1h-1v-1h-1v-1h-2v1h1v1h1v1h1v2h-5v1zM9 11h3v-3h1v3h-1v1h3v-8h-1v-1h-1v4h-1v-3h-1v-1h-1v7h-1v1zM6 3h9v-3h-7v-1h7v-1h-8v1h-1v2h7v1h-7v1z" />
    <glyph glyph-name="uniAC25" unicode="&#xac25;" 
d="M2 5h2v-1h-2v1zM2 11h7v-3h-1v-1h-1v-1h-1v-1h-2v1h1v1h1v1h1v2h-5v1zM9 11h3v-3h1v3h-1v1h3v-8h-1v-1h-1v4h-1v-3h-1v-1h-1v7h-1v1zM11 3h4v-4h-1v-1h-1v4h-2v1zM5 3h5v-3h-3v-1h3v-1h-4v1h-1v2h3v1h-3v1z" />
    <glyph glyph-name="uniAC26" unicode="&#xac26;" 
d="M2 5h2v-1h-2v1zM2 11h7v-3h-1v-1h-1v-1h-1v-1h-2v1h1v1h1v1h1v2h-5v1zM9 11h3v-3h1v3h-1v1h3v-8h-1v-1h-1v4h-1v-3h-1v-1h-1v7h-1v1zM12 2v-3h1v3h-1zM10 3h5v-5h-5v5zM4 3h5v-3h-3v-1h3v-1h-4v1h-1v2h3v1h-3v1z" />
    <glyph glyph-name="uniAC27" unicode="&#xac27;" 
d="M2 5h2v-1h-2v1zM2 11h7v-3h-1v-1h-1v-1h-1v-1h-2v1h1v1h1v1h1v2h-5v1zM9 11h3v-3h1v3h-1v1h3v-8h-1v-1h-1v4h-1v-3h-1v-1h-1v7h-1v1zM12 0v-1h1v1h-1zM10 3h2v-2h1v2h2v-5h-5v5zM4 3h5v-3h-3v-1h3v-1h-4v1h-1v2h3v1h-3v1z" />
    <glyph glyph-name="uniAC28" unicode="&#xac28;" 
d="M2 5h2v-1h-2v1zM2 11h7v-3h-1v-1h-1v-1h-1v-1h-2v1h1v1h1v1h1v2h-5v1zM9 11h3v-3h1v3h-1v1h3v-8h-1v-1h-1v4h-1v-3h-1v-1h-1v7h-1v1zM12 3h2v-3h1v-1h1v-1h-2v1h-2v-1h-1v2h1v3zM5 3h5v-3h-3v-1h3v-1h-4v1h-1v2h3v1h-3v1z" />
    <glyph glyph-name="uniAC29" unicode="&#xac29;" 
d="M2 5h2v-1h-2v1zM2 11h7v-3h-1v-1h-1v-1h-1v-1h-2v1h1v1h1v1h1v2h-5v1zM9 11h3v-3h1v3h-1v1h3v-8h-1v-1h-1v4h-1v-3h-1v-1h-1v7h-1v1zM10 3h5v-1h-3v-1h3v-1h-3v-1h3v-1h-5v5zM4 3h5v-3h-3v-1h3v-1h-4v1h-1v2h3v1h-3v1z" />
    <glyph glyph-name="uniAC2A" unicode="&#xac2a;" 
d="M2 5h2v-1h-2v1zM2 11h7v-3h-1v-1h-1v-1h-1v-1h-2v1h1v1h1v1h1v2h-5v1zM9 11h3v-3h1v3h-1v1h3v-8h-1v-1h-1v4h-1v-3h-1v-1h-1v7h-1v1zM11 2v-3h1v3h-1zM8 3h7v-1h-1v-3h1v-1h-7v1h1v3h-1v1zM3 3h4v-1h1v-2h-3v-1h2v-1h-3v1h-1v2h3v1h-3v1z" />
    <glyph glyph-name="uniAC2B" unicode="&#xac2b;" 
d="M2 5h2v-1h-2v1zM2 11h7v-3h-1v-1h-1v-1h-1v-1h-2v1h1v1h1v1h1v2h-5v1zM9 11h3v-3h1v3h-1v1h3v-8h-1v-1h-1v4h-1v-3h-1v-1h-1v7h-1v1zM11 0v-1h2v1h-2zM11 3h2v-1h2v-1h-1v-1h1v-1h-1v-1h-4v1h-1v1h1v1h-1v1h2v1zM3 3h5v-3h-3v-1h3v-1h-4v1h-1v2h3v1h-3v1z" />
    <glyph glyph-name="uniAC2C" unicode="&#xac2c;" 
d="M2 5h2v-1h-2v1zM2 11h7v-3h-1v-1h-1v-1h-1v-1h-2v1h1v1h1v1h1v2h-5v1zM9 11h3v-3h1v3h-1v1h3v-8h-1v-1h-1v4h-1v-3h-1v-1h-1v7h-1v1zM8 2v-3h5v3h-5zM5 3h10v-5h-9v4h-1v1z" />
    <glyph glyph-name="uniAC2D" unicode="&#xac2d;" 
d="M2 5h2v-1h-2v1zM2 11h7v-3h-1v-1h-1v-1h-1v-1h-2v1h1v1h1v1h1v2h-5v1zM9 11h3v-3h1v3h-1v1h3v-8h-1v-1h-1v4h-1v-3h-1v-1h-1v7h-1v1zM8 0v-1h5v1h-5zM5 3h3v-2h5v1h-1v1h3v-5h-9v4h-1v1z" />
    <glyph glyph-name="uniAC2E" unicode="&#xac2e;" 
d="M2 5h2v-1h-2v1zM2 11h7v-3h-1v-1h-1v-1h-1v-1h-2v1h1v1h1v1h1v2h-5v1zM9 11h3v-3h1v3h-1v1h3v-8h-1v-1h-1v4h-1v-3h-1v-1h-1v7h-1v1zM6 0v-1h1v1h-1zM4 3h2v-2h1v2h2v-4h1v1h1v3h2v-3h2v-2h-2v1h-2v-1h-7v5z" />
    <glyph glyph-name="uniAC2F" unicode="&#xac2f;" 
d="M2 5h2v-1h-2v1zM2 11h7v-3h-1v-1h-1v-1h-1v-1h-2v1h1v1h1v1h1v2h-5v1zM9 11h3v-3h1v3h-1v1h3v-8h-1v-1h-1v4h-1v-3h-1v-1h-1v7h-1v1zM11 1h2v-1h1v-1h1v-1h-2v1h-1v1h-1v1zM5 -1h2v-1h-2v1zM9 3h2v-2h-1v-1h-1v-1h-2v1h1v1h1v2z" />
    <glyph glyph-name="uniAC30" unicode="&#xac30;" 
d="M2 5h2v-1h-2v1zM2 11h7v-3h-1v-1h-1v-1h-1v-1h-2v1h1v1h1v1h1v2h-5v1zM9 11h3v-3h1v3h-1v1h3v-8h-1v-1h-1v4h-1v-3h-1v-1h-1v7h-1v1zM7 3h2v-2h2v2h2v-2h1v-1h1v-1h1v-1h-2v1h-1v1h-2v-1h-1v-1h-2v1h1v1h-2v-1h-1v-1h-2v1h1v1h1v1h1v2z" />
    <glyph glyph-name="uniAC31" unicode="&#xac31;" 
d="M2 5h2v-1h-2v1zM2 11h7v-3h-1v-1h-1v-1h-1v-1h-2v1h1v1h1v1h1v2h-5v1zM9 11h3v-3h1v3h-1v1h3v-8h-1v-1h-1v4h-1v-3h-1v-1h-1v7h-1v1zM9 2v-3h4v3h-4zM8 3h6v-1h1v-3h-1v-1h-6v1h-1v3h1v1z" />
    <glyph glyph-name="uniAC32" unicode="&#xac32;" 
d="M2 5h2v-1h-2v1zM2 11h7v-3h-1v-1h-1v-1h-1v-1h-2v1h1v1h1v1h1v2h-5v1zM9 11h3v-3h1v3h-1v1h3v-8h-1v-1h-1v4h-1v-3h-1v-1h-1v7h-1v1zM13 -1h2v-1h-2v1zM5 -1h2v-1h-2v1zM5 3h10v-1h-4v-1h1v-1h1v-1h-2v1h-2v-1h-2v1h1v1h1v1h-4v1z" />
    <glyph glyph-name="uniAC33" unicode="&#xac33;" 
d="M2 5h2v-1h-2v1zM2 11h7v-3h-1v-1h-1v-1h-1v-1h-2v1h1v1h1v1h1v2h-5v1zM9 11h3v-3h1v3h-1v1h3v-8h-1v-1h-1v4h-1v-3h-1v-1h-1v7h-1v1zM13 -1h2v-1h-2v1zM5 -1h2v-1h-2v1zM9 3h2v-1h4v-1h-3v-1h1v-1h-2v1h-2v-1h-2v1h1v1h-3v1h4v1z" />
    <glyph glyph-name="uniAC34" unicode="&#xac34;" 
d="M2 5h2v-1h-2v1zM2 11h7v-3h-1v-1h-1v-1h-1v-1h-2v1h1v1h1v1h1v2h-5v1zM9 11h3v-3h1v3h-1v1h3v-8h-1v-1h-1v4h-1v-3h-1v-1h-1v7h-1v1zM6 3h9v-4h-1v-1h-1v2h-7v1h7v1h-7v1z" />
    <glyph glyph-name="uniAC35" unicode="&#xac35;" 
d="M2 5h2v-1h-2v1zM2 11h7v-3h-1v-1h-1v-1h-1v-1h-2v1h1v1h1v1h1v2h-5v1zM9 11h3v-3h1v3h-1v1h3v-8h-1v-1h-1v4h-1v-3h-1v-1h-1v7h-1v1zM6 3h9v-1h-6v-1h6v-1h-6v-1h6v-1h-7v1h-1v3h-1v1z" />
    <glyph glyph-name="uniAC36" unicode="&#xac36;" 
d="M2 5h2v-1h-2v1zM2 11h7v-3h-1v-1h-1v-1h-1v-1h-2v1h1v1h1v1h1v2h-5v1zM9 11h3v-3h1v3h-1v1h3v-8h-1v-1h-1v4h-1v-3h-1v-1h-1v7h-1v1zM9 2v-3h2v3h-2zM5 3h10v-1h-2v-3h2v-1h-10v1h2v3h-2v1z" />
    <glyph glyph-name="uniAC37" unicode="&#xac37;" 
d="M2 5h2v-1h-2v1zM2 11h7v-3h-1v-1h-1v-1h-1v-1h-2v1h1v1h1v1h1v2h-5v1zM9 11h3v-3h1v3h-1v1h3v-8h-1v-1h-1v4h-1v-3h-1v-1h-1v7h-1v1zM8 0v-1h4v1h-4zM8 3h4v-1h3v-1h-2v-1h1v-1h-1v-1h-6v1h-1v1h1v1h-2v1h3v1z" />
    <glyph glyph-name="uniAC38" unicode="&#xac38;" 
d="M2 4h2v-1h-2v1zM2 10h7v-3h-1v-1h-1v-1h-1v-1h-2v1h1v1h1v1h1v2h-5v1zM10 12h3v-4h3v-1h-3v-2h3v-1h-3v-5h-1v-1h-1v13h-1v1z" />
    <glyph glyph-name="uniAC39" unicode="&#xac39;" 
d="M2 5h2v-1h-2v1zM2 11h7v-3h-1v-1h-1v-1h-1v-1h-2v1h1v1h1v1h1v2h-5v1zM10 12h3v-3h3v-1h-3v-1h3v-1h-3v-2h-1v-1h-1v8h-1v1zM4 3h9v-4h-1v-1h-1v4h-7v1z" />
    <glyph glyph-name="uniAC3A" unicode="&#xac3a;" 
d="M2 5h2v-1h-2v1zM2 11h7v-3h-1v-1h-1v-1h-1v-1h-2v1h1v1h1v1h1v2h-5v1zM10 12h3v-3h3v-1h-3v-1h3v-1h-3v-2h-1v-1h-1v8h-1v1zM3 3h10v-4h-1v-1h-1v4h-3v-3h-1v-1h-1v4h-3v1z" />
    <glyph glyph-name="uniAC3B" unicode="&#xac3b;" 
d="M2 5h2v-1h-2v1zM2 11h7v-3h-1v-1h-1v-1h-1v-1h-2v1h1v1h1v1h1v2h-5v1zM10 12h3v-3h3v-1h-3v-1h3v-1h-3v-2h-1v-1h-1v8h-1v1zM10 3h2v-2h1v-1h1v-2h-2v2h-1v-1h-1v-1h-2v1h1v1h1v3zM3 3h5v-4h-1v-1h-1v4h-3v1z" />
    <glyph glyph-name="uniAC3C" unicode="&#xac3c;" 
d="M2 5h2v-1h-2v1zM2 11h7v-3h-1v-1h-1v-1h-1v-1h-2v1h1v1h1v1h1v2h-5v1zM10 12h3v-3h3v-1h-3v-1h3v-1h-3v-2h-1v-1h-1v8h-1v1zM5 3h3v-4h6v-1h-7v1h-1v3h-1v1z" />
    <glyph glyph-name="uniAC3D" unicode="&#xac3d;" 
d="M2 5h2v-1h-2v1zM2 11h7v-3h-1v-1h-1v-1h-1v-1h-2v1h1v1h1v1h1v2h-5v1zM10 12h3v-3h3v-1h-3v-1h3v-1h-3v-2h-1v-1h-1v8h-1v1zM3 3h3v-4h3v1h1v2h-2v1h6v-1h-2v-2h1v-1h1v-1h-2v1h-2v-1h-5v1h-1v3h-1v1z" />
    <glyph glyph-name="uniAC3E" unicode="&#xac3e;" 
d="M2 5h2v-1h-2v1zM2 11h7v-3h-1v-1h-1v-1h-1v-1h-2v1h1v1h1v1h1v2h-5v1zM10 12h3v-3h3v-1h-3v-1h3v-1h-3v-2h-1v-1h-1v8h-1v1zM10 0v-1h2v1h-2zM10 3h2v-1h2v-1h-1v-1h1v-1h-1v-1h-4v1h-1v1h1v1h-1v1h2v1zM3 3h3v-4h2v-1h-3v1h-1v3h-1v1z" />
    <glyph glyph-name="uniAC3F" unicode="&#xac3f;" 
d="M2 5h2v-1h-2v1zM2 11h7v-3h-1v-1h-1v-1h-1v-1h-2v1h1v1h1v1h1v2h-5v1zM10 12h3v-3h3v-1h-3v-1h3v-1h-3v-2h-1v-1h-1v8h-1v1zM4 3h9v-1h-6v-3h6v-1h-7v1h-1v3h-1v1z" />
    <glyph glyph-name="uniAC40" unicode="&#xac40;" 
d="M2 5h2v-1h-2v1zM2 11h7v-3h-1v-1h-1v-1h-1v-1h-2v1h1v1h1v1h1v2h-5v1zM10 12h3v-3h3v-1h-3v-1h3v-1h-3v-2h-1v-1h-1v8h-1v1zM4 3h9v-3h-7v-1h7v-1h-8v1h-1v2h7v1h-7v1z" />
    <glyph glyph-name="uniAC41" unicode="&#xac41;" 
d="M2 5h2v-1h-2v1zM2 11h7v-3h-1v-1h-1v-1h-1v-1h-2v1h1v1h1v1h1v2h-5v1zM10 12h3v-3h3v-1h-3v-1h3v-1h-3v-2h-1v-1h-1v8h-1v1zM9 3h4v-4h-1v-1h-1v4h-2v1zM3 3h5v-3h-3v-1h3v-1h-4v1h-1v2h3v1h-3v1z" />
    <glyph glyph-name="uniAC42" unicode="&#xac42;" 
d="M2 5h2v-1h-2v1zM2 11h7v-3h-1v-1h-1v-1h-1v-1h-2v1h1v1h1v1h1v2h-5v1zM10 12h3v-3h3v-1h-3v-1h3v-1h-3v-2h-1v-1h-1v8h-1v1zM11 2v-3h1v3h-1zM9 3h5v-5h-5v5zM3 3h5v-3h-3v-1h3v-1h-4v1h-1v2h3v1h-3v1z" />
    <glyph glyph-name="uniAC43" unicode="&#xac43;" 
d="M2 5h2v-1h-2v1zM2 11h7v-3h-1v-1h-1v-1h-1v-1h-2v1h1v1h1v1h1v2h-5v1zM10 12h3v-3h3v-1h-3v-1h3v-1h-3v-2h-1v-1h-1v8h-1v1zM11 0v-1h1v1h-1zM9 3h2v-2h1v2h2v-5h-5v5zM3 3h5v-3h-3v-1h3v-1h-4v1h-1v2h3v1h-3v1z" />
    <glyph glyph-name="uniAC44" unicode="&#xac44;" 
d="M2 5h2v-1h-2v1zM2 11h7v-3h-1v-1h-1v-1h-1v-1h-2v1h1v1h1v1h1v2h-5v1zM10 12h3v-3h3v-1h-3v-1h3v-1h-3v-2h-1v-1h-1v8h-1v1zM11 3h2v-3h1v-1h1v-1h-2v1h-2v-1h-1v2h1v3zM4 3h5v-3h-3v-1h3v-1h-4v1h-1v2h3v1h-3v1z" />
    <glyph glyph-name="uniAC45" unicode="&#xac45;" 
d="M2 5h2v-1h-2v1zM2 11h7v-3h-1v-1h-1v-1h-1v-1h-2v1h1v1h1v1h1v2h-5v1zM10 12h3v-3h3v-1h-3v-1h3v-1h-3v-2h-1v-1h-1v8h-1v1zM9 3h5v-1h-3v-1h3v-1h-3v-1h3v-1h-5v5zM3 3h5v-3h-3v-1h3v-1h-4v1h-1v2h3v1h-3v1z" />
    <glyph glyph-name="uniAC46" unicode="&#xac46;" 
d="M2 5h2v-1h-2v1zM2 11h7v-3h-1v-1h-1v-1h-1v-1h-2v1h1v1h1v1h1v2h-5v1zM10 12h3v-3h3v-1h-3v-1h3v-1h-3v-2h-1v-1h-1v8h-1v1zM11 2v-3h1v3h-1zM8 3h7v-1h-1v-3h1v-1h-7v1h1v3h-1v1zM3 3h4v-1h1v-2h-3v-1h2v-1h-3v1h-1v2h3v1h-3v1z" />
    <glyph glyph-name="uniAC47" unicode="&#xac47;" 
d="M2 5h2v-1h-2v1zM2 11h7v-3h-1v-1h-1v-1h-1v-1h-2v1h1v1h1v1h1v2h-5v1zM10 12h3v-3h3v-1h-3v-1h3v-1h-3v-2h-1v-1h-1v8h-1v1zM11 0v-1h2v1h-2zM11 3h2v-1h2v-1h-1v-1h1v-1h-1v-1h-4v1h-1v1h1v1h-1v1h2v1zM3 3h5v-3h-3v-1h3v-1h-4v1h-1v2h3v1h-3v1z" />
    <glyph glyph-name="uniAC48" unicode="&#xac48;" 
d="M2 5h2v-1h-2v1zM2 11h7v-3h-1v-1h-1v-1h-1v-1h-2v1h1v1h1v1h1v2h-5v1zM10 12h3v-3h3v-1h-3v-1h3v-1h-3v-2h-1v-1h-1v8h-1v1zM7 2v-3h4v3h-4zM4 3h9v-5h-8v4h-1v1z" />
    <glyph glyph-name="uniAC49" unicode="&#xac49;" 
d="M2 5h2v-1h-2v1zM2 11h7v-3h-1v-1h-1v-1h-1v-1h-2v1h1v1h1v1h1v2h-5v1zM10 12h3v-3h3v-1h-3v-1h3v-1h-3v-2h-1v-1h-1v8h-1v1zM7 0v-1h4v1h-4zM4 3h3v-2h4v1h-1v1h3v-5h-8v4h-1v1z" />
    <glyph glyph-name="uniAC4A" unicode="&#xac4a;" 
d="M2 5h2v-1h-2v1zM2 11h7v-3h-1v-1h-1v-1h-1v-1h-2v1h1v1h1v1h1v2h-5v1zM10 12h3v-3h3v-1h-3v-1h3v-1h-3v-2h-1v-1h-1v8h-1v1zM6 0v-1h1v1h-1zM4 3h2v-2h1v2h2v-4h1v1h1v3h2v-3h2v-2h-2v1h-2v-1h-7v5z" />
    <glyph glyph-name="uniAC4B" unicode="&#xac4b;" 
d="M2 5h2v-1h-2v1zM2 11h7v-3h-1v-1h-1v-1h-1v-1h-2v1h1v1h1v1h1v2h-5v1zM10 12h3v-3h3v-1h-3v-1h3v-1h-3v-2h-1v-1h-1v8h-1v1zM10 1h2v-1h1v-1h1v-1h-2v1h-1v1h-1v1zM4 -1h2v-1h-2v1zM8 3h2v-2h-1v-1h-1v-1h-2v1h1v1h1v2z" />
    <glyph glyph-name="uniAC4C" unicode="&#xac4c;" 
d="M2 5h2v-1h-2v1zM2 11h7v-3h-1v-1h-1v-1h-1v-1h-2v1h1v1h1v1h1v2h-5v1zM10 12h3v-3h3v-1h-3v-1h3v-1h-3v-2h-1v-1h-1v8h-1v1zM6 3h2v-2h2v2h2v-2h1v-1h1v-1h1v-1h-2v1h-1v1h-2v-1h-1v-1h-2v1h1v1h-2v-1h-1v-1h-2v1h1v1h1v1h1v2z" />
    <glyph glyph-name="uniAC4D" unicode="&#xac4d;" 
d="M2 5h2v-1h-2v1zM2 11h7v-3h-1v-1h-1v-1h-1v-1h-2v1h1v1h1v1h1v2h-5v1zM10 12h3v-3h3v-1h-3v-1h3v-1h-3v-2h-1v-1h-1v8h-1v1zM7 2v-3h4v3h-4zM6 3h6v-1h1v-3h-1v-1h-6v1h-1v3h1v1z" />
    <glyph glyph-name="uniAC4E" unicode="&#xac4e;" 
d="M2 5h2v-1h-2v1zM2 11h7v-3h-1v-1h-1v-1h-1v-1h-2v1h1v1h1v1h1v2h-5v1zM10 12h3v-3h3v-1h-3v-1h3v-1h-3v-2h-1v-1h-1v8h-1v1zM12 -1h2v-1h-2v1zM4 -1h2v-1h-2v1zM4 3h10v-1h-4v-1h1v-1h1v-1h-2v1h-2v-1h-2v1h1v1h1v1h-4v1z" />
    <glyph glyph-name="uniAC4F" unicode="&#xac4f;" 
d="M2 5h2v-1h-2v1zM2 11h7v-3h-1v-1h-1v-1h-1v-1h-2v1h1v1h1v1h1v2h-5v1zM10 12h3v-3h3v-1h-3v-1h3v-1h-3v-2h-1v-1h-1v8h-1v1zM12 -1h2v-1h-2v1zM4 -1h2v-1h-2v1zM8 3h2v-1h4v-1h-3v-1h1v-1h-2v1h-2v-1h-2v1h1v1h-3v1h4v1z" />
    <glyph glyph-name="uniAC50" unicode="&#xac50;" 
d="M2 5h2v-1h-2v1zM2 11h7v-3h-1v-1h-1v-1h-1v-1h-2v1h1v1h1v1h1v2h-5v1zM10 12h3v-3h3v-1h-3v-1h3v-1h-3v-2h-1v-1h-1v8h-1v1zM5 3h8v-4h-1v-1h-1v2h-6v1h6v1h-6v1z" />
    <glyph glyph-name="uniAC51" unicode="&#xac51;" 
d="M2 5h2v-1h-2v1zM2 11h7v-3h-1v-1h-1v-1h-1v-1h-2v1h1v1h1v1h1v2h-5v1zM10 12h3v-3h3v-1h-3v-1h3v-1h-3v-2h-1v-1h-1v8h-1v1zM4 3h9v-1h-6v-1h6v-1h-6v-1h6v-1h-7v1h-1v3h-1v1z" />
    <glyph glyph-name="uniAC52" unicode="&#xac52;" 
d="M2 5h2v-1h-2v1zM2 11h7v-3h-1v-1h-1v-1h-1v-1h-2v1h1v1h1v1h1v2h-5v1zM10 12h3v-3h3v-1h-3v-1h3v-1h-3v-2h-1v-1h-1v8h-1v1zM8 2v-3h2v3h-2zM4 3h10v-1h-2v-3h2v-1h-10v1h2v3h-2v1z" />
    <glyph glyph-name="uniAC53" unicode="&#xac53;" 
d="M2 5h2v-1h-2v1zM2 11h7v-3h-1v-1h-1v-1h-1v-1h-2v1h1v1h1v1h1v2h-5v1zM10 12h3v-3h3v-1h-3v-1h3v-1h-3v-2h-1v-1h-1v8h-1v1zM7 0v-1h4v1h-4zM7 3h4v-1h3v-1h-2v-1h1v-1h-1v-1h-6v1h-1v1h1v1h-2v1h3v1z" />
    <glyph glyph-name="uniAC54" unicode="&#xac54;" 
d="M2 4h2v-1h-2v1zM2 10h7v-3h-1v-1h-1v-1h-1v-1h-2v1h1v1h1v1h1v2h-5v1zM12 7v-2h1v2h-1zM9 11h3v-3h1v3h-1v1h3v-13h-1v-1h-1v6h-1v-4h-1v-1h-1v11h-1v1z" />
    <glyph glyph-name="uniAC55" unicode="&#xac55;" 
d="M2 5h2v-1h-2v1zM2 11h7v-3h-1v-1h-1v-1h-1v-1h-2v1h1v1h1v1h1v2h-5v1zM12 8v-1h1v1h-1zM9 11h3v-2h1v2h-1v1h3v-8h-1v-1h-1v3h-1v-2h-1v-1h-1v7h-1v1zM5 3h10v-4h-1v-1h-1v4h-8v1z" />
    <glyph glyph-name="uniAC56" unicode="&#xac56;" 
d="M2 5h2v-1h-2v1zM2 11h7v-3h-1v-1h-1v-1h-1v-1h-2v1h1v1h1v1h1v2h-5v1zM12 8v-1h1v1h-1zM9 11h3v-2h1v2h-1v1h3v-8h-1v-1h-1v3h-1v-2h-1v-1h-1v7h-1v1zM4 3h11v-4h-1v-1h-1v4h-3v-3h-1v-1h-1v4h-4v1z" />
    <glyph glyph-name="uniAC57" unicode="&#xac57;" 
d="M2 5h2v-1h-2v1zM2 11h7v-3h-1v-1h-1v-1h-1v-1h-2v1h1v1h1v1h1v2h-5v1zM12 8v-1h1v1h-1zM9 11h3v-2h1v2h-1v1h3v-8h-1v-1h-1v3h-1v-2h-1v-1h-1v7h-1v1zM12 3h2v-2h1v-1h1v-2h-2v2h-1v-1h-1v-1h-2v1h1v1h1v3zM4 3h6v-4h-1v-1h-1v4h-4v1z" />
    <glyph glyph-name="uniAC58" unicode="&#xac58;" 
d="M2 5h2v-1h-2v1zM2 11h7v-3h-1v-1h-1v-1h-1v-1h-2v1h1v1h1v1h1v2h-5v1zM12 8v-1h1v1h-1zM9 11h3v-2h1v2h-1v1h3v-8h-1v-1h-1v3h-1v-2h-1v-1h-1v7h-1v1zM5 3h3v-4h7v-1h-8v1h-1v3h-1v1z" />
    <glyph glyph-name="uniAC59" unicode="&#xac59;" 
d="M2 5h2v-1h-2v1zM2 11h7v-3h-1v-1h-1v-1h-1v-1h-2v1h1v1h1v1h1v2h-5v1zM12 8v-1h1v1h-1zM9 11h3v-2h1v2h-1v1h3v-8h-1v-1h-1v3h-1v-2h-1v-1h-1v7h-1v1zM9 3h6v-1h-2v-2h1v-1h1v-1h-2v1h-2v-1h-2v1h1v1h1v2h-2v1zM3 3h3v-4h2v-1h-3v1h-1v3h-1v1z" />
    <glyph glyph-name="uniAC5A" unicode="&#xac5a;" 
d="M2 5h2v-1h-2v1zM2 11h7v-3h-1v-1h-1v-1h-1v-1h-2v1h1v1h1v1h1v2h-5v1zM12 8v-1h1v1h-1zM9 11h3v-2h1v2h-1v1h3v-8h-1v-1h-1v3h-1v-2h-1v-1h-1v7h-1v1zM11 0v-1h2v1h-2zM11 3h2v-1h2v-1h-1v-1h1v-1h-1v-1h-4v1h-1v1h1v1h-1v1h2v1zM3 3h3v-4h3v-1h-4v1h-1v3h-1v1z" />
    <glyph glyph-name="uniAC5B" unicode="&#xac5b;" 
d="M2 5h2v-1h-2v1zM2 11h7v-3h-1v-1h-1v-1h-1v-1h-2v1h1v1h1v1h1v2h-5v1zM12 8v-1h1v1h-1zM9 11h3v-2h1v2h-1v1h3v-8h-1v-1h-1v3h-1v-2h-1v-1h-1v7h-1v1zM5 3h9v-1h-6v-3h6v-1h-7v1h-1v3h-1v1z" />
    <glyph glyph-name="uniAC5C" unicode="&#xac5c;" 
d="M2 5h2v-1h-2v1zM2 11h7v-3h-1v-1h-1v-1h-1v-1h-2v1h1v1h1v1h1v2h-5v1zM12 8v-1h1v1h-1zM9 11h3v-2h1v2h-1v1h3v-8h-1v-1h-1v3h-1v-2h-1v-1h-1v7h-1v1zM6 3h9v-3h-7v-1h7v-1h-8v1h-1v2h7v1h-7v1z" />
    <glyph glyph-name="uniAC5D" unicode="&#xac5d;" 
d="M2 5h2v-1h-2v1zM2 11h7v-3h-1v-1h-1v-1h-1v-1h-2v1h1v1h1v1h1v2h-5v1zM12 8v-1h1v1h-1zM9 11h3v-2h1v2h-1v1h3v-8h-1v-1h-1v3h-1v-2h-1v-1h-1v7h-1v1zM11 3h4v-4h-1v-1h-1v4h-2v1zM5 3h5v-3h-3v-1h3v-1h-4v1h-1v2h3v1h-3v1z" />
    <glyph glyph-name="uniAC5E" unicode="&#xac5e;" 
d="M2 5h2v-1h-2v1zM2 11h7v-3h-1v-1h-1v-1h-1v-1h-2v1h1v1h1v1h1v2h-5v1zM12 8v-1h1v1h-1zM9 11h3v-2h1v2h-1v1h3v-8h-1v-1h-1v3h-1v-2h-1v-1h-1v7h-1v1zM12 2v-3h1v3h-1zM10 3h5v-5h-5v5zM4 3h5v-3h-3v-1h3v-1h-4v1h-1v2h3v1h-3v1z" />
    <glyph glyph-name="uniAC5F" unicode="&#xac5f;" 
d="M2 5h2v-1h-2v1zM2 11h7v-3h-1v-1h-1v-1h-1v-1h-2v1h1v1h1v1h1v2h-5v1zM12 8v-1h1v1h-1zM9 11h3v-2h1v2h-1v1h3v-8h-1v-1h-1v3h-1v-2h-1v-1h-1v7h-1v1zM12 0v-1h1v1h-1zM10 3h2v-2h1v2h2v-5h-5v5zM4 3h5v-3h-3v-1h3v-1h-4v1h-1v2h3v1h-3v1z" />
    <glyph glyph-name="uniAC60" unicode="&#xac60;" 
d="M2 5h2v-1h-2v1zM2 11h7v-3h-1v-1h-1v-1h-1v-1h-2v1h1v1h1v1h1v2h-5v1zM12 8v-1h1v1h-1zM9 11h3v-2h1v2h-1v1h3v-8h-1v-1h-1v3h-1v-2h-1v-1h-1v7h-1v1zM12 3h2v-3h1v-1h1v-1h-2v1h-2v-1h-1v2h1v3zM5 3h5v-3h-3v-1h3v-1h-4v1h-1v2h3v1h-3v1z" />
    <glyph glyph-name="uniAC61" unicode="&#xac61;" 
d="M2 5h2v-1h-2v1zM2 11h7v-3h-1v-1h-1v-1h-1v-1h-2v1h1v1h1v1h1v2h-5v1zM12 8v-1h1v1h-1zM9 11h3v-2h1v2h-1v1h3v-8h-1v-1h-1v3h-1v-2h-1v-1h-1v7h-1v1zM10 3h5v-1h-3v-1h3v-1h-3v-1h3v-1h-5v5zM4 3h5v-3h-3v-1h3v-1h-4v1h-1v2h3v1h-3v1z" />
    <glyph glyph-name="uniAC62" unicode="&#xac62;" 
d="M2 5h2v-1h-2v1zM2 11h7v-3h-1v-1h-1v-1h-1v-1h-2v1h1v1h1v1h1v2h-5v1zM12 8v-1h1v1h-1zM9 11h3v-2h1v2h-1v1h3v-8h-1v-1h-1v3h-1v-2h-1v-1h-1v7h-1v1zM11 2v-3h1v3h-1zM8 3h7v-1h-1v-3h1v-1h-7v1h1v3h-1v1zM3 3h4v-1h1v-2h-3v-1h2v-1h-3v1h-1v2h3v1h-3v1z" />
    <glyph glyph-name="uniAC63" unicode="&#xac63;" 
d="M2 5h2v-1h-2v1zM2 11h7v-3h-1v-1h-1v-1h-1v-1h-2v1h1v1h1v1h1v2h-5v1zM12 8v-1h1v1h-1zM9 11h3v-2h1v2h-1v1h3v-8h-1v-1h-1v3h-1v-2h-1v-1h-1v7h-1v1zM11 0v-1h2v1h-2zM11 3h2v-1h2v-1h-1v-1h1v-1h-1v-1h-4v1h-1v1h1v1h-1v1h2v1zM3 3h5v-3h-3v-1h3v-1h-4v1h-1v2h3v1h-3v1
z" />
    <glyph glyph-name="uniAC64" unicode="&#xac64;" 
d="M2 5h2v-1h-2v1zM2 11h7v-3h-1v-1h-1v-1h-1v-1h-2v1h1v1h1v1h1v2h-5v1zM12 8v-1h1v1h-1zM9 11h3v-2h1v2h-1v1h3v-8h-1v-1h-1v3h-1v-2h-1v-1h-1v7h-1v1zM8 2v-3h5v3h-5zM5 3h10v-5h-9v4h-1v1z" />
    <glyph glyph-name="uniAC65" unicode="&#xac65;" 
d="M2 5h2v-1h-2v1zM2 11h7v-3h-1v-1h-1v-1h-1v-1h-2v1h1v1h1v1h1v2h-5v1zM12 8v-1h1v1h-1zM9 11h3v-2h1v2h-1v1h3v-8h-1v-1h-1v3h-1v-2h-1v-1h-1v7h-1v1zM8 0v-1h5v1h-5zM5 3h3v-2h5v1h-1v1h3v-5h-9v4h-1v1z" />
    <glyph glyph-name="uniAC66" unicode="&#xac66;" 
d="M2 5h2v-1h-2v1zM2 11h7v-3h-1v-1h-1v-1h-1v-1h-2v1h1v1h1v1h1v2h-5v1zM12 8v-1h1v1h-1zM9 11h3v-2h1v2h-1v1h3v-8h-1v-1h-1v3h-1v-2h-1v-1h-1v7h-1v1zM6 0v-1h1v1h-1zM4 3h2v-2h1v2h2v-4h1v1h1v3h2v-3h2v-2h-2v1h-2v-1h-7v5z" />
    <glyph glyph-name="uniAC67" unicode="&#xac67;" 
d="M2 5h2v-1h-2v1zM2 11h7v-3h-1v-1h-1v-1h-1v-1h-2v1h1v1h1v1h1v2h-5v1zM12 8v-1h1v1h-1zM9 11h3v-2h1v2h-1v1h3v-8h-1v-1h-1v3h-1v-2h-1v-1h-1v7h-1v1zM11 1h2v-1h1v-1h1v-1h-2v1h-1v1h-1v1zM5 -1h2v-1h-2v1zM9 3h2v-2h-1v-1h-1v-1h-2v1h1v1h1v2z" />
    <glyph glyph-name="uniAC68" unicode="&#xac68;" 
d="M2 5h2v-1h-2v1zM2 11h7v-3h-1v-1h-1v-1h-1v-1h-2v1h1v1h1v1h1v2h-5v1zM12 8v-1h1v1h-1zM9 11h3v-2h1v2h-1v1h3v-8h-1v-1h-1v3h-1v-2h-1v-1h-1v7h-1v1zM7 3h2v-2h2v2h2v-2h1v-1h1v-1h1v-1h-2v1h-1v1h-2v-1h-1v-1h-2v1h1v1h-2v-1h-1v-1h-2v1h1v1h1v1h1v2z" />
    <glyph glyph-name="uniAC69" unicode="&#xac69;" 
d="M2 5h2v-1h-2v1zM2 11h7v-3h-1v-1h-1v-1h-1v-1h-2v1h1v1h1v1h1v2h-5v1zM12 8v-1h1v1h-1zM9 11h3v-2h1v2h-1v1h3v-8h-1v-1h-1v3h-1v-2h-1v-1h-1v7h-1v1zM9 2v-3h4v3h-4zM8 3h6v-1h1v-3h-1v-1h-6v1h-1v3h1v1z" />
    <glyph glyph-name="uniAC6A" unicode="&#xac6a;" 
d="M2 5h2v-1h-2v1zM2 11h7v-3h-1v-1h-1v-1h-1v-1h-2v1h1v1h1v1h1v2h-5v1zM12 8v-1h1v1h-1zM9 11h3v-2h1v2h-1v1h3v-8h-1v-1h-1v3h-1v-2h-1v-1h-1v7h-1v1zM13 -1h2v-1h-2v1zM5 -1h2v-1h-2v1zM5 3h10v-1h-4v-1h1v-1h1v-1h-2v1h-2v-1h-2v1h1v1h1v1h-4v1z" />
    <glyph glyph-name="uniAC6B" unicode="&#xac6b;" 
d="M2 5h2v-1h-2v1zM2 11h7v-3h-1v-1h-1v-1h-1v-1h-2v1h1v1h1v1h1v2h-5v1zM12 8v-1h1v1h-1zM9 11h3v-2h1v2h-1v1h3v-8h-1v-1h-1v3h-1v-2h-1v-1h-1v7h-1v1zM13 -1h2v-1h-2v1zM5 -1h2v-1h-2v1zM9 3h2v-1h4v-1h-3v-1h1v-1h-2v1h-2v-1h-2v1h1v1h-3v1h4v1z" />
    <glyph glyph-name="uniAC6C" unicode="&#xac6c;" 
d="M2 5h2v-1h-2v1zM2 11h7v-3h-1v-1h-1v-1h-1v-1h-2v1h1v1h1v1h1v2h-5v1zM12 8v-1h1v1h-1zM9 11h3v-2h1v2h-1v1h3v-8h-1v-1h-1v3h-1v-2h-1v-1h-1v7h-1v1zM6 3h9v-4h-1v-1h-1v2h-7v1h7v1h-7v1z" />
    <glyph glyph-name="uniAC6D" unicode="&#xac6d;" 
d="M2 5h2v-1h-2v1zM2 11h7v-3h-1v-1h-1v-1h-1v-1h-2v1h1v1h1v1h1v2h-5v1zM12 8v-1h1v1h-1zM9 11h3v-2h1v2h-1v1h3v-8h-1v-1h-1v3h-1v-2h-1v-1h-1v7h-1v1zM6 3h9v-1h-6v-1h6v-1h-6v-1h6v-1h-7v1h-1v3h-1v1z" />
    <glyph glyph-name="uniAC6E" unicode="&#xac6e;" 
d="M2 5h2v-1h-2v1zM2 11h7v-3h-1v-1h-1v-1h-1v-1h-2v1h1v1h1v1h1v2h-5v1zM12 8v-1h1v1h-1zM9 11h3v-2h1v2h-1v1h3v-8h-1v-1h-1v3h-1v-2h-1v-1h-1v7h-1v1zM9 2v-3h2v3h-2zM5 3h10v-1h-2v-3h2v-1h-10v1h2v3h-2v1z" />
    <glyph glyph-name="uniAC6F" unicode="&#xac6f;" 
d="M2 5h2v-1h-2v1zM2 11h7v-3h-1v-1h-1v-1h-1v-1h-2v1h1v1h1v1h1v2h-5v1zM12 8v-1h1v1h-1zM9 11h3v-2h1v2h-1v1h3v-8h-1v-1h-1v3h-1v-2h-1v-1h-1v7h-1v1zM8 0v-1h4v1h-4zM8 3h4v-1h3v-1h-2v-1h1v-1h-1v-1h-6v1h-1v1h1v1h-2v1h3v1z" />
    <glyph glyph-name="uniAC70" unicode="&#xac70;" 
d="M2 4h2v-1h-2v1zM2 10h7v-3h-1v-1h-1v-1h-1v-1h-2v1h1v1h1v1h1v2h-5v1zM11 12h3v-13h-1v-1h-1v8h-3v1h3v4h-1v1z" />
    <glyph glyph-name="uniAC71" unicode="&#xac71;" 
d="M2 5h2v-1h-2v1zM2 11h7v-3h-1v-1h-1v-1h-1v-1h-2v1h1v1h1v1h1v2h-5v1zM11 12h3v-8h-1v-1h-1v4h-4v1h4v3h-1v1zM5 3h9v-4h-1v-1h-1v4h-7v1z" />
    <glyph glyph-name="uniAC72" unicode="&#xac72;" 
d="M2 5h2v-1h-2v1zM2 11h7v-3h-1v-1h-1v-1h-1v-1h-2v1h1v1h1v1h1v2h-5v1zM11 12h3v-8h-1v-1h-1v4h-4v1h4v3h-1v1zM4 3h10v-4h-1v-1h-1v4h-3v-3h-1v-1h-1v4h-3v1z" />
    <glyph glyph-name="uniAC73" unicode="&#xac73;" 
d="M2 5h2v-1h-2v1zM2 11h7v-3h-1v-1h-1v-1h-1v-1h-2v1h1v1h1v1h1v2h-5v1zM11 12h3v-8h-1v-1h-1v4h-4v1h4v3h-1v1zM11 3h2v-2h1v-1h1v-2h-2v2h-1v-1h-1v-1h-2v1h1v1h1v3zM4 3h5v-4h-1v-1h-1v4h-3v1z" />
    <glyph glyph-name="uniAC74" unicode="&#xac74;" 
d="M2 5h2v-1h-2v1zM2 11h7v-3h-1v-1h-1v-1h-1v-1h-2v1h1v1h1v1h1v2h-5v1zM11 12h3v-8h-1v-1h-1v4h-4v1h4v3h-1v1zM5 3h3v-4h6v-1h-7v1h-1v3h-1v1z" />
    <glyph glyph-name="uniAC75" unicode="&#xac75;" 
d="M2 5h2v-1h-2v1zM2 11h7v-3h-1v-1h-1v-1h-1v-1h-2v1h1v1h1v1h1v2h-5v1zM11 12h3v-8h-1v-1h-1v4h-4v1h4v3h-1v1zM4 3h3v-4h3v1h1v2h-2v1h6v-1h-2v-2h1v-1h1v-1h-2v1h-2v-1h-5v1h-1v3h-1v1z" />
    <glyph glyph-name="uniAC76" unicode="&#xac76;" 
d="M2 5h2v-1h-2v1zM2 11h7v-3h-1v-1h-1v-1h-1v-1h-2v1h1v1h1v1h1v2h-5v1zM11 12h3v-8h-1v-1h-1v4h-4v1h4v3h-1v1zM11 0v-1h2v1h-2zM11 3h2v-1h2v-1h-1v-1h1v-1h-1v-1h-4v1h-1v1h1v1h-1v1h2v1zM4 3h3v-4h2v-1h-3v1h-1v3h-1v1z" />
    <glyph glyph-name="uniAC77" unicode="&#xac77;" 
d="M2 5h2v-1h-2v1zM2 11h7v-3h-1v-1h-1v-1h-1v-1h-2v1h1v1h1v1h1v2h-5v1zM11 12h3v-8h-1v-1h-1v4h-4v1h4v3h-1v1zM5 3h9v-1h-6v-3h6v-1h-7v1h-1v3h-1v1z" />
    <glyph glyph-name="uniAC78" unicode="&#xac78;" 
d="M2 5h2v-1h-2v1zM2 11h7v-3h-1v-1h-1v-1h-1v-1h-2v1h1v1h1v1h1v2h-5v1zM11 12h3v-8h-1v-1h-1v4h-4v1h4v3h-1v1zM5 3h9v-3h-7v-1h7v-1h-8v1h-1v2h7v1h-7v1z" />
    <glyph glyph-name="uniAC79" unicode="&#xac79;" 
d="M2 5h2v-1h-2v1zM2 11h7v-3h-1v-1h-1v-1h-1v-1h-2v1h1v1h1v1h1v2h-5v1zM11 12h3v-8h-1v-1h-1v4h-4v1h4v3h-1v1zM10 3h4v-4h-1v-1h-1v4h-2v1zM4 3h5v-3h-3v-1h3v-1h-4v1h-1v2h3v1h-3v1z" />
    <glyph glyph-name="uniAC7A" unicode="&#xac7a;" 
d="M2 5h2v-1h-2v1zM2 11h7v-3h-1v-1h-1v-1h-1v-1h-2v1h1v1h1v1h1v2h-5v1zM11 12h3v-8h-1v-1h-1v4h-4v1h4v3h-1v1zM11 2v-3h1v3h-1zM9 3h5v-5h-5v5zM3 3h5v-3h-3v-1h3v-1h-4v1h-1v2h3v1h-3v1z" />
    <glyph glyph-name="uniAC7B" unicode="&#xac7b;" 
d="M2 5h2v-1h-2v1zM2 11h7v-3h-1v-1h-1v-1h-1v-1h-2v1h1v1h1v1h1v2h-5v1zM11 12h3v-8h-1v-1h-1v4h-4v1h4v3h-1v1zM11 0v-1h1v1h-1zM9 3h2v-2h1v2h2v-5h-5v5zM3 3h5v-3h-3v-1h3v-1h-4v1h-1v2h3v1h-3v1z" />
    <glyph glyph-name="uniAC7C" unicode="&#xac7c;" 
d="M2 5h2v-1h-2v1zM2 11h7v-3h-1v-1h-1v-1h-1v-1h-2v1h1v1h1v1h1v2h-5v1zM11 12h3v-8h-1v-1h-1v4h-4v1h4v3h-1v1zM11 3h2v-3h1v-1h1v-1h-2v1h-2v-1h-1v2h1v3zM4 3h5v-3h-3v-1h3v-1h-4v1h-1v2h3v1h-3v1z" />
    <glyph glyph-name="uniAC7D" unicode="&#xac7d;" 
d="M2 5h2v-1h-2v1zM2 11h7v-3h-1v-1h-1v-1h-1v-1h-2v1h1v1h1v1h1v2h-5v1zM11 12h3v-8h-1v-1h-1v4h-4v1h4v3h-1v1zM9 3h5v-1h-3v-1h3v-1h-3v-1h3v-1h-5v5zM3 3h5v-3h-3v-1h3v-1h-4v1h-1v2h3v1h-3v1z" />
    <glyph glyph-name="uniAC7E" unicode="&#xac7e;" 
d="M2 5h2v-1h-2v1zM2 11h7v-3h-1v-1h-1v-1h-1v-1h-2v1h1v1h1v1h1v2h-5v1zM11 12h3v-8h-1v-1h-1v4h-4v1h4v3h-1v1zM11 2v-3h1v3h-1zM8 3h7v-1h-1v-3h1v-1h-7v1h1v3h-1v1zM3 3h4v-1h1v-2h-3v-1h2v-1h-3v1h-1v2h3v1h-3v1z" />
    <glyph glyph-name="uniAC7F" unicode="&#xac7f;" 
d="M2 5h2v-1h-2v1zM2 11h7v-3h-1v-1h-1v-1h-1v-1h-2v1h1v1h1v1h1v2h-5v1zM11 12h3v-8h-1v-1h-1v4h-4v1h4v3h-1v1zM11 0v-1h2v1h-2zM11 3h2v-1h2v-1h-1v-1h1v-1h-1v-1h-4v1h-1v1h1v1h-1v1h2v1zM3 3h5v-3h-3v-1h3v-1h-4v1h-1v2h3v1h-3v1z" />
    <glyph glyph-name="uniAC80" unicode="&#xac80;" 
d="M2 5h2v-1h-2v1zM2 11h7v-3h-1v-1h-1v-1h-1v-1h-2v1h1v1h1v1h1v2h-5v1zM11 12h3v-8h-1v-1h-1v4h-4v1h4v3h-1v1zM8 2v-3h4v3h-4zM5 3h9v-5h-8v4h-1v1z" />
    <glyph glyph-name="uniAC81" unicode="&#xac81;" 
d="M2 5h2v-1h-2v1zM2 11h7v-3h-1v-1h-1v-1h-1v-1h-2v1h1v1h1v1h1v2h-5v1zM11 12h3v-8h-1v-1h-1v4h-4v1h4v3h-1v1zM8 0v-1h4v1h-4zM5 3h3v-2h4v1h-1v1h3v-5h-8v4h-1v1z" />
    <glyph glyph-name="uniAC82" unicode="&#xac82;" 
d="M2 5h2v-1h-2v1zM2 11h7v-3h-1v-1h-1v-1h-1v-1h-2v1h1v1h1v1h1v2h-5v1zM11 12h3v-8h-1v-1h-1v4h-4v1h4v3h-1v1zM6 0v-1h1v1h-1zM4 3h2v-2h1v2h2v-4h1v1h1v3h2v-3h2v-2h-2v1h-2v-1h-7v5z" />
    <glyph glyph-name="uniAC83" unicode="&#xac83;" 
d="M2 5h2v-1h-2v1zM2 11h7v-3h-1v-1h-1v-1h-1v-1h-2v1h1v1h1v1h1v2h-5v1zM11 12h3v-8h-1v-1h-1v4h-4v1h4v3h-1v1zM10 1h2v-1h1v-1h1v-1h-2v1h-1v1h-1v1zM4 -1h2v-1h-2v1zM8 3h2v-2h-1v-1h-1v-1h-2v1h1v1h1v2z" />
    <glyph glyph-name="uniAC84" unicode="&#xac84;" 
d="M2 5h2v-1h-2v1zM2 11h7v-3h-1v-1h-1v-1h-1v-1h-2v1h1v1h1v1h1v2h-5v1zM11 12h3v-8h-1v-1h-1v4h-4v1h4v3h-1v1zM7 3h2v-2h2v2h2v-2h1v-1h1v-1h1v-1h-2v1h-1v1h-2v-1h-1v-1h-2v1h1v1h-2v-1h-1v-1h-2v1h1v1h1v1h1v2z" />
    <glyph glyph-name="uniAC85" unicode="&#xac85;" 
d="M2 5h2v-1h-2v1zM2 11h7v-3h-1v-1h-1v-1h-1v-1h-2v1h1v1h1v1h1v2h-5v1zM11 12h3v-8h-1v-1h-1v4h-4v1h4v3h-1v1zM8 2v-3h4v3h-4zM7 3h6v-1h1v-3h-1v-1h-6v1h-1v3h1v1z" />
    <glyph glyph-name="uniAC86" unicode="&#xac86;" 
d="M2 5h2v-1h-2v1zM2 11h7v-3h-1v-1h-1v-1h-1v-1h-2v1h1v1h1v1h1v2h-5v1zM11 12h3v-8h-1v-1h-1v4h-4v1h4v3h-1v1zM12 -1h2v-1h-2v1zM4 -1h2v-1h-2v1zM4 3h10v-1h-4v-1h1v-1h1v-1h-2v1h-2v-1h-2v1h1v1h1v1h-4v1z" />
    <glyph glyph-name="uniAC87" unicode="&#xac87;" 
d="M2 5h2v-1h-2v1zM2 11h7v-3h-1v-1h-1v-1h-1v-1h-2v1h1v1h1v1h1v2h-5v1zM11 12h3v-8h-1v-1h-1v4h-4v1h4v3h-1v1zM12 -1h2v-1h-2v1zM4 -1h2v-1h-2v1zM8 3h2v-1h4v-1h-3v-1h1v-1h-2v1h-2v-1h-2v1h1v1h-3v1h4v1z" />
    <glyph glyph-name="uniAC88" unicode="&#xac88;" 
d="M2 5h2v-1h-2v1zM2 11h7v-3h-1v-1h-1v-1h-1v-1h-2v1h1v1h1v1h1v2h-5v1zM11 12h3v-8h-1v-1h-1v4h-4v1h4v3h-1v1zM6 3h8v-4h-1v-1h-1v2h-6v1h6v1h-6v1z" />
    <glyph glyph-name="uniAC89" unicode="&#xac89;" 
d="M2 5h2v-1h-2v1zM2 11h7v-3h-1v-1h-1v-1h-1v-1h-2v1h1v1h1v1h1v2h-5v1zM11 12h3v-8h-1v-1h-1v4h-4v1h4v3h-1v1zM5 3h9v-1h-6v-1h6v-1h-6v-1h6v-1h-7v1h-1v3h-1v1z" />
    <glyph glyph-name="uniAC8A" unicode="&#xac8a;" 
d="M2 5h2v-1h-2v1zM2 11h7v-3h-1v-1h-1v-1h-1v-1h-2v1h1v1h1v1h1v2h-5v1zM11 12h3v-8h-1v-1h-1v4h-4v1h4v3h-1v1zM8 2v-3h2v3h-2zM4 3h10v-1h-2v-3h2v-1h-10v1h2v3h-2v1z" />
    <glyph glyph-name="uniAC8B" unicode="&#xac8b;" 
d="M2 5h2v-1h-2v1zM2 11h7v-3h-1v-1h-1v-1h-1v-1h-2v1h1v1h1v1h1v2h-5v1zM11 12h3v-8h-1v-1h-1v4h-4v1h4v3h-1v1zM8 0v-1h4v1h-4zM8 3h4v-1h3v-1h-2v-1h1v-1h-1v-1h-6v1h-1v1h1v1h-2v1h3v1z" />
    <glyph glyph-name="uniAC8C" unicode="&#xac8c;" 
d="M2 4h2v-1h-2v1zM2 10h7v-3h-1v-1h-1v-1h-1v-1h-2v1h1v1h1v1h1v2h-5v1zM12 12h3v-13h-1v-1h-1v13h-1v1zM9 11h3v-11h-1v-1h-1v7h-2v1h2v3h-1v1z" />
    <glyph glyph-name="uniAC8D" unicode="&#xac8d;" 
d="M2 5h2v-1h-2v1zM2 11h7v-3h-1v-1h-1v-1h-1v-1h-2v1h1v1h1v1h1v2h-5v1zM12 12h3v-8h-1v-1h-1v8h-1v1zM9 11h3v-7h-1v-1h-1v4h-2v1h2v2h-1v1zM5 3h10v-4h-1v-1h-1v4h-8v1z" />
    <glyph glyph-name="uniAC8E" unicode="&#xac8e;" 
d="M2 5h2v-1h-2v1zM2 11h7v-3h-1v-1h-1v-1h-1v-1h-2v1h1v1h1v1h1v2h-5v1zM12 12h3v-8h-1v-1h-1v8h-1v1zM9 11h3v-7h-1v-1h-1v4h-2v1h2v2h-1v1zM4 3h11v-4h-1v-1h-1v4h-3v-3h-1v-1h-1v4h-4v1z" />
    <glyph glyph-name="uniAC8F" unicode="&#xac8f;" 
d="M2 5h2v-1h-2v1zM2 11h7v-3h-1v-1h-1v-1h-1v-1h-2v1h1v1h1v1h1v2h-5v1zM12 12h3v-8h-1v-1h-1v8h-1v1zM9 11h3v-7h-1v-1h-1v4h-2v1h2v2h-1v1zM12 3h2v-2h1v-1h1v-2h-2v2h-1v-1h-1v-1h-2v1h1v1h1v3zM4 3h6v-4h-1v-1h-1v4h-4v1z" />
    <glyph glyph-name="uniAC90" unicode="&#xac90;" 
d="M2 5h2v-1h-2v1zM2 11h7v-3h-1v-1h-1v-1h-1v-1h-2v1h1v1h1v1h1v2h-5v1zM12 12h3v-8h-1v-1h-1v8h-1v1zM9 11h3v-7h-1v-1h-1v4h-2v1h2v2h-1v1zM5 3h3v-4h7v-1h-8v1h-1v3h-1v1z" />
    <glyph glyph-name="uniAC91" unicode="&#xac91;" 
d="M2 5h2v-1h-2v1zM2 11h7v-3h-1v-1h-1v-1h-1v-1h-2v1h1v1h1v1h1v2h-5v1zM12 12h3v-8h-1v-1h-1v8h-1v1zM9 11h3v-7h-1v-1h-1v4h-2v1h2v2h-1v1zM9 3h6v-1h-2v-2h1v-1h1v-1h-2v1h-2v-1h-2v1h1v1h1v2h-2v1zM3 3h3v-4h2v-1h-3v1h-1v3h-1v1z" />
    <glyph glyph-name="uniAC92" unicode="&#xac92;" 
d="M2 5h2v-1h-2v1zM2 11h7v-3h-1v-1h-1v-1h-1v-1h-2v1h1v1h1v1h1v2h-5v1zM12 12h3v-8h-1v-1h-1v8h-1v1zM9 11h3v-7h-1v-1h-1v4h-2v1h2v2h-1v1zM11 0v-1h2v1h-2zM11 3h2v-1h2v-1h-1v-1h1v-1h-1v-1h-4v1h-1v1h1v1h-1v1h2v1zM3 3h3v-4h3v-1h-4v1h-1v3h-1v1z" />
    <glyph glyph-name="uniAC93" unicode="&#xac93;" 
d="M2 5h2v-1h-2v1zM2 11h7v-3h-1v-1h-1v-1h-1v-1h-2v1h1v1h1v1h1v2h-5v1zM12 12h3v-8h-1v-1h-1v8h-1v1zM9 11h3v-7h-1v-1h-1v4h-2v1h2v2h-1v1zM5 3h9v-1h-6v-3h6v-1h-7v1h-1v3h-1v1z" />
    <glyph glyph-name="uniAC94" unicode="&#xac94;" 
d="M2 5h2v-1h-2v1zM2 11h7v-3h-1v-1h-1v-1h-1v-1h-2v1h1v1h1v1h1v2h-5v1zM12 12h3v-8h-1v-1h-1v8h-1v1zM9 11h3v-7h-1v-1h-1v4h-2v1h2v2h-1v1zM6 3h9v-3h-7v-1h7v-1h-8v1h-1v2h7v1h-7v1z" />
    <glyph glyph-name="uniAC95" unicode="&#xac95;" 
d="M2 5h2v-1h-2v1zM2 11h7v-3h-1v-1h-1v-1h-1v-1h-2v1h1v1h1v1h1v2h-5v1zM12 12h3v-8h-1v-1h-1v8h-1v1zM9 11h3v-7h-1v-1h-1v4h-2v1h2v2h-1v1zM11 3h4v-4h-1v-1h-1v4h-2v1zM5 3h5v-3h-3v-1h3v-1h-4v1h-1v2h3v1h-3v1z" />
    <glyph glyph-name="uniAC96" unicode="&#xac96;" 
d="M2 5h2v-1h-2v1zM2 11h7v-3h-1v-1h-1v-1h-1v-1h-2v1h1v1h1v1h1v2h-5v1zM12 12h3v-8h-1v-1h-1v8h-1v1zM9 11h3v-7h-1v-1h-1v4h-2v1h2v2h-1v1zM12 2v-3h1v3h-1zM10 3h5v-5h-5v5zM4 3h5v-3h-3v-1h3v-1h-4v1h-1v2h3v1h-3v1z" />
    <glyph glyph-name="uniAC97" unicode="&#xac97;" 
d="M2 5h2v-1h-2v1zM2 11h7v-3h-1v-1h-1v-1h-1v-1h-2v1h1v1h1v1h1v2h-5v1zM12 12h3v-8h-1v-1h-1v8h-1v1zM9 11h3v-7h-1v-1h-1v4h-2v1h2v2h-1v1zM12 0v-1h1v1h-1zM10 3h2v-2h1v2h2v-5h-5v5zM4 3h5v-3h-3v-1h3v-1h-4v1h-1v2h3v1h-3v1z" />
    <glyph glyph-name="uniAC98" unicode="&#xac98;" 
d="M2 5h2v-1h-2v1zM2 11h7v-3h-1v-1h-1v-1h-1v-1h-2v1h1v1h1v1h1v2h-5v1zM12 12h3v-8h-1v-1h-1v8h-1v1zM9 11h3v-7h-1v-1h-1v4h-2v1h2v2h-1v1zM12 3h2v-3h1v-1h1v-1h-2v1h-2v-1h-1v2h1v3zM5 3h5v-3h-3v-1h3v-1h-4v1h-1v2h3v1h-3v1z" />
    <glyph glyph-name="uniAC99" unicode="&#xac99;" 
d="M2 5h2v-1h-2v1zM2 11h7v-3h-1v-1h-1v-1h-1v-1h-2v1h1v1h1v1h1v2h-5v1zM12 12h3v-8h-1v-1h-1v8h-1v1zM9 11h3v-7h-1v-1h-1v4h-2v1h2v2h-1v1zM10 3h5v-1h-3v-1h3v-1h-3v-1h3v-1h-5v5zM4 3h5v-3h-3v-1h3v-1h-4v1h-1v2h3v1h-3v1z" />
    <glyph glyph-name="uniAC9A" unicode="&#xac9a;" 
d="M2 5h2v-1h-2v1zM2 11h7v-3h-1v-1h-1v-1h-1v-1h-2v1h1v1h1v1h1v2h-5v1zM12 12h3v-8h-1v-1h-1v8h-1v1zM9 11h3v-7h-1v-1h-1v4h-2v1h2v2h-1v1zM11 2v-3h1v3h-1zM8 3h7v-1h-1v-3h1v-1h-7v1h1v3h-1v1zM3 3h4v-1h1v-2h-3v-1h2v-1h-3v1h-1v2h3v1h-3v1z" />
    <glyph glyph-name="uniAC9B" unicode="&#xac9b;" 
d="M2 5h2v-1h-2v1zM2 11h7v-3h-1v-1h-1v-1h-1v-1h-2v1h1v1h1v1h1v2h-5v1zM12 12h3v-8h-1v-1h-1v8h-1v1zM9 11h3v-7h-1v-1h-1v4h-2v1h2v2h-1v1zM11 0v-1h2v1h-2zM11 3h2v-1h2v-1h-1v-1h1v-1h-1v-1h-4v1h-1v1h1v1h-1v1h2v1zM3 3h5v-3h-3v-1h3v-1h-4v1h-1v2h3v1h-3v1z" />
    <glyph glyph-name="uniAC9C" unicode="&#xac9c;" 
d="M2 5h2v-1h-2v1zM2 11h7v-3h-1v-1h-1v-1h-1v-1h-2v1h1v1h1v1h1v2h-5v1zM12 12h3v-8h-1v-1h-1v8h-1v1zM9 11h3v-7h-1v-1h-1v4h-2v1h2v2h-1v1zM8 2v-3h5v3h-5zM5 3h10v-5h-9v4h-1v1z" />
    <glyph glyph-name="uniAC9D" unicode="&#xac9d;" 
d="M2 5h2v-1h-2v1zM2 11h7v-3h-1v-1h-1v-1h-1v-1h-2v1h1v1h1v1h1v2h-5v1zM12 12h3v-8h-1v-1h-1v8h-1v1zM9 11h3v-7h-1v-1h-1v4h-2v1h2v2h-1v1zM8 0v-1h5v1h-5zM5 3h3v-2h5v1h-1v1h3v-5h-9v4h-1v1z" />
    <glyph glyph-name="uniAC9E" unicode="&#xac9e;" 
d="M2 5h2v-1h-2v1zM2 11h7v-3h-1v-1h-1v-1h-1v-1h-2v1h1v1h1v1h1v2h-5v1zM12 12h3v-8h-1v-1h-1v8h-1v1zM9 11h3v-7h-1v-1h-1v4h-2v1h2v2h-1v1zM6 0v-1h1v1h-1zM4 3h2v-2h1v2h2v-4h1v1h1v3h2v-3h2v-2h-2v1h-2v-1h-7v5z" />
    <glyph glyph-name="uniAC9F" unicode="&#xac9f;" 
d="M2 5h2v-1h-2v1zM2 11h7v-3h-1v-1h-1v-1h-1v-1h-2v1h1v1h1v1h1v2h-5v1zM12 12h3v-8h-1v-1h-1v8h-1v1zM9 11h3v-7h-1v-1h-1v4h-2v1h2v2h-1v1zM11 1h2v-1h1v-1h1v-1h-2v1h-1v1h-1v1zM5 -1h2v-1h-2v1zM9 3h2v-2h-1v-1h-1v-1h-2v1h1v1h1v2z" />
    <glyph glyph-name="uniACA0" unicode="&#xaca0;" 
d="M2 5h2v-1h-2v1zM2 11h7v-3h-1v-1h-1v-1h-1v-1h-2v1h1v1h1v1h1v2h-5v1zM12 12h3v-8h-1v-1h-1v8h-1v1zM9 11h3v-7h-1v-1h-1v4h-2v1h2v2h-1v1zM7 3h2v-2h2v2h2v-2h1v-1h1v-1h1v-1h-2v1h-1v1h-2v-1h-1v-1h-2v1h1v1h-2v-1h-1v-1h-2v1h1v1h1v1h1v2z" />
    <glyph glyph-name="uniACA1" unicode="&#xaca1;" 
d="M2 5h2v-1h-2v1zM2 11h7v-3h-1v-1h-1v-1h-1v-1h-2v1h1v1h1v1h1v2h-5v1zM12 12h3v-8h-1v-1h-1v8h-1v1zM9 11h3v-7h-1v-1h-1v4h-2v1h2v2h-1v1zM9 2v-3h4v3h-4zM8 3h6v-1h1v-3h-1v-1h-6v1h-1v3h1v1z" />
    <glyph glyph-name="uniACA2" unicode="&#xaca2;" 
d="M2 5h2v-1h-2v1zM2 11h7v-3h-1v-1h-1v-1h-1v-1h-2v1h1v1h1v1h1v2h-5v1zM12 12h3v-8h-1v-1h-1v8h-1v1zM9 11h3v-7h-1v-1h-1v4h-2v1h2v2h-1v1zM13 -1h2v-1h-2v1zM5 -1h2v-1h-2v1zM5 3h10v-1h-4v-1h1v-1h1v-1h-2v1h-2v-1h-2v1h1v1h1v1h-4v1z" />
    <glyph glyph-name="uniACA3" unicode="&#xaca3;" 
d="M2 5h2v-1h-2v1zM2 11h7v-3h-1v-1h-1v-1h-1v-1h-2v1h1v1h1v1h1v2h-5v1zM12 12h3v-8h-1v-1h-1v8h-1v1zM9 11h3v-7h-1v-1h-1v4h-2v1h2v2h-1v1zM13 -1h2v-1h-2v1zM5 -1h2v-1h-2v1zM9 3h2v-1h4v-1h-3v-1h1v-1h-2v1h-2v-1h-2v1h1v1h-3v1h4v1z" />
    <glyph glyph-name="uniACA4" unicode="&#xaca4;" 
d="M2 5h2v-1h-2v1zM2 11h7v-3h-1v-1h-1v-1h-1v-1h-2v1h1v1h1v1h1v2h-5v1zM12 12h3v-8h-1v-1h-1v8h-1v1zM9 11h3v-7h-1v-1h-1v4h-2v1h2v2h-1v1zM6 3h9v-4h-1v-1h-1v2h-7v1h7v1h-7v1z" />
    <glyph glyph-name="uniACA5" unicode="&#xaca5;" 
d="M2 5h2v-1h-2v1zM2 11h7v-3h-1v-1h-1v-1h-1v-1h-2v1h1v1h1v1h1v2h-5v1zM12 12h3v-8h-1v-1h-1v8h-1v1zM9 11h3v-7h-1v-1h-1v4h-2v1h2v2h-1v1zM6 3h9v-1h-6v-1h6v-1h-6v-1h6v-1h-7v1h-1v3h-1v1z" />
    <glyph glyph-name="uniACA6" unicode="&#xaca6;" 
d="M2 5h2v-1h-2v1zM2 11h7v-3h-1v-1h-1v-1h-1v-1h-2v1h1v1h1v1h1v2h-5v1zM12 12h3v-8h-1v-1h-1v8h-1v1zM9 11h3v-7h-1v-1h-1v4h-2v1h2v2h-1v1zM9 2v-3h2v3h-2zM5 3h10v-1h-2v-3h2v-1h-10v1h2v3h-2v1z" />
    <glyph glyph-name="uniACA7" unicode="&#xaca7;" 
d="M2 5h2v-1h-2v1zM2 11h7v-3h-1v-1h-1v-1h-1v-1h-2v1h1v1h1v1h1v2h-5v1zM12 12h3v-8h-1v-1h-1v8h-1v1zM9 11h3v-7h-1v-1h-1v4h-2v1h2v2h-1v1zM8 0v-1h4v1h-4zM8 3h4v-1h3v-1h-2v-1h1v-1h-1v-1h-6v1h-1v1h1v1h-2v1h3v1z" />
    <glyph glyph-name="uniACA8" unicode="&#xaca8;" 
d="M2 4h2v-1h-2v1zM2 10h7v-3h-1v-1h-1v-1h-1v-1h-2v1h1v1h1v1h1v2h-5v1zM11 12h3v-13h-1v-1h-1v7h-3v1h3v1h-3v1h3v3h-1v1z" />
    <glyph glyph-name="uniACA9" unicode="&#xaca9;" 
d="M2 5h2v-1h-2v1zM2 11h7v-3h-1v-1h-1v-1h-1v-1h-2v1h1v1h1v1h1v2h-5v1zM11 12h3v-8h-1v-1h-1v3h-3v1h3v1h-3v1h3v2h-1v1zM5 3h9v-4h-1v-1h-1v4h-7v1z" />
    <glyph glyph-name="uniACAA" unicode="&#xacaa;" 
d="M2 5h2v-1h-2v1zM2 11h7v-3h-1v-1h-1v-1h-1v-1h-2v1h1v1h1v1h1v2h-5v1zM11 12h3v-8h-1v-1h-1v3h-3v1h3v1h-3v1h3v2h-1v1zM4 3h10v-4h-1v-1h-1v4h-3v-3h-1v-1h-1v4h-3v1z" />
    <glyph glyph-name="uniACAB" unicode="&#xacab;" 
d="M2 5h2v-1h-2v1zM2 11h7v-3h-1v-1h-1v-1h-1v-1h-2v1h1v1h1v1h1v2h-5v1zM11 12h3v-8h-1v-1h-1v3h-3v1h3v1h-3v1h3v2h-1v1zM11 3h2v-2h1v-1h1v-2h-2v2h-1v-1h-1v-1h-2v1h1v1h1v3zM4 3h5v-4h-1v-1h-1v4h-3v1z" />
    <glyph glyph-name="uniACAC" unicode="&#xacac;" 
d="M2 5h2v-1h-2v1zM2 11h7v-3h-1v-1h-1v-1h-1v-1h-2v1h1v1h1v1h1v2h-5v1zM11 12h3v-8h-1v-1h-1v3h-3v1h3v1h-3v1h3v2h-1v1zM5 3h3v-4h6v-1h-7v1h-1v3h-1v1z" />
    <glyph glyph-name="uniACAD" unicode="&#xacad;" 
d="M2 5h2v-1h-2v1zM2 11h7v-3h-1v-1h-1v-1h-1v-1h-2v1h1v1h1v1h1v2h-5v1zM11 12h3v-8h-1v-1h-1v3h-3v1h3v1h-3v1h3v2h-1v1zM4 3h3v-4h3v1h1v2h-2v1h6v-1h-2v-2h1v-1h1v-1h-2v1h-2v-1h-5v1h-1v3h-1v1z" />
    <glyph glyph-name="uniACAE" unicode="&#xacae;" 
d="M2 5h2v-1h-2v1zM2 11h7v-3h-1v-1h-1v-1h-1v-1h-2v1h1v1h1v1h1v2h-5v1zM11 12h3v-8h-1v-1h-1v3h-3v1h3v1h-3v1h3v2h-1v1zM11 0v-1h2v1h-2zM11 3h2v-1h2v-1h-1v-1h1v-1h-1v-1h-4v1h-1v1h1v1h-1v1h2v1zM4 3h3v-4h2v-1h-3v1h-1v3h-1v1z" />
    <glyph glyph-name="uniACAF" unicode="&#xacaf;" 
d="M2 5h2v-1h-2v1zM2 11h7v-3h-1v-1h-1v-1h-1v-1h-2v1h1v1h1v1h1v2h-5v1zM11 12h3v-8h-1v-1h-1v3h-3v1h3v1h-3v1h3v2h-1v1zM5 3h9v-1h-6v-3h6v-1h-7v1h-1v3h-1v1z" />
    <glyph glyph-name="uniACB0" unicode="&#xacb0;" 
d="M2 5h2v-1h-2v1zM2 11h7v-3h-1v-1h-1v-1h-1v-1h-2v1h1v1h1v1h1v2h-5v1zM11 12h3v-8h-1v-1h-1v3h-3v1h3v1h-3v1h3v2h-1v1zM5 3h9v-3h-7v-1h7v-1h-8v1h-1v2h7v1h-7v1z" />
    <glyph glyph-name="uniACB1" unicode="&#xacb1;" 
d="M2 5h2v-1h-2v1zM2 11h7v-3h-1v-1h-1v-1h-1v-1h-2v1h1v1h1v1h1v2h-5v1zM11 12h3v-8h-1v-1h-1v3h-3v1h3v1h-3v1h3v2h-1v1zM10 3h4v-4h-1v-1h-1v4h-2v1zM4 3h5v-3h-3v-1h3v-1h-4v1h-1v2h3v1h-3v1z" />
    <glyph glyph-name="uniACB2" unicode="&#xacb2;" 
d="M2 5h2v-1h-2v1zM2 11h7v-3h-1v-1h-1v-1h-1v-1h-2v1h1v1h1v1h1v2h-5v1zM11 12h3v-8h-1v-1h-1v3h-3v1h3v1h-3v1h3v2h-1v1zM11 2v-3h1v3h-1zM9 3h5v-5h-5v5zM3 3h5v-3h-3v-1h3v-1h-4v1h-1v2h3v1h-3v1z" />
    <glyph glyph-name="uniACB3" unicode="&#xacb3;" 
d="M2 5h2v-1h-2v1zM2 11h7v-3h-1v-1h-1v-1h-1v-1h-2v1h1v1h1v1h1v2h-5v1zM11 12h3v-8h-1v-1h-1v3h-3v1h3v1h-3v1h3v2h-1v1zM11 0v-1h1v1h-1zM9 3h2v-2h1v2h2v-5h-5v5zM3 3h5v-3h-3v-1h3v-1h-4v1h-1v2h3v1h-3v1z" />
    <glyph glyph-name="uniACB4" unicode="&#xacb4;" 
d="M2 5h2v-1h-2v1zM2 11h7v-3h-1v-1h-1v-1h-1v-1h-2v1h1v1h1v1h1v2h-5v1zM11 12h3v-8h-1v-1h-1v3h-3v1h3v1h-3v1h3v2h-1v1zM11 3h2v-3h1v-1h1v-1h-2v1h-2v-1h-1v2h1v3zM4 3h5v-3h-3v-1h3v-1h-4v1h-1v2h3v1h-3v1z" />
    <glyph glyph-name="uniACB5" unicode="&#xacb5;" 
d="M2 5h2v-1h-2v1zM2 11h7v-3h-1v-1h-1v-1h-1v-1h-2v1h1v1h1v1h1v2h-5v1zM11 12h3v-8h-1v-1h-1v3h-3v1h3v1h-3v1h3v2h-1v1zM9 3h5v-1h-3v-1h3v-1h-3v-1h3v-1h-5v5zM3 3h5v-3h-3v-1h3v-1h-4v1h-1v2h3v1h-3v1z" />
    <glyph glyph-name="uniACB6" unicode="&#xacb6;" 
d="M2 5h2v-1h-2v1zM2 11h7v-3h-1v-1h-1v-1h-1v-1h-2v1h1v1h1v1h1v2h-5v1zM11 12h3v-8h-1v-1h-1v3h-3v1h3v1h-3v1h3v2h-1v1zM11 2v-3h1v3h-1zM8 3h7v-1h-1v-3h1v-1h-7v1h1v3h-1v1zM3 3h4v-1h1v-2h-3v-1h2v-1h-3v1h-1v2h3v1h-3v1z" />
    <glyph glyph-name="uniACB7" unicode="&#xacb7;" 
d="M2 5h2v-1h-2v1zM2 11h7v-3h-1v-1h-1v-1h-1v-1h-2v1h1v1h1v1h1v2h-5v1zM11 12h3v-8h-1v-1h-1v3h-3v1h3v1h-3v1h3v2h-1v1zM11 0v-1h2v1h-2zM11 3h2v-1h2v-1h-1v-1h1v-1h-1v-1h-4v1h-1v1h1v1h-1v1h2v1zM3 3h5v-3h-3v-1h3v-1h-4v1h-1v2h3v1h-3v1z" />
    <glyph glyph-name="uniACB8" unicode="&#xacb8;" 
d="M2 5h2v-1h-2v1zM2 11h7v-3h-1v-1h-1v-1h-1v-1h-2v1h1v1h1v1h1v2h-5v1zM11 12h3v-8h-1v-1h-1v3h-3v1h3v1h-3v1h3v2h-1v1zM8 2v-3h4v3h-4zM5 3h9v-5h-8v4h-1v1z" />
    <glyph glyph-name="uniACB9" unicode="&#xacb9;" 
d="M2 5h2v-1h-2v1zM2 11h7v-3h-1v-1h-1v-1h-1v-1h-2v1h1v1h1v1h1v2h-5v1zM11 12h3v-8h-1v-1h-1v3h-3v1h3v1h-3v1h3v2h-1v1zM8 0v-1h4v1h-4zM5 3h3v-2h4v1h-1v1h3v-5h-8v4h-1v1z" />
    <glyph glyph-name="uniACBA" unicode="&#xacba;" 
d="M2 5h2v-1h-2v1zM2 11h7v-3h-1v-1h-1v-1h-1v-1h-2v1h1v1h1v1h1v2h-5v1zM11 12h3v-8h-1v-1h-1v3h-3v1h3v1h-3v1h3v2h-1v1zM6 0v-1h1v1h-1zM4 3h2v-2h1v2h2v-4h1v1h1v3h2v-3h2v-2h-2v1h-2v-1h-7v5z" />
    <glyph glyph-name="uniACBB" unicode="&#xacbb;" 
d="M2 5h2v-1h-2v1zM2 11h7v-3h-1v-1h-1v-1h-1v-1h-2v1h1v1h1v1h1v2h-5v1zM11 12h3v-8h-1v-1h-1v3h-3v1h3v1h-3v1h3v2h-1v1zM10 1h2v-1h1v-1h1v-1h-2v1h-1v1h-1v1zM4 -1h2v-1h-2v1zM8 3h2v-2h-1v-1h-1v-1h-2v1h1v1h1v2z" />
    <glyph glyph-name="uniACBC" unicode="&#xacbc;" 
d="M2 5h2v-1h-2v1zM2 11h7v-3h-1v-1h-1v-1h-1v-1h-2v1h1v1h1v1h1v2h-5v1zM11 12h3v-8h-1v-1h-1v3h-3v1h3v1h-3v1h3v2h-1v1zM7 3h2v-2h2v2h2v-2h1v-1h1v-1h1v-1h-2v1h-1v1h-2v-1h-1v-1h-2v1h1v1h-2v-1h-1v-1h-2v1h1v1h1v1h1v2z" />
    <glyph glyph-name="uniACBD" unicode="&#xacbd;" 
d="M2 5h2v-1h-2v1zM2 11h7v-3h-1v-1h-1v-1h-1v-1h-2v1h1v1h1v1h1v2h-5v1zM11 12h3v-8h-1v-1h-1v3h-3v1h3v1h-3v1h3v2h-1v1zM8 2v-3h4v3h-4zM7 3h6v-1h1v-3h-1v-1h-6v1h-1v3h1v1z" />
    <glyph glyph-name="uniACBE" unicode="&#xacbe;" 
d="M2 5h2v-1h-2v1zM2 11h7v-3h-1v-1h-1v-1h-1v-1h-2v1h1v1h1v1h1v2h-5v1zM11 12h3v-8h-1v-1h-1v3h-3v1h3v1h-3v1h3v2h-1v1zM12 -1h2v-1h-2v1zM4 -1h2v-1h-2v1zM4 3h10v-1h-4v-1h1v-1h1v-1h-2v1h-2v-1h-2v1h1v1h1v1h-4v1z" />
    <glyph glyph-name="uniACBF" unicode="&#xacbf;" 
d="M2 5h2v-1h-2v1zM2 11h7v-3h-1v-1h-1v-1h-1v-1h-2v1h1v1h1v1h1v2h-5v1zM11 12h3v-8h-1v-1h-1v3h-3v1h3v1h-3v1h3v2h-1v1zM12 -1h2v-1h-2v1zM4 -1h2v-1h-2v1zM8 3h2v-1h4v-1h-3v-1h1v-1h-2v1h-2v-1h-2v1h1v1h-3v1h4v1z" />
    <glyph glyph-name="uniACC0" unicode="&#xacc0;" 
d="M2 5h2v-1h-2v1zM2 11h7v-3h-1v-1h-1v-1h-1v-1h-2v1h1v1h1v1h1v2h-5v1zM11 12h3v-8h-1v-1h-1v3h-3v1h3v1h-3v1h3v2h-1v1zM6 3h8v-4h-1v-1h-1v2h-6v1h6v1h-6v1z" />
    <glyph glyph-name="uniACC1" unicode="&#xacc1;" 
d="M2 5h2v-1h-2v1zM2 11h7v-3h-1v-1h-1v-1h-1v-1h-2v1h1v1h1v1h1v2h-5v1zM11 12h3v-8h-1v-1h-1v3h-3v1h3v1h-3v1h3v2h-1v1zM5 3h9v-1h-6v-1h6v-1h-6v-1h6v-1h-7v1h-1v3h-1v1z" />
    <glyph glyph-name="uniACC2" unicode="&#xacc2;" 
d="M2 5h2v-1h-2v1zM2 11h7v-3h-1v-1h-1v-1h-1v-1h-2v1h1v1h1v1h1v2h-5v1zM11 12h3v-8h-1v-1h-1v3h-3v1h3v1h-3v1h3v2h-1v1zM8 2v-3h2v3h-2zM4 3h10v-1h-2v-3h2v-1h-10v1h2v3h-2v1z" />
    <glyph glyph-name="uniACC3" unicode="&#xacc3;" 
d="M2 5h2v-1h-2v1zM2 11h7v-3h-1v-1h-1v-1h-1v-1h-2v1h1v1h1v1h1v2h-5v1zM11 12h3v-8h-1v-1h-1v3h-3v1h3v1h-3v1h3v2h-1v1zM8 0v-1h4v1h-4zM8 3h4v-1h3v-1h-2v-1h1v-1h-1v-1h-6v1h-1v1h1v1h-2v1h3v1z" />
    <glyph glyph-name="uniACC4" unicode="&#xacc4;" 
d="M2 4h2v-1h-2v1zM2 10h7v-3h-1v-1h-1v-1h-1v-1h-2v1h1v1h1v1h1v2h-5v1zM12 12h3v-13h-1v-1h-1v13h-1v1zM9 11h3v-11h-1v-1h-1v6h-3v1h3v1h-3v1h3v2h-1v1z" />
    <glyph glyph-name="uniACC5" unicode="&#xacc5;" 
d="M2 5h2v-1h-2v1zM2 11h7v-3h-1v-1h-1v-1h-1v-1h-2v1h1v1h1v1h1v2h-5v1zM12 12h3v-8h-1v-1h-1v8h-1v1zM9 11h3v-7h-1v-1h-1v3h-2v1h2v1h-2v1h2v1h-1v1zM5 3h10v-4h-1v-1h-1v4h-8v1z" />
    <glyph glyph-name="uniACC6" unicode="&#xacc6;" 
d="M2 5h2v-1h-2v1zM2 11h7v-3h-1v-1h-1v-1h-1v-1h-2v1h1v1h1v1h1v2h-5v1zM12 12h3v-8h-1v-1h-1v8h-1v1zM9 11h3v-7h-1v-1h-1v3h-2v1h2v1h-2v1h2v1h-1v1zM4 3h11v-4h-1v-1h-1v4h-3v-3h-1v-1h-1v4h-4v1z" />
    <glyph glyph-name="uniACC7" unicode="&#xacc7;" 
d="M2 5h2v-1h-2v1zM2 11h7v-3h-1v-1h-1v-1h-1v-1h-2v1h1v1h1v1h1v2h-5v1zM12 12h3v-8h-1v-1h-1v8h-1v1zM9 11h3v-7h-1v-1h-1v3h-2v1h2v1h-2v1h2v1h-1v1zM12 3h2v-2h1v-1h1v-2h-2v2h-1v-1h-1v-1h-2v1h1v1h1v3zM4 3h6v-4h-1v-1h-1v4h-4v1z" />
    <glyph glyph-name="uniACC8" unicode="&#xacc8;" 
d="M2 5h2v-1h-2v1zM2 11h7v-3h-1v-1h-1v-1h-1v-1h-2v1h1v1h1v1h1v2h-5v1zM12 12h3v-8h-1v-1h-1v8h-1v1zM9 11h3v-7h-1v-1h-1v3h-2v1h2v1h-2v1h2v1h-1v1zM5 3h3v-4h7v-1h-8v1h-1v3h-1v1z" />
    <glyph glyph-name="uniACC9" unicode="&#xacc9;" 
d="M2 5h2v-1h-2v1zM2 11h7v-3h-1v-1h-1v-1h-1v-1h-2v1h1v1h1v1h1v2h-5v1zM12 12h3v-8h-1v-1h-1v8h-1v1zM9 11h3v-7h-1v-1h-1v3h-2v1h2v1h-2v1h2v1h-1v1zM9 3h6v-1h-2v-2h1v-1h1v-1h-2v1h-2v-1h-2v1h1v1h1v2h-2v1zM3 3h3v-4h2v-1h-3v1h-1v3h-1v1z" />
    <glyph glyph-name="uniACCA" unicode="&#xacca;" 
d="M2 5h2v-1h-2v1zM2 11h7v-3h-1v-1h-1v-1h-1v-1h-2v1h1v1h1v1h1v2h-5v1zM12 12h3v-8h-1v-1h-1v8h-1v1zM9 11h3v-7h-1v-1h-1v3h-2v1h2v1h-2v1h2v1h-1v1zM11 0v-1h2v1h-2zM11 3h2v-1h2v-1h-1v-1h1v-1h-1v-1h-4v1h-1v1h1v1h-1v1h2v1zM3 3h3v-4h3v-1h-4v1h-1v3h-1v1z" />
    <glyph glyph-name="uniACCB" unicode="&#xaccb;" 
d="M2 5h2v-1h-2v1zM2 11h7v-3h-1v-1h-1v-1h-1v-1h-2v1h1v1h1v1h1v2h-5v1zM12 12h3v-8h-1v-1h-1v8h-1v1zM9 11h3v-7h-1v-1h-1v3h-2v1h2v1h-2v1h2v1h-1v1zM5 3h9v-1h-6v-3h6v-1h-7v1h-1v3h-1v1z" />
    <glyph glyph-name="uniACCC" unicode="&#xaccc;" 
d="M2 5h2v-1h-2v1zM2 11h7v-3h-1v-1h-1v-1h-1v-1h-2v1h1v1h1v1h1v2h-5v1zM12 12h3v-8h-1v-1h-1v8h-1v1zM9 11h3v-7h-1v-1h-1v3h-2v1h2v1h-2v1h2v1h-1v1zM6 3h9v-3h-7v-1h7v-1h-8v1h-1v2h7v1h-7v1z" />
    <glyph glyph-name="uniACCD" unicode="&#xaccd;" 
d="M2 5h2v-1h-2v1zM2 11h7v-3h-1v-1h-1v-1h-1v-1h-2v1h1v1h1v1h1v2h-5v1zM12 12h3v-8h-1v-1h-1v8h-1v1zM9 11h3v-7h-1v-1h-1v3h-2v1h2v1h-2v1h2v1h-1v1zM11 3h4v-4h-1v-1h-1v4h-2v1zM5 3h5v-3h-3v-1h3v-1h-4v1h-1v2h3v1h-3v1z" />
    <glyph glyph-name="uniACCE" unicode="&#xacce;" 
d="M2 5h2v-1h-2v1zM2 11h7v-3h-1v-1h-1v-1h-1v-1h-2v1h1v1h1v1h1v2h-5v1zM12 12h3v-8h-1v-1h-1v8h-1v1zM9 11h3v-7h-1v-1h-1v3h-2v1h2v1h-2v1h2v1h-1v1zM12 2v-3h1v3h-1zM10 3h5v-5h-5v5zM4 3h5v-3h-3v-1h3v-1h-4v1h-1v2h3v1h-3v1z" />
    <glyph glyph-name="uniACCF" unicode="&#xaccf;" 
d="M2 5h2v-1h-2v1zM2 11h7v-3h-1v-1h-1v-1h-1v-1h-2v1h1v1h1v1h1v2h-5v1zM12 12h3v-8h-1v-1h-1v8h-1v1zM9 11h3v-7h-1v-1h-1v3h-2v1h2v1h-2v1h2v1h-1v1zM12 0v-1h1v1h-1zM10 3h2v-2h1v2h2v-5h-5v5zM4 3h5v-3h-3v-1h3v-1h-4v1h-1v2h3v1h-3v1z" />
    <glyph glyph-name="uniACD0" unicode="&#xacd0;" 
d="M2 5h2v-1h-2v1zM2 11h7v-3h-1v-1h-1v-1h-1v-1h-2v1h1v1h1v1h1v2h-5v1zM12 12h3v-8h-1v-1h-1v8h-1v1zM9 11h3v-7h-1v-1h-1v3h-2v1h2v1h-2v1h2v1h-1v1zM12 3h2v-3h1v-1h1v-1h-2v1h-2v-1h-1v2h1v3zM5 3h5v-3h-3v-1h3v-1h-4v1h-1v2h3v1h-3v1z" />
    <glyph glyph-name="uniACD1" unicode="&#xacd1;" 
d="M2 5h2v-1h-2v1zM2 11h7v-3h-1v-1h-1v-1h-1v-1h-2v1h1v1h1v1h1v2h-5v1zM12 12h3v-8h-1v-1h-1v8h-1v1zM9 11h3v-7h-1v-1h-1v3h-2v1h2v1h-2v1h2v1h-1v1zM10 3h5v-1h-3v-1h3v-1h-3v-1h3v-1h-5v5zM4 3h5v-3h-3v-1h3v-1h-4v1h-1v2h3v1h-3v1z" />
    <glyph glyph-name="uniACD2" unicode="&#xacd2;" 
d="M2 5h2v-1h-2v1zM2 11h7v-3h-1v-1h-1v-1h-1v-1h-2v1h1v1h1v1h1v2h-5v1zM12 12h3v-8h-1v-1h-1v8h-1v1zM9 11h3v-7h-1v-1h-1v3h-2v1h2v1h-2v1h2v1h-1v1zM11 2v-3h1v3h-1zM8 3h7v-1h-1v-3h1v-1h-7v1h1v3h-1v1zM3 3h4v-1h1v-2h-3v-1h2v-1h-3v1h-1v2h3v1h-3v1z" />
    <glyph glyph-name="uniACD3" unicode="&#xacd3;" 
d="M2 5h2v-1h-2v1zM2 11h7v-3h-1v-1h-1v-1h-1v-1h-2v1h1v1h1v1h1v2h-5v1zM12 12h3v-8h-1v-1h-1v8h-1v1zM9 11h3v-7h-1v-1h-1v3h-2v1h2v1h-2v1h2v1h-1v1zM11 0v-1h2v1h-2zM11 3h2v-1h2v-1h-1v-1h1v-1h-1v-1h-4v1h-1v1h1v1h-1v1h2v1zM3 3h5v-3h-3v-1h3v-1h-4v1h-1v2h3v1h-3v1z
" />
    <glyph glyph-name="uniACD4" unicode="&#xacd4;" 
d="M2 5h2v-1h-2v1zM2 11h7v-3h-1v-1h-1v-1h-1v-1h-2v1h1v1h1v1h1v2h-5v1zM12 12h3v-8h-1v-1h-1v8h-1v1zM9 11h3v-7h-1v-1h-1v3h-2v1h2v1h-2v1h2v1h-1v1zM8 2v-3h5v3h-5zM5 3h10v-5h-9v4h-1v1z" />
    <glyph glyph-name="uniACD5" unicode="&#xacd5;" 
d="M2 5h2v-1h-2v1zM2 11h7v-3h-1v-1h-1v-1h-1v-1h-2v1h1v1h1v1h1v2h-5v1zM12 12h3v-8h-1v-1h-1v8h-1v1zM9 11h3v-7h-1v-1h-1v3h-2v1h2v1h-2v1h2v1h-1v1zM8 0v-1h5v1h-5zM5 3h3v-2h5v1h-1v1h3v-5h-9v4h-1v1z" />
    <glyph glyph-name="uniACD6" unicode="&#xacd6;" 
d="M2 5h2v-1h-2v1zM2 11h7v-3h-1v-1h-1v-1h-1v-1h-2v1h1v1h1v1h1v2h-5v1zM12 12h3v-8h-1v-1h-1v8h-1v1zM9 11h3v-7h-1v-1h-1v3h-2v1h2v1h-2v1h2v1h-1v1zM6 0v-1h1v1h-1zM4 3h2v-2h1v2h2v-4h1v1h1v3h2v-3h2v-2h-2v1h-2v-1h-7v5z" />
    <glyph glyph-name="uniACD7" unicode="&#xacd7;" 
d="M2 5h2v-1h-2v1zM2 11h7v-3h-1v-1h-1v-1h-1v-1h-2v1h1v1h1v1h1v2h-5v1zM12 12h3v-8h-1v-1h-1v8h-1v1zM9 11h3v-7h-1v-1h-1v3h-2v1h2v1h-2v1h2v1h-1v1zM11 1h2v-1h1v-1h1v-1h-2v1h-1v1h-1v1zM5 -1h2v-1h-2v1zM9 3h2v-2h-1v-1h-1v-1h-2v1h1v1h1v2z" />
    <glyph glyph-name="uniACD8" unicode="&#xacd8;" 
d="M2 5h2v-1h-2v1zM2 11h7v-3h-1v-1h-1v-1h-1v-1h-2v1h1v1h1v1h1v2h-5v1zM12 12h3v-8h-1v-1h-1v8h-1v1zM9 11h3v-7h-1v-1h-1v3h-2v1h2v1h-2v1h2v1h-1v1zM7 3h2v-2h2v2h2v-2h1v-1h1v-1h1v-1h-2v1h-1v1h-2v-1h-1v-1h-2v1h1v1h-2v-1h-1v-1h-2v1h1v1h1v1h1v2z" />
    <glyph glyph-name="uniACD9" unicode="&#xacd9;" 
d="M2 5h2v-1h-2v1zM2 11h7v-3h-1v-1h-1v-1h-1v-1h-2v1h1v1h1v1h1v2h-5v1zM12 12h3v-8h-1v-1h-1v8h-1v1zM9 11h3v-7h-1v-1h-1v3h-2v1h2v1h-2v1h2v1h-1v1zM9 2v-3h4v3h-4zM8 3h6v-1h1v-3h-1v-1h-6v1h-1v3h1v1z" />
    <glyph glyph-name="uniACDA" unicode="&#xacda;" 
d="M2 5h2v-1h-2v1zM2 11h7v-3h-1v-1h-1v-1h-1v-1h-2v1h1v1h1v1h1v2h-5v1zM12 12h3v-8h-1v-1h-1v8h-1v1zM9 11h3v-7h-1v-1h-1v3h-2v1h2v1h-2v1h2v1h-1v1zM13 -1h2v-1h-2v1zM5 -1h2v-1h-2v1zM5 3h10v-1h-4v-1h1v-1h1v-1h-2v1h-2v-1h-2v1h1v1h1v1h-4v1z" />
    <glyph glyph-name="uniACDB" unicode="&#xacdb;" 
d="M2 5h2v-1h-2v1zM2 11h7v-3h-1v-1h-1v-1h-1v-1h-2v1h1v1h1v1h1v2h-5v1zM12 12h3v-8h-1v-1h-1v8h-1v1zM9 11h3v-7h-1v-1h-1v3h-2v1h2v1h-2v1h2v1h-1v1zM13 -1h2v-1h-2v1zM5 -1h2v-1h-2v1zM9 3h2v-1h4v-1h-3v-1h1v-1h-2v1h-2v-1h-2v1h1v1h-3v1h4v1z" />
    <glyph glyph-name="uniACDC" unicode="&#xacdc;" 
d="M2 5h2v-1h-2v1zM2 11h7v-3h-1v-1h-1v-1h-1v-1h-2v1h1v1h1v1h1v2h-5v1zM12 12h3v-8h-1v-1h-1v8h-1v1zM9 11h3v-7h-1v-1h-1v3h-2v1h2v1h-2v1h2v1h-1v1zM6 3h9v-4h-1v-1h-1v2h-7v1h7v1h-7v1z" />
    <glyph glyph-name="uniACDD" unicode="&#xacdd;" 
d="M2 5h2v-1h-2v1zM2 11h7v-3h-1v-1h-1v-1h-1v-1h-2v1h1v1h1v1h1v2h-5v1zM12 12h3v-8h-1v-1h-1v8h-1v1zM9 11h3v-7h-1v-1h-1v3h-2v1h2v1h-2v1h2v1h-1v1zM6 3h9v-1h-6v-1h6v-1h-6v-1h6v-1h-7v1h-1v3h-1v1z" />
    <glyph glyph-name="uniACDE" unicode="&#xacde;" 
d="M2 5h2v-1h-2v1zM2 11h7v-3h-1v-1h-1v-1h-1v-1h-2v1h1v1h1v1h1v2h-5v1zM12 12h3v-8h-1v-1h-1v8h-1v1zM9 11h3v-7h-1v-1h-1v3h-2v1h2v1h-2v1h2v1h-1v1zM9 2v-3h2v3h-2zM5 3h10v-1h-2v-3h2v-1h-10v1h2v3h-2v1z" />
    <glyph glyph-name="uniACDF" unicode="&#xacdf;" 
d="M2 5h2v-1h-2v1zM2 11h7v-3h-1v-1h-1v-1h-1v-1h-2v1h1v1h1v1h1v2h-5v1zM12 12h3v-8h-1v-1h-1v8h-1v1zM9 11h3v-7h-1v-1h-1v3h-2v1h2v1h-2v1h2v1h-1v1zM8 0v-1h4v1h-4zM8 3h4v-1h3v-1h-2v-1h1v-1h-1v-1h-6v1h-1v1h1v1h-2v1h3v1z" />
    <glyph glyph-name="uniACE0" unicode="&#xace0;" 
d="M3 11h9v-5h-1v-1h-1v5h-7v1zM7 5h2v-3h6v-1h-14v1h6v3z" />
    <glyph glyph-name="uniACE1" unicode="&#xace1;" 
d="M3 11h10v-4h-1v-1h-1v4h-8v1zM7 7h2v-2h6v-1h-14v1h6v2zM3 3h10v-4h-1v-1h-1v4h-8v1z" />
    <glyph glyph-name="uniACE2" unicode="&#xace2;" 
d="M3 11h10v-4h-1v-1h-1v4h-8v1zM7 7h2v-2h6v-1h-14v1h6v2zM8 3h5v-4h-1v-1h-1v4h-3v1zM2 3h5v-4h-1v-1h-1v4h-3v1z" />
    <glyph glyph-name="uniACE3" unicode="&#xace3;" 
d="M3 11h10v-4h-1v-1h-1v4h-8v1zM7 7h2v-2h6v-1h-14v1h6v2zM10 3h2v-2h1v-1h1v-2h-2v2h-1v-1h-1v-1h-2v1h1v1h1v3zM3 3h5v-4h-1v-1h-1v4h-3v1z" />
    <glyph glyph-name="uniACE4" unicode="&#xace4;" 
d="M3 11h10v-4h-1v-1h-1v4h-8v1zM7 7h2v-2h6v-1h-14v1h6v2zM2 3h3v-4h8v-1h-9v1h-1v3h-1v1z" />
    <glyph glyph-name="uniACE5" unicode="&#xace5;" 
d="M3 11h10v-4h-1v-1h-1v4h-8v1zM7 7h2v-2h6v-1h-14v1h6v2zM8 3h6v-1h-2v-2h1v-1h1v-1h-2v1h-2v-1h-2v1h1v1h1v2h-2v1zM2 3h3v-4h2v-1h-3v1h-1v3h-1v1z" />
    <glyph glyph-name="uniACE6" unicode="&#xace6;" 
d="M3 11h10v-4h-1v-1h-1v4h-8v1zM7 7h2v-2h6v-1h-14v1h6v2zM10 0v-1h2v1h-2zM10 3h2v-1h2v-1h-1v-1h1v-1h-1v-1h-4v1h-1v1h1v1h-1v1h2v1zM2 3h3v-4h3v-1h-4v1h-1v3h-1v1z" />
    <glyph glyph-name="uniACE7" unicode="&#xace7;" 
d="M3 11h10v-4h-1v-1h-1v4h-8v1zM7 7h2v-2h6v-1h-14v1h6v2zM2 2h11v-1h-8v-2h8v-1h-9v1h-1v2h-1v1z" />
    <glyph glyph-name="uniACE8" unicode="&#xace8;" 
d="M3 11h10v-4h-1v-1h-1v4h-8v1zM7 7h2v-2h6v-1h-14v1h6v2zM3 3h10v-3h-8v-1h8v-1h-9v1h-1v2h8v1h-8v1z" />
    <glyph glyph-name="uniACE9" unicode="&#xace9;" 
d="M3 11h10v-4h-1v-1h-1v4h-8v1zM7 7h2v-2h6v-1h-14v1h6v2zM9 3h5v-4h-1v-1h-1v4h-3v1zM3 3h5v-3h-3v-1h3v-1h-4v1h-1v2h3v1h-3v1z" />
    <glyph glyph-name="uniACEA" unicode="&#xacea;" 
d="M3 11h10v-4h-1v-1h-1v4h-8v1zM7 7h2v-2h6v-1h-14v1h6v2zM10 2v-3h2v3h-2zM8 3h6v-5h-6v5zM2 3h5v-3h-3v-1h3v-1h-4v1h-1v2h3v1h-3v1z" />
    <glyph glyph-name="uniACEB" unicode="&#xaceb;" 
d="M3 11h10v-4h-1v-1h-1v4h-8v1zM7 7h2v-2h6v-1h-14v1h6v2zM11 0v-1h1v1h-1zM9 3h2v-2h1v2h2v-5h-5v5zM3 3h5v-3h-3v-1h3v-1h-4v1h-1v2h3v1h-3v1z" />
    <glyph glyph-name="uniACEC" unicode="&#xacec;" 
d="M3 11h10v-4h-1v-1h-1v4h-8v1zM7 7h2v-2h6v-1h-14v1h6v2zM3 3h5v-3h-3v-1h3v-1h-4v1h-1v2h3v1h-3v1zM11 3h2v-3h1v-1h1v-1h-2v1h-2v-1h-2v1h1v1h1v3z" />
    <glyph glyph-name="uniACED" unicode="&#xaced;" 
d="M3 11h10v-4h-1v-1h-1v4h-8v1zM7 7h2v-2h6v-1h-14v1h6v2zM9 3h5v-1h-3v-1h3v-1h-3v-1h3v-1h-5v5zM3 3h5v-3h-3v-1h3v-1h-4v1h-1v2h3v1h-3v1z" />
    <glyph glyph-name="uniACEE" unicode="&#xacee;" 
d="M3 11h10v-4h-1v-1h-1v4h-8v1zM7 7h2v-2h6v-1h-14v1h6v2zM11 2v-3h1v3h-1zM8 3h7v-1h-1v-3h1v-1h-7v1h1v3h-1v1zM3 3h4v-1h1v-2h-3v-1h2v-1h-3v1h-1v2h3v1h-3v1z" />
    <glyph glyph-name="uniACEF" unicode="&#xacef;" 
d="M3 11h10v-4h-1v-1h-1v4h-8v1zM7 7h2v-2h6v-1h-14v1h6v2zM10 0v-1h2v1h-2zM10 3h2v-1h2v-1h-1v-1h1v-1h-1v-1h-4v1h-1v1h1v1h-1v1h2v1zM2 3h5v-3h-3v-1h3v-1h-4v1h-1v2h3v1h-3v1z" />
    <glyph glyph-name="uniACF0" unicode="&#xacf0;" 
d="M3 11h10v-4h-1v-1h-1v4h-8v1zM7 7h2v-2h6v-1h-14v1h6v2zM6 2v-3h5v3h-5zM3 3h10v-5h-9v4h-1v1z" />
    <glyph glyph-name="uniACF1" unicode="&#xacf1;" 
d="M3 11h10v-4h-1v-1h-1v4h-8v1zM7 7h2v-2h6v-1h-14v1h6v2zM5 0v-1h6v1h-6zM2 3h3v-2h6v1h-1v1h3v-5h-10v4h-1v1z" />
    <glyph glyph-name="uniACF2" unicode="&#xacf2;" 
d="M3 11h10v-4h-1v-1h-1v4h-8v1zM7 7h2v-2h6v-1h-14v1h6v2zM5 0v-1h1v1h-1zM3 3h2v-2h1v2h2v-4h1v1h1v3h2v-3h2v-2h-2v1h-2v-1h-7v5z" />
    <glyph glyph-name="uniACF3" unicode="&#xacf3;" 
d="M3 11h10v-4h-1v-1h-1v4h-8v1zM7 7h2v-2h6v-1h-14v1h6v2zM9 1h2v-1h1v-1h1v-1h-2v1h-1v1h-1v1zM3 -1h2v-1h-2v1zM7 3h2v-2h-1v-1h-1v-1h-2v1h1v1h1v2z" />
    <glyph glyph-name="uniACF4" unicode="&#xacf4;" 
d="M3 11h10v-4h-1v-1h-1v4h-8v1zM7 7h2v-2h6v-1h-14v1h6v2zM4 3h2v-2h1v-1h2v1h1v2h2v-2h1v-1h1v-1h1v-1h-2v1h-1v1h-2v-1h-1v-1h-2v1h-1v1h-2v-1h-1v-1h-2v1h1v1h1v1h1v2z" />
    <glyph glyph-name="uniACF5" unicode="&#xacf5;" 
d="M3 11h10v-4h-1v-1h-1v4h-8v1zM7 7h2v-2h6v-1h-14v1h6v2zM6 2v-3h4v3h-4zM5 3h6v-1h1v-3h-1v-1h-6v1h-1v3h1v1z" />
    <glyph glyph-name="uniACF6" unicode="&#xacf6;" 
d="M3 11h10v-4h-1v-1h-1v4h-8v1zM7 7h2v-2h6v-1h-14v1h6v2zM11 -1h2v-1h-2v1zM3 -1h2v-1h-2v1zM3 3h10v-1h-4v-1h1v-1h1v-1h-2v1h-2v-1h-2v1h1v1h1v1h-4v1z" />
    <glyph glyph-name="uniACF7" unicode="&#xacf7;" 
d="M3 11h10v-4h-1v-1h-1v4h-8v1zM7 7h2v-2h6v-1h-14v1h6v2zM11 -1h2v-1h-2v1zM3 -1h2v-1h-2v1zM7 3h2v-1h4v-1h-3v-1h1v-1h-2v1h-2v-1h-2v1h1v1h-3v1h4v1z" />
    <glyph glyph-name="uniACF8" unicode="&#xacf8;" 
d="M3 11h10v-4h-1v-1h-1v4h-8v1zM7 7h2v-2h6v-1h-14v1h6v2zM3 3h10v-4h-1v-1h-1v2h-8v1h8v1h-8v1z" />
    <glyph glyph-name="uniACF9" unicode="&#xacf9;" 
d="M3 11h10v-4h-1v-1h-1v4h-8v1zM7 7h2v-2h6v-1h-14v1h6v2zM3 3h10v-1h-7v-1h7v-1h-7v-1h7v-1h-8v1h-1v3h-1v1z" />
    <glyph glyph-name="uniACFA" unicode="&#xacfa;" 
d="M3 11h10v-4h-1v-1h-1v4h-8v1zM7 7h2v-2h6v-1h-14v1h6v2zM7 2v-3h2v3h-2zM3 3h10v-1h-2v-3h2v-1h-10v1h2v3h-2v1z" />
    <glyph glyph-name="uniACFB" unicode="&#xacfb;" 
d="M3 11h10v-4h-1v-1h-1v4h-8v1zM7 7h2v-2h6v-1h-14v1h6v2zM6 0v-1h4v1h-4zM6 3h4v-1h3v-1h-2v-1h1v-1h-1v-1h-6v1h-1v1h1v1h-2v1h3v1z" />
    <glyph glyph-name="uniACFC" unicode="&#xacfc;" 
d="M2 11h7v-5h-1v-1h-1v5h-5v1zM10 12h3v-6h3v-1h-3v-6h-1v-1h-1v13h-1v1zM4 5h2v-2h4v-1h-9v1h3v2z" />
    <glyph glyph-name="uniACFD" unicode="&#xacfd;" 
d="M2 11h7v-4h-1v-1h-1v4h-5v1zM10 12h3v-4h3v-1h-3v-3h-1v-1h-1v8h-1v1zM4 7h2v-2h4v-1h-9v1h3v2zM4 3h9v-4h-1v-1h-1v4h-7v1z" />
    <glyph glyph-name="uniACFE" unicode="&#xacfe;" 
d="M2 11h7v-4h-1v-1h-1v4h-5v1zM10 12h3v-4h3v-1h-3v-3h-1v-1h-1v8h-1v1zM4 7h2v-2h4v-1h-9v1h3v2zM3 3h10v-4h-1v-1h-1v4h-3v-3h-1v-1h-1v4h-3v1z" />
    <glyph glyph-name="uniACFF" unicode="&#xacff;" 
d="M2 11h7v-4h-1v-1h-1v4h-5v1zM10 12h3v-4h3v-1h-3v-3h-1v-1h-1v8h-1v1zM4 7h2v-2h4v-1h-9v1h3v2zM10 3h2v-2h1v-1h1v-2h-2v2h-1v-1h-1v-1h-2v1h1v1h1v3zM3 3h5v-4h-1v-1h-1v4h-3v1z" />
    <glyph glyph-name="uniAD00" unicode="&#xad00;" 
d="M2 11h7v-4h-1v-1h-1v4h-5v1zM10 12h3v-4h3v-1h-3v-3h-1v-1h-1v8h-1v1zM4 7h2v-2h4v-1h-9v1h3v2zM5 3h3v-4h6v-1h-7v1h-1v3h-1v1z" />
    <glyph glyph-name="uniAD01" unicode="&#xad01;" 
d="M2 11h7v-4h-1v-1h-1v4h-5v1zM10 12h3v-4h3v-1h-3v-3h-1v-1h-1v8h-1v1zM4 7h2v-2h4v-1h-9v1h3v2zM3 3h3v-4h3v1h1v2h-2v1h6v-1h-2v-2h1v-1h1v-1h-2v1h-2v-1h-5v1h-1v3h-1v1z" />
    <glyph glyph-name="uniAD02" unicode="&#xad02;" 
d="M2 11h7v-4h-1v-1h-1v4h-5v1zM10 12h3v-4h3v-1h-3v-3h-1v-1h-1v8h-1v1zM4 7h2v-2h4v-1h-9v1h3v2zM10 0v-1h2v1h-2zM10 3h2v-1h2v-1h-1v-1h1v-1h-1v-1h-4v1h-1v1h1v1h-1v1h2v1zM3 3h3v-4h2v-1h-3v1h-1v3h-1v1z" />
    <glyph glyph-name="uniAD03" unicode="&#xad03;" 
d="M2 11h7v-4h-1v-1h-1v4h-5v1zM10 12h3v-4h3v-1h-3v-3h-1v-1h-1v8h-1v1zM4 7h2v-2h4v-1h-9v1h3v2zM4 3h9v-1h-6v-3h6v-1h-7v1h-1v3h-1v1z" />
    <glyph glyph-name="uniAD04" unicode="&#xad04;" 
d="M2 11h7v-4h-1v-1h-1v4h-5v1zM10 12h3v-4h3v-1h-3v-3h-1v-1h-1v8h-1v1zM4 7h2v-2h4v-1h-9v1h3v2zM4 3h9v-3h-7v-1h7v-1h-8v1h-1v2h7v1h-7v1z" />
    <glyph glyph-name="uniAD05" unicode="&#xad05;" 
d="M2 11h7v-4h-1v-1h-1v4h-5v1zM10 12h3v-4h3v-1h-3v-3h-1v-1h-1v8h-1v1zM4 7h2v-2h4v-1h-9v1h3v2zM9 3h4v-4h-1v-1h-1v4h-2v1zM3 3h5v-3h-3v-1h3v-1h-4v1h-1v2h3v1h-3v1z" />
    <glyph glyph-name="uniAD06" unicode="&#xad06;" 
d="M2 11h7v-4h-1v-1h-1v4h-5v1zM10 12h3v-4h3v-1h-3v-3h-1v-1h-1v8h-1v1zM4 7h2v-2h4v-1h-9v1h3v2zM11 2v-3h1v3h-1zM9 3h5v-5h-5v5zM3 3h5v-3h-3v-1h3v-1h-4v1h-1v2h3v1h-3v1z" />
    <glyph glyph-name="uniAD07" unicode="&#xad07;" 
d="M2 11h7v-4h-1v-1h-1v4h-5v1zM10 12h3v-4h3v-1h-3v-3h-1v-1h-1v8h-1v1zM4 7h2v-2h4v-1h-9v1h3v2zM11 0v-1h1v1h-1zM9 3h2v-2h1v2h2v-5h-5v5zM3 3h5v-3h-3v-1h3v-1h-4v1h-1v2h3v1h-3v1z" />
    <glyph glyph-name="uniAD08" unicode="&#xad08;" 
d="M2 11h7v-4h-1v-1h-1v4h-5v1zM10 12h3v-4h3v-1h-3v-3h-1v-1h-1v8h-1v1zM4 7h2v-2h4v-1h-9v1h3v2zM11 3h2v-3h1v-1h1v-1h-2v1h-2v-1h-1v2h1v3zM4 3h5v-3h-3v-1h3v-1h-4v1h-1v2h3v1h-3v1z" />
    <glyph glyph-name="uniAD09" unicode="&#xad09;" 
d="M2 11h7v-4h-1v-1h-1v4h-5v1zM10 12h3v-4h3v-1h-3v-3h-1v-1h-1v8h-1v1zM4 7h2v-2h4v-1h-9v1h3v2zM9 3h5v-1h-3v-1h3v-1h-3v-1h3v-1h-5v5zM3 3h5v-3h-3v-1h3v-1h-4v1h-1v2h3v1h-3v1z" />
    <glyph glyph-name="uniAD0A" unicode="&#xad0a;" 
d="M2 11h7v-4h-1v-1h-1v4h-5v1zM10 12h3v-4h3v-1h-3v-3h-1v-1h-1v8h-1v1zM4 7h2v-2h4v-1h-9v1h3v2zM11 2v-3h1v3h-1zM8 3h7v-1h-1v-3h1v-1h-7v1h1v3h-1v1zM3 3h4v-1h1v-2h-3v-1h2v-1h-3v1h-1v2h3v1h-3v1z" />
    <glyph glyph-name="uniAD0B" unicode="&#xad0b;" 
d="M2 11h7v-4h-1v-1h-1v4h-5v1zM10 12h3v-4h3v-1h-3v-3h-1v-1h-1v8h-1v1zM4 7h2v-2h4v-1h-9v1h3v2zM11 0v-1h2v1h-2zM11 3h2v-1h2v-1h-1v-1h1v-1h-1v-1h-4v1h-1v1h1v1h-1v1h2v1zM3 3h5v-3h-3v-1h3v-1h-4v1h-1v2h3v1h-3v1z" />
    <glyph glyph-name="uniAD0C" unicode="&#xad0c;" 
d="M2 11h7v-4h-1v-1h-1v4h-5v1zM10 12h3v-4h3v-1h-3v-3h-1v-1h-1v8h-1v1zM4 7h2v-2h4v-1h-9v1h3v2zM7 2v-3h4v3h-4zM4 3h9v-5h-8v4h-1v1z" />
    <glyph glyph-name="uniAD0D" unicode="&#xad0d;" 
d="M2 11h7v-4h-1v-1h-1v4h-5v1zM10 12h3v-4h3v-1h-3v-3h-1v-1h-1v8h-1v1zM4 7h2v-2h4v-1h-9v1h3v2zM7 0v-1h4v1h-4zM4 3h3v-2h4v1h-1v1h3v-5h-8v4h-1v1z" />
    <glyph glyph-name="uniAD0E" unicode="&#xad0e;" 
d="M2 11h7v-4h-1v-1h-1v4h-5v1zM10 12h3v-4h3v-1h-3v-3h-1v-1h-1v8h-1v1zM4 7h2v-2h4v-1h-9v1h3v2zM6 0v-1h1v1h-1zM4 3h2v-2h1v2h2v-4h1v1h1v3h2v-3h2v-2h-2v1h-2v-1h-7v5z" />
    <glyph glyph-name="uniAD0F" unicode="&#xad0f;" 
d="M2 11h7v-4h-1v-1h-1v4h-5v1zM10 12h3v-4h3v-1h-3v-3h-1v-1h-1v8h-1v1zM4 7h2v-2h4v-1h-9v1h3v2zM10 1h2v-1h1v-1h1v-1h-2v1h-1v1h-1v1zM4 -1h2v-1h-2v1zM8 3h2v-2h-1v-1h-1v-1h-2v1h1v1h1v2z" />
    <glyph glyph-name="uniAD10" unicode="&#xad10;" 
d="M2 11h7v-4h-1v-1h-1v4h-5v1zM10 12h3v-4h3v-1h-3v-3h-1v-1h-1v8h-1v1zM4 7h2v-2h4v-1h-9v1h3v2zM6 3h2v-2h2v2h2v-2h1v-1h1v-1h1v-1h-2v1h-1v1h-2v-1h-1v-1h-2v1h1v1h-2v-1h-1v-1h-2v1h1v1h1v1h1v2z" />
    <glyph glyph-name="uniAD11" unicode="&#xad11;" 
d="M2 11h7v-4h-1v-1h-1v4h-5v1zM10 12h3v-4h3v-1h-3v-3h-1v-1h-1v8h-1v1zM4 7h2v-2h4v-1h-9v1h3v2zM7 2v-3h4v3h-4zM6 3h6v-1h1v-3h-1v-1h-6v1h-1v3h1v1z" />
    <glyph glyph-name="uniAD12" unicode="&#xad12;" 
d="M2 11h7v-4h-1v-1h-1v4h-5v1zM10 12h3v-4h3v-1h-3v-3h-1v-1h-1v8h-1v1zM4 7h2v-2h4v-1h-9v1h3v2zM12 -1h2v-1h-2v1zM4 -1h2v-1h-2v1zM4 3h10v-1h-4v-1h1v-1h1v-1h-2v1h-2v-1h-2v1h1v1h1v1h-4v1z" />
    <glyph glyph-name="uniAD13" unicode="&#xad13;" 
d="M2 11h7v-4h-1v-1h-1v4h-5v1zM10 12h3v-4h3v-1h-3v-3h-1v-1h-1v8h-1v1zM4 7h2v-2h4v-1h-9v1h3v2zM12 -1h2v-1h-2v1zM4 -1h2v-1h-2v1zM8 3h2v-1h4v-1h-3v-1h1v-1h-2v1h-2v-1h-2v1h1v1h-3v1h4v1z" />
    <glyph glyph-name="uniAD14" unicode="&#xad14;" 
d="M2 11h7v-4h-1v-1h-1v4h-5v1zM10 12h3v-4h3v-1h-3v-3h-1v-1h-1v8h-1v1zM4 7h2v-2h4v-1h-9v1h3v2zM5 3h8v-4h-1v-1h-1v2h-6v1h6v1h-6v1z" />
    <glyph glyph-name="uniAD15" unicode="&#xad15;" 
d="M2 11h7v-4h-1v-1h-1v4h-5v1zM10 12h3v-4h3v-1h-3v-3h-1v-1h-1v8h-1v1zM4 7h2v-2h4v-1h-9v1h3v2zM4 3h9v-1h-6v-1h6v-1h-6v-1h6v-1h-7v1h-1v3h-1v1z" />
    <glyph glyph-name="uniAD16" unicode="&#xad16;" 
d="M2 11h7v-4h-1v-1h-1v4h-5v1zM10 12h3v-4h3v-1h-3v-3h-1v-1h-1v8h-1v1zM4 7h2v-2h4v-1h-9v1h3v2zM8 2v-3h2v3h-2zM4 3h10v-1h-2v-3h2v-1h-10v1h2v3h-2v1z" />
    <glyph glyph-name="uniAD17" unicode="&#xad17;" 
d="M2 11h7v-4h-1v-1h-1v4h-5v1zM10 12h3v-4h3v-1h-3v-3h-1v-1h-1v8h-1v1zM4 7h2v-2h4v-1h-9v1h3v2zM7 0v-1h4v1h-4zM7 3h4v-1h3v-1h-2v-1h1v-1h-1v-1h-6v1h-1v1h1v1h-2v1h3v1z" />
    <glyph glyph-name="uniAD18" unicode="&#xad18;" 
d="M2 11h7v-5h-1v-1h-1v5h-5v1zM9 11h3v-4h1v4h-1v1h3v-13h-1v-1h-1v8h-1v-6h-1v-1h-1v11h-1v1zM3 5h2v-2h4v-1h-8v1h2v2z" />
    <glyph glyph-name="uniAD19" unicode="&#xad19;" 
d="M2 11h7v-4h-1v-1h-1v4h-5v1zM9 11h3v-3h1v3h-1v1h3v-8h-1v-1h-1v4h-1v-2h-1v-1h-1v6h-1v1zM3 7h2v-2h4v-1h-8v1h2v2zM5 3h10v-4h-1v-1h-1v4h-8v1z" />
    <glyph glyph-name="uniAD1A" unicode="&#xad1a;" 
d="M2 11h7v-4h-1v-1h-1v4h-5v1zM9 11h3v-3h1v3h-1v1h3v-8h-1v-1h-1v4h-1v-2h-1v-1h-1v6h-1v1zM3 7h2v-2h4v-1h-8v1h2v2zM4 3h11v-4h-1v-1h-1v4h-3v-3h-1v-1h-1v4h-4v1z" />
    <glyph glyph-name="uniAD1B" unicode="&#xad1b;" 
d="M2 11h7v-4h-1v-1h-1v4h-5v1zM9 11h3v-3h1v3h-1v1h3v-8h-1v-1h-1v4h-1v-2h-1v-1h-1v6h-1v1zM3 7h2v-2h4v-1h-8v1h2v2zM12 3h2v-2h1v-1h1v-2h-2v2h-1v-1h-1v-1h-2v1h1v1h1v3zM4 3h6v-4h-1v-1h-1v4h-4v1z" />
    <glyph glyph-name="uniAD1C" unicode="&#xad1c;" 
d="M2 11h7v-4h-1v-1h-1v4h-5v1zM9 11h3v-3h1v3h-1v1h3v-8h-1v-1h-1v4h-1v-2h-1v-1h-1v6h-1v1zM3 7h2v-2h4v-1h-8v1h2v2zM5 3h3v-4h7v-1h-8v1h-1v3h-1v1z" />
    <glyph glyph-name="uniAD1D" unicode="&#xad1d;" 
d="M2 11h7v-4h-1v-1h-1v4h-5v1zM9 11h3v-3h1v3h-1v1h3v-8h-1v-1h-1v4h-1v-2h-1v-1h-1v6h-1v1zM3 7h2v-2h4v-1h-8v1h2v2zM9 3h6v-1h-2v-2h1v-1h1v-1h-2v1h-2v-1h-2v1h1v1h1v2h-2v1zM3 3h3v-4h2v-1h-3v1h-1v3h-1v1z" />
    <glyph glyph-name="uniAD1E" unicode="&#xad1e;" 
d="M2 11h7v-4h-1v-1h-1v4h-5v1zM9 11h3v-3h1v3h-1v1h3v-8h-1v-1h-1v4h-1v-2h-1v-1h-1v6h-1v1zM3 7h2v-2h4v-1h-8v1h2v2zM11 0v-1h2v1h-2zM11 3h2v-1h2v-1h-1v-1h1v-1h-1v-1h-4v1h-1v1h1v1h-1v1h2v1zM3 3h3v-4h3v-1h-4v1h-1v3h-1v1z" />
    <glyph glyph-name="uniAD1F" unicode="&#xad1f;" 
d="M2 11h7v-4h-1v-1h-1v4h-5v1zM9 11h3v-3h1v3h-1v1h3v-8h-1v-1h-1v4h-1v-2h-1v-1h-1v6h-1v1zM3 7h2v-2h4v-1h-8v1h2v2zM5 3h9v-1h-6v-3h6v-1h-7v1h-1v3h-1v1z" />
    <glyph glyph-name="uniAD20" unicode="&#xad20;" 
d="M2 11h7v-4h-1v-1h-1v4h-5v1zM9 11h3v-3h1v3h-1v1h3v-8h-1v-1h-1v4h-1v-2h-1v-1h-1v6h-1v1zM3 7h2v-2h4v-1h-8v1h2v2zM6 3h9v-3h-7v-1h7v-1h-8v1h-1v2h7v1h-7v1z" />
    <glyph glyph-name="uniAD21" unicode="&#xad21;" 
d="M2 11h7v-4h-1v-1h-1v4h-5v1zM9 11h3v-3h1v3h-1v1h3v-8h-1v-1h-1v4h-1v-2h-1v-1h-1v6h-1v1zM3 7h2v-2h4v-1h-8v1h2v2zM11 3h4v-4h-1v-1h-1v4h-2v1zM5 3h5v-3h-3v-1h3v-1h-4v1h-1v2h3v1h-3v1z" />
    <glyph glyph-name="uniAD22" unicode="&#xad22;" 
d="M2 11h7v-4h-1v-1h-1v4h-5v1zM9 11h3v-3h1v3h-1v1h3v-8h-1v-1h-1v4h-1v-2h-1v-1h-1v6h-1v1zM3 7h2v-2h4v-1h-8v1h2v2zM12 2v-3h1v3h-1zM10 3h5v-5h-5v5zM4 3h5v-3h-3v-1h3v-1h-4v1h-1v2h3v1h-3v1z" />
    <glyph glyph-name="uniAD23" unicode="&#xad23;" 
d="M2 11h7v-4h-1v-1h-1v4h-5v1zM9 11h3v-3h1v3h-1v1h3v-8h-1v-1h-1v4h-1v-2h-1v-1h-1v6h-1v1zM3 7h2v-2h4v-1h-8v1h2v2zM12 0v-1h1v1h-1zM10 3h2v-2h1v2h2v-5h-5v5zM4 3h5v-3h-3v-1h3v-1h-4v1h-1v2h3v1h-3v1z" />
    <glyph glyph-name="uniAD24" unicode="&#xad24;" 
d="M2 11h7v-4h-1v-1h-1v4h-5v1zM9 11h3v-3h1v3h-1v1h3v-8h-1v-1h-1v4h-1v-2h-1v-1h-1v6h-1v1zM3 7h2v-2h4v-1h-8v1h2v2zM12 3h2v-3h1v-1h1v-1h-2v1h-2v-1h-1v2h1v3zM5 3h5v-3h-3v-1h3v-1h-4v1h-1v2h3v1h-3v1z" />
    <glyph glyph-name="uniAD25" unicode="&#xad25;" 
d="M2 11h7v-4h-1v-1h-1v4h-5v1zM9 11h3v-3h1v3h-1v1h3v-8h-1v-1h-1v4h-1v-2h-1v-1h-1v6h-1v1zM3 7h2v-2h4v-1h-8v1h2v2zM10 3h5v-1h-3v-1h3v-1h-3v-1h3v-1h-5v5zM4 3h5v-3h-3v-1h3v-1h-4v1h-1v2h3v1h-3v1z" />
    <glyph glyph-name="uniAD26" unicode="&#xad26;" 
d="M2 11h7v-4h-1v-1h-1v4h-5v1zM9 11h3v-3h1v3h-1v1h3v-8h-1v-1h-1v4h-1v-2h-1v-1h-1v6h-1v1zM3 7h2v-2h4v-1h-8v1h2v2zM11 2v-3h1v3h-1zM8 3h7v-1h-1v-3h1v-1h-7v1h1v3h-1v1zM3 3h4v-1h1v-2h-3v-1h2v-1h-3v1h-1v2h3v1h-3v1z" />
    <glyph glyph-name="uniAD27" unicode="&#xad27;" 
d="M2 11h7v-4h-1v-1h-1v4h-5v1zM9 11h3v-3h1v3h-1v1h3v-8h-1v-1h-1v4h-1v-2h-1v-1h-1v6h-1v1zM3 7h2v-2h4v-1h-8v1h2v2zM11 0v-1h2v1h-2zM11 3h2v-1h2v-1h-1v-1h1v-1h-1v-1h-4v1h-1v1h1v1h-1v1h2v1zM3 3h5v-3h-3v-1h3v-1h-4v1h-1v2h3v1h-3v1z" />
    <glyph glyph-name="uniAD28" unicode="&#xad28;" 
d="M2 11h7v-4h-1v-1h-1v4h-5v1zM9 11h3v-3h1v3h-1v1h3v-8h-1v-1h-1v4h-1v-2h-1v-1h-1v6h-1v1zM3 7h2v-2h4v-1h-8v1h2v2zM8 2v-3h5v3h-5zM5 3h10v-5h-9v4h-1v1z" />
    <glyph glyph-name="uniAD29" unicode="&#xad29;" 
d="M2 11h7v-4h-1v-1h-1v4h-5v1zM9 11h3v-3h1v3h-1v1h3v-8h-1v-1h-1v4h-1v-2h-1v-1h-1v6h-1v1zM3 7h2v-2h4v-1h-8v1h2v2zM8 0v-1h5v1h-5zM5 3h3v-2h5v1h-1v1h3v-5h-9v4h-1v1z" />
    <glyph glyph-name="uniAD2A" unicode="&#xad2a;" 
d="M2 11h7v-4h-1v-1h-1v4h-5v1zM9 11h3v-3h1v3h-1v1h3v-8h-1v-1h-1v4h-1v-2h-1v-1h-1v6h-1v1zM3 7h2v-2h4v-1h-8v1h2v2zM6 0v-1h1v1h-1zM4 3h2v-2h1v2h2v-4h1v1h1v3h2v-3h2v-2h-2v1h-2v-1h-7v5z" />
    <glyph glyph-name="uniAD2B" unicode="&#xad2b;" 
d="M2 11h7v-4h-1v-1h-1v4h-5v1zM9 11h3v-3h1v3h-1v1h3v-8h-1v-1h-1v4h-1v-2h-1v-1h-1v6h-1v1zM3 7h2v-2h4v-1h-8v1h2v2zM11 1h2v-1h1v-1h1v-1h-2v1h-1v1h-1v1zM5 -1h2v-1h-2v1zM9 3h2v-2h-1v-1h-1v-1h-2v1h1v1h1v2z" />
    <glyph glyph-name="uniAD2C" unicode="&#xad2c;" 
d="M2 11h7v-4h-1v-1h-1v4h-5v1zM9 11h3v-3h1v3h-1v1h3v-8h-1v-1h-1v4h-1v-2h-1v-1h-1v6h-1v1zM3 7h2v-2h4v-1h-8v1h2v2zM7 3h2v-2h2v2h2v-2h1v-1h1v-1h1v-1h-2v1h-1v1h-2v-1h-1v-1h-2v1h1v1h-2v-1h-1v-1h-2v1h1v1h1v1h1v2z" />
    <glyph glyph-name="uniAD2D" unicode="&#xad2d;" 
d="M2 11h7v-4h-1v-1h-1v4h-5v1zM9 11h3v-3h1v3h-1v1h3v-8h-1v-1h-1v4h-1v-2h-1v-1h-1v6h-1v1zM3 7h2v-2h4v-1h-8v1h2v2zM9 2v-3h4v3h-4zM8 3h6v-1h1v-3h-1v-1h-6v1h-1v3h1v1z" />
    <glyph glyph-name="uniAD2E" unicode="&#xad2e;" 
d="M2 11h7v-4h-1v-1h-1v4h-5v1zM9 11h3v-3h1v3h-1v1h3v-8h-1v-1h-1v4h-1v-2h-1v-1h-1v6h-1v1zM3 7h2v-2h4v-1h-8v1h2v2zM13 -1h2v-1h-2v1zM5 -1h2v-1h-2v1zM5 3h10v-1h-4v-1h1v-1h1v-1h-2v1h-2v-1h-2v1h1v1h1v1h-4v1z" />
    <glyph glyph-name="uniAD2F" unicode="&#xad2f;" 
d="M2 11h7v-4h-1v-1h-1v4h-5v1zM9 11h3v-3h1v3h-1v1h3v-8h-1v-1h-1v4h-1v-2h-1v-1h-1v6h-1v1zM3 7h2v-2h4v-1h-8v1h2v2zM13 -1h2v-1h-2v1zM5 -1h2v-1h-2v1zM9 3h2v-1h4v-1h-3v-1h1v-1h-2v1h-2v-1h-2v1h1v1h-3v1h4v1z" />
    <glyph glyph-name="uniAD30" unicode="&#xad30;" 
d="M2 11h7v-4h-1v-1h-1v4h-5v1zM9 11h3v-3h1v3h-1v1h3v-8h-1v-1h-1v4h-1v-2h-1v-1h-1v6h-1v1zM3 7h2v-2h4v-1h-8v1h2v2zM6 3h9v-4h-1v-1h-1v2h-7v1h7v1h-7v1z" />
    <glyph glyph-name="uniAD31" unicode="&#xad31;" 
d="M2 11h7v-4h-1v-1h-1v4h-5v1zM9 11h3v-3h1v3h-1v1h3v-8h-1v-1h-1v4h-1v-2h-1v-1h-1v6h-1v1zM3 7h2v-2h4v-1h-8v1h2v2zM6 3h9v-1h-6v-1h6v-1h-6v-1h6v-1h-7v1h-1v3h-1v1z" />
    <glyph glyph-name="uniAD32" unicode="&#xad32;" 
d="M2 11h7v-4h-1v-1h-1v4h-5v1zM9 11h3v-3h1v3h-1v1h3v-8h-1v-1h-1v4h-1v-2h-1v-1h-1v6h-1v1zM3 7h2v-2h4v-1h-8v1h2v2zM9 2v-3h2v3h-2zM5 3h10v-1h-2v-3h2v-1h-10v1h2v3h-2v1z" />
    <glyph glyph-name="uniAD33" unicode="&#xad33;" 
d="M2 11h7v-4h-1v-1h-1v4h-5v1zM9 11h3v-3h1v3h-1v1h3v-8h-1v-1h-1v4h-1v-2h-1v-1h-1v6h-1v1zM3 7h2v-2h4v-1h-8v1h2v2zM8 0v-1h4v1h-4zM8 3h4v-1h3v-1h-2v-1h1v-1h-1v-1h-6v1h-1v1h1v1h-2v1h3v1z" />
    <glyph glyph-name="uniAD34" unicode="&#xad34;" 
d="M2 11h7v-5h-1v-1h-1v5h-5v1zM11 12h3v-13h-1v-1h-1v13h-1v1zM4 5h2v-2h5v-1h-10v1h3v2z" />
    <glyph glyph-name="uniAD35" unicode="&#xad35;" 
d="M2 11h7v-4h-1v-1h-1v4h-5v1zM11 12h3v-8h-1v-1h-1v8h-1v1zM4 7h2v-2h5v-1h-10v1h3v2zM5 3h9v-4h-1v-1h-1v4h-7v1z" />
    <glyph glyph-name="uniAD36" unicode="&#xad36;" 
d="M2 11h7v-4h-1v-1h-1v4h-5v1zM11 12h3v-8h-1v-1h-1v8h-1v1zM4 7h2v-2h5v-1h-10v1h3v2zM4 3h10v-4h-1v-1h-1v4h-3v-3h-1v-1h-1v4h-3v1z" />
    <glyph glyph-name="uniAD37" unicode="&#xad37;" 
d="M2 11h7v-4h-1v-1h-1v4h-5v1zM11 12h3v-8h-1v-1h-1v8h-1v1zM4 7h2v-2h5v-1h-10v1h3v2zM11 3h2v-2h1v-1h1v-2h-2v2h-1v-1h-1v-1h-2v1h1v1h1v3zM4 3h5v-4h-1v-1h-1v4h-3v1z" />
    <glyph glyph-name="uniAD38" unicode="&#xad38;" 
d="M2 11h7v-4h-1v-1h-1v4h-5v1zM11 12h3v-8h-1v-1h-1v8h-1v1zM4 7h2v-2h5v-1h-10v1h3v2zM5 3h3v-4h6v-1h-7v1h-1v3h-1v1z" />
    <glyph glyph-name="uniAD39" unicode="&#xad39;" 
d="M2 11h7v-4h-1v-1h-1v4h-5v1zM11 12h3v-8h-1v-1h-1v8h-1v1zM4 7h2v-2h5v-1h-10v1h3v2zM4 3h3v-4h3v1h1v2h-2v1h6v-1h-2v-2h1v-1h1v-1h-2v1h-2v-1h-5v1h-1v3h-1v1z" />
    <glyph glyph-name="uniAD3A" unicode="&#xad3a;" 
d="M2 11h7v-4h-1v-1h-1v4h-5v1zM11 12h3v-8h-1v-1h-1v8h-1v1zM4 7h2v-2h5v-1h-10v1h3v2zM11 0v-1h2v1h-2zM11 3h2v-1h2v-1h-1v-1h1v-1h-1v-1h-4v1h-1v1h1v1h-1v1h2v1zM4 3h3v-4h2v-1h-3v1h-1v3h-1v1z" />
    <glyph glyph-name="uniAD3B" unicode="&#xad3b;" 
d="M2 11h7v-4h-1v-1h-1v4h-5v1zM11 12h3v-8h-1v-1h-1v8h-1v1zM4 7h2v-2h5v-1h-10v1h3v2zM5 3h9v-1h-6v-3h6v-1h-7v1h-1v3h-1v1z" />
    <glyph glyph-name="uniAD3C" unicode="&#xad3c;" 
d="M2 11h7v-4h-1v-1h-1v4h-5v1zM11 12h3v-8h-1v-1h-1v8h-1v1zM4 7h2v-2h5v-1h-10v1h3v2zM5 3h9v-3h-7v-1h7v-1h-8v1h-1v2h7v1h-7v1z" />
    <glyph glyph-name="uniAD3D" unicode="&#xad3d;" 
d="M2 11h7v-4h-1v-1h-1v4h-5v1zM11 12h3v-8h-1v-1h-1v8h-1v1zM4 7h2v-2h5v-1h-10v1h3v2zM10 3h4v-4h-1v-1h-1v4h-2v1zM4 3h5v-3h-3v-1h3v-1h-4v1h-1v2h3v1h-3v1z" />
    <glyph glyph-name="uniAD3E" unicode="&#xad3e;" 
d="M2 11h7v-4h-1v-1h-1v4h-5v1zM11 12h3v-8h-1v-1h-1v8h-1v1zM4 7h2v-2h5v-1h-10v1h3v2zM11 2v-3h1v3h-1zM9 3h5v-5h-5v5zM3 3h5v-3h-3v-1h3v-1h-4v1h-1v2h3v1h-3v1z" />
    <glyph glyph-name="uniAD3F" unicode="&#xad3f;" 
d="M2 11h7v-4h-1v-1h-1v4h-5v1zM11 12h3v-8h-1v-1h-1v8h-1v1zM4 7h2v-2h5v-1h-10v1h3v2zM11 0v-1h1v1h-1zM9 3h2v-2h1v2h2v-5h-5v5zM3 3h5v-3h-3v-1h3v-1h-4v1h-1v2h3v1h-3v1z" />
    <glyph glyph-name="uniAD40" unicode="&#xad40;" 
d="M2 11h7v-4h-1v-1h-1v4h-5v1zM11 12h3v-8h-1v-1h-1v8h-1v1zM4 7h2v-2h5v-1h-10v1h3v2zM11 3h2v-3h1v-1h1v-1h-2v1h-2v-1h-1v2h1v3zM4 3h5v-3h-3v-1h3v-1h-4v1h-1v2h3v1h-3v1z" />
    <glyph glyph-name="uniAD41" unicode="&#xad41;" 
d="M2 11h7v-4h-1v-1h-1v4h-5v1zM11 12h3v-8h-1v-1h-1v8h-1v1zM4 7h2v-2h5v-1h-10v1h3v2zM9 3h5v-1h-3v-1h3v-1h-3v-1h3v-1h-5v5zM3 3h5v-3h-3v-1h3v-1h-4v1h-1v2h3v1h-3v1z" />
    <glyph glyph-name="uniAD42" unicode="&#xad42;" 
d="M2 11h7v-4h-1v-1h-1v4h-5v1zM11 12h3v-8h-1v-1h-1v8h-1v1zM4 7h2v-2h5v-1h-10v1h3v2zM11 2v-3h1v3h-1zM8 3h7v-1h-1v-3h1v-1h-7v1h1v3h-1v1zM3 3h4v-1h1v-2h-3v-1h2v-1h-3v1h-1v2h3v1h-3v1z" />
    <glyph glyph-name="uniAD43" unicode="&#xad43;" 
d="M2 11h7v-4h-1v-1h-1v4h-5v1zM11 12h3v-8h-1v-1h-1v8h-1v1zM4 7h2v-2h5v-1h-10v1h3v2zM11 0v-1h2v1h-2zM11 3h2v-1h2v-1h-1v-1h1v-1h-1v-1h-4v1h-1v1h1v1h-1v1h2v1zM3 3h5v-3h-3v-1h3v-1h-4v1h-1v2h3v1h-3v1z" />
    <glyph glyph-name="uniAD44" unicode="&#xad44;" 
d="M2 11h7v-4h-1v-1h-1v4h-5v1zM11 12h3v-8h-1v-1h-1v8h-1v1zM4 7h2v-2h5v-1h-10v1h3v2zM8 2v-3h4v3h-4zM5 3h9v-5h-8v4h-1v1z" />
    <glyph glyph-name="uniAD45" unicode="&#xad45;" 
d="M2 11h7v-4h-1v-1h-1v4h-5v1zM11 12h3v-8h-1v-1h-1v8h-1v1zM4 7h2v-2h5v-1h-10v1h3v2zM8 0v-1h4v1h-4zM5 3h3v-2h4v1h-1v1h3v-5h-8v4h-1v1z" />
    <glyph glyph-name="uniAD46" unicode="&#xad46;" 
d="M2 11h7v-4h-1v-1h-1v4h-5v1zM11 12h3v-8h-1v-1h-1v8h-1v1zM4 7h2v-2h5v-1h-10v1h3v2zM6 0v-1h1v1h-1zM4 3h2v-2h1v2h2v-4h1v1h1v3h2v-3h2v-2h-2v1h-2v-1h-7v5z" />
    <glyph glyph-name="uniAD47" unicode="&#xad47;" 
d="M2 11h7v-4h-1v-1h-1v4h-5v1zM11 12h3v-8h-1v-1h-1v8h-1v1zM4 7h2v-2h5v-1h-10v1h3v2zM10 1h2v-1h1v-1h1v-1h-2v1h-1v1h-1v1zM4 -1h2v-1h-2v1zM8 3h2v-2h-1v-1h-1v-1h-2v1h1v1h1v2z" />
    <glyph glyph-name="uniAD48" unicode="&#xad48;" 
d="M2 11h7v-4h-1v-1h-1v4h-5v1zM11 12h3v-8h-1v-1h-1v8h-1v1zM4 7h2v-2h5v-1h-10v1h3v2zM7 3h2v-2h2v2h2v-2h1v-1h1v-1h1v-1h-2v1h-1v1h-2v-1h-1v-1h-2v1h1v1h-2v-1h-1v-1h-2v1h1v1h1v1h1v2z" />
    <glyph glyph-name="uniAD49" unicode="&#xad49;" 
d="M2 11h7v-4h-1v-1h-1v4h-5v1zM11 12h3v-8h-1v-1h-1v8h-1v1zM4 7h2v-2h5v-1h-10v1h3v2zM8 2v-3h4v3h-4zM7 3h6v-1h1v-3h-1v-1h-6v1h-1v3h1v1z" />
    <glyph glyph-name="uniAD4A" unicode="&#xad4a;" 
d="M2 11h7v-4h-1v-1h-1v4h-5v1zM11 12h3v-8h-1v-1h-1v8h-1v1zM4 7h2v-2h5v-1h-10v1h3v2zM12 -1h2v-1h-2v1zM4 -1h2v-1h-2v1zM4 3h10v-1h-4v-1h1v-1h1v-1h-2v1h-2v-1h-2v1h1v1h1v1h-4v1z" />
    <glyph glyph-name="uniAD4B" unicode="&#xad4b;" 
d="M2 11h7v-4h-1v-1h-1v4h-5v1zM11 12h3v-8h-1v-1h-1v8h-1v1zM4 7h2v-2h5v-1h-10v1h3v2zM12 -1h2v-1h-2v1zM4 -1h2v-1h-2v1zM8 3h2v-1h4v-1h-3v-1h1v-1h-2v1h-2v-1h-2v1h1v1h-3v1h4v1z" />
    <glyph glyph-name="uniAD4C" unicode="&#xad4c;" 
d="M2 11h7v-4h-1v-1h-1v4h-5v1zM11 12h3v-8h-1v-1h-1v8h-1v1zM4 7h2v-2h5v-1h-10v1h3v2zM6 3h8v-4h-1v-1h-1v2h-6v1h6v1h-6v1z" />
    <glyph glyph-name="uniAD4D" unicode="&#xad4d;" 
d="M2 11h7v-4h-1v-1h-1v4h-5v1zM11 12h3v-8h-1v-1h-1v8h-1v1zM4 7h2v-2h5v-1h-10v1h3v2zM5 3h9v-1h-6v-1h6v-1h-6v-1h6v-1h-7v1h-1v3h-1v1z" />
    <glyph glyph-name="uniAD4E" unicode="&#xad4e;" 
d="M2 11h7v-4h-1v-1h-1v4h-5v1zM11 12h3v-8h-1v-1h-1v8h-1v1zM4 7h2v-2h5v-1h-10v1h3v2zM8 2v-3h2v3h-2zM4 3h10v-1h-2v-3h2v-1h-10v1h2v3h-2v1z" />
    <glyph glyph-name="uniAD4F" unicode="&#xad4f;" 
d="M2 11h7v-4h-1v-1h-1v4h-5v1zM11 12h3v-8h-1v-1h-1v8h-1v1zM4 7h2v-2h5v-1h-10v1h3v2zM8 0v-1h4v1h-4zM8 3h4v-1h3v-1h-2v-1h1v-1h-1v-1h-6v1h-1v1h1v1h-2v1h3v1z" />
    <glyph glyph-name="uniAD50" unicode="&#xad50;" 
d="M3 11h9v-5h-1v-1h-1v5h-7v1zM4 5h2v-3h3v2h-1v1h3v-3h4v-1h-14v1h3v3z" />
    <glyph glyph-name="uniAD51" unicode="&#xad51;" 
d="M3 11h10v-4h-1v-1h-1v4h-8v1zM4 7h2v-2h3v2h2v-2h4v-1h-14v1h3v2zM3 3h10v-4h-1v-1h-1v4h-8v1z" />
    <glyph glyph-name="uniAD52" unicode="&#xad52;" 
d="M3 11h10v-4h-1v-1h-1v4h-8v1zM4 7h2v-2h3v2h2v-2h4v-1h-14v1h3v2zM8 3h5v-4h-1v-1h-1v4h-3v1zM2 3h5v-4h-1v-1h-1v4h-3v1z" />
    <glyph glyph-name="uniAD53" unicode="&#xad53;" 
d="M3 11h10v-4h-1v-1h-1v4h-8v1zM4 7h2v-2h3v2h2v-2h4v-1h-14v1h3v2zM10 3h2v-2h1v-1h1v-2h-2v2h-1v-1h-1v-1h-2v1h1v1h1v3zM3 3h5v-4h-1v-1h-1v4h-3v1z" />
    <glyph glyph-name="uniAD54" unicode="&#xad54;" 
d="M3 11h10v-4h-1v-1h-1v4h-8v1zM4 7h2v-2h3v2h2v-2h4v-1h-14v1h3v2zM2 3h3v-4h8v-1h-9v1h-1v3h-1v1z" />
    <glyph glyph-name="uniAD55" unicode="&#xad55;" 
d="M3 11h10v-4h-1v-1h-1v4h-8v1zM4 7h2v-2h3v2h2v-2h4v-1h-14v1h3v2zM8 3h6v-1h-2v-2h1v-1h1v-1h-2v1h-2v-1h-2v1h1v1h1v2h-2v1zM2 3h3v-4h2v-1h-3v1h-1v3h-1v1z" />
    <glyph glyph-name="uniAD56" unicode="&#xad56;" 
d="M3 11h10v-4h-1v-1h-1v4h-8v1zM4 7h2v-2h3v2h2v-2h4v-1h-14v1h3v2zM10 0v-1h2v1h-2zM10 3h2v-1h2v-1h-1v-1h1v-1h-1v-1h-4v1h-1v1h1v1h-1v1h2v1zM2 3h3v-4h3v-1h-4v1h-1v3h-1v1z" />
    <glyph glyph-name="uniAD57" unicode="&#xad57;" 
d="M3 11h10v-4h-1v-1h-1v4h-8v1zM4 7h2v-2h3v2h2v-2h4v-1h-14v1h3v2zM2 2h11v-1h-8v-2h8v-1h-9v1h-1v2h-1v1z" />
    <glyph glyph-name="uniAD58" unicode="&#xad58;" 
d="M3 11h10v-4h-1v-1h-1v4h-8v1zM4 7h2v-2h3v2h2v-2h4v-1h-14v1h3v2zM3 3h10v-3h-8v-1h8v-1h-9v1h-1v2h8v1h-8v1z" />
    <glyph glyph-name="uniAD59" unicode="&#xad59;" 
d="M3 11h10v-4h-1v-1h-1v4h-8v1zM4 7h2v-2h3v2h2v-2h4v-1h-14v1h3v2zM9 3h5v-4h-1v-1h-1v4h-3v1zM3 3h5v-3h-3v-1h3v-1h-4v1h-1v2h3v1h-3v1z" />
    <glyph glyph-name="uniAD5A" unicode="&#xad5a;" 
d="M3 11h10v-4h-1v-1h-1v4h-8v1zM4 7h2v-2h3v2h2v-2h4v-1h-14v1h3v2zM10 2v-3h2v3h-2zM8 3h6v-5h-6v5zM2 3h5v-3h-3v-1h3v-1h-4v1h-1v2h3v1h-3v1z" />
    <glyph glyph-name="uniAD5B" unicode="&#xad5b;" 
d="M3 11h10v-4h-1v-1h-1v4h-8v1zM4 7h2v-2h3v2h2v-2h4v-1h-14v1h3v2zM11 0v-1h1v1h-1zM9 3h2v-2h1v2h2v-5h-5v5zM3 3h5v-3h-3v-1h3v-1h-4v1h-1v2h3v1h-3v1z" />
    <glyph glyph-name="uniAD5C" unicode="&#xad5c;" 
d="M3 11h10v-4h-1v-1h-1v4h-8v1zM4 7h2v-2h3v2h2v-2h4v-1h-14v1h3v2zM3 3h5v-3h-3v-1h3v-1h-4v1h-1v2h3v1h-3v1zM11 3h2v-3h1v-1h1v-1h-2v1h-2v-1h-2v1h1v1h1v3z" />
    <glyph glyph-name="uniAD5D" unicode="&#xad5d;" 
d="M3 11h10v-4h-1v-1h-1v4h-8v1zM4 7h2v-2h3v2h2v-2h4v-1h-14v1h3v2zM9 3h5v-1h-3v-1h3v-1h-3v-1h3v-1h-5v5zM3 3h5v-3h-3v-1h3v-1h-4v1h-1v2h3v1h-3v1z" />
    <glyph glyph-name="uniAD5E" unicode="&#xad5e;" 
d="M3 11h10v-4h-1v-1h-1v4h-8v1zM4 7h2v-2h3v2h2v-2h4v-1h-14v1h3v2zM11 2v-3h1v3h-1zM8 3h7v-1h-1v-3h1v-1h-7v1h1v3h-1v1zM3 3h4v-1h1v-2h-3v-1h2v-1h-3v1h-1v2h3v1h-3v1z" />
    <glyph glyph-name="uniAD5F" unicode="&#xad5f;" 
d="M3 11h10v-4h-1v-1h-1v4h-8v1zM4 7h2v-2h3v2h2v-2h4v-1h-14v1h3v2zM10 0v-1h2v1h-2zM10 3h2v-1h2v-1h-1v-1h1v-1h-1v-1h-4v1h-1v1h1v1h-1v1h2v1zM2 3h5v-3h-3v-1h3v-1h-4v1h-1v2h3v1h-3v1z" />
    <glyph glyph-name="uniAD60" unicode="&#xad60;" 
d="M3 11h10v-4h-1v-1h-1v4h-8v1zM4 7h2v-2h3v2h2v-2h4v-1h-14v1h3v2zM6 2v-3h5v3h-5zM3 3h10v-5h-9v4h-1v1z" />
    <glyph glyph-name="uniAD61" unicode="&#xad61;" 
d="M3 11h10v-4h-1v-1h-1v4h-8v1zM4 7h2v-2h3v2h2v-2h4v-1h-14v1h3v2zM5 0v-1h6v1h-6zM2 3h3v-2h6v1h-1v1h3v-5h-10v4h-1v1z" />
    <glyph glyph-name="uniAD62" unicode="&#xad62;" 
d="M3 11h10v-4h-1v-1h-1v4h-8v1zM4 7h2v-2h3v2h2v-2h4v-1h-14v1h3v2zM5 0v-1h1v1h-1zM3 3h2v-2h1v2h2v-4h1v1h1v3h2v-3h2v-2h-2v1h-2v-1h-7v5z" />
    <glyph glyph-name="uniAD63" unicode="&#xad63;" 
d="M3 11h10v-4h-1v-1h-1v4h-8v1zM4 7h2v-2h3v2h2v-2h4v-1h-14v1h3v2zM9 1h2v-1h1v-1h1v-1h-2v1h-1v1h-1v1zM3 -1h2v-1h-2v1zM7 3h2v-2h-1v-1h-1v-1h-2v1h1v1h1v2z" />
    <glyph glyph-name="uniAD64" unicode="&#xad64;" 
d="M3 11h10v-4h-1v-1h-1v4h-8v1zM4 7h2v-2h3v2h2v-2h4v-1h-14v1h3v2zM4 3h2v-2h1v-1h2v1h1v2h2v-2h1v-1h1v-1h1v-1h-2v1h-1v1h-2v-1h-1v-1h-2v1h-1v1h-2v-1h-1v-1h-2v1h1v1h1v1h1v2z" />
    <glyph glyph-name="uniAD65" unicode="&#xad65;" 
d="M3 11h10v-4h-1v-1h-1v4h-8v1zM4 7h2v-2h3v2h2v-2h4v-1h-14v1h3v2zM6 2v-3h4v3h-4zM5 3h6v-1h1v-3h-1v-1h-6v1h-1v3h1v1z" />
    <glyph glyph-name="uniAD66" unicode="&#xad66;" 
d="M3 11h10v-4h-1v-1h-1v4h-8v1zM4 7h2v-2h3v2h2v-2h4v-1h-14v1h3v2zM11 -1h2v-1h-2v1zM3 -1h2v-1h-2v1zM3 3h10v-1h-4v-1h1v-1h1v-1h-2v1h-2v-1h-2v1h1v1h1v1h-4v1z" />
    <glyph glyph-name="uniAD67" unicode="&#xad67;" 
d="M3 11h10v-4h-1v-1h-1v4h-8v1zM4 7h2v-2h3v2h2v-2h4v-1h-14v1h3v2zM11 -1h2v-1h-2v1zM3 -1h2v-1h-2v1zM7 3h2v-1h4v-1h-3v-1h1v-1h-2v1h-2v-1h-2v1h1v1h-3v1h4v1z" />
    <glyph glyph-name="uniAD68" unicode="&#xad68;" 
d="M3 11h10v-4h-1v-1h-1v4h-8v1zM4 7h2v-2h3v2h2v-2h4v-1h-14v1h3v2zM3 3h10v-4h-1v-1h-1v2h-8v1h8v1h-8v1z" />
    <glyph glyph-name="uniAD69" unicode="&#xad69;" 
d="M3 11h10v-4h-1v-1h-1v4h-8v1zM4 7h2v-2h3v2h2v-2h4v-1h-14v1h3v2zM3 3h10v-1h-7v-1h7v-1h-7v-1h7v-1h-8v1h-1v3h-1v1z" />
    <glyph glyph-name="uniAD6A" unicode="&#xad6a;" 
d="M3 11h10v-4h-1v-1h-1v4h-8v1zM4 7h2v-2h3v2h2v-2h4v-1h-14v1h3v2zM7 2v-3h2v3h-2zM3 3h10v-1h-2v-3h2v-1h-10v1h2v3h-2v1z" />
    <glyph glyph-name="uniAD6B" unicode="&#xad6b;" 
d="M3 11h10v-4h-1v-1h-1v4h-8v1zM4 7h2v-2h3v2h2v-2h4v-1h-14v1h3v2zM6 0v-1h4v1h-4zM6 3h4v-1h3v-1h-2v-1h1v-1h-1v-1h-6v1h-1v1h1v1h-2v1h3v1z" />
    <glyph glyph-name="uniAD6C" unicode="&#xad6c;" 
d="M3 11h9v-5h-1v-1h-1v5h-7v1zM1 5h14v-1h-6v-5h-1v-1h-1v6h-6v1z" />
    <glyph glyph-name="uniAD6D" unicode="&#xad6d;" 
d="M3 11h10v-4h-1v-1h-1v4h-8v1zM1 6h14v-1h-6v-2h-1v-1h-1v3h-6v1zM3 3h10v-4h-1v-1h-1v4h-8v1z" />
    <glyph glyph-name="uniAD6E" unicode="&#xad6e;" 
d="M3 11h10v-4h-1v-1h-1v4h-8v1zM1 6h14v-1h-6v-2h-1v-1h-1v3h-6v1zM8 3h5v-4h-1v-1h-1v4h-3v1zM2 3h5v-4h-1v-1h-1v4h-3v1z" />
    <glyph glyph-name="uniAD6F" unicode="&#xad6f;" 
d="M3 11h10v-4h-1v-1h-1v4h-8v1zM1 6h14v-1h-6v-2h-1v-1h-1v3h-6v1zM10 3h2v-2h1v-1h1v-2h-2v2h-1v-1h-1v-1h-2v1h1v1h1v3zM3 3h5v-4h-1v-1h-1v4h-3v1z" />
    <glyph glyph-name="uniAD70" unicode="&#xad70;" 
d="M3 11h10v-4h-1v-1h-1v4h-8v1zM1 6h14v-1h-6v-2h-1v-1h-1v3h-6v1zM2 3h3v-4h8v-1h-9v1h-1v3h-1v1z" />
    <glyph glyph-name="uniAD71" unicode="&#xad71;" 
d="M3 11h10v-4h-1v-1h-1v4h-8v1zM1 6h14v-1h-6v-2h-1v-1h-1v3h-6v1zM8 3h6v-1h-2v-2h1v-1h1v-1h-2v1h-2v-1h-2v1h1v1h1v2h-2v1zM2 3h3v-4h2v-1h-3v1h-1v3h-1v1z" />
    <glyph glyph-name="uniAD72" unicode="&#xad72;" 
d="M3 11h10v-4h-1v-1h-1v4h-8v1zM1 6h14v-1h-6v-2h-1v-1h-1v3h-6v1zM10 0v-1h2v1h-2zM10 3h2v-1h2v-1h-1v-1h1v-1h-1v-1h-4v1h-1v1h1v1h-1v1h2v1zM2 3h3v-4h3v-1h-4v1h-1v3h-1v1z" />
    <glyph glyph-name="uniAD73" unicode="&#xad73;" 
d="M3 11h10v-4h-1v-1h-1v4h-8v1zM1 6h14v-1h-6v-2h-1v-1h-1v3h-6v1zM2 2h11v-1h-8v-2h8v-1h-9v1h-1v2h-1v1z" />
    <glyph glyph-name="uniAD74" unicode="&#xad74;" 
d="M3 11h10v-4h-1v-1h-1v4h-8v1zM1 6h14v-1h-6v-2h-1v-1h-1v3h-6v1zM3 3h10v-3h-8v-1h8v-1h-9v1h-1v2h8v1h-8v1z" />
    <glyph glyph-name="uniAD75" unicode="&#xad75;" 
d="M3 11h10v-4h-1v-1h-1v4h-8v1zM1 6h14v-1h-6v-2h-1v-1h-1v3h-6v1zM9 3h5v-4h-1v-1h-1v4h-3v1zM3 3h5v-3h-3v-1h3v-1h-4v1h-1v2h3v1h-3v1z" />
    <glyph glyph-name="uniAD76" unicode="&#xad76;" 
d="M3 11h10v-4h-1v-1h-1v4h-8v1zM1 6h14v-1h-6v-2h-1v-1h-1v3h-6v1zM10 2v-3h2v3h-2zM8 3h6v-5h-6v5zM2 3h5v-3h-3v-1h3v-1h-4v1h-1v2h3v1h-3v1z" />
    <glyph glyph-name="uniAD77" unicode="&#xad77;" 
d="M3 11h10v-4h-1v-1h-1v4h-8v1zM1 6h14v-1h-6v-2h-1v-1h-1v3h-6v1zM11 0v-1h1v1h-1zM9 3h2v-2h1v2h2v-5h-5v5zM3 3h5v-3h-3v-1h3v-1h-4v1h-1v2h3v1h-3v1z" />
    <glyph glyph-name="uniAD78" unicode="&#xad78;" 
d="M3 11h10v-4h-1v-1h-1v4h-8v1zM1 6h14v-1h-6v-2h-1v-1h-1v3h-6v1zM3 3h5v-3h-3v-1h3v-1h-4v1h-1v2h3v1h-3v1zM11 3h2v-3h1v-1h1v-1h-2v1h-2v-1h-2v1h1v1h1v3z" />
    <glyph glyph-name="uniAD79" unicode="&#xad79;" 
d="M3 11h10v-4h-1v-1h-1v4h-8v1zM1 6h14v-1h-6v-2h-1v-1h-1v3h-6v1zM9 3h5v-1h-3v-1h3v-1h-3v-1h3v-1h-5v5zM3 3h5v-3h-3v-1h3v-1h-4v1h-1v2h3v1h-3v1z" />
    <glyph glyph-name="uniAD7A" unicode="&#xad7a;" 
d="M3 11h10v-4h-1v-1h-1v4h-8v1zM1 6h14v-1h-6v-2h-1v-1h-1v3h-6v1zM11 2v-3h1v3h-1zM8 3h7v-1h-1v-3h1v-1h-7v1h1v3h-1v1zM3 3h4v-1h1v-2h-3v-1h2v-1h-3v1h-1v2h3v1h-3v1z" />
    <glyph glyph-name="uniAD7B" unicode="&#xad7b;" 
d="M3 11h10v-4h-1v-1h-1v4h-8v1zM1 6h14v-1h-6v-2h-1v-1h-1v3h-6v1zM10 0v-1h2v1h-2zM10 3h2v-1h2v-1h-1v-1h1v-1h-1v-1h-4v1h-1v1h1v1h-1v1h2v1zM2 3h5v-3h-3v-1h3v-1h-4v1h-1v2h3v1h-3v1z" />
    <glyph glyph-name="uniAD7C" unicode="&#xad7c;" 
d="M3 11h10v-4h-1v-1h-1v4h-8v1zM1 6h14v-1h-6v-2h-1v-1h-1v3h-6v1zM6 2v-3h5v3h-5zM3 3h10v-5h-9v4h-1v1z" />
    <glyph glyph-name="uniAD7D" unicode="&#xad7d;" 
d="M3 11h10v-4h-1v-1h-1v4h-8v1zM1 6h14v-1h-6v-2h-1v-1h-1v3h-6v1zM5 0v-1h6v1h-6zM2 3h3v-2h6v1h-1v1h3v-5h-10v4h-1v1z" />
    <glyph glyph-name="uniAD7E" unicode="&#xad7e;" 
d="M3 11h10v-4h-1v-1h-1v4h-8v1zM1 6h14v-1h-6v-2h-1v-1h-1v3h-6v1zM5 0v-1h1v1h-1zM3 3h2v-2h1v2h2v-4h1v1h1v3h2v-3h2v-2h-2v1h-2v-1h-7v5z" />
    <glyph glyph-name="uniAD7F" unicode="&#xad7f;" 
d="M3 11h10v-4h-1v-1h-1v4h-8v1zM1 6h14v-1h-6v-2h-1v-1h-1v3h-6v1zM9 1h2v-1h1v-1h1v-1h-2v1h-1v1h-1v1zM3 -1h2v-1h-2v1zM7 3h2v-2h-1v-1h-1v-1h-2v1h1v1h1v2z" />
    <glyph glyph-name="uniAD80" unicode="&#xad80;" 
d="M3 11h10v-4h-1v-1h-1v4h-8v1zM1 6h14v-1h-6v-2h-1v-1h-1v3h-6v1zM4 3h2v-2h1v-1h2v1h1v2h2v-2h1v-1h1v-1h1v-1h-2v1h-1v1h-2v-1h-1v-1h-2v1h-1v1h-2v-1h-1v-1h-2v1h1v1h1v1h1v2z" />
    <glyph glyph-name="uniAD81" unicode="&#xad81;" 
d="M3 11h10v-4h-1v-1h-1v4h-8v1zM1 6h14v-1h-6v-2h-1v-1h-1v3h-6v1zM6 2v-3h4v3h-4zM5 3h6v-1h1v-3h-1v-1h-6v1h-1v3h1v1z" />
    <glyph glyph-name="uniAD82" unicode="&#xad82;" 
d="M3 11h10v-4h-1v-1h-1v4h-8v1zM1 6h14v-1h-6v-2h-1v-1h-1v3h-6v1zM11 -1h2v-1h-2v1zM3 -1h2v-1h-2v1zM3 3h10v-1h-4v-1h1v-1h1v-1h-2v1h-2v-1h-2v1h1v1h1v1h-4v1z" />
    <glyph glyph-name="uniAD83" unicode="&#xad83;" 
d="M3 11h10v-4h-1v-1h-1v4h-8v1zM1 6h14v-1h-6v-2h-1v-1h-1v3h-6v1zM11 -1h2v-1h-2v1zM3 -1h2v-1h-2v1zM7 3h2v-1h4v-1h-3v-1h1v-1h-2v1h-2v-1h-2v1h1v1h-3v1h4v1z" />
    <glyph glyph-name="uniAD84" unicode="&#xad84;" 
d="M3 11h10v-4h-1v-1h-1v4h-8v1zM1 6h14v-1h-6v-2h-1v-1h-1v3h-6v1zM3 3h10v-4h-1v-1h-1v2h-8v1h8v1h-8v1z" />
    <glyph glyph-name="uniAD85" unicode="&#xad85;" 
d="M3 11h10v-4h-1v-1h-1v4h-8v1zM1 6h14v-1h-6v-2h-1v-1h-1v3h-6v1zM3 3h10v-1h-7v-1h7v-1h-7v-1h7v-1h-8v1h-1v3h-1v1z" />
    <glyph glyph-name="uniAD86" unicode="&#xad86;" 
d="M3 11h10v-4h-1v-1h-1v4h-8v1zM1 6h14v-1h-6v-2h-1v-1h-1v3h-6v1zM7 2v-3h2v3h-2zM3 3h10v-1h-2v-3h2v-1h-10v1h2v3h-2v1z" />
    <glyph glyph-name="uniAD87" unicode="&#xad87;" 
d="M3 11h10v-4h-1v-1h-1v4h-8v1zM1 6h14v-1h-6v-2h-1v-1h-1v3h-6v1zM6 0v-1h4v1h-4zM6 3h4v-1h3v-1h-2v-1h1v-1h-1v-1h-6v1h-1v1h1v1h-2v1h3v1z" />
    <glyph glyph-name="uniAD88" unicode="&#xad88;" 
d="M2 11h7v-5h-1v-1h-1v5h-5v1zM11 12h3v-13h-1v-1h-1v4h-3v1h3v8h-1v1zM1 5h10v-1h-4v-4h-1v-1h-1v5h-4v1z" />
    <glyph glyph-name="uniAD89" unicode="&#xad89;" 
d="M2 11h7v-4h-1v-1h-1v4h-5v1zM11 11h3v-8h-1v-1h-1v2h-3v1h3v5h-1v1zM1 7h10v-1h-4v-3h-1v-1h-1v4h-4v1zM5 3h9v-4h-1v-1h-1v4h-7v1z" />
    <glyph glyph-name="uniAD8A" unicode="&#xad8a;" 
d="M2 11h7v-4h-1v-1h-1v4h-5v1zM11 11h3v-8h-1v-1h-1v2h-3v1h3v5h-1v1zM1 7h10v-1h-4v-3h-1v-1h-1v4h-4v1zM4 3h10v-4h-1v-1h-1v4h-3v-3h-1v-1h-1v4h-3v1z" />
    <glyph glyph-name="uniAD8B" unicode="&#xad8b;" 
d="M2 11h7v-4h-1v-1h-1v4h-5v1zM11 11h3v-8h-1v-1h-1v2h-3v1h3v5h-1v1zM1 7h10v-1h-4v-3h-1v-1h-1v4h-4v1zM11 3h2v-2h1v-1h1v-2h-2v2h-1v-1h-1v-1h-2v1h1v1h1v3zM4 3h5v-4h-1v-1h-1v4h-3v1z" />
    <glyph glyph-name="uniAD8C" unicode="&#xad8c;" 
d="M2 11h7v-4h-1v-1h-1v4h-5v1zM11 11h3v-8h-1v-1h-1v2h-3v1h3v5h-1v1zM1 7h10v-1h-4v-3h-1v-1h-1v4h-4v1zM5 3h3v-4h6v-1h-7v1h-1v3h-1v1z" />
    <glyph glyph-name="uniAD8D" unicode="&#xad8d;" 
d="M2 11h7v-4h-1v-1h-1v4h-5v1zM11 11h3v-8h-1v-1h-1v2h-3v1h3v5h-1v1zM1 7h10v-1h-4v-3h-1v-1h-1v4h-4v1zM4 3h3v-4h3v1h1v2h-2v1h6v-1h-2v-2h1v-1h1v-1h-2v1h-2v-1h-5v1h-1v3h-1v1z" />
    <glyph glyph-name="uniAD8E" unicode="&#xad8e;" 
d="M2 11h7v-4h-1v-1h-1v4h-5v1zM11 11h3v-8h-1v-1h-1v2h-3v1h3v5h-1v1zM1 7h10v-1h-4v-3h-1v-1h-1v4h-4v1zM11 0v-1h2v1h-2zM11 3h2v-1h2v-1h-1v-1h1v-1h-1v-1h-4v1h-1v1h1v1h-1v1h2v1zM4 3h3v-4h2v-1h-3v1h-1v3h-1v1z" />
    <glyph glyph-name="uniAD8F" unicode="&#xad8f;" 
d="M2 11h7v-4h-1v-1h-1v4h-5v1zM11 11h3v-8h-1v-1h-1v2h-3v1h3v5h-1v1zM1 7h10v-1h-4v-3h-1v-1h-1v4h-4v1zM5 3h9v-1h-6v-3h6v-1h-7v1h-1v3h-1v1z" />
    <glyph glyph-name="uniAD90" unicode="&#xad90;" 
d="M2 11h7v-4h-1v-1h-1v4h-5v1zM11 11h3v-8h-1v-1h-1v2h-3v1h3v5h-1v1zM1 7h10v-1h-4v-3h-1v-1h-1v4h-4v1zM5 3h9v-3h-7v-1h7v-1h-8v1h-1v2h7v1h-7v1z" />
    <glyph glyph-name="uniAD91" unicode="&#xad91;" 
d="M2 11h7v-4h-1v-1h-1v4h-5v1zM11 11h3v-8h-1v-1h-1v2h-3v1h3v5h-1v1zM1 7h10v-1h-4v-3h-1v-1h-1v4h-4v1zM10 3h4v-4h-1v-1h-1v4h-2v1zM4 3h5v-3h-3v-1h3v-1h-4v1h-1v2h3v1h-3v1z" />
    <glyph glyph-name="uniAD92" unicode="&#xad92;" 
d="M2 11h7v-4h-1v-1h-1v4h-5v1zM11 11h3v-8h-1v-1h-1v2h-3v1h3v5h-1v1zM1 7h10v-1h-4v-3h-1v-1h-1v4h-4v1zM11 2v-3h1v3h-1zM9 3h5v-5h-5v5zM3 3h5v-3h-3v-1h3v-1h-4v1h-1v2h3v1h-3v1z" />
    <glyph glyph-name="uniAD93" unicode="&#xad93;" 
d="M2 11h7v-4h-1v-1h-1v4h-5v1zM11 11h3v-8h-1v-1h-1v2h-3v1h3v5h-1v1zM1 7h10v-1h-4v-3h-1v-1h-1v4h-4v1zM11 0v-1h1v1h-1zM9 3h2v-2h1v2h2v-5h-5v5zM3 3h5v-3h-3v-1h3v-1h-4v1h-1v2h3v1h-3v1z" />
    <glyph glyph-name="uniAD94" unicode="&#xad94;" 
d="M2 11h7v-4h-1v-1h-1v4h-5v1zM11 11h3v-8h-1v-1h-1v2h-3v1h3v5h-1v1zM1 7h10v-1h-4v-3h-1v-1h-1v4h-4v1zM11 3h2v-3h1v-1h1v-1h-2v1h-2v-1h-1v2h1v3zM4 3h5v-3h-3v-1h3v-1h-4v1h-1v2h3v1h-3v1z" />
    <glyph glyph-name="uniAD95" unicode="&#xad95;" 
d="M2 11h7v-4h-1v-1h-1v4h-5v1zM11 11h3v-8h-1v-1h-1v2h-3v1h3v5h-1v1zM1 7h10v-1h-4v-3h-1v-1h-1v4h-4v1zM9 3h5v-1h-3v-1h3v-1h-3v-1h3v-1h-5v5zM3 3h5v-3h-3v-1h3v-1h-4v1h-1v2h3v1h-3v1z" />
    <glyph glyph-name="uniAD96" unicode="&#xad96;" 
d="M2 11h7v-4h-1v-1h-1v4h-5v1zM11 11h3v-8h-1v-1h-1v2h-3v1h3v5h-1v1zM1 7h10v-1h-4v-3h-1v-1h-1v4h-4v1zM11 2v-3h1v3h-1zM8 3h7v-1h-1v-3h1v-1h-7v1h1v3h-1v1zM3 3h4v-1h1v-2h-3v-1h2v-1h-3v1h-1v2h3v1h-3v1z" />
    <glyph glyph-name="uniAD97" unicode="&#xad97;" 
d="M2 11h7v-4h-1v-1h-1v4h-5v1zM11 11h3v-8h-1v-1h-1v2h-3v1h3v5h-1v1zM1 7h10v-1h-4v-3h-1v-1h-1v4h-4v1zM11 0v-1h2v1h-2zM11 3h2v-1h2v-1h-1v-1h1v-1h-1v-1h-4v1h-1v1h1v1h-1v1h2v1zM3 3h5v-3h-3v-1h3v-1h-4v1h-1v2h3v1h-3v1z" />
    <glyph glyph-name="uniAD98" unicode="&#xad98;" 
d="M2 11h7v-4h-1v-1h-1v4h-5v1zM11 11h3v-8h-1v-1h-1v2h-3v1h3v5h-1v1zM1 7h10v-1h-4v-3h-1v-1h-1v4h-4v1zM8 2v-3h4v3h-4zM5 3h9v-5h-8v4h-1v1z" />
    <glyph glyph-name="uniAD99" unicode="&#xad99;" 
d="M2 11h7v-4h-1v-1h-1v4h-5v1zM11 11h3v-8h-1v-1h-1v2h-3v1h3v5h-1v1zM1 7h10v-1h-4v-3h-1v-1h-1v4h-4v1zM8 0v-1h4v1h-4zM5 3h3v-2h4v1h-1v1h3v-5h-8v4h-1v1z" />
    <glyph glyph-name="uniAD9A" unicode="&#xad9a;" 
d="M2 11h7v-4h-1v-1h-1v4h-5v1zM11 11h3v-8h-1v-1h-1v2h-3v1h3v5h-1v1zM1 7h10v-1h-4v-3h-1v-1h-1v4h-4v1zM6 0v-1h1v1h-1zM4 3h2v-2h1v2h2v-4h1v1h1v3h2v-3h2v-2h-2v1h-2v-1h-7v5z" />
    <glyph glyph-name="uniAD9B" unicode="&#xad9b;" 
d="M2 11h7v-4h-1v-1h-1v4h-5v1zM11 11h3v-8h-1v-1h-1v2h-3v1h3v5h-1v1zM1 7h10v-1h-4v-3h-1v-1h-1v4h-4v1zM10 1h2v-1h1v-1h1v-1h-2v1h-1v1h-1v1zM4 -1h2v-1h-2v1zM8 3h2v-2h-1v-1h-1v-1h-2v1h1v1h1v2z" />
    <glyph glyph-name="uniAD9C" unicode="&#xad9c;" 
d="M2 11h7v-4h-1v-1h-1v4h-5v1zM11 11h3v-8h-1v-1h-1v2h-3v1h3v5h-1v1zM1 7h10v-1h-4v-3h-1v-1h-1v4h-4v1zM7 3h2v-2h2v2h2v-2h1v-1h1v-1h1v-1h-2v1h-1v1h-2v-1h-1v-1h-2v1h1v1h-2v-1h-1v-1h-2v1h1v1h1v1h1v2z" />
    <glyph glyph-name="uniAD9D" unicode="&#xad9d;" 
d="M2 11h7v-4h-1v-1h-1v4h-5v1zM11 11h3v-8h-1v-1h-1v2h-3v1h3v5h-1v1zM1 7h10v-1h-4v-3h-1v-1h-1v4h-4v1zM8 2v-3h4v3h-4zM7 3h6v-1h1v-3h-1v-1h-6v1h-1v3h1v1z" />
    <glyph glyph-name="uniAD9E" unicode="&#xad9e;" 
d="M2 11h7v-4h-1v-1h-1v4h-5v1zM11 11h3v-8h-1v-1h-1v2h-3v1h3v5h-1v1zM1 7h10v-1h-4v-3h-1v-1h-1v4h-4v1zM12 -1h2v-1h-2v1zM4 -1h2v-1h-2v1zM4 3h10v-1h-4v-1h1v-1h1v-1h-2v1h-2v-1h-2v1h1v1h1v1h-4v1z" />
    <glyph glyph-name="uniAD9F" unicode="&#xad9f;" 
d="M2 11h7v-4h-1v-1h-1v4h-5v1zM11 11h3v-8h-1v-1h-1v2h-3v1h3v5h-1v1zM1 7h10v-1h-4v-3h-1v-1h-1v4h-4v1zM12 -1h2v-1h-2v1zM4 -1h2v-1h-2v1zM8 3h2v-1h4v-1h-3v-1h1v-1h-2v1h-2v-1h-2v1h1v1h-3v1h4v1z" />
    <glyph glyph-name="uniADA0" unicode="&#xada0;" 
d="M2 11h7v-4h-1v-1h-1v4h-5v1zM11 11h3v-8h-1v-1h-1v2h-3v1h3v5h-1v1zM1 7h10v-1h-4v-3h-1v-1h-1v4h-4v1zM6 3h8v-4h-1v-1h-1v2h-6v1h6v1h-6v1z" />
    <glyph glyph-name="uniADA1" unicode="&#xada1;" 
d="M2 11h7v-4h-1v-1h-1v4h-5v1zM11 11h3v-8h-1v-1h-1v2h-3v1h3v5h-1v1zM1 7h10v-1h-4v-3h-1v-1h-1v4h-4v1zM5 3h9v-1h-6v-1h6v-1h-6v-1h6v-1h-7v1h-1v3h-1v1z" />
    <glyph glyph-name="uniADA2" unicode="&#xada2;" 
d="M2 11h7v-4h-1v-1h-1v4h-5v1zM11 11h3v-8h-1v-1h-1v2h-3v1h3v5h-1v1zM1 7h10v-1h-4v-3h-1v-1h-1v4h-4v1zM8 2v-3h2v3h-2zM4 3h10v-1h-2v-3h2v-1h-10v1h2v3h-2v1z" />
    <glyph glyph-name="uniADA3" unicode="&#xada3;" 
d="M2 11h7v-4h-1v-1h-1v4h-5v1zM11 11h3v-8h-1v-1h-1v2h-3v1h3v5h-1v1zM1 7h10v-1h-4v-3h-1v-1h-1v4h-4v1zM8 0v-1h4v1h-4zM8 3h4v-1h3v-1h-2v-1h1v-1h-1v-1h-6v1h-1v1h1v1h-2v1h3v1z" />
    <glyph glyph-name="uniADA4" unicode="&#xada4;" 
d="M2 11h7v-5h-1v-1h-1v5h-5v1zM12 12h3v-13h-1v-1h-1v13h-1v1zM9 11h3v-11h-1v-1h-1v3h-3v1h3v7h-1v1zM1 5h8v-1h-3v-4h-1v-1h-1v5h-3v1z" />
    <glyph glyph-name="uniADA5" unicode="&#xada5;" 
d="M2 11h7v-4h-1v-1h-1v4h-5v1zM12 12h3v-9h-1v-1h-1v9h-1v1zM9 11h3v-8h-1v-1h-1v4h-2v1h2v3h-1v1zM1 5h8v-1h-3v-1h-1v-1h-1v2h-3v1zM5 3h10v-4h-1v-1h-1v4h-8v1z" />
    <glyph glyph-name="uniADA6" unicode="&#xada6;" 
d="M2 11h7v-4h-1v-1h-1v4h-5v1zM12 12h3v-9h-1v-1h-1v9h-1v1zM9 11h3v-8h-1v-1h-1v4h-2v1h2v3h-1v1zM1 5h8v-1h-3v-1h-1v-1h-1v2h-3v1zM4 3h11v-4h-1v-1h-1v4h-3v-3h-1v-1h-1v4h-4v1z" />
    <glyph glyph-name="uniADA7" unicode="&#xada7;" 
d="M2 11h7v-4h-1v-1h-1v4h-5v1zM12 12h3v-9h-1v-1h-1v9h-1v1zM9 11h3v-8h-1v-1h-1v4h-2v1h2v3h-1v1zM1 5h8v-1h-3v-1h-1v-1h-1v2h-3v1zM12 3h2v-2h1v-1h1v-2h-2v2h-1v-1h-1v-1h-2v1h1v1h1v3zM4 3h6v-4h-1v-1h-1v4h-4v1z" />
    <glyph glyph-name="uniADA8" unicode="&#xada8;" 
d="M2 11h7v-4h-1v-1h-1v4h-5v1zM12 12h3v-9h-1v-1h-1v9h-1v1zM9 11h3v-8h-1v-1h-1v4h-2v1h2v3h-1v1zM1 5h8v-1h-3v-1h-1v-1h-1v2h-3v1zM5 3h3v-4h7v-1h-8v1h-1v3h-1v1z" />
    <glyph glyph-name="uniADA9" unicode="&#xada9;" 
d="M2 11h7v-4h-1v-1h-1v4h-5v1zM12 12h3v-9h-1v-1h-1v9h-1v1zM9 11h3v-8h-1v-1h-1v4h-2v1h2v3h-1v1zM1 5h8v-1h-3v-1h-1v-1h-1v2h-3v1zM9 3h6v-1h-2v-2h1v-1h1v-1h-2v1h-2v-1h-2v1h1v1h1v2h-2v1zM3 3h3v-4h2v-1h-3v1h-1v3h-1v1z" />
    <glyph glyph-name="uniADAA" unicode="&#xadaa;" 
d="M2 11h7v-4h-1v-1h-1v4h-5v1zM12 12h3v-9h-1v-1h-1v9h-1v1zM9 11h3v-8h-1v-1h-1v4h-2v1h2v3h-1v1zM1 5h8v-1h-3v-1h-1v-1h-1v2h-3v1zM11 0v-1h2v1h-2zM11 3h2v-1h2v-1h-1v-1h1v-1h-1v-1h-4v1h-1v1h1v1h-1v1h2v1zM3 3h3v-4h3v-1h-4v1h-1v3h-1v1z" />
    <glyph glyph-name="uniADAB" unicode="&#xadab;" 
d="M2 11h7v-4h-1v-1h-1v4h-5v1zM12 12h3v-9h-1v-1h-1v9h-1v1zM9 11h3v-8h-1v-1h-1v4h-2v1h2v3h-1v1zM1 5h8v-1h-3v-1h-1v-1h-1v2h-3v1zM5 3h9v-1h-6v-3h6v-1h-7v1h-1v3h-1v1z" />
    <glyph glyph-name="uniADAC" unicode="&#xadac;" 
d="M2 11h7v-4h-1v-1h-1v4h-5v1zM12 12h3v-9h-1v-1h-1v9h-1v1zM9 11h3v-8h-1v-1h-1v4h-2v1h2v3h-1v1zM1 5h8v-1h-3v-1h-1v-1h-1v2h-3v1zM6 3h9v-3h-7v-1h7v-1h-8v1h-1v2h7v1h-7v1z" />
    <glyph glyph-name="uniADAD" unicode="&#xadad;" 
d="M2 11h7v-4h-1v-1h-1v4h-5v1zM12 12h3v-9h-1v-1h-1v9h-1v1zM9 11h3v-8h-1v-1h-1v4h-2v1h2v3h-1v1zM1 5h8v-1h-3v-1h-1v-1h-1v2h-3v1zM11 3h4v-4h-1v-1h-1v4h-2v1zM5 3h5v-3h-3v-1h3v-1h-4v1h-1v2h3v1h-3v1z" />
    <glyph glyph-name="uniADAE" unicode="&#xadae;" 
d="M2 11h7v-4h-1v-1h-1v4h-5v1zM12 12h3v-9h-1v-1h-1v9h-1v1zM9 11h3v-8h-1v-1h-1v4h-2v1h2v3h-1v1zM1 5h8v-1h-3v-1h-1v-1h-1v2h-3v1zM12 2v-3h1v3h-1zM10 3h5v-5h-5v5zM4 3h5v-3h-3v-1h3v-1h-4v1h-1v2h3v1h-3v1z" />
    <glyph glyph-name="uniADAF" unicode="&#xadaf;" 
d="M2 11h7v-4h-1v-1h-1v4h-5v1zM12 12h3v-9h-1v-1h-1v9h-1v1zM9 11h3v-8h-1v-1h-1v4h-2v1h2v3h-1v1zM1 5h8v-1h-3v-1h-1v-1h-1v2h-3v1zM12 0v-1h1v1h-1zM10 3h2v-2h1v2h2v-5h-5v5zM4 3h5v-3h-3v-1h3v-1h-4v1h-1v2h3v1h-3v1z" />
    <glyph glyph-name="uniADB0" unicode="&#xadb0;" 
d="M2 11h7v-4h-1v-1h-1v4h-5v1zM12 12h3v-9h-1v-1h-1v9h-1v1zM9 11h3v-8h-1v-1h-1v4h-2v1h2v3h-1v1zM1 5h8v-1h-3v-1h-1v-1h-1v2h-3v1zM12 3h2v-3h1v-1h1v-1h-2v1h-2v-1h-1v2h1v3zM5 3h5v-3h-3v-1h3v-1h-4v1h-1v2h3v1h-3v1z" />
    <glyph glyph-name="uniADB1" unicode="&#xadb1;" 
d="M2 11h7v-4h-1v-1h-1v4h-5v1zM12 12h3v-9h-1v-1h-1v9h-1v1zM9 11h3v-8h-1v-1h-1v4h-2v1h2v3h-1v1zM1 5h8v-1h-3v-1h-1v-1h-1v2h-3v1zM10 3h5v-1h-3v-1h3v-1h-3v-1h3v-1h-5v5zM4 3h5v-3h-3v-1h3v-1h-4v1h-1v2h3v1h-3v1z" />
    <glyph glyph-name="uniADB2" unicode="&#xadb2;" 
d="M2 11h7v-4h-1v-1h-1v4h-5v1zM12 12h3v-9h-1v-1h-1v9h-1v1zM9 11h3v-8h-1v-1h-1v4h-2v1h2v3h-1v1zM1 5h8v-1h-3v-1h-1v-1h-1v2h-3v1zM11 2v-3h1v3h-1zM8 3h7v-1h-1v-3h1v-1h-7v1h1v3h-1v1zM3 3h4v-1h1v-2h-3v-1h2v-1h-3v1h-1v2h3v1h-3v1z" />
    <glyph glyph-name="uniADB3" unicode="&#xadb3;" 
d="M2 11h7v-4h-1v-1h-1v4h-5v1zM12 12h3v-9h-1v-1h-1v9h-1v1zM9 11h3v-8h-1v-1h-1v4h-2v1h2v3h-1v1zM1 5h8v-1h-3v-1h-1v-1h-1v2h-3v1zM11 0v-1h2v1h-2zM11 3h2v-1h2v-1h-1v-1h1v-1h-1v-1h-4v1h-1v1h1v1h-1v1h2v1zM3 3h5v-3h-3v-1h3v-1h-4v1h-1v2h3v1h-3v1z" />
    <glyph glyph-name="uniADB4" unicode="&#xadb4;" 
d="M2 11h7v-4h-1v-1h-1v4h-5v1zM12 12h3v-9h-1v-1h-1v9h-1v1zM9 11h3v-8h-1v-1h-1v4h-2v1h2v3h-1v1zM1 5h8v-1h-3v-1h-1v-1h-1v2h-3v1zM8 2v-3h5v3h-5zM5 3h10v-5h-9v4h-1v1z" />
    <glyph glyph-name="uniADB5" unicode="&#xadb5;" 
d="M2 11h7v-4h-1v-1h-1v4h-5v1zM12 12h3v-9h-1v-1h-1v9h-1v1zM9 11h3v-8h-1v-1h-1v4h-2v1h2v3h-1v1zM1 5h8v-1h-3v-1h-1v-1h-1v2h-3v1zM8 0v-1h5v1h-5zM5 3h3v-2h5v1h-1v1h3v-5h-9v4h-1v1z" />
    <glyph glyph-name="uniADB6" unicode="&#xadb6;" 
d="M2 11h7v-4h-1v-1h-1v4h-5v1zM12 12h3v-9h-1v-1h-1v9h-1v1zM9 11h3v-8h-1v-1h-1v4h-2v1h2v3h-1v1zM1 5h8v-1h-3v-1h-1v-1h-1v2h-3v1zM6 0v-1h1v1h-1zM4 3h2v-2h1v2h2v-4h1v1h1v3h2v-3h2v-2h-2v1h-2v-1h-7v5z" />
    <glyph glyph-name="uniADB7" unicode="&#xadb7;" 
d="M2 11h7v-4h-1v-1h-1v4h-5v1zM12 12h3v-9h-1v-1h-1v9h-1v1zM9 11h3v-8h-1v-1h-1v4h-2v1h2v3h-1v1zM1 5h8v-1h-3v-1h-1v-1h-1v2h-3v1zM11 1h2v-1h1v-1h1v-1h-2v1h-1v1h-1v1zM5 -1h2v-1h-2v1zM9 3h2v-2h-1v-1h-1v-1h-2v1h1v1h1v2z" />
    <glyph glyph-name="uniADB8" unicode="&#xadb8;" 
d="M2 11h7v-4h-1v-1h-1v4h-5v1zM12 12h3v-9h-1v-1h-1v9h-1v1zM9 11h3v-8h-1v-1h-1v4h-2v1h2v3h-1v1zM1 5h8v-1h-3v-1h-1v-1h-1v2h-3v1zM7 3h2v-2h2v2h2v-2h1v-1h1v-1h1v-1h-2v1h-1v1h-2v-1h-1v-1h-2v1h1v1h-2v-1h-1v-1h-2v1h1v1h1v1h1v2z" />
    <glyph glyph-name="uniADB9" unicode="&#xadb9;" 
d="M2 11h7v-4h-1v-1h-1v4h-5v1zM12 12h3v-9h-1v-1h-1v9h-1v1zM9 11h3v-8h-1v-1h-1v4h-2v1h2v3h-1v1zM1 5h8v-1h-3v-1h-1v-1h-1v2h-3v1zM9 2v-3h4v3h-4zM8 3h6v-1h1v-3h-1v-1h-6v1h-1v3h1v1z" />
    <glyph glyph-name="uniADBA" unicode="&#xadba;" 
d="M2 11h7v-4h-1v-1h-1v4h-5v1zM12 12h3v-9h-1v-1h-1v9h-1v1zM9 11h3v-8h-1v-1h-1v4h-2v1h2v3h-1v1zM1 5h8v-1h-3v-1h-1v-1h-1v2h-3v1zM13 -1h2v-1h-2v1zM5 -1h2v-1h-2v1zM5 3h10v-1h-4v-1h1v-1h1v-1h-2v1h-2v-1h-2v1h1v1h1v1h-4v1z" />
    <glyph glyph-name="uniADBB" unicode="&#xadbb;" 
d="M2 11h7v-4h-1v-1h-1v4h-5v1zM12 12h3v-9h-1v-1h-1v9h-1v1zM9 11h3v-8h-1v-1h-1v4h-2v1h2v3h-1v1zM1 5h8v-1h-3v-1h-1v-1h-1v2h-3v1zM13 -1h2v-1h-2v1zM5 -1h2v-1h-2v1zM9 3h2v-1h4v-1h-3v-1h1v-1h-2v1h-2v-1h-2v1h1v1h-3v1h4v1z" />
    <glyph glyph-name="uniADBC" unicode="&#xadbc;" 
d="M2 11h7v-4h-1v-1h-1v4h-5v1zM12 12h3v-9h-1v-1h-1v9h-1v1zM9 11h3v-8h-1v-1h-1v4h-2v1h2v3h-1v1zM1 5h8v-1h-3v-1h-1v-1h-1v2h-3v1zM6 3h9v-4h-1v-1h-1v2h-7v1h7v1h-7v1z" />
    <glyph glyph-name="uniADBD" unicode="&#xadbd;" 
d="M2 11h7v-4h-1v-1h-1v4h-5v1zM12 12h3v-9h-1v-1h-1v9h-1v1zM9 11h3v-8h-1v-1h-1v4h-2v1h2v3h-1v1zM1 5h8v-1h-3v-1h-1v-1h-1v2h-3v1zM6 3h9v-1h-6v-1h6v-1h-6v-1h6v-1h-7v1h-1v3h-1v1z" />
    <glyph glyph-name="uniADBE" unicode="&#xadbe;" 
d="M2 11h7v-4h-1v-1h-1v4h-5v1zM12 12h3v-9h-1v-1h-1v9h-1v1zM9 11h3v-8h-1v-1h-1v4h-2v1h2v3h-1v1zM1 5h8v-1h-3v-1h-1v-1h-1v2h-3v1zM9 2v-3h2v3h-2zM5 3h10v-1h-2v-3h2v-1h-10v1h2v3h-2v1z" />
    <glyph glyph-name="uniADBF" unicode="&#xadbf;" 
d="M2 11h7v-4h-1v-1h-1v4h-5v1zM12 12h3v-9h-1v-1h-1v9h-1v1zM9 11h3v-8h-1v-1h-1v4h-2v1h2v3h-1v1zM1 5h8v-1h-3v-1h-1v-1h-1v2h-3v1zM8 0v-1h4v1h-4zM8 3h4v-1h3v-1h-2v-1h1v-1h-1v-1h-6v1h-1v1h1v1h-2v1h3v1z" />
    <glyph glyph-name="uniADC0" unicode="&#xadc0;" 
d="M2 11h7v-5h-1v-1h-1v5h-5v1zM11 12h3v-13h-1v-1h-1v13h-1v1zM1 5h10v-1h-4v-4h-1v-1h-1v5h-4v1z" />
    <glyph glyph-name="uniADC1" unicode="&#xadc1;" 
d="M2 11h7v-4h-1v-1h-1v4h-5v1zM12 12h3v-8h-1v-1h-1v8h-1v1zM2 6h9v-1h-4v-2h-2v2h-3v1zM5 3h9v-4h-1v-1h-1v4h-7v1z" />
    <glyph glyph-name="uniADC2" unicode="&#xadc2;" 
d="M2 11h7v-4h-1v-1h-1v4h-5v1zM12 12h3v-8h-1v-1h-1v8h-1v1zM2 6h9v-1h-4v-2h-2v2h-3v1zM4 3h10v-4h-1v-1h-1v4h-3v-3h-1v-1h-1v4h-3v1z" />
    <glyph glyph-name="uniADC3" unicode="&#xadc3;" 
d="M2 11h7v-4h-1v-1h-1v4h-5v1zM12 12h3v-8h-1v-1h-1v8h-1v1zM2 6h9v-1h-4v-2h-2v2h-3v1zM11 3h2v-2h1v-1h1v-2h-2v2h-1v-1h-1v-1h-2v1h1v1h1v3zM4 3h5v-4h-1v-1h-1v4h-3v1z" />
    <glyph glyph-name="uniADC4" unicode="&#xadc4;" 
d="M2 11h7v-4h-1v-1h-1v4h-5v1zM12 12h3v-8h-1v-1h-1v8h-1v1zM2 6h9v-1h-4v-2h-2v2h-3v1zM5 3h3v-4h6v-1h-7v1h-1v3h-1v1z" />
    <glyph glyph-name="uniADC5" unicode="&#xadc5;" 
d="M2 11h7v-4h-1v-1h-1v4h-5v1zM12 12h3v-8h-1v-1h-1v8h-1v1zM2 6h9v-1h-4v-2h-2v2h-3v1zM4 3h3v-4h3v1h1v2h-2v1h6v-1h-2v-2h1v-1h1v-1h-2v1h-2v-1h-5v1h-1v3h-1v1z" />
    <glyph glyph-name="uniADC6" unicode="&#xadc6;" 
d="M2 11h7v-4h-1v-1h-1v4h-5v1zM12 12h3v-8h-1v-1h-1v8h-1v1zM2 6h9v-1h-4v-2h-2v2h-3v1zM11 0v-1h2v1h-2zM11 3h2v-1h2v-1h-1v-1h1v-1h-1v-1h-4v1h-1v1h1v1h-1v1h2v1zM4 3h3v-4h2v-1h-3v1h-1v3h-1v1z" />
    <glyph glyph-name="uniADC7" unicode="&#xadc7;" 
d="M2 11h7v-4h-1v-1h-1v4h-5v1zM12 12h3v-8h-1v-1h-1v8h-1v1zM2 6h9v-1h-4v-2h-2v2h-3v1zM5 3h9v-1h-6v-3h6v-1h-7v1h-1v3h-1v1z" />
    <glyph glyph-name="uniADC8" unicode="&#xadc8;" 
d="M2 11h7v-4h-1v-1h-1v4h-5v1zM12 12h3v-8h-1v-1h-1v8h-1v1zM2 6h9v-1h-4v-2h-2v2h-3v1zM5 3h9v-3h-7v-1h7v-1h-8v1h-1v2h7v1h-7v1z" />
    <glyph glyph-name="uniADC9" unicode="&#xadc9;" 
d="M2 11h7v-4h-1v-1h-1v4h-5v1zM12 12h3v-8h-1v-1h-1v8h-1v1zM2 6h9v-1h-4v-2h-2v2h-3v1zM10 3h4v-4h-1v-1h-1v4h-2v1zM4 3h5v-3h-3v-1h3v-1h-4v1h-1v2h3v1h-3v1z" />
    <glyph glyph-name="uniADCA" unicode="&#xadca;" 
d="M2 11h7v-4h-1v-1h-1v4h-5v1zM12 12h3v-8h-1v-1h-1v8h-1v1zM2 6h9v-1h-4v-2h-2v2h-3v1zM11 2v-3h1v3h-1zM9 3h5v-5h-5v5zM3 3h5v-3h-3v-1h3v-1h-4v1h-1v2h3v1h-3v1z" />
    <glyph glyph-name="uniADCB" unicode="&#xadcb;" 
d="M2 11h7v-4h-1v-1h-1v4h-5v1zM12 12h3v-8h-1v-1h-1v8h-1v1zM2 6h9v-1h-4v-2h-2v2h-3v1zM11 0v-1h1v1h-1zM9 3h2v-2h1v2h2v-5h-5v5zM3 3h5v-3h-3v-1h3v-1h-4v1h-1v2h3v1h-3v1z" />
    <glyph glyph-name="uniADCC" unicode="&#xadcc;" 
d="M2 11h7v-4h-1v-1h-1v4h-5v1zM12 12h3v-8h-1v-1h-1v8h-1v1zM2 6h9v-1h-4v-2h-2v2h-3v1zM11 3h2v-3h1v-1h1v-1h-2v1h-2v-1h-1v2h1v3zM4 3h5v-3h-3v-1h3v-1h-4v1h-1v2h3v1h-3v1z" />
    <glyph glyph-name="uniADCD" unicode="&#xadcd;" 
d="M2 11h7v-4h-1v-1h-1v4h-5v1zM12 12h3v-8h-1v-1h-1v8h-1v1zM2 6h9v-1h-4v-2h-2v2h-3v1zM9 3h5v-1h-3v-1h3v-1h-3v-1h3v-1h-5v5zM3 3h5v-3h-3v-1h3v-1h-4v1h-1v2h3v1h-3v1z" />
    <glyph glyph-name="uniADCE" unicode="&#xadce;" 
d="M2 11h7v-4h-1v-1h-1v4h-5v1zM12 12h3v-8h-1v-1h-1v8h-1v1zM2 6h9v-1h-4v-2h-2v2h-3v1zM11 2v-3h1v3h-1zM8 3h7v-1h-1v-3h1v-1h-7v1h1v3h-1v1zM3 3h4v-1h1v-2h-3v-1h2v-1h-3v1h-1v2h3v1h-3v1z" />
    <glyph glyph-name="uniADCF" unicode="&#xadcf;" 
d="M2 11h7v-4h-1v-1h-1v4h-5v1zM12 12h3v-8h-1v-1h-1v8h-1v1zM2 6h9v-1h-4v-2h-2v2h-3v1zM11 0v-1h2v1h-2zM11 3h2v-1h2v-1h-1v-1h1v-1h-1v-1h-4v1h-1v1h1v1h-1v1h2v1zM3 3h5v-3h-3v-1h3v-1h-4v1h-1v2h3v1h-3v1z" />
    <glyph glyph-name="uniADD0" unicode="&#xadd0;" 
d="M2 11h7v-4h-1v-1h-1v4h-5v1zM12 12h3v-8h-1v-1h-1v8h-1v1zM2 6h9v-1h-4v-2h-2v2h-3v1zM8 2v-3h4v3h-4zM5 3h9v-5h-8v4h-1v1z" />
    <glyph glyph-name="uniADD1" unicode="&#xadd1;" 
d="M2 11h7v-4h-1v-1h-1v4h-5v1zM12 12h3v-8h-1v-1h-1v8h-1v1zM2 6h9v-1h-4v-2h-2v2h-3v1zM8 0v-1h4v1h-4zM5 3h3v-2h4v1h-1v1h3v-5h-8v4h-1v1z" />
    <glyph glyph-name="uniADD2" unicode="&#xadd2;" 
d="M2 11h7v-4h-1v-1h-1v4h-5v1zM12 12h3v-8h-1v-1h-1v8h-1v1zM2 6h9v-1h-4v-2h-2v2h-3v1zM6 0v-1h1v1h-1zM4 3h2v-2h1v2h2v-4h1v1h1v3h2v-3h2v-2h-2v1h-2v-1h-7v5z" />
    <glyph glyph-name="uniADD3" unicode="&#xadd3;" 
d="M2 11h7v-4h-1v-1h-1v4h-5v1zM12 12h3v-8h-1v-1h-1v8h-1v1zM2 6h9v-1h-4v-2h-2v2h-3v1zM10 1h2v-1h1v-1h1v-1h-2v1h-1v1h-1v1zM4 -1h2v-1h-2v1zM8 3h2v-2h-1v-1h-1v-1h-2v1h1v1h1v2z" />
    <glyph glyph-name="uniADD4" unicode="&#xadd4;" 
d="M2 11h7v-4h-1v-1h-1v4h-5v1zM12 12h3v-8h-1v-1h-1v8h-1v1zM2 6h9v-1h-4v-2h-2v2h-3v1zM7 3h2v-2h2v2h2v-2h1v-1h1v-1h1v-1h-2v1h-1v1h-2v-1h-1v-1h-2v1h1v1h-2v-1h-1v-1h-2v1h1v1h1v1h1v2z" />
    <glyph glyph-name="uniADD5" unicode="&#xadd5;" 
d="M2 11h7v-4h-1v-1h-1v4h-5v1zM12 12h3v-8h-1v-1h-1v8h-1v1zM2 6h9v-1h-4v-2h-2v2h-3v1zM8 2v-3h4v3h-4zM7 3h6v-1h1v-3h-1v-1h-6v1h-1v3h1v1z" />
    <glyph glyph-name="uniADD6" unicode="&#xadd6;" 
d="M2 11h7v-4h-1v-1h-1v4h-5v1zM12 12h3v-8h-1v-1h-1v8h-1v1zM2 6h9v-1h-4v-2h-2v2h-3v1zM12 -1h2v-1h-2v1zM4 -1h2v-1h-2v1zM4 3h10v-1h-4v-1h1v-1h1v-1h-2v1h-2v-1h-2v1h1v1h1v1h-4v1z" />
    <glyph glyph-name="uniADD7" unicode="&#xadd7;" 
d="M2 11h7v-4h-1v-1h-1v4h-5v1zM12 12h3v-8h-1v-1h-1v8h-1v1zM2 6h9v-1h-4v-2h-2v2h-3v1zM12 -1h2v-1h-2v1zM4 -1h2v-1h-2v1zM8 3h2v-1h4v-1h-3v-1h1v-1h-2v1h-2v-1h-2v1h1v1h-3v1h4v1z" />
    <glyph glyph-name="uniADD8" unicode="&#xadd8;" 
d="M2 11h7v-4h-1v-1h-1v4h-5v1zM12 12h3v-8h-1v-1h-1v8h-1v1zM2 6h9v-1h-4v-2h-2v2h-3v1zM6 3h8v-4h-1v-1h-1v2h-6v1h6v1h-6v1z" />
    <glyph glyph-name="uniADD9" unicode="&#xadd9;" 
d="M2 11h7v-4h-1v-1h-1v4h-5v1zM12 12h3v-8h-1v-1h-1v8h-1v1zM2 6h9v-1h-4v-2h-2v2h-3v1zM5 3h9v-1h-6v-1h6v-1h-6v-1h6v-1h-7v1h-1v3h-1v1z" />
    <glyph glyph-name="uniADDA" unicode="&#xadda;" 
d="M2 11h7v-4h-1v-1h-1v4h-5v1zM12 12h3v-8h-1v-1h-1v8h-1v1zM2 6h9v-1h-4v-2h-2v2h-3v1zM8 2v-3h2v3h-2zM4 3h10v-1h-2v-3h2v-1h-10v1h2v3h-2v1z" />
    <glyph glyph-name="uniADDB" unicode="&#xaddb;" 
d="M2 11h7v-4h-1v-1h-1v4h-5v1zM12 12h3v-8h-1v-1h-1v8h-1v1zM2 6h9v-1h-4v-2h-2v2h-3v1zM8 0v-1h4v1h-4zM8 3h4v-1h3v-1h-2v-1h1v-1h-1v-1h-6v1h-1v1h1v1h-2v1h3v1z" />
    <glyph glyph-name="uniADDC" unicode="&#xaddc;" 
d="M3 11h9v-5h-1v-1h-1v5h-7v1zM1 5h14v-1h-4v-5h-1v-1h-1v6h-2v-5h-1v-1h-1v6h-4v1z" />
    <glyph glyph-name="uniADDD" unicode="&#xaddd;" 
d="M3 11h10v-4h-1v-1h-1v4h-8v1zM1 5h14v-1h-4v-2h-2v2h-2v-2h-2v2h-4v1zM3 3h10v-4h-1v-1h-1v4h-8v1z" />
    <glyph glyph-name="uniADDE" unicode="&#xadde;" 
d="M3 11h10v-4h-1v-1h-1v4h-8v1zM1 5h14v-1h-4v-2h-2v2h-2v-2h-2v2h-4v1zM8 3h5v-4h-1v-1h-1v4h-3v1zM2 3h5v-4h-1v-1h-1v4h-3v1z" />
    <glyph glyph-name="uniADDF" unicode="&#xaddf;" 
d="M3 11h10v-4h-1v-1h-1v4h-8v1zM1 5h14v-1h-4v-2h-2v2h-2v-2h-2v2h-4v1zM10 3h2v-2h1v-1h1v-2h-2v2h-1v-1h-1v-1h-2v1h1v1h1v3zM3 3h5v-4h-1v-1h-1v4h-3v1z" />
    <glyph glyph-name="uniADE0" unicode="&#xade0;" 
d="M3 11h10v-4h-1v-1h-1v4h-8v1zM1 5h14v-1h-4v-2h-2v2h-2v-2h-2v2h-4v1zM2 3h3v-4h8v-1h-9v1h-1v3h-1v1z" />
    <glyph glyph-name="uniADE1" unicode="&#xade1;" 
d="M3 11h10v-4h-1v-1h-1v4h-8v1zM1 5h14v-1h-4v-2h-2v2h-2v-2h-2v2h-4v1zM8 3h6v-1h-2v-2h1v-1h1v-1h-2v1h-2v-1h-2v1h1v1h1v2h-2v1zM2 3h3v-4h2v-1h-3v1h-1v3h-1v1z" />
    <glyph glyph-name="uniADE2" unicode="&#xade2;" 
d="M3 11h10v-4h-1v-1h-1v4h-8v1zM1 5h14v-1h-4v-2h-2v2h-2v-2h-2v2h-4v1zM10 0v-1h2v1h-2zM10 3h2v-1h2v-1h-1v-1h1v-1h-1v-1h-4v1h-1v1h1v1h-1v1h2v1zM2 3h3v-4h3v-1h-4v1h-1v3h-1v1z" />
    <glyph glyph-name="uniADE3" unicode="&#xade3;" 
d="M3 11h10v-4h-1v-1h-1v4h-8v1zM1 5h14v-1h-4v-2h-2v2h-2v-2h-2v2h-4v1zM2 2h11v-1h-8v-2h8v-1h-9v1h-1v2h-1v1z" />
    <glyph glyph-name="uniADE4" unicode="&#xade4;" 
d="M3 11h10v-4h-1v-1h-1v4h-8v1zM1 5h14v-1h-4v-2h-2v2h-2v-2h-2v2h-4v1zM3 3h10v-3h-8v-1h8v-1h-9v1h-1v2h8v1h-8v1z" />
    <glyph glyph-name="uniADE5" unicode="&#xade5;" 
d="M3 11h10v-4h-1v-1h-1v4h-8v1zM1 5h14v-1h-4v-2h-2v2h-2v-2h-2v2h-4v1zM9 3h5v-4h-1v-1h-1v4h-3v1zM3 3h5v-3h-3v-1h3v-1h-4v1h-1v2h3v1h-3v1z" />
    <glyph glyph-name="uniADE6" unicode="&#xade6;" 
d="M3 11h10v-4h-1v-1h-1v4h-8v1zM1 5h14v-1h-4v-2h-2v2h-2v-2h-2v2h-4v1zM10 2v-3h2v3h-2zM8 3h6v-5h-6v5zM2 3h5v-3h-3v-1h3v-1h-4v1h-1v2h3v1h-3v1z" />
    <glyph glyph-name="uniADE7" unicode="&#xade7;" 
d="M3 11h10v-4h-1v-1h-1v4h-8v1zM1 5h14v-1h-4v-2h-2v2h-2v-2h-2v2h-4v1zM11 0v-1h1v1h-1zM9 3h2v-2h1v2h2v-5h-5v5zM3 3h5v-3h-3v-1h3v-1h-4v1h-1v2h3v1h-3v1z" />
    <glyph glyph-name="uniADE8" unicode="&#xade8;" 
d="M3 11h10v-4h-1v-1h-1v4h-8v1zM1 5h14v-1h-4v-2h-2v2h-2v-2h-2v2h-4v1zM3 3h5v-3h-3v-1h3v-1h-4v1h-1v2h3v1h-3v1zM11 3h2v-3h1v-1h1v-1h-2v1h-2v-1h-2v1h1v1h1v3z" />
    <glyph glyph-name="uniADE9" unicode="&#xade9;" 
d="M3 11h10v-4h-1v-1h-1v4h-8v1zM1 5h14v-1h-4v-2h-2v2h-2v-2h-2v2h-4v1zM9 3h5v-1h-3v-1h3v-1h-3v-1h3v-1h-5v5zM3 3h5v-3h-3v-1h3v-1h-4v1h-1v2h3v1h-3v1z" />
    <glyph glyph-name="uniADEA" unicode="&#xadea;" 
d="M3 11h10v-4h-1v-1h-1v4h-8v1zM1 5h14v-1h-4v-2h-2v2h-2v-2h-2v2h-4v1zM11 2v-3h1v3h-1zM8 3h7v-1h-1v-3h1v-1h-7v1h1v3h-1v1zM3 3h4v-1h1v-2h-3v-1h2v-1h-3v1h-1v2h3v1h-3v1z" />
    <glyph glyph-name="uniADEB" unicode="&#xadeb;" 
d="M3 11h10v-4h-1v-1h-1v4h-8v1zM1 5h14v-1h-4v-2h-2v2h-2v-2h-2v2h-4v1zM10 0v-1h2v1h-2zM10 3h2v-1h2v-1h-1v-1h1v-1h-1v-1h-4v1h-1v1h1v1h-1v1h2v1zM2 3h5v-3h-3v-1h3v-1h-4v1h-1v2h3v1h-3v1z" />
    <glyph glyph-name="uniADEC" unicode="&#xadec;" 
d="M3 11h10v-4h-1v-1h-1v4h-8v1zM1 5h14v-1h-4v-2h-2v2h-2v-2h-2v2h-4v1zM6 2v-3h5v3h-5zM3 3h10v-5h-9v4h-1v1z" />
    <glyph glyph-name="uniADED" unicode="&#xaded;" 
d="M3 11h10v-4h-1v-1h-1v4h-8v1zM1 5h14v-1h-4v-2h-2v2h-2v-2h-2v2h-4v1zM5 0v-1h6v1h-6zM2 3h3v-2h6v1h-1v1h3v-5h-10v4h-1v1z" />
    <glyph glyph-name="uniADEE" unicode="&#xadee;" 
d="M3 11h10v-4h-1v-1h-1v4h-8v1zM1 5h14v-1h-4v-2h-2v2h-2v-2h-2v2h-4v1zM5 0v-1h1v1h-1zM3 3h2v-2h1v2h2v-4h1v1h1v3h2v-3h2v-2h-2v1h-2v-1h-7v5z" />
    <glyph glyph-name="uniADEF" unicode="&#xadef;" 
d="M3 11h10v-4h-1v-1h-1v4h-8v1zM1 5h14v-1h-4v-2h-2v2h-2v-2h-2v2h-4v1zM9 1h2v-1h1v-1h1v-1h-2v1h-1v1h-1v1zM3 -1h2v-1h-2v1zM7 3h2v-2h-1v-1h-1v-1h-2v1h1v1h1v2z" />
    <glyph glyph-name="uniADF0" unicode="&#xadf0;" 
d="M3 11h10v-4h-1v-1h-1v4h-8v1zM1 5h14v-1h-4v-2h-2v2h-2v-2h-2v2h-4v1zM4 3h2v-2h1v-1h2v1h1v2h2v-2h1v-1h1v-1h1v-1h-2v1h-1v1h-2v-1h-1v-1h-2v1h-1v1h-2v-1h-1v-1h-2v1h1v1h1v1h1v2z" />
    <glyph glyph-name="uniADF1" unicode="&#xadf1;" 
d="M3 11h10v-4h-1v-1h-1v4h-8v1zM1 5h14v-1h-4v-2h-2v2h-2v-2h-2v2h-4v1zM6 2v-3h4v3h-4zM5 3h6v-1h1v-3h-1v-1h-6v1h-1v3h1v1z" />
    <glyph glyph-name="uniADF2" unicode="&#xadf2;" 
d="M3 11h10v-4h-1v-1h-1v4h-8v1zM1 5h14v-1h-4v-2h-2v2h-2v-2h-2v2h-4v1zM11 -1h2v-1h-2v1zM3 -1h2v-1h-2v1zM3 3h10v-1h-4v-1h1v-1h1v-1h-2v1h-2v-1h-2v1h1v1h1v1h-4v1z" />
    <glyph glyph-name="uniADF3" unicode="&#xadf3;" 
d="M3 11h10v-4h-1v-1h-1v4h-8v1zM1 5h14v-1h-4v-2h-2v2h-2v-2h-2v2h-4v1zM11 -1h2v-1h-2v1zM3 -1h2v-1h-2v1zM7 3h2v-1h4v-1h-3v-1h1v-1h-2v1h-2v-1h-2v1h1v1h-3v1h4v1z" />
    <glyph glyph-name="uniADF4" unicode="&#xadf4;" 
d="M3 11h10v-4h-1v-1h-1v4h-8v1zM1 5h14v-1h-4v-2h-2v2h-2v-2h-2v2h-4v1zM3 3h10v-4h-1v-1h-1v2h-8v1h8v1h-8v1z" />
    <glyph glyph-name="uniADF5" unicode="&#xadf5;" 
d="M3 11h10v-4h-1v-1h-1v4h-8v1zM1 5h14v-1h-4v-2h-2v2h-2v-2h-2v2h-4v1zM3 3h10v-1h-7v-1h7v-1h-7v-1h7v-1h-8v1h-1v3h-1v1z" />
    <glyph glyph-name="uniADF6" unicode="&#xadf6;" 
d="M3 11h10v-4h-1v-1h-1v4h-8v1zM1 5h14v-1h-4v-2h-2v2h-2v-2h-2v2h-4v1zM7 2v-3h2v3h-2zM3 3h10v-1h-2v-3h2v-1h-10v1h2v3h-2v1z" />
    <glyph glyph-name="uniADF7" unicode="&#xadf7;" 
d="M3 11h10v-4h-1v-1h-1v4h-8v1zM1 5h14v-1h-4v-2h-2v2h-2v-2h-2v2h-4v1zM6 0v-1h4v1h-4zM6 3h4v-1h3v-1h-2v-1h1v-1h-1v-1h-6v1h-1v1h1v1h-2v1h3v1z" />
    <glyph glyph-name="uniADF8" unicode="&#xadf8;" 
d="M3 11h9v-5h-1v-1h-1v5h-7v1zM1 2h14v-1h-14v1z" />
    <glyph glyph-name="uniADF9" unicode="&#xadf9;" 
d="M3 11h10v-4h-1v-1h-1v4h-8v1zM1 5h14v-1h-14v1zM3 3h10v-4h-1v-1h-1v4h-8v1z" />
    <glyph glyph-name="uniADFA" unicode="&#xadfa;" 
d="M3 11h10v-4h-1v-1h-1v4h-8v1zM1 5h14v-1h-14v1zM8 3h5v-4h-1v-1h-1v4h-3v1zM2 3h5v-4h-1v-1h-1v4h-3v1z" />
    <glyph glyph-name="uniADFB" unicode="&#xadfb;" 
d="M3 11h10v-4h-1v-1h-1v4h-8v1zM1 5h14v-1h-14v1zM10 3h2v-2h1v-1h1v-2h-2v2h-1v-1h-1v-1h-2v1h1v1h1v3zM3 3h5v-4h-1v-1h-1v4h-3v1z" />
    <glyph glyph-name="uniADFC" unicode="&#xadfc;" 
d="M3 11h10v-4h-1v-1h-1v4h-8v1zM1 5h14v-1h-14v1zM2 3h3v-4h8v-1h-9v1h-1v3h-1v1z" />
    <glyph glyph-name="uniADFD" unicode="&#xadfd;" 
d="M3 11h10v-4h-1v-1h-1v4h-8v1zM1 5h14v-1h-14v1zM8 3h6v-1h-2v-2h1v-1h1v-1h-2v1h-2v-1h-2v1h1v1h1v2h-2v1zM2 3h3v-4h2v-1h-3v1h-1v3h-1v1z" />
    <glyph glyph-name="uniADFE" unicode="&#xadfe;" 
d="M3 11h10v-4h-1v-1h-1v4h-8v1zM1 5h14v-1h-14v1zM10 0v-1h2v1h-2zM10 3h2v-1h2v-1h-1v-1h1v-1h-1v-1h-4v1h-1v1h1v1h-1v1h2v1zM2 3h3v-4h3v-1h-4v1h-1v3h-1v1z" />
    <glyph glyph-name="uniADFF" unicode="&#xadff;" 
d="M3 11h10v-4h-1v-1h-1v4h-8v1zM1 5h14v-1h-14v1zM2 2h11v-1h-8v-2h8v-1h-9v1h-1v2h-1v1z" />
    <glyph glyph-name="uniAE00" unicode="&#xae00;" 
d="M3 11h10v-4h-1v-1h-1v4h-8v1zM1 5h14v-1h-14v1zM3 3h10v-3h-8v-1h8v-1h-9v1h-1v2h8v1h-8v1z" />
    <glyph glyph-name="uniAE01" unicode="&#xae01;" 
d="M3 11h10v-4h-1v-1h-1v4h-8v1zM1 5h14v-1h-14v1zM9 3h5v-4h-1v-1h-1v4h-3v1zM3 3h5v-3h-3v-1h3v-1h-4v1h-1v2h3v1h-3v1z" />
    <glyph glyph-name="uniAE02" unicode="&#xae02;" 
d="M3 11h10v-4h-1v-1h-1v4h-8v1zM1 5h14v-1h-14v1zM10 2v-3h2v3h-2zM8 3h6v-5h-6v5zM2 3h5v-3h-3v-1h3v-1h-4v1h-1v2h3v1h-3v1z" />
    <glyph glyph-name="uniAE03" unicode="&#xae03;" 
d="M3 11h10v-4h-1v-1h-1v4h-8v1zM1 5h14v-1h-14v1zM11 0v-1h1v1h-1zM9 3h2v-2h1v2h2v-5h-5v5zM3 3h5v-3h-3v-1h3v-1h-4v1h-1v2h3v1h-3v1z" />
    <glyph glyph-name="uniAE04" unicode="&#xae04;" 
d="M3 11h10v-4h-1v-1h-1v4h-8v1zM1 5h14v-1h-14v1zM3 3h5v-3h-3v-1h3v-1h-4v1h-1v2h3v1h-3v1zM11 3h2v-3h1v-1h1v-1h-2v1h-2v-1h-2v1h1v1h1v3z" />
    <glyph glyph-name="uniAE05" unicode="&#xae05;" 
d="M3 11h10v-4h-1v-1h-1v4h-8v1zM1 5h14v-1h-14v1zM9 3h5v-1h-3v-1h3v-1h-3v-1h3v-1h-5v5zM3 3h5v-3h-3v-1h3v-1h-4v1h-1v2h3v1h-3v1z" />
    <glyph glyph-name="uniAE06" unicode="&#xae06;" 
d="M3 11h10v-4h-1v-1h-1v4h-8v1zM1 5h14v-1h-14v1zM11 2v-3h1v3h-1zM8 3h7v-1h-1v-3h1v-1h-7v1h1v3h-1v1zM3 3h4v-1h1v-2h-3v-1h2v-1h-3v1h-1v2h3v1h-3v1z" />
    <glyph glyph-name="uniAE07" unicode="&#xae07;" 
d="M3 11h10v-4h-1v-1h-1v4h-8v1zM1 5h14v-1h-14v1zM10 0v-1h2v1h-2zM10 3h2v-1h2v-1h-1v-1h1v-1h-1v-1h-4v1h-1v1h1v1h-1v1h2v1zM2 3h5v-3h-3v-1h3v-1h-4v1h-1v2h3v1h-3v1z" />
    <glyph glyph-name="uniAE08" unicode="&#xae08;" 
d="M3 11h10v-4h-1v-1h-1v4h-8v1zM1 5h14v-1h-14v1zM6 2v-3h5v3h-5zM3 3h10v-5h-9v4h-1v1z" />
    <glyph glyph-name="uniAE09" unicode="&#xae09;" 
d="M3 11h10v-4h-1v-1h-1v4h-8v1zM1 5h14v-1h-14v1zM5 0v-1h6v1h-6zM2 3h3v-2h6v1h-1v1h3v-5h-10v4h-1v1z" />
    <glyph glyph-name="uniAE0A" unicode="&#xae0a;" 
d="M3 11h10v-4h-1v-1h-1v4h-8v1zM1 5h14v-1h-14v1zM5 0v-1h1v1h-1zM3 3h2v-2h1v2h2v-4h1v1h1v3h2v-3h2v-2h-2v1h-2v-1h-7v5z" />
    <glyph glyph-name="uniAE0B" unicode="&#xae0b;" 
d="M3 11h10v-4h-1v-1h-1v4h-8v1zM1 5h14v-1h-14v1zM9 1h2v-1h1v-1h1v-1h-2v1h-1v1h-1v1zM3 -1h2v-1h-2v1zM7 3h2v-2h-1v-1h-1v-1h-2v1h1v1h1v2z" />
    <glyph glyph-name="uniAE0C" unicode="&#xae0c;" 
d="M3 11h10v-4h-1v-1h-1v4h-8v1zM1 5h14v-1h-14v1zM4 3h2v-2h1v-1h2v1h1v2h2v-2h1v-1h1v-1h1v-1h-2v1h-1v1h-2v-1h-1v-1h-2v1h-1v1h-2v-1h-1v-1h-2v1h1v1h1v1h1v2z" />
    <glyph glyph-name="uniAE0D" unicode="&#xae0d;" 
d="M3 11h10v-4h-1v-1h-1v4h-8v1zM1 5h14v-1h-14v1zM6 2v-3h4v3h-4zM5 3h6v-1h1v-3h-1v-1h-6v1h-1v3h1v1z" />
    <glyph glyph-name="uniAE0E" unicode="&#xae0e;" 
d="M3 11h10v-4h-1v-1h-1v4h-8v1zM1 5h14v-1h-14v1zM11 -1h2v-1h-2v1zM3 -1h2v-1h-2v1zM3 3h10v-1h-4v-1h1v-1h1v-1h-2v1h-2v-1h-2v1h1v1h1v1h-4v1z" />
    <glyph glyph-name="uniAE0F" unicode="&#xae0f;" 
d="M3 11h10v-4h-1v-1h-1v4h-8v1zM1 5h14v-1h-14v1zM11 -1h2v-1h-2v1zM3 -1h2v-1h-2v1zM7 3h2v-1h4v-1h-3v-1h1v-1h-2v1h-2v-1h-2v1h1v1h-3v1h4v1z" />
    <glyph glyph-name="uniAE10" unicode="&#xae10;" 
d="M3 11h10v-4h-1v-1h-1v4h-8v1zM1 5h14v-1h-14v1zM3 3h10v-4h-1v-1h-1v2h-8v1h8v1h-8v1z" />
    <glyph glyph-name="uniAE11" unicode="&#xae11;" 
d="M3 11h10v-4h-1v-1h-1v4h-8v1zM1 5h14v-1h-14v1zM3 3h10v-1h-7v-1h7v-1h-7v-1h7v-1h-8v1h-1v3h-1v1z" />
    <glyph glyph-name="uniAE12" unicode="&#xae12;" 
d="M3 11h10v-4h-1v-1h-1v4h-8v1zM1 5h14v-1h-14v1zM7 2v-3h2v3h-2zM3 3h10v-1h-2v-3h2v-1h-10v1h2v3h-2v1z" />
    <glyph glyph-name="uniAE13" unicode="&#xae13;" 
d="M3 11h10v-4h-1v-1h-1v4h-8v1zM1 5h14v-1h-14v1zM6 0v-1h4v1h-4zM6 3h4v-1h3v-1h-2v-1h1v-1h-1v-1h-6v1h-1v1h1v1h-2v1h3v1z" />
    <glyph glyph-name="uniAE14" unicode="&#xae14;" 
d="M2 11h7v-5h-1v-1h-1v5h-5v1zM11 12h3v-13h-1v-1h-1v13h-1v1zM8 4h3v-1h-3v1zM1 3h7v-1h-7v1z" />
    <glyph glyph-name="uniAE15" unicode="&#xae15;" 
d="M2 11h7v-4h-1v-1h-1v4h-5v1zM11 12h3v-8h-1v-1h-1v8h-1v1zM1 5h10v-1h-10v1zM5 3h9v-4h-1v-1h-1v4h-7v1z" />
    <glyph glyph-name="uniAE16" unicode="&#xae16;" 
d="M2 11h7v-4h-1v-1h-1v4h-5v1zM11 12h3v-8h-1v-1h-1v8h-1v1zM1 5h10v-1h-10v1zM4 3h10v-4h-1v-1h-1v4h-3v-3h-1v-1h-1v4h-3v1z" />
    <glyph glyph-name="uniAE17" unicode="&#xae17;" 
d="M2 11h7v-4h-1v-1h-1v4h-5v1zM11 12h3v-8h-1v-1h-1v8h-1v1zM1 5h10v-1h-10v1zM11 3h2v-2h1v-1h1v-2h-2v2h-1v-1h-1v-1h-2v1h1v1h1v3zM4 3h5v-4h-1v-1h-1v4h-3v1z" />
    <glyph glyph-name="uniAE18" unicode="&#xae18;" 
d="M2 11h7v-4h-1v-1h-1v4h-5v1zM11 12h3v-8h-1v-1h-1v8h-1v1zM1 5h10v-1h-10v1zM5 3h3v-4h6v-1h-7v1h-1v3h-1v1z" />
    <glyph glyph-name="uniAE19" unicode="&#xae19;" 
d="M2 11h7v-4h-1v-1h-1v4h-5v1zM11 12h3v-8h-1v-1h-1v8h-1v1zM1 5h10v-1h-10v1zM4 3h3v-4h3v1h1v2h-2v1h6v-1h-2v-2h1v-1h1v-1h-2v1h-2v-1h-5v1h-1v3h-1v1z" />
    <glyph glyph-name="uniAE1A" unicode="&#xae1a;" 
d="M2 11h7v-4h-1v-1h-1v4h-5v1zM11 12h3v-8h-1v-1h-1v8h-1v1zM1 5h10v-1h-10v1zM11 0v-1h2v1h-2zM11 3h2v-1h2v-1h-1v-1h1v-1h-1v-1h-4v1h-1v1h1v1h-1v1h2v1zM4 3h3v-4h2v-1h-3v1h-1v3h-1v1z" />
    <glyph glyph-name="uniAE1B" unicode="&#xae1b;" 
d="M2 11h7v-4h-1v-1h-1v4h-5v1zM11 12h3v-8h-1v-1h-1v8h-1v1zM1 5h10v-1h-10v1zM5 3h9v-1h-6v-3h6v-1h-7v1h-1v3h-1v1z" />
    <glyph glyph-name="uniAE1C" unicode="&#xae1c;" 
d="M2 11h7v-4h-1v-1h-1v4h-5v1zM11 12h3v-8h-1v-1h-1v8h-1v1zM1 5h10v-1h-10v1zM5 3h9v-3h-7v-1h7v-1h-8v1h-1v2h7v1h-7v1z" />
    <glyph glyph-name="uniAE1D" unicode="&#xae1d;" 
d="M2 11h7v-4h-1v-1h-1v4h-5v1zM11 12h3v-8h-1v-1h-1v8h-1v1zM1 5h10v-1h-10v1zM10 3h4v-4h-1v-1h-1v4h-2v1zM4 3h5v-3h-3v-1h3v-1h-4v1h-1v2h3v1h-3v1z" />
    <glyph glyph-name="uniAE1E" unicode="&#xae1e;" 
d="M2 11h7v-4h-1v-1h-1v4h-5v1zM11 12h3v-8h-1v-1h-1v8h-1v1zM1 5h10v-1h-10v1zM11 2v-3h1v3h-1zM9 3h5v-5h-5v5zM3 3h5v-3h-3v-1h3v-1h-4v1h-1v2h3v1h-3v1z" />
    <glyph glyph-name="uniAE1F" unicode="&#xae1f;" 
d="M2 11h7v-4h-1v-1h-1v4h-5v1zM11 12h3v-8h-1v-1h-1v8h-1v1zM1 5h10v-1h-10v1zM11 0v-1h1v1h-1zM9 3h2v-2h1v2h2v-5h-5v5zM3 3h5v-3h-3v-1h3v-1h-4v1h-1v2h3v1h-3v1z" />
    <glyph glyph-name="uniAE20" unicode="&#xae20;" 
d="M2 11h7v-4h-1v-1h-1v4h-5v1zM11 12h3v-8h-1v-1h-1v8h-1v1zM1 5h10v-1h-10v1zM11 3h2v-3h1v-1h1v-1h-2v1h-2v-1h-1v2h1v3zM4 3h5v-3h-3v-1h3v-1h-4v1h-1v2h3v1h-3v1z" />
    <glyph glyph-name="uniAE21" unicode="&#xae21;" 
d="M2 11h7v-4h-1v-1h-1v4h-5v1zM11 12h3v-8h-1v-1h-1v8h-1v1zM1 5h10v-1h-10v1zM9 3h5v-1h-3v-1h3v-1h-3v-1h3v-1h-5v5zM3 3h5v-3h-3v-1h3v-1h-4v1h-1v2h3v1h-3v1z" />
    <glyph glyph-name="uniAE22" unicode="&#xae22;" 
d="M2 11h7v-4h-1v-1h-1v4h-5v1zM11 12h3v-8h-1v-1h-1v8h-1v1zM1 5h10v-1h-10v1zM11 2v-3h1v3h-1zM8 3h7v-1h-1v-3h1v-1h-7v1h1v3h-1v1zM3 3h4v-1h1v-2h-3v-1h2v-1h-3v1h-1v2h3v1h-3v1z" />
    <glyph glyph-name="uniAE23" unicode="&#xae23;" 
d="M2 11h7v-4h-1v-1h-1v4h-5v1zM11 12h3v-8h-1v-1h-1v8h-1v1zM1 5h10v-1h-10v1zM11 0v-1h2v1h-2zM11 3h2v-1h2v-1h-1v-1h1v-1h-1v-1h-4v1h-1v1h1v1h-1v1h2v1zM3 3h5v-3h-3v-1h3v-1h-4v1h-1v2h3v1h-3v1z" />
    <glyph glyph-name="uniAE24" unicode="&#xae24;" 
d="M2 11h7v-4h-1v-1h-1v4h-5v1zM11 12h3v-8h-1v-1h-1v8h-1v1zM1 5h10v-1h-10v1zM8 2v-3h4v3h-4zM5 3h9v-5h-8v4h-1v1z" />
    <glyph glyph-name="uniAE25" unicode="&#xae25;" 
d="M2 11h7v-4h-1v-1h-1v4h-5v1zM11 12h3v-8h-1v-1h-1v8h-1v1zM1 5h10v-1h-10v1zM8 0v-1h4v1h-4zM5 3h3v-2h4v1h-1v1h3v-5h-8v4h-1v1z" />
    <glyph glyph-name="uniAE26" unicode="&#xae26;" 
d="M2 11h7v-4h-1v-1h-1v4h-5v1zM11 12h3v-8h-1v-1h-1v8h-1v1zM1 5h10v-1h-10v1zM6 0v-1h1v1h-1zM4 3h2v-2h1v2h2v-4h1v1h1v3h2v-3h2v-2h-2v1h-2v-1h-7v5z" />
    <glyph glyph-name="uniAE27" unicode="&#xae27;" 
d="M2 11h7v-4h-1v-1h-1v4h-5v1zM11 12h3v-8h-1v-1h-1v8h-1v1zM1 5h10v-1h-10v1zM10 1h2v-1h1v-1h1v-1h-2v1h-1v1h-1v1zM4 -1h2v-1h-2v1zM8 3h2v-2h-1v-1h-1v-1h-2v1h1v1h1v2z" />
    <glyph glyph-name="uniAE28" unicode="&#xae28;" 
d="M2 11h7v-4h-1v-1h-1v4h-5v1zM11 12h3v-8h-1v-1h-1v8h-1v1zM1 5h10v-1h-10v1zM7 3h2v-2h2v2h2v-2h1v-1h1v-1h1v-1h-2v1h-1v1h-2v-1h-1v-1h-2v1h1v1h-2v-1h-1v-1h-2v1h1v1h1v1h1v2z" />
    <glyph glyph-name="uniAE29" unicode="&#xae29;" 
d="M2 11h7v-4h-1v-1h-1v4h-5v1zM11 12h3v-8h-1v-1h-1v8h-1v1zM1 5h10v-1h-10v1zM8 2v-3h4v3h-4zM7 3h6v-1h1v-3h-1v-1h-6v1h-1v3h1v1z" />
    <glyph glyph-name="uniAE2A" unicode="&#xae2a;" 
d="M2 11h7v-4h-1v-1h-1v4h-5v1zM11 12h3v-8h-1v-1h-1v8h-1v1zM1 5h10v-1h-10v1zM12 -1h2v-1h-2v1zM4 -1h2v-1h-2v1zM4 3h10v-1h-4v-1h1v-1h1v-1h-2v1h-2v-1h-2v1h1v1h1v1h-4v1z" />
    <glyph glyph-name="uniAE2B" unicode="&#xae2b;" 
d="M2 11h7v-4h-1v-1h-1v4h-5v1zM11 12h3v-8h-1v-1h-1v8h-1v1zM1 5h10v-1h-10v1zM12 -1h2v-1h-2v1zM4 -1h2v-1h-2v1zM8 3h2v-1h4v-1h-3v-1h1v-1h-2v1h-2v-1h-2v1h1v1h-3v1h4v1z" />
    <glyph glyph-name="uniAE2C" unicode="&#xae2c;" 
d="M2 11h7v-4h-1v-1h-1v4h-5v1zM11 12h3v-8h-1v-1h-1v8h-1v1zM1 5h10v-1h-10v1zM6 3h8v-4h-1v-1h-1v2h-6v1h6v1h-6v1z" />
    <glyph glyph-name="uniAE2D" unicode="&#xae2d;" 
d="M2 11h7v-4h-1v-1h-1v4h-5v1zM11 12h3v-8h-1v-1h-1v8h-1v1zM1 5h10v-1h-10v1zM5 3h9v-1h-6v-1h6v-1h-6v-1h6v-1h-7v1h-1v3h-1v1z" />
    <glyph glyph-name="uniAE2E" unicode="&#xae2e;" 
d="M2 11h7v-4h-1v-1h-1v4h-5v1zM11 12h3v-8h-1v-1h-1v8h-1v1zM1 5h10v-1h-10v1zM8 2v-3h2v3h-2zM4 3h10v-1h-2v-3h2v-1h-10v1h2v3h-2v1z" />
    <glyph glyph-name="uniAE2F" unicode="&#xae2f;" 
d="M2 11h7v-4h-1v-1h-1v4h-5v1zM11 12h3v-8h-1v-1h-1v8h-1v1zM1 5h10v-1h-10v1zM8 0v-1h4v1h-4zM8 3h4v-1h3v-1h-2v-1h1v-1h-1v-1h-6v1h-1v1h1v1h-2v1h3v1z" />
    <glyph glyph-name="uniAE30" unicode="&#xae30;" 
d="M2 4h2v-1h-2v1zM2 10h7v-3h-1v-1h-1v-1h-1v-1h-2v1h1v1h1v1h1v2h-5v1zM11 12h3v-13h-1v-1h-1v13h-1v1z" />
    <glyph glyph-name="uniAE31" unicode="&#xae31;" 
d="M2 5h2v-1h-2v1zM2 11h7v-3h-1v-1h-1v-1h-1v-1h-2v1h1v1h1v1h1v2h-5v1zM11 12h3v-8h-1v-1h-1v8h-1v1zM5 3h9v-4h-1v-1h-1v4h-7v1z" />
    <glyph glyph-name="uniAE32" unicode="&#xae32;" 
d="M2 5h2v-1h-2v1zM2 11h7v-3h-1v-1h-1v-1h-1v-1h-2v1h1v1h1v1h1v2h-5v1zM11 12h3v-8h-1v-1h-1v8h-1v1zM4 3h10v-4h-1v-1h-1v4h-3v-3h-1v-1h-1v4h-3v1z" />
    <glyph glyph-name="uniAE33" unicode="&#xae33;" 
d="M2 5h2v-1h-2v1zM2 11h7v-3h-1v-1h-1v-1h-1v-1h-2v1h1v1h1v1h1v2h-5v1zM11 12h3v-8h-1v-1h-1v8h-1v1zM11 3h2v-2h1v-1h1v-2h-2v2h-1v-1h-1v-1h-2v1h1v1h1v3zM4 3h5v-4h-1v-1h-1v4h-3v1z" />
    <glyph glyph-name="uniAE34" unicode="&#xae34;" 
d="M2 5h2v-1h-2v1zM2 11h7v-3h-1v-1h-1v-1h-1v-1h-2v1h1v1h1v1h1v2h-5v1zM11 12h3v-8h-1v-1h-1v8h-1v1zM5 3h3v-4h6v-1h-7v1h-1v3h-1v1z" />
    <glyph glyph-name="uniAE35" unicode="&#xae35;" 
d="M2 5h2v-1h-2v1zM2 11h7v-3h-1v-1h-1v-1h-1v-1h-2v1h1v1h1v1h1v2h-5v1zM11 12h3v-8h-1v-1h-1v8h-1v1zM4 3h3v-4h3v1h1v2h-2v1h6v-1h-2v-2h1v-1h1v-1h-2v1h-2v-1h-5v1h-1v3h-1v1z" />
    <glyph glyph-name="uniAE36" unicode="&#xae36;" 
d="M2 5h2v-1h-2v1zM2 11h7v-3h-1v-1h-1v-1h-1v-1h-2v1h1v1h1v1h1v2h-5v1zM11 12h3v-8h-1v-1h-1v8h-1v1zM11 0v-1h2v1h-2zM11 3h2v-1h2v-1h-1v-1h1v-1h-1v-1h-4v1h-1v1h1v1h-1v1h2v1zM4 3h3v-4h2v-1h-3v1h-1v3h-1v1z" />
    <glyph glyph-name="uniAE37" unicode="&#xae37;" 
d="M2 5h2v-1h-2v1zM2 11h7v-3h-1v-1h-1v-1h-1v-1h-2v1h1v1h1v1h1v2h-5v1zM11 12h3v-8h-1v-1h-1v8h-1v1zM5 3h9v-1h-6v-3h6v-1h-7v1h-1v3h-1v1z" />
    <glyph glyph-name="uniAE38" unicode="&#xae38;" 
d="M2 5h2v-1h-2v1zM2 11h7v-3h-1v-1h-1v-1h-1v-1h-2v1h1v1h1v1h1v2h-5v1zM11 12h3v-8h-1v-1h-1v8h-1v1zM5 3h9v-3h-7v-1h7v-1h-8v1h-1v2h7v1h-7v1z" />
    <glyph glyph-name="uniAE39" unicode="&#xae39;" 
d="M2 5h2v-1h-2v1zM2 11h7v-3h-1v-1h-1v-1h-1v-1h-2v1h1v1h1v1h1v2h-5v1zM11 12h3v-8h-1v-1h-1v8h-1v1zM10 3h4v-4h-1v-1h-1v4h-2v1zM4 3h5v-3h-3v-1h3v-1h-4v1h-1v2h3v1h-3v1z" />
    <glyph glyph-name="uniAE3A" unicode="&#xae3a;" 
d="M2 5h2v-1h-2v1zM2 11h7v-3h-1v-1h-1v-1h-1v-1h-2v1h1v1h1v1h1v2h-5v1zM11 12h3v-8h-1v-1h-1v8h-1v1zM11 2v-3h1v3h-1zM9 3h5v-5h-5v5zM3 3h5v-3h-3v-1h3v-1h-4v1h-1v2h3v1h-3v1z" />
    <glyph glyph-name="uniAE3B" unicode="&#xae3b;" 
d="M2 5h2v-1h-2v1zM2 11h7v-3h-1v-1h-1v-1h-1v-1h-2v1h1v1h1v1h1v2h-5v1zM11 12h3v-8h-1v-1h-1v8h-1v1zM11 0v-1h1v1h-1zM9 3h2v-2h1v2h2v-5h-5v5zM3 3h5v-3h-3v-1h3v-1h-4v1h-1v2h3v1h-3v1z" />
    <glyph glyph-name="uniAE3C" unicode="&#xae3c;" 
d="M2 5h2v-1h-2v1zM2 11h7v-3h-1v-1h-1v-1h-1v-1h-2v1h1v1h1v1h1v2h-5v1zM11 12h3v-8h-1v-1h-1v8h-1v1zM11 3h2v-3h1v-1h1v-1h-2v1h-2v-1h-1v2h1v3zM4 3h5v-3h-3v-1h3v-1h-4v1h-1v2h3v1h-3v1z" />
    <glyph glyph-name="uniAE3D" unicode="&#xae3d;" 
d="M2 5h2v-1h-2v1zM2 11h7v-3h-1v-1h-1v-1h-1v-1h-2v1h1v1h1v1h1v2h-5v1zM11 12h3v-8h-1v-1h-1v8h-1v1zM9 3h5v-1h-3v-1h3v-1h-3v-1h3v-1h-5v5zM3 3h5v-3h-3v-1h3v-1h-4v1h-1v2h3v1h-3v1z" />
    <glyph glyph-name="uniAE3E" unicode="&#xae3e;" 
d="M2 5h2v-1h-2v1zM2 11h7v-3h-1v-1h-1v-1h-1v-1h-2v1h1v1h1v1h1v2h-5v1zM11 12h3v-8h-1v-1h-1v8h-1v1zM11 2v-3h1v3h-1zM8 3h7v-1h-1v-3h1v-1h-7v1h1v3h-1v1zM3 3h4v-1h1v-2h-3v-1h2v-1h-3v1h-1v2h3v1h-3v1z" />
    <glyph glyph-name="uniAE3F" unicode="&#xae3f;" 
d="M2 5h2v-1h-2v1zM2 11h7v-3h-1v-1h-1v-1h-1v-1h-2v1h1v1h1v1h1v2h-5v1zM11 12h3v-8h-1v-1h-1v8h-1v1zM11 0v-1h2v1h-2zM11 3h2v-1h2v-1h-1v-1h1v-1h-1v-1h-4v1h-1v1h1v1h-1v1h2v1zM3 3h5v-3h-3v-1h3v-1h-4v1h-1v2h3v1h-3v1z" />
    <glyph glyph-name="uniAE40" unicode="&#xae40;" 
d="M2 5h2v-1h-2v1zM2 11h7v-3h-1v-1h-1v-1h-1v-1h-2v1h1v1h1v1h1v2h-5v1zM11 12h3v-8h-1v-1h-1v8h-1v1zM8 2v-3h4v3h-4zM5 3h9v-5h-8v4h-1v1z" />
    <glyph glyph-name="uniAE41" unicode="&#xae41;" 
d="M2 5h2v-1h-2v1zM2 11h7v-3h-1v-1h-1v-1h-1v-1h-2v1h1v1h1v1h1v2h-5v1zM11 12h3v-8h-1v-1h-1v8h-1v1zM8 0v-1h4v1h-4zM5 3h3v-2h4v1h-1v1h3v-5h-8v4h-1v1z" />
    <glyph glyph-name="uniAE42" unicode="&#xae42;" 
d="M2 5h2v-1h-2v1zM2 11h7v-3h-1v-1h-1v-1h-1v-1h-2v1h1v1h1v1h1v2h-5v1zM11 12h3v-8h-1v-1h-1v8h-1v1zM6 0v-1h1v1h-1zM4 3h2v-2h1v2h2v-4h1v1h1v3h2v-3h2v-2h-2v1h-2v-1h-7v5z" />
    <glyph glyph-name="uniAE43" unicode="&#xae43;" 
d="M2 5h2v-1h-2v1zM2 11h7v-3h-1v-1h-1v-1h-1v-1h-2v1h1v1h1v1h1v2h-5v1zM11 12h3v-8h-1v-1h-1v8h-1v1zM10 1h2v-1h1v-1h1v-1h-2v1h-1v1h-1v1zM4 -1h2v-1h-2v1zM8 3h2v-2h-1v-1h-1v-1h-2v1h1v1h1v2z" />
    <glyph glyph-name="uniAE44" unicode="&#xae44;" 
d="M2 5h2v-1h-2v1zM2 11h7v-3h-1v-1h-1v-1h-1v-1h-2v1h1v1h1v1h1v2h-5v1zM11 12h3v-8h-1v-1h-1v8h-1v1zM7 3h2v-2h2v2h2v-2h1v-1h1v-1h1v-1h-2v1h-1v1h-2v-1h-1v-1h-2v1h1v1h-2v-1h-1v-1h-2v1h1v1h1v1h1v2z" />
    <glyph glyph-name="uniAE45" unicode="&#xae45;" 
d="M2 5h2v-1h-2v1zM2 11h7v-3h-1v-1h-1v-1h-1v-1h-2v1h1v1h1v1h1v2h-5v1zM11 12h3v-8h-1v-1h-1v8h-1v1zM8 2v-3h4v3h-4zM7 3h6v-1h1v-3h-1v-1h-6v1h-1v3h1v1z" />
    <glyph glyph-name="uniAE46" unicode="&#xae46;" 
d="M2 5h2v-1h-2v1zM2 11h7v-3h-1v-1h-1v-1h-1v-1h-2v1h1v1h1v1h1v2h-5v1zM11 12h3v-8h-1v-1h-1v8h-1v1zM12 -1h2v-1h-2v1zM4 -1h2v-1h-2v1zM4 3h10v-1h-4v-1h1v-1h1v-1h-2v1h-2v-1h-2v1h1v1h1v1h-4v1z" />
    <glyph glyph-name="uniAE47" unicode="&#xae47;" 
d="M2 5h2v-1h-2v1zM2 11h7v-3h-1v-1h-1v-1h-1v-1h-2v1h1v1h1v1h1v2h-5v1zM11 12h3v-8h-1v-1h-1v8h-1v1zM12 -1h2v-1h-2v1zM4 -1h2v-1h-2v1zM8 3h2v-1h4v-1h-3v-1h1v-1h-2v1h-2v-1h-2v1h1v1h-3v1h4v1z" />
    <glyph glyph-name="uniAE48" unicode="&#xae48;" 
d="M2 5h2v-1h-2v1zM2 11h7v-3h-1v-1h-1v-1h-1v-1h-2v1h1v1h1v1h1v2h-5v1zM11 12h3v-8h-1v-1h-1v8h-1v1zM6 3h8v-4h-1v-1h-1v2h-6v1h6v1h-6v1z" />
    <glyph glyph-name="uniAE49" unicode="&#xae49;" 
d="M2 5h2v-1h-2v1zM2 11h7v-3h-1v-1h-1v-1h-1v-1h-2v1h1v1h1v1h1v2h-5v1zM11 12h3v-8h-1v-1h-1v8h-1v1zM5 3h9v-1h-6v-1h6v-1h-6v-1h6v-1h-7v1h-1v3h-1v1z" />
    <glyph glyph-name="uniAE4A" unicode="&#xae4a;" 
d="M2 5h2v-1h-2v1zM2 11h7v-3h-1v-1h-1v-1h-1v-1h-2v1h1v1h1v1h1v2h-5v1zM11 12h3v-8h-1v-1h-1v8h-1v1zM8 2v-3h2v3h-2zM4 3h10v-1h-2v-3h2v-1h-10v1h2v3h-2v1z" />
    <glyph glyph-name="uniAE4B" unicode="&#xae4b;" 
d="M2 5h2v-1h-2v1zM2 11h7v-3h-1v-1h-1v-1h-1v-1h-2v1h1v1h1v1h1v2h-5v1zM11 12h3v-8h-1v-1h-1v8h-1v1zM8 0v-1h4v1h-4zM8 3h4v-1h3v-1h-2v-1h1v-1h-1v-1h-6v1h-1v1h1v1h-2v1h3v1z" />
    <glyph glyph-name="uniAE4C" unicode="&#xae4c;" 
d="M4 4h1v-1h-1v1zM1 4h1v-1h-1v1zM1 10h8v-3h-1v-2h-1v-1h-2v1h1v2h1v2h-1v-2h-1v-2h-1v-1h-2v1h1v2h1v2h-3v1zM10 12h3v-5h3v-1h-3v-7h-1v-1h-1v13h-1v1z" />
    <glyph glyph-name="uniAE4D" unicode="&#xae4d;" 
d="M4 5h1v-1h-1v1zM1 5h1v-1h-1v1zM1 11h8v-3h-1v-2h-1v-1h-2v1h1v2h1v2h-1v-2h-1v-2h-1v-1h-2v1h1v2h1v2h-3v1zM10 12h3v-4h3v-1h-3v-3h-1v-1h-1v8h-1v1zM4 3h9v-4h-1v-1h-1v4h-7v1z" />
    <glyph glyph-name="uniAE4E" unicode="&#xae4e;" 
d="M4 5h1v-1h-1v1zM1 5h1v-1h-1v1zM1 11h8v-3h-1v-2h-1v-1h-2v1h1v2h1v2h-1v-2h-1v-2h-1v-1h-2v1h1v2h1v2h-3v1zM10 12h3v-4h3v-1h-3v-3h-1v-1h-1v8h-1v1zM3 3h10v-4h-1v-1h-1v4h-3v-3h-1v-1h-1v4h-3v1z" />
    <glyph glyph-name="uniAE4F" unicode="&#xae4f;" 
d="M4 5h1v-1h-1v1zM1 5h1v-1h-1v1zM1 11h8v-3h-1v-2h-1v-1h-2v1h1v2h1v2h-1v-2h-1v-2h-1v-1h-2v1h1v2h1v2h-3v1zM10 12h3v-4h3v-1h-3v-3h-1v-1h-1v8h-1v1zM10 3h2v-2h1v-1h1v-2h-2v2h-1v-1h-1v-1h-2v1h1v1h1v3zM3 3h5v-4h-1v-1h-1v4h-3v1z" />
    <glyph glyph-name="uniAE50" unicode="&#xae50;" 
d="M4 5h1v-1h-1v1zM1 5h1v-1h-1v1zM1 11h8v-3h-1v-2h-1v-1h-2v1h1v2h1v2h-1v-2h-1v-2h-1v-1h-2v1h1v2h1v2h-3v1zM10 12h3v-4h3v-1h-3v-3h-1v-1h-1v8h-1v1zM5 3h3v-4h6v-1h-7v1h-1v3h-1v1z" />
    <glyph glyph-name="uniAE51" unicode="&#xae51;" 
d="M4 5h1v-1h-1v1zM1 5h1v-1h-1v1zM1 11h8v-3h-1v-2h-1v-1h-2v1h1v2h1v2h-1v-2h-1v-2h-1v-1h-2v1h1v2h1v2h-3v1zM10 12h3v-4h3v-1h-3v-3h-1v-1h-1v8h-1v1zM3 3h3v-4h3v1h1v2h-2v1h6v-1h-2v-2h1v-1h1v-1h-2v1h-2v-1h-5v1h-1v3h-1v1z" />
    <glyph glyph-name="uniAE52" unicode="&#xae52;" 
d="M4 5h1v-1h-1v1zM1 5h1v-1h-1v1zM1 11h8v-3h-1v-2h-1v-1h-2v1h1v2h1v2h-1v-2h-1v-2h-1v-1h-2v1h1v2h1v2h-3v1zM10 12h3v-4h3v-1h-3v-3h-1v-1h-1v8h-1v1zM10 0v-1h2v1h-2zM10 3h2v-1h2v-1h-1v-1h1v-1h-1v-1h-4v1h-1v1h1v1h-1v1h2v1zM3 3h3v-4h2v-1h-3v1h-1v3h-1v1z" />
    <glyph glyph-name="uniAE53" unicode="&#xae53;" 
d="M4 5h1v-1h-1v1zM1 5h1v-1h-1v1zM1 11h8v-3h-1v-2h-1v-1h-2v1h1v2h1v2h-1v-2h-1v-2h-1v-1h-2v1h1v2h1v2h-3v1zM10 12h3v-4h3v-1h-3v-3h-1v-1h-1v8h-1v1zM4 3h9v-1h-6v-3h6v-1h-7v1h-1v3h-1v1z" />
    <glyph glyph-name="uniAE54" unicode="&#xae54;" 
d="M4 5h1v-1h-1v1zM1 5h1v-1h-1v1zM1 11h8v-3h-1v-2h-1v-1h-2v1h1v2h1v2h-1v-2h-1v-2h-1v-1h-2v1h1v2h1v2h-3v1zM10 12h3v-4h3v-1h-3v-3h-1v-1h-1v8h-1v1zM4 3h9v-3h-7v-1h7v-1h-8v1h-1v2h7v1h-7v1z" />
    <glyph glyph-name="uniAE55" unicode="&#xae55;" 
d="M4 5h1v-1h-1v1zM1 5h1v-1h-1v1zM1 11h8v-3h-1v-2h-1v-1h-2v1h1v2h1v2h-1v-2h-1v-2h-1v-1h-2v1h1v2h1v2h-3v1zM10 12h3v-4h3v-1h-3v-3h-1v-1h-1v8h-1v1zM9 3h4v-4h-1v-1h-1v4h-2v1zM3 3h5v-3h-3v-1h3v-1h-4v1h-1v2h3v1h-3v1z" />
    <glyph glyph-name="uniAE56" unicode="&#xae56;" 
d="M4 5h1v-1h-1v1zM1 5h1v-1h-1v1zM1 11h8v-3h-1v-2h-1v-1h-2v1h1v2h1v2h-1v-2h-1v-2h-1v-1h-2v1h1v2h1v2h-3v1zM10 12h3v-4h3v-1h-3v-3h-1v-1h-1v8h-1v1zM11 2v-3h1v3h-1zM9 3h5v-5h-5v5zM3 3h5v-3h-3v-1h3v-1h-4v1h-1v2h3v1h-3v1z" />
    <glyph glyph-name="uniAE57" unicode="&#xae57;" 
d="M4 5h1v-1h-1v1zM1 5h1v-1h-1v1zM1 11h8v-3h-1v-2h-1v-1h-2v1h1v2h1v2h-1v-2h-1v-2h-1v-1h-2v1h1v2h1v2h-3v1zM10 12h3v-4h3v-1h-3v-3h-1v-1h-1v8h-1v1zM11 0v-1h1v1h-1zM9 3h2v-2h1v2h2v-5h-5v5zM3 3h5v-3h-3v-1h3v-1h-4v1h-1v2h3v1h-3v1z" />
    <glyph glyph-name="uniAE58" unicode="&#xae58;" 
d="M4 5h1v-1h-1v1zM1 5h1v-1h-1v1zM1 11h8v-3h-1v-2h-1v-1h-2v1h1v2h1v2h-1v-2h-1v-2h-1v-1h-2v1h1v2h1v2h-3v1zM10 12h3v-4h3v-1h-3v-3h-1v-1h-1v8h-1v1zM11 3h2v-3h1v-1h1v-1h-2v1h-2v-1h-1v2h1v3zM4 3h5v-3h-3v-1h3v-1h-4v1h-1v2h3v1h-3v1z" />
    <glyph glyph-name="uniAE59" unicode="&#xae59;" 
d="M4 5h1v-1h-1v1zM1 5h1v-1h-1v1zM1 11h8v-3h-1v-2h-1v-1h-2v1h1v2h1v2h-1v-2h-1v-2h-1v-1h-2v1h1v2h1v2h-3v1zM10 12h3v-4h3v-1h-3v-3h-1v-1h-1v8h-1v1zM9 3h5v-1h-3v-1h3v-1h-3v-1h3v-1h-5v5zM3 3h5v-3h-3v-1h3v-1h-4v1h-1v2h3v1h-3v1z" />
    <glyph glyph-name="uniAE5A" unicode="&#xae5a;" 
d="M4 5h1v-1h-1v1zM1 5h1v-1h-1v1zM1 11h8v-3h-1v-2h-1v-1h-2v1h1v2h1v2h-1v-2h-1v-2h-1v-1h-2v1h1v2h1v2h-3v1zM10 12h3v-4h3v-1h-3v-3h-1v-1h-1v8h-1v1zM11 2v-3h1v3h-1zM8 3h7v-1h-1v-3h1v-1h-7v1h1v3h-1v1zM3 3h4v-1h1v-2h-3v-1h2v-1h-3v1h-1v2h3v1h-3v1z" />
    <glyph glyph-name="uniAE5B" unicode="&#xae5b;" 
d="M4 5h1v-1h-1v1zM1 5h1v-1h-1v1zM1 11h8v-3h-1v-2h-1v-1h-2v1h1v2h1v2h-1v-2h-1v-2h-1v-1h-2v1h1v2h1v2h-3v1zM10 12h3v-4h3v-1h-3v-3h-1v-1h-1v8h-1v1zM11 0v-1h2v1h-2zM11 3h2v-1h2v-1h-1v-1h1v-1h-1v-1h-4v1h-1v1h1v1h-1v1h2v1zM3 3h5v-3h-3v-1h3v-1h-4v1h-1v2h3v1h-3
v1z" />
    <glyph glyph-name="uniAE5C" unicode="&#xae5c;" 
d="M4 5h1v-1h-1v1zM1 5h1v-1h-1v1zM1 11h8v-3h-1v-2h-1v-1h-2v1h1v2h1v2h-1v-2h-1v-2h-1v-1h-2v1h1v2h1v2h-3v1zM10 12h3v-4h3v-1h-3v-3h-1v-1h-1v8h-1v1zM7 2v-3h4v3h-4zM4 3h9v-5h-8v4h-1v1z" />
    <glyph glyph-name="uniAE5D" unicode="&#xae5d;" 
d="M4 5h1v-1h-1v1zM1 5h1v-1h-1v1zM1 11h8v-3h-1v-2h-1v-1h-2v1h1v2h1v2h-1v-2h-1v-2h-1v-1h-2v1h1v2h1v2h-3v1zM10 12h3v-4h3v-1h-3v-3h-1v-1h-1v8h-1v1zM7 0v-1h4v1h-4zM4 3h3v-2h4v1h-1v1h3v-5h-8v4h-1v1z" />
    <glyph glyph-name="uniAE5E" unicode="&#xae5e;" 
d="M4 5h1v-1h-1v1zM1 5h1v-1h-1v1zM1 11h8v-3h-1v-2h-1v-1h-2v1h1v2h1v2h-1v-2h-1v-2h-1v-1h-2v1h1v2h1v2h-3v1zM10 12h3v-4h3v-1h-3v-3h-1v-1h-1v8h-1v1zM6 0v-1h1v1h-1zM4 3h2v-2h1v2h2v-4h1v1h1v3h2v-3h2v-2h-2v1h-2v-1h-7v5z" />
    <glyph glyph-name="uniAE5F" unicode="&#xae5f;" 
d="M4 5h1v-1h-1v1zM1 5h1v-1h-1v1zM1 11h8v-3h-1v-2h-1v-1h-2v1h1v2h1v2h-1v-2h-1v-2h-1v-1h-2v1h1v2h1v2h-3v1zM10 12h3v-4h3v-1h-3v-3h-1v-1h-1v8h-1v1zM10 1h2v-1h1v-1h1v-1h-2v1h-1v1h-1v1zM4 -1h2v-1h-2v1zM8 3h2v-2h-1v-1h-1v-1h-2v1h1v1h1v2z" />
    <glyph glyph-name="uniAE60" unicode="&#xae60;" 
d="M4 5h1v-1h-1v1zM1 5h1v-1h-1v1zM1 11h8v-3h-1v-2h-1v-1h-2v1h1v2h1v2h-1v-2h-1v-2h-1v-1h-2v1h1v2h1v2h-3v1zM10 12h3v-4h3v-1h-3v-3h-1v-1h-1v8h-1v1zM6 3h2v-2h2v2h2v-2h1v-1h1v-1h1v-1h-2v1h-1v1h-2v-1h-1v-1h-2v1h1v1h-2v-1h-1v-1h-2v1h1v1h1v1h1v2z" />
    <glyph glyph-name="uniAE61" unicode="&#xae61;" 
d="M4 5h1v-1h-1v1zM1 5h1v-1h-1v1zM1 11h8v-3h-1v-2h-1v-1h-2v1h1v2h1v2h-1v-2h-1v-2h-1v-1h-2v1h1v2h1v2h-3v1zM10 12h3v-4h3v-1h-3v-3h-1v-1h-1v8h-1v1zM7 2v-3h4v3h-4zM6 3h6v-1h1v-3h-1v-1h-6v1h-1v3h1v1z" />
    <glyph glyph-name="uniAE62" unicode="&#xae62;" 
d="M4 5h1v-1h-1v1zM1 5h1v-1h-1v1zM1 11h8v-3h-1v-2h-1v-1h-2v1h1v2h1v2h-1v-2h-1v-2h-1v-1h-2v1h1v2h1v2h-3v1zM10 12h3v-4h3v-1h-3v-3h-1v-1h-1v8h-1v1zM12 -1h2v-1h-2v1zM4 -1h2v-1h-2v1zM4 3h10v-1h-4v-1h1v-1h1v-1h-2v1h-2v-1h-2v1h1v1h1v1h-4v1z" />
    <glyph glyph-name="uniAE63" unicode="&#xae63;" 
d="M4 5h1v-1h-1v1zM1 5h1v-1h-1v1zM1 11h8v-3h-1v-2h-1v-1h-2v1h1v2h1v2h-1v-2h-1v-2h-1v-1h-2v1h1v2h1v2h-3v1zM10 12h3v-4h3v-1h-3v-3h-1v-1h-1v8h-1v1zM12 -1h2v-1h-2v1zM4 -1h2v-1h-2v1zM8 3h2v-1h4v-1h-3v-1h1v-1h-2v1h-2v-1h-2v1h1v1h-3v1h4v1z" />
    <glyph glyph-name="uniAE64" unicode="&#xae64;" 
d="M4 5h1v-1h-1v1zM1 5h1v-1h-1v1zM1 11h8v-3h-1v-2h-1v-1h-2v1h1v2h1v2h-1v-2h-1v-2h-1v-1h-2v1h1v2h1v2h-3v1zM10 12h3v-4h3v-1h-3v-3h-1v-1h-1v8h-1v1zM5 3h8v-4h-1v-1h-1v2h-6v1h6v1h-6v1z" />
    <glyph glyph-name="uniAE65" unicode="&#xae65;" 
d="M4 5h1v-1h-1v1zM1 5h1v-1h-1v1zM1 11h8v-3h-1v-2h-1v-1h-2v1h1v2h1v2h-1v-2h-1v-2h-1v-1h-2v1h1v2h1v2h-3v1zM10 12h3v-4h3v-1h-3v-3h-1v-1h-1v8h-1v1zM4 3h9v-1h-6v-1h6v-1h-6v-1h6v-1h-7v1h-1v3h-1v1z" />
    <glyph glyph-name="uniAE66" unicode="&#xae66;" 
d="M4 5h1v-1h-1v1zM1 5h1v-1h-1v1zM1 11h8v-3h-1v-2h-1v-1h-2v1h1v2h1v2h-1v-2h-1v-2h-1v-1h-2v1h1v2h1v2h-3v1zM10 12h3v-4h3v-1h-3v-3h-1v-1h-1v8h-1v1zM8 2v-3h2v3h-2zM4 3h10v-1h-2v-3h2v-1h-10v1h2v3h-2v1z" />
    <glyph glyph-name="uniAE67" unicode="&#xae67;" 
d="M4 5h1v-1h-1v1zM1 5h1v-1h-1v1zM1 11h8v-3h-1v-2h-1v-1h-2v1h1v2h1v2h-1v-2h-1v-2h-1v-1h-2v1h1v2h1v2h-3v1zM10 12h3v-4h3v-1h-3v-3h-1v-1h-1v8h-1v1zM7 0v-1h4v1h-4zM7 3h4v-1h3v-1h-2v-1h1v-1h-1v-1h-6v1h-1v1h1v1h-2v1h3v1z" />
    <glyph glyph-name="uniAE68" unicode="&#xae68;" 
d="M4 4h1v-1h-1v1zM1 4h1v-1h-1v1zM1 10h8v-3h-1v-2h-1v-1h-2v1h1v2h1v2h-1v-2h-1v-2h-1v-1h-2v1h1v2h1v2h-3v1zM9 11h3v-4h1v4h-1v1h3v-13h-1v-1h-1v8h-1v-6h-1v-1h-1v11h-1v1z" />
    <glyph glyph-name="uniAE69" unicode="&#xae69;" 
d="M4 5h1v-1h-1v1zM1 5h1v-1h-1v1zM1 11h8v-3h-1v-2h-1v-1h-2v1h1v2h1v2h-1v-2h-1v-2h-1v-1h-2v1h1v2h1v2h-3v1zM9 11h3v-3h1v3h-1v1h3v-8h-1v-1h-1v4h-1v-3h-1v-1h-1v7h-1v1zM5 3h10v-4h-1v-1h-1v4h-8v1z" />
    <glyph glyph-name="uniAE6A" unicode="&#xae6a;" 
d="M4 5h1v-1h-1v1zM1 5h1v-1h-1v1zM1 11h8v-3h-1v-2h-1v-1h-2v1h1v2h1v2h-1v-2h-1v-2h-1v-1h-2v1h1v2h1v2h-3v1zM9 11h3v-3h1v3h-1v1h3v-8h-1v-1h-1v4h-1v-3h-1v-1h-1v7h-1v1zM4 3h11v-4h-1v-1h-1v4h-3v-3h-1v-1h-1v4h-4v1z" />
    <glyph glyph-name="uniAE6B" unicode="&#xae6b;" 
d="M4 5h1v-1h-1v1zM1 5h1v-1h-1v1zM1 11h8v-3h-1v-2h-1v-1h-2v1h1v2h1v2h-1v-2h-1v-2h-1v-1h-2v1h1v2h1v2h-3v1zM9 11h3v-3h1v3h-1v1h3v-8h-1v-1h-1v4h-1v-3h-1v-1h-1v7h-1v1zM12 3h2v-2h1v-1h1v-2h-2v2h-1v-1h-1v-1h-2v1h1v1h1v3zM4 3h6v-4h-1v-1h-1v4h-4v1z" />
    <glyph glyph-name="uniAE6C" unicode="&#xae6c;" 
d="M4 5h1v-1h-1v1zM1 5h1v-1h-1v1zM1 11h8v-3h-1v-2h-1v-1h-2v1h1v2h1v2h-1v-2h-1v-2h-1v-1h-2v1h1v2h1v2h-3v1zM9 11h3v-3h1v3h-1v1h3v-8h-1v-1h-1v4h-1v-3h-1v-1h-1v7h-1v1zM5 3h3v-4h7v-1h-8v1h-1v3h-1v1z" />
    <glyph glyph-name="uniAE6D" unicode="&#xae6d;" 
d="M4 5h1v-1h-1v1zM1 5h1v-1h-1v1zM1 11h8v-3h-1v-2h-1v-1h-2v1h1v2h1v2h-1v-2h-1v-2h-1v-1h-2v1h1v2h1v2h-3v1zM9 11h3v-3h1v3h-1v1h3v-8h-1v-1h-1v4h-1v-3h-1v-1h-1v7h-1v1zM9 3h6v-1h-2v-2h1v-1h1v-1h-2v1h-2v-1h-2v1h1v1h1v2h-2v1zM3 3h3v-4h2v-1h-3v1h-1v3h-1v1z" />
    <glyph glyph-name="uniAE6E" unicode="&#xae6e;" 
d="M4 5h1v-1h-1v1zM1 5h1v-1h-1v1zM1 11h8v-3h-1v-2h-1v-1h-2v1h1v2h1v2h-1v-2h-1v-2h-1v-1h-2v1h1v2h1v2h-3v1zM9 11h3v-3h1v3h-1v1h3v-8h-1v-1h-1v4h-1v-3h-1v-1h-1v7h-1v1zM11 0v-1h2v1h-2zM11 3h2v-1h2v-1h-1v-1h1v-1h-1v-1h-4v1h-1v1h1v1h-1v1h2v1zM3 3h3v-4h3v-1h-4v1
h-1v3h-1v1z" />
    <glyph glyph-name="uniAE6F" unicode="&#xae6f;" 
d="M4 5h1v-1h-1v1zM1 5h1v-1h-1v1zM1 11h8v-3h-1v-2h-1v-1h-2v1h1v2h1v2h-1v-2h-1v-2h-1v-1h-2v1h1v2h1v2h-3v1zM9 11h3v-3h1v3h-1v1h3v-8h-1v-1h-1v4h-1v-3h-1v-1h-1v7h-1v1zM5 3h9v-1h-6v-3h6v-1h-7v1h-1v3h-1v1z" />
    <glyph glyph-name="uniAE70" unicode="&#xae70;" 
d="M4 5h1v-1h-1v1zM1 5h1v-1h-1v1zM1 11h8v-3h-1v-2h-1v-1h-2v1h1v2h1v2h-1v-2h-1v-2h-1v-1h-2v1h1v2h1v2h-3v1zM9 11h3v-3h1v3h-1v1h3v-8h-1v-1h-1v4h-1v-3h-1v-1h-1v7h-1v1zM6 3h9v-3h-7v-1h7v-1h-8v1h-1v2h7v1h-7v1z" />
    <glyph glyph-name="uniAE71" unicode="&#xae71;" 
d="M4 5h1v-1h-1v1zM1 5h1v-1h-1v1zM1 11h8v-3h-1v-2h-1v-1h-2v1h1v2h1v2h-1v-2h-1v-2h-1v-1h-2v1h1v2h1v2h-3v1zM9 11h3v-3h1v3h-1v1h3v-8h-1v-1h-1v4h-1v-3h-1v-1h-1v7h-1v1zM11 3h4v-4h-1v-1h-1v4h-2v1zM5 3h5v-3h-3v-1h3v-1h-4v1h-1v2h3v1h-3v1z" />
    <glyph glyph-name="uniAE72" unicode="&#xae72;" 
d="M4 5h1v-1h-1v1zM1 5h1v-1h-1v1zM1 11h8v-3h-1v-2h-1v-1h-2v1h1v2h1v2h-1v-2h-1v-2h-1v-1h-2v1h1v2h1v2h-3v1zM9 11h3v-3h1v3h-1v1h3v-8h-1v-1h-1v4h-1v-3h-1v-1h-1v7h-1v1zM12 2v-3h1v3h-1zM10 3h5v-5h-5v5zM4 3h5v-3h-3v-1h3v-1h-4v1h-1v2h3v1h-3v1z" />
    <glyph glyph-name="uniAE73" unicode="&#xae73;" 
d="M4 5h1v-1h-1v1zM1 5h1v-1h-1v1zM1 11h8v-3h-1v-2h-1v-1h-2v1h1v2h1v2h-1v-2h-1v-2h-1v-1h-2v1h1v2h1v2h-3v1zM9 11h3v-3h1v3h-1v1h3v-8h-1v-1h-1v4h-1v-3h-1v-1h-1v7h-1v1zM12 0v-1h1v1h-1zM10 3h2v-2h1v2h2v-5h-5v5zM4 3h5v-3h-3v-1h3v-1h-4v1h-1v2h3v1h-3v1z" />
    <glyph glyph-name="uniAE74" unicode="&#xae74;" 
d="M4 5h1v-1h-1v1zM1 5h1v-1h-1v1zM1 11h8v-3h-1v-2h-1v-1h-2v1h1v2h1v2h-1v-2h-1v-2h-1v-1h-2v1h1v2h1v2h-3v1zM9 11h3v-3h1v3h-1v1h3v-8h-1v-1h-1v4h-1v-3h-1v-1h-1v7h-1v1zM12 3h2v-3h1v-1h1v-1h-2v1h-2v-1h-1v2h1v3zM5 3h5v-3h-3v-1h3v-1h-4v1h-1v2h3v1h-3v1z" />
    <glyph glyph-name="uniAE75" unicode="&#xae75;" 
d="M4 5h1v-1h-1v1zM1 5h1v-1h-1v1zM1 11h8v-3h-1v-2h-1v-1h-2v1h1v2h1v2h-1v-2h-1v-2h-1v-1h-2v1h1v2h1v2h-3v1zM9 11h3v-3h1v3h-1v1h3v-8h-1v-1h-1v4h-1v-3h-1v-1h-1v7h-1v1zM10 3h5v-1h-3v-1h3v-1h-3v-1h3v-1h-5v5zM4 3h5v-3h-3v-1h3v-1h-4v1h-1v2h3v1h-3v1z" />
    <glyph glyph-name="uniAE76" unicode="&#xae76;" 
d="M4 5h1v-1h-1v1zM1 5h1v-1h-1v1zM1 11h8v-3h-1v-2h-1v-1h-2v1h1v2h1v2h-1v-2h-1v-2h-1v-1h-2v1h1v2h1v2h-3v1zM9 11h3v-3h1v3h-1v1h3v-8h-1v-1h-1v4h-1v-3h-1v-1h-1v7h-1v1zM11 2v-3h1v3h-1zM8 3h7v-1h-1v-3h1v-1h-7v1h1v3h-1v1zM3 3h4v-1h1v-2h-3v-1h2v-1h-3v1h-1v2h3v1
h-3v1z" />
    <glyph glyph-name="uniAE77" unicode="&#xae77;" 
d="M4 5h1v-1h-1v1zM1 5h1v-1h-1v1zM1 11h8v-3h-1v-2h-1v-1h-2v1h1v2h1v2h-1v-2h-1v-2h-1v-1h-2v1h1v2h1v2h-3v1zM9 11h3v-3h1v3h-1v1h3v-8h-1v-1h-1v4h-1v-3h-1v-1h-1v7h-1v1zM11 0v-1h2v1h-2zM11 3h2v-1h2v-1h-1v-1h1v-1h-1v-1h-4v1h-1v1h1v1h-1v1h2v1zM3 3h5v-3h-3v-1h3
v-1h-4v1h-1v2h3v1h-3v1z" />
    <glyph glyph-name="uniAE78" unicode="&#xae78;" 
d="M4 5h1v-1h-1v1zM1 5h1v-1h-1v1zM1 11h8v-3h-1v-2h-1v-1h-2v1h1v2h1v2h-1v-2h-1v-2h-1v-1h-2v1h1v2h1v2h-3v1zM9 11h3v-3h1v3h-1v1h3v-8h-1v-1h-1v4h-1v-3h-1v-1h-1v7h-1v1zM8 2v-3h5v3h-5zM5 3h10v-5h-9v4h-1v1z" />
    <glyph glyph-name="uniAE79" unicode="&#xae79;" 
d="M4 5h1v-1h-1v1zM1 5h1v-1h-1v1zM1 11h8v-3h-1v-2h-1v-1h-2v1h1v2h1v2h-1v-2h-1v-2h-1v-1h-2v1h1v2h1v2h-3v1zM9 11h3v-3h1v3h-1v1h3v-8h-1v-1h-1v4h-1v-3h-1v-1h-1v7h-1v1zM8 0v-1h5v1h-5zM5 3h3v-2h5v1h-1v1h3v-5h-9v4h-1v1z" />
    <glyph glyph-name="uniAE7A" unicode="&#xae7a;" 
d="M4 5h1v-1h-1v1zM1 5h1v-1h-1v1zM1 11h8v-3h-1v-2h-1v-1h-2v1h1v2h1v2h-1v-2h-1v-2h-1v-1h-2v1h1v2h1v2h-3v1zM9 11h3v-3h1v3h-1v1h3v-8h-1v-1h-1v4h-1v-3h-1v-1h-1v7h-1v1zM6 0v-1h1v1h-1zM4 3h2v-2h1v2h2v-4h1v1h1v3h2v-3h2v-2h-2v1h-2v-1h-7v5z" />
    <glyph glyph-name="uniAE7B" unicode="&#xae7b;" 
d="M4 5h1v-1h-1v1zM1 5h1v-1h-1v1zM1 11h8v-3h-1v-2h-1v-1h-2v1h1v2h1v2h-1v-2h-1v-2h-1v-1h-2v1h1v2h1v2h-3v1zM9 11h3v-3h1v3h-1v1h3v-8h-1v-1h-1v4h-1v-3h-1v-1h-1v7h-1v1zM11 1h2v-1h1v-1h1v-1h-2v1h-1v1h-1v1zM5 -1h2v-1h-2v1zM9 3h2v-2h-1v-1h-1v-1h-2v1h1v1h1v2z" />
    <glyph glyph-name="uniAE7C" unicode="&#xae7c;" 
d="M4 5h1v-1h-1v1zM1 5h1v-1h-1v1zM1 11h8v-3h-1v-2h-1v-1h-2v1h1v2h1v2h-1v-2h-1v-2h-1v-1h-2v1h1v2h1v2h-3v1zM9 11h3v-3h1v3h-1v1h3v-8h-1v-1h-1v4h-1v-3h-1v-1h-1v7h-1v1zM7 3h2v-2h2v2h2v-2h1v-1h1v-1h1v-1h-2v1h-1v1h-2v-1h-1v-1h-2v1h1v1h-2v-1h-1v-1h-2v1h1v1h1v1h1
v2z" />
    <glyph glyph-name="uniAE7D" unicode="&#xae7d;" 
d="M4 5h1v-1h-1v1zM1 5h1v-1h-1v1zM1 11h8v-3h-1v-2h-1v-1h-2v1h1v2h1v2h-1v-2h-1v-2h-1v-1h-2v1h1v2h1v2h-3v1zM9 11h3v-3h1v3h-1v1h3v-8h-1v-1h-1v4h-1v-3h-1v-1h-1v7h-1v1zM9 2v-3h4v3h-4zM8 3h6v-1h1v-3h-1v-1h-6v1h-1v3h1v1z" />
    <glyph glyph-name="uniAE7E" unicode="&#xae7e;" 
d="M4 5h1v-1h-1v1zM1 5h1v-1h-1v1zM1 11h8v-3h-1v-2h-1v-1h-2v1h1v2h1v2h-1v-2h-1v-2h-1v-1h-2v1h1v2h1v2h-3v1zM9 11h3v-3h1v3h-1v1h3v-8h-1v-1h-1v4h-1v-3h-1v-1h-1v7h-1v1zM13 -1h2v-1h-2v1zM5 -1h2v-1h-2v1zM5 3h10v-1h-4v-1h1v-1h1v-1h-2v1h-2v-1h-2v1h1v1h1v1h-4v1z
" />
    <glyph glyph-name="uniAE7F" unicode="&#xae7f;" 
d="M4 5h1v-1h-1v1zM1 5h1v-1h-1v1zM1 11h8v-3h-1v-2h-1v-1h-2v1h1v2h1v2h-1v-2h-1v-2h-1v-1h-2v1h1v2h1v2h-3v1zM9 11h3v-3h1v3h-1v1h3v-8h-1v-1h-1v4h-1v-3h-1v-1h-1v7h-1v1zM13 -1h2v-1h-2v1zM5 -1h2v-1h-2v1zM9 3h2v-1h4v-1h-3v-1h1v-1h-2v1h-2v-1h-2v1h1v1h-3v1h4v1z
" />
    <glyph glyph-name="uniAE80" unicode="&#xae80;" 
d="M4 5h1v-1h-1v1zM1 5h1v-1h-1v1zM1 11h8v-3h-1v-2h-1v-1h-2v1h1v2h1v2h-1v-2h-1v-2h-1v-1h-2v1h1v2h1v2h-3v1zM9 11h3v-3h1v3h-1v1h3v-8h-1v-1h-1v4h-1v-3h-1v-1h-1v7h-1v1zM6 3h9v-4h-1v-1h-1v2h-7v1h7v1h-7v1z" />
    <glyph glyph-name="uniAE81" unicode="&#xae81;" 
d="M4 5h1v-1h-1v1zM1 5h1v-1h-1v1zM1 11h8v-3h-1v-2h-1v-1h-2v1h1v2h1v2h-1v-2h-1v-2h-1v-1h-2v1h1v2h1v2h-3v1zM9 11h3v-3h1v3h-1v1h3v-8h-1v-1h-1v4h-1v-3h-1v-1h-1v7h-1v1zM6 3h9v-1h-6v-1h6v-1h-6v-1h6v-1h-7v1h-1v3h-1v1z" />
    <glyph glyph-name="uniAE82" unicode="&#xae82;" 
d="M4 5h1v-1h-1v1zM1 5h1v-1h-1v1zM1 11h8v-3h-1v-2h-1v-1h-2v1h1v2h1v2h-1v-2h-1v-2h-1v-1h-2v1h1v2h1v2h-3v1zM9 11h3v-3h1v3h-1v1h3v-8h-1v-1h-1v4h-1v-3h-1v-1h-1v7h-1v1zM9 2v-3h2v3h-2zM5 3h10v-1h-2v-3h2v-1h-10v1h2v3h-2v1z" />
    <glyph glyph-name="uniAE83" unicode="&#xae83;" 
d="M4 5h1v-1h-1v1zM1 5h1v-1h-1v1zM1 11h8v-3h-1v-2h-1v-1h-2v1h1v2h1v2h-1v-2h-1v-2h-1v-1h-2v1h1v2h1v2h-3v1zM9 11h3v-3h1v3h-1v1h3v-8h-1v-1h-1v4h-1v-3h-1v-1h-1v7h-1v1zM8 0v-1h4v1h-4zM8 3h4v-1h3v-1h-2v-1h1v-1h-1v-1h-6v1h-1v1h1v1h-2v1h3v1z" />
    <glyph glyph-name="uniAE84" unicode="&#xae84;" 
d="M4 4h1v-1h-1v1zM1 4h1v-1h-1v1zM1 10h8v-3h-1v-2h-1v-1h-2v1h1v2h1v2h-1v-2h-1v-2h-1v-1h-2v1h1v2h1v2h-3v1zM10 12h3v-4h3v-1h-3v-2h3v-1h-3v-5h-1v-1h-1v13h-1v1z" />
    <glyph glyph-name="uniAE85" unicode="&#xae85;" 
d="M4 5h1v-1h-1v1zM1 5h1v-1h-1v1zM1 11h8v-3h-1v-2h-1v-1h-2v1h1v2h1v2h-1v-2h-1v-2h-1v-1h-2v1h1v2h1v2h-3v1zM10 12h3v-3h3v-1h-3v-1h3v-1h-3v-2h-1v-1h-1v8h-1v1zM4 3h9v-4h-1v-1h-1v4h-7v1z" />
    <glyph glyph-name="uniAE86" unicode="&#xae86;" 
d="M4 5h1v-1h-1v1zM1 5h1v-1h-1v1zM1 11h8v-3h-1v-2h-1v-1h-2v1h1v2h1v2h-1v-2h-1v-2h-1v-1h-2v1h1v2h1v2h-3v1zM10 12h3v-3h3v-1h-3v-1h3v-1h-3v-2h-1v-1h-1v8h-1v1zM3 3h10v-4h-1v-1h-1v4h-3v-3h-1v-1h-1v4h-3v1z" />
    <glyph glyph-name="uniAE87" unicode="&#xae87;" 
d="M4 5h1v-1h-1v1zM1 5h1v-1h-1v1zM1 11h8v-3h-1v-2h-1v-1h-2v1h1v2h1v2h-1v-2h-1v-2h-1v-1h-2v1h1v2h1v2h-3v1zM10 12h3v-3h3v-1h-3v-1h3v-1h-3v-2h-1v-1h-1v8h-1v1zM10 3h2v-2h1v-1h1v-2h-2v2h-1v-1h-1v-1h-2v1h1v1h1v3zM3 3h5v-4h-1v-1h-1v4h-3v1z" />
    <glyph glyph-name="uniAE88" unicode="&#xae88;" 
d="M4 5h1v-1h-1v1zM1 5h1v-1h-1v1zM1 11h8v-3h-1v-2h-1v-1h-2v1h1v2h1v2h-1v-2h-1v-2h-1v-1h-2v1h1v2h1v2h-3v1zM10 12h3v-3h3v-1h-3v-1h3v-1h-3v-2h-1v-1h-1v8h-1v1zM5 3h3v-4h6v-1h-7v1h-1v3h-1v1z" />
    <glyph glyph-name="uniAE89" unicode="&#xae89;" 
d="M4 5h1v-1h-1v1zM1 5h1v-1h-1v1zM1 11h8v-3h-1v-2h-1v-1h-2v1h1v2h1v2h-1v-2h-1v-2h-1v-1h-2v1h1v2h1v2h-3v1zM10 12h3v-3h3v-1h-3v-1h3v-1h-3v-2h-1v-1h-1v8h-1v1zM3 3h3v-4h3v1h1v2h-2v1h6v-1h-2v-2h1v-1h1v-1h-2v1h-2v-1h-5v1h-1v3h-1v1z" />
    <glyph glyph-name="uniAE8A" unicode="&#xae8a;" 
d="M4 5h1v-1h-1v1zM1 5h1v-1h-1v1zM1 11h8v-3h-1v-2h-1v-1h-2v1h1v2h1v2h-1v-2h-1v-2h-1v-1h-2v1h1v2h1v2h-3v1zM10 12h3v-3h3v-1h-3v-1h3v-1h-3v-2h-1v-1h-1v8h-1v1zM10 0v-1h2v1h-2zM10 3h2v-1h2v-1h-1v-1h1v-1h-1v-1h-4v1h-1v1h1v1h-1v1h2v1zM3 3h3v-4h2v-1h-3v1h-1v3h-1
v1z" />
    <glyph glyph-name="uniAE8B" unicode="&#xae8b;" 
d="M4 5h1v-1h-1v1zM1 5h1v-1h-1v1zM1 11h8v-3h-1v-2h-1v-1h-2v1h1v2h1v2h-1v-2h-1v-2h-1v-1h-2v1h1v2h1v2h-3v1zM10 12h3v-3h3v-1h-3v-1h3v-1h-3v-2h-1v-1h-1v8h-1v1zM4 3h9v-1h-6v-3h6v-1h-7v1h-1v3h-1v1z" />
    <glyph glyph-name="uniAE8C" unicode="&#xae8c;" 
d="M4 5h1v-1h-1v1zM1 5h1v-1h-1v1zM1 11h8v-3h-1v-2h-1v-1h-2v1h1v2h1v2h-1v-2h-1v-2h-1v-1h-2v1h1v2h1v2h-3v1zM10 12h3v-3h3v-1h-3v-1h3v-1h-3v-2h-1v-1h-1v8h-1v1zM4 3h9v-3h-7v-1h7v-1h-8v1h-1v2h7v1h-7v1z" />
    <glyph glyph-name="uniAE8D" unicode="&#xae8d;" 
d="M4 5h1v-1h-1v1zM1 5h1v-1h-1v1zM1 11h8v-3h-1v-2h-1v-1h-2v1h1v2h1v2h-1v-2h-1v-2h-1v-1h-2v1h1v2h1v2h-3v1zM10 12h3v-3h3v-1h-3v-1h3v-1h-3v-2h-1v-1h-1v8h-1v1zM9 3h4v-4h-1v-1h-1v4h-2v1zM3 3h5v-3h-3v-1h3v-1h-4v1h-1v2h3v1h-3v1z" />
    <glyph glyph-name="uniAE8E" unicode="&#xae8e;" 
d="M4 5h1v-1h-1v1zM1 5h1v-1h-1v1zM1 11h8v-3h-1v-2h-1v-1h-2v1h1v2h1v2h-1v-2h-1v-2h-1v-1h-2v1h1v2h1v2h-3v1zM10 12h3v-3h3v-1h-3v-1h3v-1h-3v-2h-1v-1h-1v8h-1v1zM11 2v-3h1v3h-1zM9 3h5v-5h-5v5zM3 3h5v-3h-3v-1h3v-1h-4v1h-1v2h3v1h-3v1z" />
    <glyph glyph-name="uniAE8F" unicode="&#xae8f;" 
d="M4 5h1v-1h-1v1zM1 5h1v-1h-1v1zM1 11h8v-3h-1v-2h-1v-1h-2v1h1v2h1v2h-1v-2h-1v-2h-1v-1h-2v1h1v2h1v2h-3v1zM10 12h3v-3h3v-1h-3v-1h3v-1h-3v-2h-1v-1h-1v8h-1v1zM11 0v-1h1v1h-1zM9 3h2v-2h1v2h2v-5h-5v5zM3 3h5v-3h-3v-1h3v-1h-4v1h-1v2h3v1h-3v1z" />
    <glyph glyph-name="uniAE90" unicode="&#xae90;" 
d="M4 5h1v-1h-1v1zM1 5h1v-1h-1v1zM1 11h8v-3h-1v-2h-1v-1h-2v1h1v2h1v2h-1v-2h-1v-2h-1v-1h-2v1h1v2h1v2h-3v1zM10 12h3v-3h3v-1h-3v-1h3v-1h-3v-2h-1v-1h-1v8h-1v1zM11 3h2v-3h1v-1h1v-1h-2v1h-2v-1h-1v2h1v3zM4 3h5v-3h-3v-1h3v-1h-4v1h-1v2h3v1h-3v1z" />
    <glyph glyph-name="uniAE91" unicode="&#xae91;" 
d="M4 5h1v-1h-1v1zM1 5h1v-1h-1v1zM1 11h8v-3h-1v-2h-1v-1h-2v1h1v2h1v2h-1v-2h-1v-2h-1v-1h-2v1h1v2h1v2h-3v1zM10 12h3v-3h3v-1h-3v-1h3v-1h-3v-2h-1v-1h-1v8h-1v1zM9 3h5v-1h-3v-1h3v-1h-3v-1h3v-1h-5v5zM3 3h5v-3h-3v-1h3v-1h-4v1h-1v2h3v1h-3v1z" />
    <glyph glyph-name="uniAE92" unicode="&#xae92;" 
d="M4 5h1v-1h-1v1zM1 5h1v-1h-1v1zM1 11h8v-3h-1v-2h-1v-1h-2v1h1v2h1v2h-1v-2h-1v-2h-1v-1h-2v1h1v2h1v2h-3v1zM10 12h3v-3h3v-1h-3v-1h3v-1h-3v-2h-1v-1h-1v8h-1v1zM11 2v-3h1v3h-1zM8 3h7v-1h-1v-3h1v-1h-7v1h1v3h-1v1zM3 3h4v-1h1v-2h-3v-1h2v-1h-3v1h-1v2h3v1h-3v1z
" />
    <glyph glyph-name="uniAE93" unicode="&#xae93;" 
d="M4 5h1v-1h-1v1zM1 5h1v-1h-1v1zM1 11h8v-3h-1v-2h-1v-1h-2v1h1v2h1v2h-1v-2h-1v-2h-1v-1h-2v1h1v2h1v2h-3v1zM10 12h3v-3h3v-1h-3v-1h3v-1h-3v-2h-1v-1h-1v8h-1v1zM11 0v-1h2v1h-2zM11 3h2v-1h2v-1h-1v-1h1v-1h-1v-1h-4v1h-1v1h1v1h-1v1h2v1zM3 3h5v-3h-3v-1h3v-1h-4v1
h-1v2h3v1h-3v1z" />
    <glyph glyph-name="uniAE94" unicode="&#xae94;" 
d="M4 5h1v-1h-1v1zM1 5h1v-1h-1v1zM1 11h8v-3h-1v-2h-1v-1h-2v1h1v2h1v2h-1v-2h-1v-2h-1v-1h-2v1h1v2h1v2h-3v1zM10 12h3v-3h3v-1h-3v-1h3v-1h-3v-2h-1v-1h-1v8h-1v1zM7 2v-3h4v3h-4zM4 3h9v-5h-8v4h-1v1z" />
    <glyph glyph-name="uniAE95" unicode="&#xae95;" 
d="M4 5h1v-1h-1v1zM1 5h1v-1h-1v1zM1 11h8v-3h-1v-2h-1v-1h-2v1h1v2h1v2h-1v-2h-1v-2h-1v-1h-2v1h1v2h1v2h-3v1zM10 12h3v-3h3v-1h-3v-1h3v-1h-3v-2h-1v-1h-1v8h-1v1zM7 0v-1h4v1h-4zM4 3h3v-2h4v1h-1v1h3v-5h-8v4h-1v1z" />
    <glyph glyph-name="uniAE96" unicode="&#xae96;" 
d="M4 5h1v-1h-1v1zM1 5h1v-1h-1v1zM1 11h8v-3h-1v-2h-1v-1h-2v1h1v2h1v2h-1v-2h-1v-2h-1v-1h-2v1h1v2h1v2h-3v1zM10 12h3v-3h3v-1h-3v-1h3v-1h-3v-2h-1v-1h-1v8h-1v1zM6 0v-1h1v1h-1zM4 3h2v-2h1v2h2v-4h1v1h1v3h2v-3h2v-2h-2v1h-2v-1h-7v5z" />
    <glyph glyph-name="uniAE97" unicode="&#xae97;" 
d="M4 5h1v-1h-1v1zM1 5h1v-1h-1v1zM1 11h8v-3h-1v-2h-1v-1h-2v1h1v2h1v2h-1v-2h-1v-2h-1v-1h-2v1h1v2h1v2h-3v1zM10 12h3v-3h3v-1h-3v-1h3v-1h-3v-2h-1v-1h-1v8h-1v1zM10 1h2v-1h1v-1h1v-1h-2v1h-1v1h-1v1zM4 -1h2v-1h-2v1zM8 3h2v-2h-1v-1h-1v-1h-2v1h1v1h1v2z" />
    <glyph glyph-name="uniAE98" unicode="&#xae98;" 
d="M4 5h1v-1h-1v1zM1 5h1v-1h-1v1zM1 11h8v-3h-1v-2h-1v-1h-2v1h1v2h1v2h-1v-2h-1v-2h-1v-1h-2v1h1v2h1v2h-3v1zM10 12h3v-3h3v-1h-3v-1h3v-1h-3v-2h-1v-1h-1v8h-1v1zM6 3h2v-2h2v2h2v-2h1v-1h1v-1h1v-1h-2v1h-1v1h-2v-1h-1v-1h-2v1h1v1h-2v-1h-1v-1h-2v1h1v1h1v1h1v2z" />
    <glyph glyph-name="uniAE99" unicode="&#xae99;" 
d="M4 5h1v-1h-1v1zM1 5h1v-1h-1v1zM1 11h8v-3h-1v-2h-1v-1h-2v1h1v2h1v2h-1v-2h-1v-2h-1v-1h-2v1h1v2h1v2h-3v1zM10 12h3v-3h3v-1h-3v-1h3v-1h-3v-2h-1v-1h-1v8h-1v1zM7 2v-3h4v3h-4zM6 3h6v-1h1v-3h-1v-1h-6v1h-1v3h1v1z" />
    <glyph glyph-name="uniAE9A" unicode="&#xae9a;" 
d="M4 5h1v-1h-1v1zM1 5h1v-1h-1v1zM1 11h8v-3h-1v-2h-1v-1h-2v1h1v2h1v2h-1v-2h-1v-2h-1v-1h-2v1h1v2h1v2h-3v1zM10 12h3v-3h3v-1h-3v-1h3v-1h-3v-2h-1v-1h-1v8h-1v1zM12 -1h2v-1h-2v1zM4 -1h2v-1h-2v1zM4 3h10v-1h-4v-1h1v-1h1v-1h-2v1h-2v-1h-2v1h1v1h1v1h-4v1z" />
    <glyph glyph-name="uniAE9B" unicode="&#xae9b;" 
d="M4 5h1v-1h-1v1zM1 5h1v-1h-1v1zM1 11h8v-3h-1v-2h-1v-1h-2v1h1v2h1v2h-1v-2h-1v-2h-1v-1h-2v1h1v2h1v2h-3v1zM10 12h3v-3h3v-1h-3v-1h3v-1h-3v-2h-1v-1h-1v8h-1v1zM12 -1h2v-1h-2v1zM4 -1h2v-1h-2v1zM8 3h2v-1h4v-1h-3v-1h1v-1h-2v1h-2v-1h-2v1h1v1h-3v1h4v1z" />
    <glyph glyph-name="uniAE9C" unicode="&#xae9c;" 
d="M4 5h1v-1h-1v1zM1 5h1v-1h-1v1zM1 11h8v-3h-1v-2h-1v-1h-2v1h1v2h1v2h-1v-2h-1v-2h-1v-1h-2v1h1v2h1v2h-3v1zM10 12h3v-3h3v-1h-3v-1h3v-1h-3v-2h-1v-1h-1v8h-1v1zM5 3h8v-4h-1v-1h-1v2h-6v1h6v1h-6v1z" />
    <glyph glyph-name="uniAE9D" unicode="&#xae9d;" 
d="M4 5h1v-1h-1v1zM1 5h1v-1h-1v1zM1 11h8v-3h-1v-2h-1v-1h-2v1h1v2h1v2h-1v-2h-1v-2h-1v-1h-2v1h1v2h1v2h-3v1zM10 12h3v-3h3v-1h-3v-1h3v-1h-3v-2h-1v-1h-1v8h-1v1zM4 3h9v-1h-6v-1h6v-1h-6v-1h6v-1h-7v1h-1v3h-1v1z" />
    <glyph glyph-name="uniAE9E" unicode="&#xae9e;" 
d="M4 5h1v-1h-1v1zM1 5h1v-1h-1v1zM1 11h8v-3h-1v-2h-1v-1h-2v1h1v2h1v2h-1v-2h-1v-2h-1v-1h-2v1h1v2h1v2h-3v1zM10 12h3v-3h3v-1h-3v-1h3v-1h-3v-2h-1v-1h-1v8h-1v1zM8 2v-3h2v3h-2zM4 3h10v-1h-2v-3h2v-1h-10v1h2v3h-2v1z" />
    <glyph glyph-name="uniAE9F" unicode="&#xae9f;" 
d="M4 5h1v-1h-1v1zM1 5h1v-1h-1v1zM1 11h8v-3h-1v-2h-1v-1h-2v1h1v2h1v2h-1v-2h-1v-2h-1v-1h-2v1h1v2h1v2h-3v1zM10 12h3v-3h3v-1h-3v-1h3v-1h-3v-2h-1v-1h-1v8h-1v1zM7 0v-1h4v1h-4zM7 3h4v-1h3v-1h-2v-1h1v-1h-1v-1h-6v1h-1v1h1v1h-2v1h3v1z" />
    <glyph glyph-name="uniAEA0" unicode="&#xaea0;" 
d="M4 4h1v-1h-1v1zM1 4h1v-1h-1v1zM1 10h8v-3h-1v-2h-1v-1h-2v1h1v2h1v2h-1v-2h-1v-2h-1v-1h-2v1h1v2h1v2h-3v1zM12 7v-2h1v2h-1zM9 11h3v-3h1v3h-1v1h3v-13h-1v-1h-1v6h-1v-4h-1v-1h-1v11h-1v1z" />
    <glyph glyph-name="uniAEA1" unicode="&#xaea1;" 
d="M4 5h1v-1h-1v1zM1 5h1v-1h-1v1zM1 11h8v-3h-1v-2h-1v-1h-2v1h1v2h1v2h-1v-2h-1v-2h-1v-1h-2v1h1v2h1v2h-3v1zM12 8v-1h1v1h-1zM9 11h3v-2h1v2h-1v1h3v-8h-1v-1h-1v3h-1v-2h-1v-1h-1v7h-1v1zM5 3h10v-4h-1v-1h-1v4h-8v1z" />
    <glyph glyph-name="uniAEA2" unicode="&#xaea2;" 
d="M4 5h1v-1h-1v1zM1 5h1v-1h-1v1zM1 11h8v-3h-1v-2h-1v-1h-2v1h1v2h1v2h-1v-2h-1v-2h-1v-1h-2v1h1v2h1v2h-3v1zM12 8v-1h1v1h-1zM9 11h3v-2h1v2h-1v1h3v-8h-1v-1h-1v3h-1v-2h-1v-1h-1v7h-1v1zM4 3h11v-4h-1v-1h-1v4h-3v-3h-1v-1h-1v4h-4v1z" />
    <glyph glyph-name="uniAEA3" unicode="&#xaea3;" 
d="M4 5h1v-1h-1v1zM1 5h1v-1h-1v1zM1 11h8v-3h-1v-2h-1v-1h-2v1h1v2h1v2h-1v-2h-1v-2h-1v-1h-2v1h1v2h1v2h-3v1zM12 8v-1h1v1h-1zM9 11h3v-2h1v2h-1v1h3v-8h-1v-1h-1v3h-1v-2h-1v-1h-1v7h-1v1zM12 3h2v-2h1v-1h1v-2h-2v2h-1v-1h-1v-1h-2v1h1v1h1v3zM4 3h6v-4h-1v-1h-1v4h-4
v1z" />
    <glyph glyph-name="uniAEA4" unicode="&#xaea4;" 
d="M4 5h1v-1h-1v1zM1 5h1v-1h-1v1zM1 11h8v-3h-1v-2h-1v-1h-2v1h1v2h1v2h-1v-2h-1v-2h-1v-1h-2v1h1v2h1v2h-3v1zM12 8v-1h1v1h-1zM9 11h3v-2h1v2h-1v1h3v-8h-1v-1h-1v3h-1v-2h-1v-1h-1v7h-1v1zM5 3h3v-4h7v-1h-8v1h-1v3h-1v1z" />
    <glyph glyph-name="uniAEA5" unicode="&#xaea5;" 
d="M4 5h1v-1h-1v1zM1 5h1v-1h-1v1zM1 11h8v-3h-1v-2h-1v-1h-2v1h1v2h1v2h-1v-2h-1v-2h-1v-1h-2v1h1v2h1v2h-3v1zM12 8v-1h1v1h-1zM9 11h3v-2h1v2h-1v1h3v-8h-1v-1h-1v3h-1v-2h-1v-1h-1v7h-1v1zM9 3h6v-1h-2v-2h1v-1h1v-1h-2v1h-2v-1h-2v1h1v1h1v2h-2v1zM3 3h3v-4h2v-1h-3v1
h-1v3h-1v1z" />
    <glyph glyph-name="uniAEA6" unicode="&#xaea6;" 
d="M4 5h1v-1h-1v1zM1 5h1v-1h-1v1zM1 11h8v-3h-1v-2h-1v-1h-2v1h1v2h1v2h-1v-2h-1v-2h-1v-1h-2v1h1v2h1v2h-3v1zM12 8v-1h1v1h-1zM9 11h3v-2h1v2h-1v1h3v-8h-1v-1h-1v3h-1v-2h-1v-1h-1v7h-1v1zM11 0v-1h2v1h-2zM11 3h2v-1h2v-1h-1v-1h1v-1h-1v-1h-4v1h-1v1h1v1h-1v1h2v1z
M3 3h3v-4h3v-1h-4v1h-1v3h-1v1z" />
    <glyph glyph-name="uniAEA7" unicode="&#xaea7;" 
d="M4 5h1v-1h-1v1zM1 5h1v-1h-1v1zM1 11h8v-3h-1v-2h-1v-1h-2v1h1v2h1v2h-1v-2h-1v-2h-1v-1h-2v1h1v2h1v2h-3v1zM12 8v-1h1v1h-1zM9 11h3v-2h1v2h-1v1h3v-8h-1v-1h-1v3h-1v-2h-1v-1h-1v7h-1v1zM5 3h9v-1h-6v-3h6v-1h-7v1h-1v3h-1v1z" />
    <glyph glyph-name="uniAEA8" unicode="&#xaea8;" 
d="M4 5h1v-1h-1v1zM1 5h1v-1h-1v1zM1 11h8v-3h-1v-2h-1v-1h-2v1h1v2h1v2h-1v-2h-1v-2h-1v-1h-2v1h1v2h1v2h-3v1zM12 8v-1h1v1h-1zM9 11h3v-2h1v2h-1v1h3v-8h-1v-1h-1v3h-1v-2h-1v-1h-1v7h-1v1zM6 3h9v-3h-7v-1h7v-1h-8v1h-1v2h7v1h-7v1z" />
    <glyph glyph-name="uniAEA9" unicode="&#xaea9;" 
d="M4 5h1v-1h-1v1zM1 5h1v-1h-1v1zM1 11h8v-3h-1v-2h-1v-1h-2v1h1v2h1v2h-1v-2h-1v-2h-1v-1h-2v1h1v2h1v2h-3v1zM12 8v-1h1v1h-1zM9 11h3v-2h1v2h-1v1h3v-8h-1v-1h-1v3h-1v-2h-1v-1h-1v7h-1v1zM11 3h4v-4h-1v-1h-1v4h-2v1zM5 3h5v-3h-3v-1h3v-1h-4v1h-1v2h3v1h-3v1z" />
    <glyph glyph-name="uniAEAA" unicode="&#xaeaa;" 
d="M4 5h1v-1h-1v1zM1 5h1v-1h-1v1zM1 11h8v-3h-1v-2h-1v-1h-2v1h1v2h1v2h-1v-2h-1v-2h-1v-1h-2v1h1v2h1v2h-3v1zM12 8v-1h1v1h-1zM9 11h3v-2h1v2h-1v1h3v-8h-1v-1h-1v3h-1v-2h-1v-1h-1v7h-1v1zM12 2v-3h1v3h-1zM10 3h5v-5h-5v5zM4 3h5v-3h-3v-1h3v-1h-4v1h-1v2h3v1h-3v1z
" />
    <glyph glyph-name="uniAEAB" unicode="&#xaeab;" 
d="M4 5h1v-1h-1v1zM1 5h1v-1h-1v1zM1 11h8v-3h-1v-2h-1v-1h-2v1h1v2h1v2h-1v-2h-1v-2h-1v-1h-2v1h1v2h1v2h-3v1zM12 8v-1h1v1h-1zM9 11h3v-2h1v2h-1v1h3v-8h-1v-1h-1v3h-1v-2h-1v-1h-1v7h-1v1zM12 0v-1h1v1h-1zM10 3h2v-2h1v2h2v-5h-5v5zM4 3h5v-3h-3v-1h3v-1h-4v1h-1v2h3v1
h-3v1z" />
    <glyph glyph-name="uniAEAC" unicode="&#xaeac;" 
d="M4 5h1v-1h-1v1zM1 5h1v-1h-1v1zM1 11h8v-3h-1v-2h-1v-1h-2v1h1v2h1v2h-1v-2h-1v-2h-1v-1h-2v1h1v2h1v2h-3v1zM12 8v-1h1v1h-1zM9 11h3v-2h1v2h-1v1h3v-8h-1v-1h-1v3h-1v-2h-1v-1h-1v7h-1v1zM12 3h2v-3h1v-1h1v-1h-2v1h-2v-1h-1v2h1v3zM5 3h5v-3h-3v-1h3v-1h-4v1h-1v2h3v1
h-3v1z" />
    <glyph glyph-name="uniAEAD" unicode="&#xaead;" 
d="M4 5h1v-1h-1v1zM1 5h1v-1h-1v1zM1 11h8v-3h-1v-2h-1v-1h-2v1h1v2h1v2h-1v-2h-1v-2h-1v-1h-2v1h1v2h1v2h-3v1zM12 8v-1h1v1h-1zM9 11h3v-2h1v2h-1v1h3v-8h-1v-1h-1v3h-1v-2h-1v-1h-1v7h-1v1zM10 3h5v-1h-3v-1h3v-1h-3v-1h3v-1h-5v5zM4 3h5v-3h-3v-1h3v-1h-4v1h-1v2h3v1h-3
v1z" />
    <glyph glyph-name="uniAEAE" unicode="&#xaeae;" 
d="M4 5h1v-1h-1v1zM1 5h1v-1h-1v1zM1 11h8v-3h-1v-2h-1v-1h-2v1h1v2h1v2h-1v-2h-1v-2h-1v-1h-2v1h1v2h1v2h-3v1zM12 8v-1h1v1h-1zM9 11h3v-2h1v2h-1v1h3v-8h-1v-1h-1v3h-1v-2h-1v-1h-1v7h-1v1zM11 2v-3h1v3h-1zM8 3h7v-1h-1v-3h1v-1h-7v1h1v3h-1v1zM3 3h4v-1h1v-2h-3v-1h2
v-1h-3v1h-1v2h3v1h-3v1z" />
    <glyph glyph-name="uniAEAF" unicode="&#xaeaf;" 
d="M4 5h1v-1h-1v1zM1 5h1v-1h-1v1zM1 11h8v-3h-1v-2h-1v-1h-2v1h1v2h1v2h-1v-2h-1v-2h-1v-1h-2v1h1v2h1v2h-3v1zM12 8v-1h1v1h-1zM9 11h3v-2h1v2h-1v1h3v-8h-1v-1h-1v3h-1v-2h-1v-1h-1v7h-1v1zM11 0v-1h2v1h-2zM11 3h2v-1h2v-1h-1v-1h1v-1h-1v-1h-4v1h-1v1h1v1h-1v1h2v1z
M3 3h5v-3h-3v-1h3v-1h-4v1h-1v2h3v1h-3v1z" />
    <glyph glyph-name="uniAEB0" unicode="&#xaeb0;" 
d="M4 5h1v-1h-1v1zM1 5h1v-1h-1v1zM1 11h8v-3h-1v-2h-1v-1h-2v1h1v2h1v2h-1v-2h-1v-2h-1v-1h-2v1h1v2h1v2h-3v1zM12 8v-1h1v1h-1zM9 11h3v-2h1v2h-1v1h3v-8h-1v-1h-1v3h-1v-2h-1v-1h-1v7h-1v1zM8 2v-3h5v3h-5zM5 3h10v-5h-9v4h-1v1z" />
    <glyph glyph-name="uniAEB1" unicode="&#xaeb1;" 
d="M4 5h1v-1h-1v1zM1 5h1v-1h-1v1zM1 11h8v-3h-1v-2h-1v-1h-2v1h1v2h1v2h-1v-2h-1v-2h-1v-1h-2v1h1v2h1v2h-3v1zM12 8v-1h1v1h-1zM9 11h3v-2h1v2h-1v1h3v-8h-1v-1h-1v3h-1v-2h-1v-1h-1v7h-1v1zM8 0v-1h5v1h-5zM5 3h3v-2h5v1h-1v1h3v-5h-9v4h-1v1z" />
    <glyph glyph-name="uniAEB2" unicode="&#xaeb2;" 
d="M4 5h1v-1h-1v1zM1 5h1v-1h-1v1zM1 11h8v-3h-1v-2h-1v-1h-2v1h1v2h1v2h-1v-2h-1v-2h-1v-1h-2v1h1v2h1v2h-3v1zM12 8v-1h1v1h-1zM9 11h3v-2h1v2h-1v1h3v-8h-1v-1h-1v3h-1v-2h-1v-1h-1v7h-1v1zM6 0v-1h1v1h-1zM4 3h2v-2h1v2h2v-4h1v1h1v3h2v-3h2v-2h-2v1h-2v-1h-7v5z" />
    <glyph glyph-name="uniAEB3" unicode="&#xaeb3;" 
d="M4 5h1v-1h-1v1zM1 5h1v-1h-1v1zM1 11h8v-3h-1v-2h-1v-1h-2v1h1v2h1v2h-1v-2h-1v-2h-1v-1h-2v1h1v2h1v2h-3v1zM12 8v-1h1v1h-1zM9 11h3v-2h1v2h-1v1h3v-8h-1v-1h-1v3h-1v-2h-1v-1h-1v7h-1v1zM11 1h2v-1h1v-1h1v-1h-2v1h-1v1h-1v1zM5 -1h2v-1h-2v1zM9 3h2v-2h-1v-1h-1v-1
h-2v1h1v1h1v2z" />
    <glyph glyph-name="uniAEB4" unicode="&#xaeb4;" 
d="M4 5h1v-1h-1v1zM1 5h1v-1h-1v1zM1 11h8v-3h-1v-2h-1v-1h-2v1h1v2h1v2h-1v-2h-1v-2h-1v-1h-2v1h1v2h1v2h-3v1zM12 8v-1h1v1h-1zM9 11h3v-2h1v2h-1v1h3v-8h-1v-1h-1v3h-1v-2h-1v-1h-1v7h-1v1zM7 3h2v-2h2v2h2v-2h1v-1h1v-1h1v-1h-2v1h-1v1h-2v-1h-1v-1h-2v1h1v1h-2v-1h-1
v-1h-2v1h1v1h1v1h1v2z" />
    <glyph glyph-name="uniAEB5" unicode="&#xaeb5;" 
d="M4 5h1v-1h-1v1zM1 5h1v-1h-1v1zM1 11h8v-3h-1v-2h-1v-1h-2v1h1v2h1v2h-1v-2h-1v-2h-1v-1h-2v1h1v2h1v2h-3v1zM12 8v-1h1v1h-1zM9 11h3v-2h1v2h-1v1h3v-8h-1v-1h-1v3h-1v-2h-1v-1h-1v7h-1v1zM9 2v-3h4v3h-4zM8 3h6v-1h1v-3h-1v-1h-6v1h-1v3h1v1z" />
    <glyph glyph-name="uniAEB6" unicode="&#xaeb6;" 
d="M4 5h1v-1h-1v1zM1 5h1v-1h-1v1zM1 11h8v-3h-1v-2h-1v-1h-2v1h1v2h1v2h-1v-2h-1v-2h-1v-1h-2v1h1v2h1v2h-3v1zM12 8v-1h1v1h-1zM9 11h3v-2h1v2h-1v1h3v-8h-1v-1h-1v3h-1v-2h-1v-1h-1v7h-1v1zM13 -1h2v-1h-2v1zM5 -1h2v-1h-2v1zM5 3h10v-1h-4v-1h1v-1h1v-1h-2v1h-2v-1h-2v1
h1v1h1v1h-4v1z" />
    <glyph glyph-name="uniAEB7" unicode="&#xaeb7;" 
d="M4 5h1v-1h-1v1zM1 5h1v-1h-1v1zM1 11h8v-3h-1v-2h-1v-1h-2v1h1v2h1v2h-1v-2h-1v-2h-1v-1h-2v1h1v2h1v2h-3v1zM12 8v-1h1v1h-1zM9 11h3v-2h1v2h-1v1h3v-8h-1v-1h-1v3h-1v-2h-1v-1h-1v7h-1v1zM13 -1h2v-1h-2v1zM5 -1h2v-1h-2v1zM9 3h2v-1h4v-1h-3v-1h1v-1h-2v1h-2v-1h-2v1
h1v1h-3v1h4v1z" />
    <glyph glyph-name="uniAEB8" unicode="&#xaeb8;" 
d="M4 5h1v-1h-1v1zM1 5h1v-1h-1v1zM1 11h8v-3h-1v-2h-1v-1h-2v1h1v2h1v2h-1v-2h-1v-2h-1v-1h-2v1h1v2h1v2h-3v1zM12 8v-1h1v1h-1zM9 11h3v-2h1v2h-1v1h3v-8h-1v-1h-1v3h-1v-2h-1v-1h-1v7h-1v1zM6 3h9v-4h-1v-1h-1v2h-7v1h7v1h-7v1z" />
    <glyph glyph-name="uniAEB9" unicode="&#xaeb9;" 
d="M4 5h1v-1h-1v1zM1 5h1v-1h-1v1zM1 11h8v-3h-1v-2h-1v-1h-2v1h1v2h1v2h-1v-2h-1v-2h-1v-1h-2v1h1v2h1v2h-3v1zM12 8v-1h1v1h-1zM9 11h3v-2h1v2h-1v1h3v-8h-1v-1h-1v3h-1v-2h-1v-1h-1v7h-1v1zM6 3h9v-1h-6v-1h6v-1h-6v-1h6v-1h-7v1h-1v3h-1v1z" />
    <glyph glyph-name="uniAEBA" unicode="&#xaeba;" 
d="M4 5h1v-1h-1v1zM1 5h1v-1h-1v1zM1 11h8v-3h-1v-2h-1v-1h-2v1h1v2h1v2h-1v-2h-1v-2h-1v-1h-2v1h1v2h1v2h-3v1zM12 8v-1h1v1h-1zM9 11h3v-2h1v2h-1v1h3v-8h-1v-1h-1v3h-1v-2h-1v-1h-1v7h-1v1zM9 2v-3h2v3h-2zM5 3h10v-1h-2v-3h2v-1h-10v1h2v3h-2v1z" />
    <glyph glyph-name="uniAEBB" unicode="&#xaebb;" 
d="M4 5h1v-1h-1v1zM1 5h1v-1h-1v1zM1 11h8v-3h-1v-2h-1v-1h-2v1h1v2h1v2h-1v-2h-1v-2h-1v-1h-2v1h1v2h1v2h-3v1zM12 8v-1h1v1h-1zM9 11h3v-2h1v2h-1v1h3v-8h-1v-1h-1v3h-1v-2h-1v-1h-1v7h-1v1zM8 0v-1h4v1h-4zM8 3h4v-1h3v-1h-2v-1h1v-1h-1v-1h-6v1h-1v1h1v1h-2v1h3v1z" />
    <glyph glyph-name="uniAEBC" unicode="&#xaebc;" 
d="M4 4h1v-1h-1v1zM1 4h1v-1h-1v1zM1 10h8v-3h-1v-2h-1v-1h-2v1h1v2h1v2h-1v-2h-1v-2h-1v-1h-2v1h1v2h1v2h-3v1zM11 12h3v-13h-1v-1h-1v8h-3v1h3v4h-1v1z" />
    <glyph glyph-name="uniAEBD" unicode="&#xaebd;" 
d="M4 5h1v-1h-1v1zM1 5h1v-1h-1v1zM1 11h8v-3h-1v-2h-1v-1h-2v1h1v2h1v2h-1v-2h-1v-2h-1v-1h-2v1h1v2h1v2h-3v1zM11 12h3v-8h-1v-1h-1v4h-3v1h3v3h-1v1zM5 3h9v-4h-1v-1h-1v4h-7v1z" />
    <glyph glyph-name="uniAEBE" unicode="&#xaebe;" 
d="M4 5h1v-1h-1v1zM1 5h1v-1h-1v1zM1 11h8v-3h-1v-2h-1v-1h-2v1h1v2h1v2h-1v-2h-1v-2h-1v-1h-2v1h1v2h1v2h-3v1zM11 12h3v-8h-1v-1h-1v4h-3v1h3v3h-1v1zM4 3h10v-4h-1v-1h-1v4h-3v-3h-1v-1h-1v4h-3v1z" />
    <glyph glyph-name="uniAEBF" unicode="&#xaebf;" 
d="M4 5h1v-1h-1v1zM1 5h1v-1h-1v1zM1 11h8v-3h-1v-2h-1v-1h-2v1h1v2h1v2h-1v-2h-1v-2h-1v-1h-2v1h1v2h1v2h-3v1zM11 12h3v-8h-1v-1h-1v4h-3v1h3v3h-1v1zM11 3h2v-2h1v-1h1v-2h-2v2h-1v-1h-1v-1h-2v1h1v1h1v3zM4 3h5v-4h-1v-1h-1v4h-3v1z" />
    <glyph glyph-name="uniAEC0" unicode="&#xaec0;" 
d="M4 5h1v-1h-1v1zM1 5h1v-1h-1v1zM1 11h8v-3h-1v-2h-1v-1h-2v1h1v2h1v2h-1v-2h-1v-2h-1v-1h-2v1h1v2h1v2h-3v1zM11 12h3v-8h-1v-1h-1v4h-3v1h3v3h-1v1zM5 3h3v-4h6v-1h-7v1h-1v3h-1v1z" />
    <glyph glyph-name="uniAEC1" unicode="&#xaec1;" 
d="M4 5h1v-1h-1v1zM1 5h1v-1h-1v1zM1 11h8v-3h-1v-2h-1v-1h-2v1h1v2h1v2h-1v-2h-1v-2h-1v-1h-2v1h1v2h1v2h-3v1zM11 12h3v-8h-1v-1h-1v4h-3v1h3v3h-1v1zM4 3h3v-4h3v1h1v2h-2v1h6v-1h-2v-2h1v-1h1v-1h-2v1h-2v-1h-5v1h-1v3h-1v1z" />
    <glyph glyph-name="uniAEC2" unicode="&#xaec2;" 
d="M4 5h1v-1h-1v1zM1 5h1v-1h-1v1zM1 11h8v-3h-1v-2h-1v-1h-2v1h1v2h1v2h-1v-2h-1v-2h-1v-1h-2v1h1v2h1v2h-3v1zM11 12h3v-8h-1v-1h-1v4h-3v1h3v3h-1v1zM11 0v-1h2v1h-2zM11 3h2v-1h2v-1h-1v-1h1v-1h-1v-1h-4v1h-1v1h1v1h-1v1h2v1zM4 3h3v-4h2v-1h-3v1h-1v3h-1v1z" />
    <glyph glyph-name="uniAEC3" unicode="&#xaec3;" 
d="M4 5h1v-1h-1v1zM1 5h1v-1h-1v1zM1 11h8v-3h-1v-2h-1v-1h-2v1h1v2h1v2h-1v-2h-1v-2h-1v-1h-2v1h1v2h1v2h-3v1zM11 12h3v-8h-1v-1h-1v4h-3v1h3v3h-1v1zM5 3h9v-1h-6v-3h6v-1h-7v1h-1v3h-1v1z" />
    <glyph glyph-name="uniAEC4" unicode="&#xaec4;" 
d="M4 5h1v-1h-1v1zM1 5h1v-1h-1v1zM1 11h8v-3h-1v-2h-1v-1h-2v1h1v2h1v2h-1v-2h-1v-2h-1v-1h-2v1h1v2h1v2h-3v1zM11 12h3v-8h-1v-1h-1v4h-3v1h3v3h-1v1zM5 3h9v-3h-7v-1h7v-1h-8v1h-1v2h7v1h-7v1z" />
    <glyph glyph-name="uniAEC5" unicode="&#xaec5;" 
d="M4 5h1v-1h-1v1zM1 5h1v-1h-1v1zM1 11h8v-3h-1v-2h-1v-1h-2v1h1v2h1v2h-1v-2h-1v-2h-1v-1h-2v1h1v2h1v2h-3v1zM11 12h3v-8h-1v-1h-1v4h-3v1h3v3h-1v1zM10 3h4v-4h-1v-1h-1v4h-2v1zM4 3h5v-3h-3v-1h3v-1h-4v1h-1v2h3v1h-3v1z" />
    <glyph glyph-name="uniAEC6" unicode="&#xaec6;" 
d="M4 5h1v-1h-1v1zM1 5h1v-1h-1v1zM1 11h8v-3h-1v-2h-1v-1h-2v1h1v2h1v2h-1v-2h-1v-2h-1v-1h-2v1h1v2h1v2h-3v1zM11 12h3v-8h-1v-1h-1v4h-3v1h3v3h-1v1zM11 2v-3h1v3h-1zM9 3h5v-5h-5v5zM3 3h5v-3h-3v-1h3v-1h-4v1h-1v2h3v1h-3v1z" />
    <glyph glyph-name="uniAEC7" unicode="&#xaec7;" 
d="M4 5h1v-1h-1v1zM1 5h1v-1h-1v1zM1 11h8v-3h-1v-2h-1v-1h-2v1h1v2h1v2h-1v-2h-1v-2h-1v-1h-2v1h1v2h1v2h-3v1zM11 12h3v-8h-1v-1h-1v4h-3v1h3v3h-1v1zM11 0v-1h1v1h-1zM9 3h2v-2h1v2h2v-5h-5v5zM3 3h5v-3h-3v-1h3v-1h-4v1h-1v2h3v1h-3v1z" />
    <glyph glyph-name="uniAEC8" unicode="&#xaec8;" 
d="M4 5h1v-1h-1v1zM1 5h1v-1h-1v1zM1 11h8v-3h-1v-2h-1v-1h-2v1h1v2h1v2h-1v-2h-1v-2h-1v-1h-2v1h1v2h1v2h-3v1zM11 12h3v-8h-1v-1h-1v4h-3v1h3v3h-1v1zM11 3h2v-3h1v-1h1v-1h-2v1h-2v-1h-1v2h1v3zM4 3h5v-3h-3v-1h3v-1h-4v1h-1v2h3v1h-3v1z" />
    <glyph glyph-name="uniAEC9" unicode="&#xaec9;" 
d="M4 5h1v-1h-1v1zM1 5h1v-1h-1v1zM1 11h8v-3h-1v-2h-1v-1h-2v1h1v2h1v2h-1v-2h-1v-2h-1v-1h-2v1h1v2h1v2h-3v1zM11 12h3v-8h-1v-1h-1v4h-3v1h3v3h-1v1zM9 3h5v-1h-3v-1h3v-1h-3v-1h3v-1h-5v5zM3 3h5v-3h-3v-1h3v-1h-4v1h-1v2h3v1h-3v1z" />
    <glyph glyph-name="uniAECA" unicode="&#xaeca;" 
d="M4 5h1v-1h-1v1zM1 5h1v-1h-1v1zM1 11h8v-3h-1v-2h-1v-1h-2v1h1v2h1v2h-1v-2h-1v-2h-1v-1h-2v1h1v2h1v2h-3v1zM11 12h3v-8h-1v-1h-1v4h-3v1h3v3h-1v1zM11 2v-3h1v3h-1zM8 3h7v-1h-1v-3h1v-1h-7v1h1v3h-1v1zM3 3h4v-1h1v-2h-3v-1h2v-1h-3v1h-1v2h3v1h-3v1z" />
    <glyph glyph-name="uniAECB" unicode="&#xaecb;" 
d="M4 5h1v-1h-1v1zM1 5h1v-1h-1v1zM1 11h8v-3h-1v-2h-1v-1h-2v1h1v2h1v2h-1v-2h-1v-2h-1v-1h-2v1h1v2h1v2h-3v1zM11 12h3v-8h-1v-1h-1v4h-3v1h3v3h-1v1zM11 0v-1h2v1h-2zM11 3h2v-1h2v-1h-1v-1h1v-1h-1v-1h-4v1h-1v1h1v1h-1v1h2v1zM3 3h5v-3h-3v-1h3v-1h-4v1h-1v2h3v1h-3v1z
" />
    <glyph glyph-name="uniAECC" unicode="&#xaecc;" 
d="M4 5h1v-1h-1v1zM1 5h1v-1h-1v1zM1 11h8v-3h-1v-2h-1v-1h-2v1h1v2h1v2h-1v-2h-1v-2h-1v-1h-2v1h1v2h1v2h-3v1zM11 12h3v-8h-1v-1h-1v4h-3v1h3v3h-1v1zM8 2v-3h4v3h-4zM5 3h9v-5h-8v4h-1v1z" />
    <glyph glyph-name="uniAECD" unicode="&#xaecd;" 
d="M4 5h1v-1h-1v1zM1 5h1v-1h-1v1zM1 11h8v-3h-1v-2h-1v-1h-2v1h1v2h1v2h-1v-2h-1v-2h-1v-1h-2v1h1v2h1v2h-3v1zM11 12h3v-8h-1v-1h-1v4h-3v1h3v3h-1v1zM8 0v-1h4v1h-4zM5 3h3v-2h4v1h-1v1h3v-5h-8v4h-1v1z" />
    <glyph glyph-name="uniAECE" unicode="&#xaece;" 
d="M4 5h1v-1h-1v1zM1 5h1v-1h-1v1zM1 11h8v-3h-1v-2h-1v-1h-2v1h1v2h1v2h-1v-2h-1v-2h-1v-1h-2v1h1v2h1v2h-3v1zM11 12h3v-8h-1v-1h-1v4h-3v1h3v3h-1v1zM6 0v-1h1v1h-1zM4 3h2v-2h1v2h2v-4h1v1h1v3h2v-3h2v-2h-2v1h-2v-1h-7v5z" />
    <glyph glyph-name="uniAECF" unicode="&#xaecf;" 
d="M4 5h1v-1h-1v1zM1 5h1v-1h-1v1zM1 11h8v-3h-1v-2h-1v-1h-2v1h1v2h1v2h-1v-2h-1v-2h-1v-1h-2v1h1v2h1v2h-3v1zM11 12h3v-8h-1v-1h-1v4h-3v1h3v3h-1v1zM10 1h2v-1h1v-1h1v-1h-2v1h-1v1h-1v1zM4 -1h2v-1h-2v1zM8 3h2v-2h-1v-1h-1v-1h-2v1h1v1h1v2z" />
    <glyph glyph-name="uniAED0" unicode="&#xaed0;" 
d="M4 5h1v-1h-1v1zM1 5h1v-1h-1v1zM1 11h8v-3h-1v-2h-1v-1h-2v1h1v2h1v2h-1v-2h-1v-2h-1v-1h-2v1h1v2h1v2h-3v1zM11 12h3v-8h-1v-1h-1v4h-3v1h3v3h-1v1zM7 3h2v-2h2v2h2v-2h1v-1h1v-1h1v-1h-2v1h-1v1h-2v-1h-1v-1h-2v1h1v1h-2v-1h-1v-1h-2v1h1v1h1v1h1v2z" />
    <glyph glyph-name="uniAED1" unicode="&#xaed1;" 
d="M4 5h1v-1h-1v1zM1 5h1v-1h-1v1zM1 11h8v-3h-1v-2h-1v-1h-2v1h1v2h1v2h-1v-2h-1v-2h-1v-1h-2v1h1v2h1v2h-3v1zM11 12h3v-8h-1v-1h-1v4h-3v1h3v3h-1v1zM8 2v-3h4v3h-4zM7 3h6v-1h1v-3h-1v-1h-6v1h-1v3h1v1z" />
    <glyph glyph-name="uniAED2" unicode="&#xaed2;" 
d="M4 5h1v-1h-1v1zM1 5h1v-1h-1v1zM1 11h8v-3h-1v-2h-1v-1h-2v1h1v2h1v2h-1v-2h-1v-2h-1v-1h-2v1h1v2h1v2h-3v1zM11 12h3v-8h-1v-1h-1v4h-3v1h3v3h-1v1zM12 -1h2v-1h-2v1zM4 -1h2v-1h-2v1zM4 3h10v-1h-4v-1h1v-1h1v-1h-2v1h-2v-1h-2v1h1v1h1v1h-4v1z" />
    <glyph glyph-name="uniAED3" unicode="&#xaed3;" 
d="M4 5h1v-1h-1v1zM1 5h1v-1h-1v1zM1 11h8v-3h-1v-2h-1v-1h-2v1h1v2h1v2h-1v-2h-1v-2h-1v-1h-2v1h1v2h1v2h-3v1zM11 12h3v-8h-1v-1h-1v4h-3v1h3v3h-1v1zM12 -1h2v-1h-2v1zM4 -1h2v-1h-2v1zM8 3h2v-1h4v-1h-3v-1h1v-1h-2v1h-2v-1h-2v1h1v1h-3v1h4v1z" />
    <glyph glyph-name="uniAED4" unicode="&#xaed4;" 
d="M4 5h1v-1h-1v1zM1 5h1v-1h-1v1zM1 11h8v-3h-1v-2h-1v-1h-2v1h1v2h1v2h-1v-2h-1v-2h-1v-1h-2v1h1v2h1v2h-3v1zM11 12h3v-8h-1v-1h-1v4h-3v1h3v3h-1v1zM6 3h8v-4h-1v-1h-1v2h-6v1h6v1h-6v1z" />
    <glyph glyph-name="uniAED5" unicode="&#xaed5;" 
d="M4 5h1v-1h-1v1zM1 5h1v-1h-1v1zM1 11h8v-3h-1v-2h-1v-1h-2v1h1v2h1v2h-1v-2h-1v-2h-1v-1h-2v1h1v2h1v2h-3v1zM11 12h3v-8h-1v-1h-1v4h-3v1h3v3h-1v1zM5 3h9v-1h-6v-1h6v-1h-6v-1h6v-1h-7v1h-1v3h-1v1z" />
    <glyph glyph-name="uniAED6" unicode="&#xaed6;" 
d="M4 5h1v-1h-1v1zM1 5h1v-1h-1v1zM1 11h8v-3h-1v-2h-1v-1h-2v1h1v2h1v2h-1v-2h-1v-2h-1v-1h-2v1h1v2h1v2h-3v1zM11 12h3v-8h-1v-1h-1v4h-3v1h3v3h-1v1zM8 2v-3h2v3h-2zM4 3h10v-1h-2v-3h2v-1h-10v1h2v3h-2v1z" />
    <glyph glyph-name="uniAED7" unicode="&#xaed7;" 
d="M4 5h1v-1h-1v1zM1 5h1v-1h-1v1zM1 11h8v-3h-1v-2h-1v-1h-2v1h1v2h1v2h-1v-2h-1v-2h-1v-1h-2v1h1v2h1v2h-3v1zM11 12h3v-8h-1v-1h-1v4h-3v1h3v3h-1v1zM8 0v-1h4v1h-4zM8 3h4v-1h3v-1h-2v-1h1v-1h-1v-1h-6v1h-1v1h1v1h-2v1h3v1z" />
    <glyph glyph-name="uniAED8" unicode="&#xaed8;" 
d="M4 4h1v-1h-1v1zM1 4h1v-1h-1v1zM1 10h8v-3h-1v-2h-1v-1h-2v1h1v2h1v2h-1v-2h-1v-2h-1v-1h-2v1h1v2h1v2h-3v1zM12 12h3v-13h-1v-1h-1v13h-1v1zM9 11h3v-11h-1v-1h-1v7h-1v1h1v3h-1v1z" />
    <glyph glyph-name="uniAED9" unicode="&#xaed9;" 
d="M4 5h1v-1h-1v1zM1 5h1v-1h-1v1zM1 11h8v-3h-1v-2h-1v-1h-2v1h1v2h1v2h-1v-2h-1v-2h-1v-1h-2v1h1v2h1v2h-3v1zM12 12h3v-8h-1v-1h-1v8h-1v1zM9 11h3v-7h-1v-1h-1v4h-1v1h1v2h-1v1zM5 3h10v-4h-1v-1h-1v4h-8v1z" />
    <glyph glyph-name="uniAEDA" unicode="&#xaeda;" 
d="M4 5h1v-1h-1v1zM1 5h1v-1h-1v1zM1 11h8v-3h-1v-2h-1v-1h-2v1h1v2h1v2h-1v-2h-1v-2h-1v-1h-2v1h1v2h1v2h-3v1zM12 12h3v-8h-1v-1h-1v8h-1v1zM9 11h3v-7h-1v-1h-1v4h-1v1h1v2h-1v1zM4 3h11v-4h-1v-1h-1v4h-3v-3h-1v-1h-1v4h-4v1z" />
    <glyph glyph-name="uniAEDB" unicode="&#xaedb;" 
d="M4 5h1v-1h-1v1zM1 5h1v-1h-1v1zM1 11h8v-3h-1v-2h-1v-1h-2v1h1v2h1v2h-1v-2h-1v-2h-1v-1h-2v1h1v2h1v2h-3v1zM12 12h3v-8h-1v-1h-1v8h-1v1zM9 11h3v-7h-1v-1h-1v4h-1v1h1v2h-1v1zM12 3h2v-2h1v-1h1v-2h-2v2h-1v-1h-1v-1h-2v1h1v1h1v3zM4 3h6v-4h-1v-1h-1v4h-4v1z" />
    <glyph glyph-name="uniAEDC" unicode="&#xaedc;" 
d="M4 5h1v-1h-1v1zM1 5h1v-1h-1v1zM1 11h8v-3h-1v-2h-1v-1h-2v1h1v2h1v2h-1v-2h-1v-2h-1v-1h-2v1h1v2h1v2h-3v1zM12 12h3v-8h-1v-1h-1v8h-1v1zM9 11h3v-7h-1v-1h-1v4h-1v1h1v2h-1v1zM5 3h3v-4h7v-1h-8v1h-1v3h-1v1z" />
    <glyph glyph-name="uniAEDD" unicode="&#xaedd;" 
d="M4 5h1v-1h-1v1zM1 5h1v-1h-1v1zM1 11h8v-3h-1v-2h-1v-1h-2v1h1v2h1v2h-1v-2h-1v-2h-1v-1h-2v1h1v2h1v2h-3v1zM12 12h3v-8h-1v-1h-1v8h-1v1zM9 11h3v-7h-1v-1h-1v4h-1v1h1v2h-1v1zM9 3h6v-1h-2v-2h1v-1h1v-1h-2v1h-2v-1h-2v1h1v1h1v2h-2v1zM3 3h3v-4h2v-1h-3v1h-1v3h-1v1z
" />
    <glyph glyph-name="uniAEDE" unicode="&#xaede;" 
d="M4 5h1v-1h-1v1zM1 5h1v-1h-1v1zM1 11h8v-3h-1v-2h-1v-1h-2v1h1v2h1v2h-1v-2h-1v-2h-1v-1h-2v1h1v2h1v2h-3v1zM12 12h3v-8h-1v-1h-1v8h-1v1zM9 11h3v-7h-1v-1h-1v4h-1v1h1v2h-1v1zM11 0v-1h2v1h-2zM11 3h2v-1h2v-1h-1v-1h1v-1h-1v-1h-4v1h-1v1h1v1h-1v1h2v1zM3 3h3v-4h3
v-1h-4v1h-1v3h-1v1z" />
    <glyph glyph-name="uniAEDF" unicode="&#xaedf;" 
d="M4 5h1v-1h-1v1zM1 5h1v-1h-1v1zM1 11h8v-3h-1v-2h-1v-1h-2v1h1v2h1v2h-1v-2h-1v-2h-1v-1h-2v1h1v2h1v2h-3v1zM12 12h3v-8h-1v-1h-1v8h-1v1zM9 11h3v-7h-1v-1h-1v4h-1v1h1v2h-1v1zM5 3h9v-1h-6v-3h6v-1h-7v1h-1v3h-1v1z" />
    <glyph glyph-name="uniAEE0" unicode="&#xaee0;" 
d="M4 5h1v-1h-1v1zM1 5h1v-1h-1v1zM1 11h8v-3h-1v-2h-1v-1h-2v1h1v2h1v2h-1v-2h-1v-2h-1v-1h-2v1h1v2h1v2h-3v1zM12 12h3v-8h-1v-1h-1v8h-1v1zM9 11h3v-7h-1v-1h-1v4h-1v1h1v2h-1v1zM6 3h9v-3h-7v-1h7v-1h-8v1h-1v2h7v1h-7v1z" />
    <glyph glyph-name="uniAEE1" unicode="&#xaee1;" 
d="M4 5h1v-1h-1v1zM1 5h1v-1h-1v1zM1 11h8v-3h-1v-2h-1v-1h-2v1h1v2h1v2h-1v-2h-1v-2h-1v-1h-2v1h1v2h1v2h-3v1zM12 12h3v-8h-1v-1h-1v8h-1v1zM9 11h3v-7h-1v-1h-1v4h-1v1h1v2h-1v1zM11 3h4v-4h-1v-1h-1v4h-2v1zM5 3h5v-3h-3v-1h3v-1h-4v1h-1v2h3v1h-3v1z" />
    <glyph glyph-name="uniAEE2" unicode="&#xaee2;" 
d="M4 5h1v-1h-1v1zM1 5h1v-1h-1v1zM1 11h8v-3h-1v-2h-1v-1h-2v1h1v2h1v2h-1v-2h-1v-2h-1v-1h-2v1h1v2h1v2h-3v1zM12 12h3v-8h-1v-1h-1v8h-1v1zM9 11h3v-7h-1v-1h-1v4h-1v1h1v2h-1v1zM12 2v-3h1v3h-1zM10 3h5v-5h-5v5zM4 3h5v-3h-3v-1h3v-1h-4v1h-1v2h3v1h-3v1z" />
    <glyph glyph-name="uniAEE3" unicode="&#xaee3;" 
d="M4 5h1v-1h-1v1zM1 5h1v-1h-1v1zM1 11h8v-3h-1v-2h-1v-1h-2v1h1v2h1v2h-1v-2h-1v-2h-1v-1h-2v1h1v2h1v2h-3v1zM12 12h3v-8h-1v-1h-1v8h-1v1zM9 11h3v-7h-1v-1h-1v4h-1v1h1v2h-1v1zM12 0v-1h1v1h-1zM10 3h2v-2h1v2h2v-5h-5v5zM4 3h5v-3h-3v-1h3v-1h-4v1h-1v2h3v1h-3v1z" />
    <glyph glyph-name="uniAEE4" unicode="&#xaee4;" 
d="M4 5h1v-1h-1v1zM1 5h1v-1h-1v1zM1 11h8v-3h-1v-2h-1v-1h-2v1h1v2h1v2h-1v-2h-1v-2h-1v-1h-2v1h1v2h1v2h-3v1zM12 12h3v-8h-1v-1h-1v8h-1v1zM9 11h3v-7h-1v-1h-1v4h-1v1h1v2h-1v1zM12 3h2v-3h1v-1h1v-1h-2v1h-2v-1h-1v2h1v3zM5 3h5v-3h-3v-1h3v-1h-4v1h-1v2h3v1h-3v1z" />
    <glyph glyph-name="uniAEE5" unicode="&#xaee5;" 
d="M4 5h1v-1h-1v1zM1 5h1v-1h-1v1zM1 11h8v-3h-1v-2h-1v-1h-2v1h1v2h1v2h-1v-2h-1v-2h-1v-1h-2v1h1v2h1v2h-3v1zM12 12h3v-8h-1v-1h-1v8h-1v1zM9 11h3v-7h-1v-1h-1v4h-1v1h1v2h-1v1zM10 3h5v-1h-3v-1h3v-1h-3v-1h3v-1h-5v5zM4 3h5v-3h-3v-1h3v-1h-4v1h-1v2h3v1h-3v1z" />
    <glyph glyph-name="uniAEE6" unicode="&#xaee6;" 
d="M4 5h1v-1h-1v1zM1 5h1v-1h-1v1zM1 11h8v-3h-1v-2h-1v-1h-2v1h1v2h1v2h-1v-2h-1v-2h-1v-1h-2v1h1v2h1v2h-3v1zM12 12h3v-8h-1v-1h-1v8h-1v1zM9 11h3v-7h-1v-1h-1v4h-1v1h1v2h-1v1zM11 2v-3h1v3h-1zM8 3h7v-1h-1v-3h1v-1h-7v1h1v3h-1v1zM3 3h4v-1h1v-2h-3v-1h2v-1h-3v1h-1
v2h3v1h-3v1z" />
    <glyph glyph-name="uniAEE7" unicode="&#xaee7;" 
d="M4 5h1v-1h-1v1zM1 5h1v-1h-1v1zM1 11h8v-3h-1v-2h-1v-1h-2v1h1v2h1v2h-1v-2h-1v-2h-1v-1h-2v1h1v2h1v2h-3v1zM12 12h3v-8h-1v-1h-1v8h-1v1zM9 11h3v-7h-1v-1h-1v4h-1v1h1v2h-1v1zM11 0v-1h2v1h-2zM11 3h2v-1h2v-1h-1v-1h1v-1h-1v-1h-4v1h-1v1h1v1h-1v1h2v1zM3 3h5v-3h-3
v-1h3v-1h-4v1h-1v2h3v1h-3v1z" />
    <glyph glyph-name="uniAEE8" unicode="&#xaee8;" 
d="M4 5h1v-1h-1v1zM1 5h1v-1h-1v1zM1 11h8v-3h-1v-2h-1v-1h-2v1h1v2h1v2h-1v-2h-1v-2h-1v-1h-2v1h1v2h1v2h-3v1zM12 12h3v-8h-1v-1h-1v8h-1v1zM9 11h3v-7h-1v-1h-1v4h-1v1h1v2h-1v1zM8 2v-3h5v3h-5zM5 3h10v-5h-9v4h-1v1z" />
    <glyph glyph-name="uniAEE9" unicode="&#xaee9;" 
d="M4 5h1v-1h-1v1zM1 5h1v-1h-1v1zM1 11h8v-3h-1v-2h-1v-1h-2v1h1v2h1v2h-1v-2h-1v-2h-1v-1h-2v1h1v2h1v2h-3v1zM12 12h3v-8h-1v-1h-1v8h-1v1zM9 11h3v-7h-1v-1h-1v4h-1v1h1v2h-1v1zM8 0v-1h5v1h-5zM5 3h3v-2h5v1h-1v1h3v-5h-9v4h-1v1z" />
    <glyph glyph-name="uniAEEA" unicode="&#xaeea;" 
d="M4 5h1v-1h-1v1zM1 5h1v-1h-1v1zM1 11h8v-3h-1v-2h-1v-1h-2v1h1v2h1v2h-1v-2h-1v-2h-1v-1h-2v1h1v2h1v2h-3v1zM12 12h3v-8h-1v-1h-1v8h-1v1zM9 11h3v-7h-1v-1h-1v4h-1v1h1v2h-1v1zM6 0v-1h1v1h-1zM4 3h2v-2h1v2h2v-4h1v1h1v3h2v-3h2v-2h-2v1h-2v-1h-7v5z" />
    <glyph glyph-name="uniAEEB" unicode="&#xaeeb;" 
d="M4 5h1v-1h-1v1zM1 5h1v-1h-1v1zM1 11h8v-3h-1v-2h-1v-1h-2v1h1v2h1v2h-1v-2h-1v-2h-1v-1h-2v1h1v2h1v2h-3v1zM12 12h3v-8h-1v-1h-1v8h-1v1zM9 11h3v-7h-1v-1h-1v4h-1v1h1v2h-1v1zM11 1h2v-1h1v-1h1v-1h-2v1h-1v1h-1v1zM5 -1h2v-1h-2v1zM9 3h2v-2h-1v-1h-1v-1h-2v1h1v1h1
v2z" />
    <glyph glyph-name="uniAEEC" unicode="&#xaeec;" 
d="M4 5h1v-1h-1v1zM1 5h1v-1h-1v1zM1 11h8v-3h-1v-2h-1v-1h-2v1h1v2h1v2h-1v-2h-1v-2h-1v-1h-2v1h1v2h1v2h-3v1zM12 12h3v-8h-1v-1h-1v8h-1v1zM9 11h3v-7h-1v-1h-1v4h-1v1h1v2h-1v1zM7 3h2v-2h2v2h2v-2h1v-1h1v-1h1v-1h-2v1h-1v1h-2v-1h-1v-1h-2v1h1v1h-2v-1h-1v-1h-2v1h1v1
h1v1h1v2z" />
    <glyph glyph-name="uniAEED" unicode="&#xaeed;" 
d="M4 5h1v-1h-1v1zM1 5h1v-1h-1v1zM1 11h8v-3h-1v-2h-1v-1h-2v1h1v2h1v2h-1v-2h-1v-2h-1v-1h-2v1h1v2h1v2h-3v1zM12 12h3v-8h-1v-1h-1v8h-1v1zM9 11h3v-7h-1v-1h-1v4h-1v1h1v2h-1v1zM9 2v-3h4v3h-4zM8 3h6v-1h1v-3h-1v-1h-6v1h-1v3h1v1z" />
    <glyph glyph-name="uniAEEE" unicode="&#xaeee;" 
d="M4 5h1v-1h-1v1zM1 5h1v-1h-1v1zM1 11h8v-3h-1v-2h-1v-1h-2v1h1v2h1v2h-1v-2h-1v-2h-1v-1h-2v1h1v2h1v2h-3v1zM12 12h3v-8h-1v-1h-1v8h-1v1zM9 11h3v-7h-1v-1h-1v4h-1v1h1v2h-1v1zM13 -1h2v-1h-2v1zM5 -1h2v-1h-2v1zM5 3h10v-1h-4v-1h1v-1h1v-1h-2v1h-2v-1h-2v1h1v1h1v1
h-4v1z" />
    <glyph glyph-name="uniAEEF" unicode="&#xaeef;" 
d="M4 5h1v-1h-1v1zM1 5h1v-1h-1v1zM1 11h8v-3h-1v-2h-1v-1h-2v1h1v2h1v2h-1v-2h-1v-2h-1v-1h-2v1h1v2h1v2h-3v1zM12 12h3v-8h-1v-1h-1v8h-1v1zM9 11h3v-7h-1v-1h-1v4h-1v1h1v2h-1v1zM13 -1h2v-1h-2v1zM5 -1h2v-1h-2v1zM9 3h2v-1h4v-1h-3v-1h1v-1h-2v1h-2v-1h-2v1h1v1h-3v1h4
v1z" />
    <glyph glyph-name="uniAEF0" unicode="&#xaef0;" 
d="M4 5h1v-1h-1v1zM1 5h1v-1h-1v1zM1 11h8v-3h-1v-2h-1v-1h-2v1h1v2h1v2h-1v-2h-1v-2h-1v-1h-2v1h1v2h1v2h-3v1zM12 12h3v-8h-1v-1h-1v8h-1v1zM9 11h3v-7h-1v-1h-1v4h-1v1h1v2h-1v1zM6 3h9v-4h-1v-1h-1v2h-7v1h7v1h-7v1z" />
    <glyph glyph-name="uniAEF1" unicode="&#xaef1;" 
d="M4 5h1v-1h-1v1zM1 5h1v-1h-1v1zM1 11h8v-3h-1v-2h-1v-1h-2v1h1v2h1v2h-1v-2h-1v-2h-1v-1h-2v1h1v2h1v2h-3v1zM12 12h3v-8h-1v-1h-1v8h-1v1zM9 11h3v-7h-1v-1h-1v4h-1v1h1v2h-1v1zM6 3h9v-1h-6v-1h6v-1h-6v-1h6v-1h-7v1h-1v3h-1v1z" />
    <glyph glyph-name="uniAEF2" unicode="&#xaef2;" 
d="M4 5h1v-1h-1v1zM1 5h1v-1h-1v1zM1 11h8v-3h-1v-2h-1v-1h-2v1h1v2h1v2h-1v-2h-1v-2h-1v-1h-2v1h1v2h1v2h-3v1zM12 12h3v-8h-1v-1h-1v8h-1v1zM9 11h3v-7h-1v-1h-1v4h-1v1h1v2h-1v1zM9 2v-3h2v3h-2zM5 3h10v-1h-2v-3h2v-1h-10v1h2v3h-2v1z" />
    <glyph glyph-name="uniAEF3" unicode="&#xaef3;" 
d="M4 5h1v-1h-1v1zM1 5h1v-1h-1v1zM1 11h8v-3h-1v-2h-1v-1h-2v1h1v2h1v2h-1v-2h-1v-2h-1v-1h-2v1h1v2h1v2h-3v1zM12 12h3v-8h-1v-1h-1v8h-1v1zM9 11h3v-7h-1v-1h-1v4h-1v1h1v2h-1v1zM8 0v-1h4v1h-4zM8 3h4v-1h3v-1h-2v-1h1v-1h-1v-1h-6v1h-1v1h1v1h-2v1h3v1z" />
    <glyph glyph-name="uniAEF4" unicode="&#xaef4;" 
d="M4 4h1v-1h-1v1zM1 4h1v-1h-1v1zM1 10h8v-3h-1v-2h-1v-1h-2v1h1v2h1v2h-1v-2h-1v-2h-1v-1h-2v1h1v2h1v2h-3v1zM11 12h3v-13h-1v-1h-1v7h-3v1h3v1h-3v1h3v3h-1v1z" />
    <glyph glyph-name="uniAEF5" unicode="&#xaef5;" 
d="M4 5h1v-1h-1v1zM1 5h1v-1h-1v1zM1 11h8v-3h-1v-2h-1v-1h-2v1h1v2h1v2h-1v-2h-1v-2h-1v-1h-2v1h1v2h1v2h-3v1zM11 12h3v-8h-1v-1h-1v3h-3v1h3v1h-3v1h3v2h-1v1zM5 3h9v-4h-1v-1h-1v4h-7v1z" />
    <glyph glyph-name="uniAEF6" unicode="&#xaef6;" 
d="M4 5h1v-1h-1v1zM1 5h1v-1h-1v1zM1 11h8v-3h-1v-2h-1v-1h-2v1h1v2h1v2h-1v-2h-1v-2h-1v-1h-2v1h1v2h1v2h-3v1zM11 12h3v-8h-1v-1h-1v3h-3v1h3v1h-3v1h3v2h-1v1zM4 3h10v-4h-1v-1h-1v4h-3v-3h-1v-1h-1v4h-3v1z" />
    <glyph glyph-name="uniAEF7" unicode="&#xaef7;" 
d="M4 5h1v-1h-1v1zM1 5h1v-1h-1v1zM1 11h8v-3h-1v-2h-1v-1h-2v1h1v2h1v2h-1v-2h-1v-2h-1v-1h-2v1h1v2h1v2h-3v1zM11 12h3v-8h-1v-1h-1v3h-3v1h3v1h-3v1h3v2h-1v1zM11 3h2v-2h1v-1h1v-2h-2v2h-1v-1h-1v-1h-2v1h1v1h1v3zM4 3h5v-4h-1v-1h-1v4h-3v1z" />
    <glyph glyph-name="uniAEF8" unicode="&#xaef8;" 
d="M4 5h1v-1h-1v1zM1 5h1v-1h-1v1zM1 11h8v-3h-1v-2h-1v-1h-2v1h1v2h1v2h-1v-2h-1v-2h-1v-1h-2v1h1v2h1v2h-3v1zM11 12h3v-8h-1v-1h-1v3h-3v1h3v1h-3v1h3v2h-1v1zM5 3h3v-4h6v-1h-7v1h-1v3h-1v1z" />
    <glyph glyph-name="uniAEF9" unicode="&#xaef9;" 
d="M4 5h1v-1h-1v1zM1 5h1v-1h-1v1zM1 11h8v-3h-1v-2h-1v-1h-2v1h1v2h1v2h-1v-2h-1v-2h-1v-1h-2v1h1v2h1v2h-3v1zM11 12h3v-8h-1v-1h-1v3h-3v1h3v1h-3v1h3v2h-1v1zM4 3h3v-4h3v1h1v2h-2v1h6v-1h-2v-2h1v-1h1v-1h-2v1h-2v-1h-5v1h-1v3h-1v1z" />
    <glyph glyph-name="uniAEFA" unicode="&#xaefa;" 
d="M4 5h1v-1h-1v1zM1 5h1v-1h-1v1zM1 11h8v-3h-1v-2h-1v-1h-2v1h1v2h1v2h-1v-2h-1v-2h-1v-1h-2v1h1v2h1v2h-3v1zM11 12h3v-8h-1v-1h-1v3h-3v1h3v1h-3v1h3v2h-1v1zM11 0v-1h2v1h-2zM11 3h2v-1h2v-1h-1v-1h1v-1h-1v-1h-4v1h-1v1h1v1h-1v1h2v1zM4 3h3v-4h2v-1h-3v1h-1v3h-1v1z
" />
    <glyph glyph-name="uniAEFB" unicode="&#xaefb;" 
d="M4 5h1v-1h-1v1zM1 5h1v-1h-1v1zM1 11h8v-3h-1v-2h-1v-1h-2v1h1v2h1v2h-1v-2h-1v-2h-1v-1h-2v1h1v2h1v2h-3v1zM11 12h3v-8h-1v-1h-1v3h-3v1h3v1h-3v1h3v2h-1v1zM5 3h9v-1h-6v-3h6v-1h-7v1h-1v3h-1v1z" />
    <glyph glyph-name="uniAEFC" unicode="&#xaefc;" 
d="M4 5h1v-1h-1v1zM1 5h1v-1h-1v1zM1 11h8v-3h-1v-2h-1v-1h-2v1h1v2h1v2h-1v-2h-1v-2h-1v-1h-2v1h1v2h1v2h-3v1zM11 12h3v-8h-1v-1h-1v3h-3v1h3v1h-3v1h3v2h-1v1zM5 3h9v-3h-7v-1h7v-1h-8v1h-1v2h7v1h-7v1z" />
    <glyph glyph-name="uniAEFD" unicode="&#xaefd;" 
d="M4 5h1v-1h-1v1zM1 5h1v-1h-1v1zM1 11h8v-3h-1v-2h-1v-1h-2v1h1v2h1v2h-1v-2h-1v-2h-1v-1h-2v1h1v2h1v2h-3v1zM11 12h3v-8h-1v-1h-1v3h-3v1h3v1h-3v1h3v2h-1v1zM10 3h4v-4h-1v-1h-1v4h-2v1zM4 3h5v-3h-3v-1h3v-1h-4v1h-1v2h3v1h-3v1z" />
    <glyph glyph-name="uniAEFE" unicode="&#xaefe;" 
d="M4 5h1v-1h-1v1zM1 5h1v-1h-1v1zM1 11h8v-3h-1v-2h-1v-1h-2v1h1v2h1v2h-1v-2h-1v-2h-1v-1h-2v1h1v2h1v2h-3v1zM11 12h3v-8h-1v-1h-1v3h-3v1h3v1h-3v1h3v2h-1v1zM11 2v-3h1v3h-1zM9 3h5v-5h-5v5zM3 3h5v-3h-3v-1h3v-1h-4v1h-1v2h3v1h-3v1z" />
    <glyph glyph-name="uniAEFF" unicode="&#xaeff;" 
d="M4 5h1v-1h-1v1zM1 5h1v-1h-1v1zM1 11h8v-3h-1v-2h-1v-1h-2v1h1v2h1v2h-1v-2h-1v-2h-1v-1h-2v1h1v2h1v2h-3v1zM11 12h3v-8h-1v-1h-1v3h-3v1h3v1h-3v1h3v2h-1v1zM11 0v-1h1v1h-1zM9 3h2v-2h1v2h2v-5h-5v5zM3 3h5v-3h-3v-1h3v-1h-4v1h-1v2h3v1h-3v1z" />
    <glyph glyph-name="uniAF00" unicode="&#xaf00;" 
d="M4 5h1v-1h-1v1zM1 5h1v-1h-1v1zM1 11h8v-3h-1v-2h-1v-1h-2v1h1v2h1v2h-1v-2h-1v-2h-1v-1h-2v1h1v2h1v2h-3v1zM11 12h3v-8h-1v-1h-1v3h-3v1h3v1h-3v1h3v2h-1v1zM11 3h2v-3h1v-1h1v-1h-2v1h-2v-1h-1v2h1v3zM4 3h5v-3h-3v-1h3v-1h-4v1h-1v2h3v1h-3v1z" />
    <glyph glyph-name="uniAF01" unicode="&#xaf01;" 
d="M4 5h1v-1h-1v1zM1 5h1v-1h-1v1zM1 11h8v-3h-1v-2h-1v-1h-2v1h1v2h1v2h-1v-2h-1v-2h-1v-1h-2v1h1v2h1v2h-3v1zM11 12h3v-8h-1v-1h-1v3h-3v1h3v1h-3v1h3v2h-1v1zM9 3h5v-1h-3v-1h3v-1h-3v-1h3v-1h-5v5zM3 3h5v-3h-3v-1h3v-1h-4v1h-1v2h3v1h-3v1z" />
    <glyph glyph-name="uniAF02" unicode="&#xaf02;" 
d="M4 5h1v-1h-1v1zM1 5h1v-1h-1v1zM1 11h8v-3h-1v-2h-1v-1h-2v1h1v2h1v2h-1v-2h-1v-2h-1v-1h-2v1h1v2h1v2h-3v1zM11 12h3v-8h-1v-1h-1v3h-3v1h3v1h-3v1h3v2h-1v1zM11 2v-3h1v3h-1zM8 3h7v-1h-1v-3h1v-1h-7v1h1v3h-1v1zM3 3h4v-1h1v-2h-3v-1h2v-1h-3v1h-1v2h3v1h-3v1z" />
    <glyph glyph-name="uniAF03" unicode="&#xaf03;" 
d="M4 5h1v-1h-1v1zM1 5h1v-1h-1v1zM1 11h8v-3h-1v-2h-1v-1h-2v1h1v2h1v2h-1v-2h-1v-2h-1v-1h-2v1h1v2h1v2h-3v1zM11 12h3v-8h-1v-1h-1v3h-3v1h3v1h-3v1h3v2h-1v1zM11 0v-1h2v1h-2zM11 3h2v-1h2v-1h-1v-1h1v-1h-1v-1h-4v1h-1v1h1v1h-1v1h2v1zM3 3h5v-3h-3v-1h3v-1h-4v1h-1v2
h3v1h-3v1z" />
    <glyph glyph-name="uniAF04" unicode="&#xaf04;" 
d="M4 5h1v-1h-1v1zM1 5h1v-1h-1v1zM1 11h8v-3h-1v-2h-1v-1h-2v1h1v2h1v2h-1v-2h-1v-2h-1v-1h-2v1h1v2h1v2h-3v1zM11 12h3v-8h-1v-1h-1v3h-3v1h3v1h-3v1h3v2h-1v1zM8 2v-3h4v3h-4zM5 3h9v-5h-8v4h-1v1z" />
    <glyph glyph-name="uniAF05" unicode="&#xaf05;" 
d="M4 5h1v-1h-1v1zM1 5h1v-1h-1v1zM1 11h8v-3h-1v-2h-1v-1h-2v1h1v2h1v2h-1v-2h-1v-2h-1v-1h-2v1h1v2h1v2h-3v1zM11 12h3v-8h-1v-1h-1v3h-3v1h3v1h-3v1h3v2h-1v1zM8 0v-1h4v1h-4zM5 3h3v-2h4v1h-1v1h3v-5h-8v4h-1v1z" />
    <glyph glyph-name="uniAF06" unicode="&#xaf06;" 
d="M4 5h1v-1h-1v1zM1 5h1v-1h-1v1zM1 11h8v-3h-1v-2h-1v-1h-2v1h1v2h1v2h-1v-2h-1v-2h-1v-1h-2v1h1v2h1v2h-3v1zM11 12h3v-8h-1v-1h-1v3h-3v1h3v1h-3v1h3v2h-1v1zM6 0v-1h1v1h-1zM4 3h2v-2h1v2h2v-4h1v1h1v3h2v-3h2v-2h-2v1h-2v-1h-7v5z" />
    <glyph glyph-name="uniAF07" unicode="&#xaf07;" 
d="M4 5h1v-1h-1v1zM1 5h1v-1h-1v1zM1 11h8v-3h-1v-2h-1v-1h-2v1h1v2h1v2h-1v-2h-1v-2h-1v-1h-2v1h1v2h1v2h-3v1zM11 12h3v-8h-1v-1h-1v3h-3v1h3v1h-3v1h3v2h-1v1zM10 1h2v-1h1v-1h1v-1h-2v1h-1v1h-1v1zM4 -1h2v-1h-2v1zM8 3h2v-2h-1v-1h-1v-1h-2v1h1v1h1v2z" />
    <glyph glyph-name="uniAF08" unicode="&#xaf08;" 
d="M4 5h1v-1h-1v1zM1 5h1v-1h-1v1zM1 11h8v-3h-1v-2h-1v-1h-2v1h1v2h1v2h-1v-2h-1v-2h-1v-1h-2v1h1v2h1v2h-3v1zM11 12h3v-8h-1v-1h-1v3h-3v1h3v1h-3v1h3v2h-1v1zM7 3h2v-2h2v2h2v-2h1v-1h1v-1h1v-1h-2v1h-1v1h-2v-1h-1v-1h-2v1h1v1h-2v-1h-1v-1h-2v1h1v1h1v1h1v2z" />
    <glyph glyph-name="uniAF09" unicode="&#xaf09;" 
d="M4 5h1v-1h-1v1zM1 5h1v-1h-1v1zM1 11h8v-3h-1v-2h-1v-1h-2v1h1v2h1v2h-1v-2h-1v-2h-1v-1h-2v1h1v2h1v2h-3v1zM11 12h3v-8h-1v-1h-1v3h-3v1h3v1h-3v1h3v2h-1v1zM8 2v-3h4v3h-4zM7 3h6v-1h1v-3h-1v-1h-6v1h-1v3h1v1z" />
    <glyph glyph-name="uniAF0A" unicode="&#xaf0a;" 
d="M4 5h1v-1h-1v1zM1 5h1v-1h-1v1zM1 11h8v-3h-1v-2h-1v-1h-2v1h1v2h1v2h-1v-2h-1v-2h-1v-1h-2v1h1v2h1v2h-3v1zM11 12h3v-8h-1v-1h-1v3h-3v1h3v1h-3v1h3v2h-1v1zM12 -1h2v-1h-2v1zM4 -1h2v-1h-2v1zM4 3h10v-1h-4v-1h1v-1h1v-1h-2v1h-2v-1h-2v1h1v1h1v1h-4v1z" />
    <glyph glyph-name="uniAF0B" unicode="&#xaf0b;" 
d="M4 5h1v-1h-1v1zM1 5h1v-1h-1v1zM1 11h8v-3h-1v-2h-1v-1h-2v1h1v2h1v2h-1v-2h-1v-2h-1v-1h-2v1h1v2h1v2h-3v1zM11 12h3v-8h-1v-1h-1v3h-3v1h3v1h-3v1h3v2h-1v1zM12 -1h2v-1h-2v1zM4 -1h2v-1h-2v1zM8 3h2v-1h4v-1h-3v-1h1v-1h-2v1h-2v-1h-2v1h1v1h-3v1h4v1z" />
    <glyph glyph-name="uniAF0C" unicode="&#xaf0c;" 
d="M4 5h1v-1h-1v1zM1 5h1v-1h-1v1zM1 11h8v-3h-1v-2h-1v-1h-2v1h1v2h1v2h-1v-2h-1v-2h-1v-1h-2v1h1v2h1v2h-3v1zM11 12h3v-8h-1v-1h-1v3h-3v1h3v1h-3v1h3v2h-1v1zM6 3h8v-4h-1v-1h-1v2h-6v1h6v1h-6v1z" />
    <glyph glyph-name="uniAF0D" unicode="&#xaf0d;" 
d="M4 5h1v-1h-1v1zM1 5h1v-1h-1v1zM1 11h8v-3h-1v-2h-1v-1h-2v1h1v2h1v2h-1v-2h-1v-2h-1v-1h-2v1h1v2h1v2h-3v1zM11 12h3v-8h-1v-1h-1v3h-3v1h3v1h-3v1h3v2h-1v1zM5 3h9v-1h-6v-1h6v-1h-6v-1h6v-1h-7v1h-1v3h-1v1z" />
    <glyph glyph-name="uniAF0E" unicode="&#xaf0e;" 
d="M4 5h1v-1h-1v1zM1 5h1v-1h-1v1zM1 11h8v-3h-1v-2h-1v-1h-2v1h1v2h1v2h-1v-2h-1v-2h-1v-1h-2v1h1v2h1v2h-3v1zM11 12h3v-8h-1v-1h-1v3h-3v1h3v1h-3v1h3v2h-1v1zM8 2v-3h2v3h-2zM4 3h10v-1h-2v-3h2v-1h-10v1h2v3h-2v1z" />
    <glyph glyph-name="uniAF0F" unicode="&#xaf0f;" 
d="M4 5h1v-1h-1v1zM1 5h1v-1h-1v1zM1 11h8v-3h-1v-2h-1v-1h-2v1h1v2h1v2h-1v-2h-1v-2h-1v-1h-2v1h1v2h1v2h-3v1zM11 12h3v-8h-1v-1h-1v3h-3v1h3v1h-3v1h3v2h-1v1zM8 0v-1h4v1h-4zM8 3h4v-1h3v-1h-2v-1h1v-1h-1v-1h-6v1h-1v1h1v1h-2v1h3v1z" />
    <glyph glyph-name="uniAF10" unicode="&#xaf10;" 
d="M4 4h1v-1h-1v1zM1 4h1v-1h-1v1zM1 10h8v-3h-1v-2h-1v-1h-2v1h1v2h1v2h-1v-2h-1v-2h-1v-1h-2v1h1v2h1v2h-3v1zM12 12h3v-13h-1v-1h-1v13h-1v1zM9 11h3v-11h-1v-1h-1v6h-1v1h1v1h-1v1h1v2h-1v1z" />
    <glyph glyph-name="uniAF11" unicode="&#xaf11;" 
d="M4 5h1v-1h-1v1zM1 5h1v-1h-1v1zM1 11h8v-3h-1v-2h-1v-1h-2v1h1v2h1v2h-1v-2h-1v-2h-1v-1h-2v1h1v2h1v2h-3v1zM12 12h3v-8h-1v-1h-1v8h-1v1zM9 11h3v-7h-1v-1h-1v3h-1v1h1v1h-1v1h1v1h-1v1zM5 3h10v-4h-1v-1h-1v4h-8v1z" />
    <glyph glyph-name="uniAF12" unicode="&#xaf12;" 
d="M4 5h1v-1h-1v1zM1 5h1v-1h-1v1zM1 11h8v-3h-1v-2h-1v-1h-2v1h1v2h1v2h-1v-2h-1v-2h-1v-1h-2v1h1v2h1v2h-3v1zM12 12h3v-8h-1v-1h-1v8h-1v1zM9 11h3v-7h-1v-1h-1v3h-1v1h1v1h-1v1h1v1h-1v1zM4 3h11v-4h-1v-1h-1v4h-3v-3h-1v-1h-1v4h-4v1z" />
    <glyph glyph-name="uniAF13" unicode="&#xaf13;" 
d="M4 5h1v-1h-1v1zM1 5h1v-1h-1v1zM1 11h8v-3h-1v-2h-1v-1h-2v1h1v2h1v2h-1v-2h-1v-2h-1v-1h-2v1h1v2h1v2h-3v1zM12 12h3v-8h-1v-1h-1v8h-1v1zM9 11h3v-7h-1v-1h-1v3h-1v1h1v1h-1v1h1v1h-1v1zM12 3h2v-2h1v-1h1v-2h-2v2h-1v-1h-1v-1h-2v1h1v1h1v3zM4 3h6v-4h-1v-1h-1v4h-4v1
z" />
    <glyph glyph-name="uniAF14" unicode="&#xaf14;" 
d="M4 5h1v-1h-1v1zM1 5h1v-1h-1v1zM1 11h8v-3h-1v-2h-1v-1h-2v1h1v2h1v2h-1v-2h-1v-2h-1v-1h-2v1h1v2h1v2h-3v1zM12 12h3v-8h-1v-1h-1v8h-1v1zM9 11h3v-7h-1v-1h-1v3h-1v1h1v1h-1v1h1v1h-1v1zM5 3h3v-4h7v-1h-8v1h-1v3h-1v1z" />
    <glyph glyph-name="uniAF15" unicode="&#xaf15;" 
d="M4 5h1v-1h-1v1zM1 5h1v-1h-1v1zM1 11h8v-3h-1v-2h-1v-1h-2v1h1v2h1v2h-1v-2h-1v-2h-1v-1h-2v1h1v2h1v2h-3v1zM12 12h3v-8h-1v-1h-1v8h-1v1zM9 11h3v-7h-1v-1h-1v3h-1v1h1v1h-1v1h1v1h-1v1zM9 3h6v-1h-2v-2h1v-1h1v-1h-2v1h-2v-1h-2v1h1v1h1v2h-2v1zM3 3h3v-4h2v-1h-3v1
h-1v3h-1v1z" />
    <glyph glyph-name="uniAF16" unicode="&#xaf16;" 
d="M4 5h1v-1h-1v1zM1 5h1v-1h-1v1zM1 11h8v-3h-1v-2h-1v-1h-2v1h1v2h1v2h-1v-2h-1v-2h-1v-1h-2v1h1v2h1v2h-3v1zM12 12h3v-8h-1v-1h-1v8h-1v1zM9 11h3v-7h-1v-1h-1v3h-1v1h1v1h-1v1h1v1h-1v1zM11 0v-1h2v1h-2zM11 3h2v-1h2v-1h-1v-1h1v-1h-1v-1h-4v1h-1v1h1v1h-1v1h2v1zM3 3
h3v-4h3v-1h-4v1h-1v3h-1v1z" />
    <glyph glyph-name="uniAF17" unicode="&#xaf17;" 
d="M4 5h1v-1h-1v1zM1 5h1v-1h-1v1zM1 11h8v-3h-1v-2h-1v-1h-2v1h1v2h1v2h-1v-2h-1v-2h-1v-1h-2v1h1v2h1v2h-3v1zM12 12h3v-8h-1v-1h-1v8h-1v1zM9 11h3v-7h-1v-1h-1v3h-1v1h1v1h-1v1h1v1h-1v1zM5 3h9v-1h-6v-3h6v-1h-7v1h-1v3h-1v1z" />
    <glyph glyph-name="uniAF18" unicode="&#xaf18;" 
d="M4 5h1v-1h-1v1zM1 5h1v-1h-1v1zM1 11h8v-3h-1v-2h-1v-1h-2v1h1v2h1v2h-1v-2h-1v-2h-1v-1h-2v1h1v2h1v2h-3v1zM12 12h3v-8h-1v-1h-1v8h-1v1zM9 11h3v-7h-1v-1h-1v3h-1v1h1v1h-1v1h1v1h-1v1zM6 3h9v-3h-7v-1h7v-1h-8v1h-1v2h7v1h-7v1z" />
    <glyph glyph-name="uniAF19" unicode="&#xaf19;" 
d="M4 5h1v-1h-1v1zM1 5h1v-1h-1v1zM1 11h8v-3h-1v-2h-1v-1h-2v1h1v2h1v2h-1v-2h-1v-2h-1v-1h-2v1h1v2h1v2h-3v1zM12 12h3v-8h-1v-1h-1v8h-1v1zM9 11h3v-7h-1v-1h-1v3h-1v1h1v1h-1v1h1v1h-1v1zM11 3h4v-4h-1v-1h-1v4h-2v1zM5 3h5v-3h-3v-1h3v-1h-4v1h-1v2h3v1h-3v1z" />
    <glyph glyph-name="uniAF1A" unicode="&#xaf1a;" 
d="M4 5h1v-1h-1v1zM1 5h1v-1h-1v1zM1 11h8v-3h-1v-2h-1v-1h-2v1h1v2h1v2h-1v-2h-1v-2h-1v-1h-2v1h1v2h1v2h-3v1zM12 12h3v-8h-1v-1h-1v8h-1v1zM9 11h3v-7h-1v-1h-1v3h-1v1h1v1h-1v1h1v1h-1v1zM12 2v-3h1v3h-1zM10 3h5v-5h-5v5zM4 3h5v-3h-3v-1h3v-1h-4v1h-1v2h3v1h-3v1z" />
    </font>
</defs>
</svg>
